%TF.GenerationSoftware,KiCad,Pcbnew,(5.1.10)-1*%
%TF.CreationDate,2022-11-13T15:12:26-08:00*%
%TF.ProjectId,-ZFace,2d5a4661-6365-42e6-9b69-6361645f7063,1.0*%
%TF.SameCoordinates,Original*%
%TF.FileFunction,Copper,L3,Inr*%
%TF.FilePolarity,Positive*%
%FSLAX46Y46*%
G04 Gerber Fmt 4.6, Leading zero omitted, Abs format (unit mm)*
G04 Created by KiCad (PCBNEW (5.1.10)-1) date 2022-11-13 15:12:26*
%MOMM*%
%LPD*%
G01*
G04 APERTURE LIST*
%TA.AperFunction,ComponentPad*%
%ADD10C,1.750000*%
%TD*%
%TA.AperFunction,ComponentPad*%
%ADD11C,1.800000*%
%TD*%
%TA.AperFunction,ComponentPad*%
%ADD12C,1.030000*%
%TD*%
%TA.AperFunction,ComponentPad*%
%ADD13C,4.900000*%
%TD*%
%TA.AperFunction,ViaPad*%
%ADD14C,0.800000*%
%TD*%
%TA.AperFunction,Conductor*%
%ADD15C,0.500000*%
%TD*%
%TA.AperFunction,Conductor*%
%ADD16C,0.250000*%
%TD*%
G04 APERTURE END LIST*
D10*
%TO.N,Net-(J8-Pad1)*%
%TO.C,J8*%
X158200000Y-83750000D03*
%TO.N,Net-(J8-Pad2)*%
X158200000Y-80250000D03*
%TD*%
D11*
%TO.N,Net-(J6-Pad2)*%
%TO.C,J7*%
X163000000Y-83800000D03*
%TO.N,Net-(J6-Pad1)*%
X163000000Y-80300000D03*
%TD*%
D12*
%TO.N,Net-(J6-Pad2)*%
%TO.C,J6*%
X163150000Y-93325000D03*
%TO.N,Net-(J6-Pad1)*%
X163150000Y-91775000D03*
%TD*%
D13*
%TO.N,Net-(J13-Pad1)*%
%TO.C,J13*%
X200450000Y-96250000D03*
%TD*%
%TO.N,Net-(J12-Pad1)*%
%TO.C,J12*%
X160500000Y-41550000D03*
%TD*%
%TO.N,Net-(J11-Pad1)*%
%TO.C,J11*%
X120550000Y-67750000D03*
%TD*%
%TO.N,Net-(J14-Pad1)*%
%TO.C,J14*%
X160500000Y-122450000D03*
%TD*%
D14*
%TO.N,GND*%
X121000000Y-78300000D03*
X124300000Y-85050000D03*
X121000000Y-74900000D03*
X152950000Y-71250000D03*
X139150000Y-66800000D03*
X125700000Y-95500000D03*
X132950000Y-124600000D03*
X178650000Y-96100000D03*
X150810000Y-67740000D03*
X202400000Y-110600000D03*
X155400000Y-100950000D03*
%TO.N,VSOLAR*%
X119950000Y-87500000D03*
X135725000Y-41875000D03*
X119925000Y-106775000D03*
X116050000Y-72800000D03*
X123000000Y-124750000D03*
%TO.N,3V3*%
X128800000Y-51350000D03*
X189600000Y-114850000D03*
X125575000Y-83875000D03*
X181300000Y-48400000D03*
%TO.N,Net-(D1-Pad1)*%
X151700000Y-62400000D03*
X175000000Y-62400000D03*
%TO.N,+MagZ*%
X175700000Y-102200000D03*
X125450000Y-80350000D03*
X125450000Y-81600000D03*
%TO.N,-MagY*%
X123250000Y-81050000D03*
X126100000Y-85500000D03*
X201150000Y-55000000D03*
%TO.N,+MagY*%
X122200000Y-81800000D03*
X125285000Y-102965000D03*
X178775000Y-47725000D03*
%TO.N,-MagX*%
X121050000Y-82450000D03*
X181465000Y-116135000D03*
X122050000Y-52250000D03*
%TO.N,+MagX*%
X119700000Y-83000000D03*
X139543205Y-44356795D03*
X190500000Y-114000000D03*
%TO.N,SCL4*%
X125750000Y-87100000D03*
X140500000Y-77100000D03*
%TO.N,SDA4*%
X125550000Y-88400000D03*
X138900000Y-77500000D03*
%TO.N,SCL5*%
X143814999Y-64224999D03*
%TO.N,SDA5*%
X146450000Y-64950000D03*
X141300000Y-64950000D03*
%TD*%
D15*
%TO.N,VSOLAR*%
X129175404Y-41875000D02*
X116050000Y-55000404D01*
X135725000Y-41875000D02*
X129175404Y-41875000D01*
X116050000Y-83600000D02*
X119950000Y-87500000D01*
X116050000Y-55000404D02*
X116050000Y-72800000D01*
X119950000Y-106750000D02*
X119925000Y-106775000D01*
X119950000Y-87500000D02*
X119950000Y-106750000D01*
X116050000Y-72800000D02*
X116050000Y-83600000D01*
X119925000Y-106775000D02*
X119925000Y-121625000D01*
X119925000Y-121625000D02*
X122950000Y-124650000D01*
D16*
%TO.N,+MagZ*%
X174050000Y-106300000D02*
X173900000Y-106300000D01*
X176250000Y-102750000D02*
X175700000Y-102200000D01*
X176250000Y-102800000D02*
X176250000Y-102750000D01*
X182300000Y-102800000D02*
X176250000Y-102800000D01*
X182550000Y-102550000D02*
X182300000Y-102800000D01*
X182300000Y-60850000D02*
X182550000Y-61100000D01*
X138300000Y-60850000D02*
X182300000Y-60850000D01*
X138050000Y-61100000D02*
X138300000Y-60850000D01*
X138050000Y-103150000D02*
X138050000Y-61100000D01*
X182550000Y-103300000D02*
X138200000Y-103300000D01*
X183050000Y-102800000D02*
X182550000Y-103300000D01*
X183050000Y-60900000D02*
X183050000Y-102800000D01*
X138050000Y-60350000D02*
X182500000Y-60350000D01*
X137500000Y-60900000D02*
X138050000Y-60350000D01*
X137500000Y-103300000D02*
X137500000Y-60900000D01*
X138050000Y-103850000D02*
X137500000Y-103300000D01*
X182800000Y-103850000D02*
X138050000Y-103850000D01*
X183500000Y-103150000D02*
X182800000Y-103850000D01*
X182750000Y-59850000D02*
X183500000Y-60600000D01*
X137800000Y-59850000D02*
X182750000Y-59850000D01*
X137050000Y-60600000D02*
X137800000Y-59850000D01*
X137800000Y-104350000D02*
X137050000Y-103600000D01*
X184000000Y-103400000D02*
X183050000Y-104350000D01*
X184000000Y-60350000D02*
X184000000Y-103400000D01*
X183000000Y-59350000D02*
X184000000Y-60350000D01*
X135550000Y-104350000D02*
X135550000Y-59850000D01*
X137050000Y-58350000D02*
X183500000Y-58350000D01*
X137050000Y-103600000D02*
X137050000Y-60600000D01*
X183800000Y-105850000D02*
X137050000Y-105850000D01*
X135550000Y-59850000D02*
X137050000Y-58350000D01*
X138200000Y-103300000D02*
X138050000Y-103150000D01*
X137550000Y-104850000D02*
X136550000Y-103850000D01*
X185500000Y-59550000D02*
X185500000Y-104150000D01*
X182500000Y-60350000D02*
X183050000Y-60900000D01*
X183500000Y-58350000D02*
X185000000Y-59850000D01*
X183800000Y-57850000D02*
X185500000Y-59550000D01*
X183050000Y-104350000D02*
X137800000Y-104350000D01*
X183250000Y-104850000D02*
X137550000Y-104850000D01*
X136800000Y-57850000D02*
X183800000Y-57850000D01*
X137300000Y-105350000D02*
X136050000Y-104100000D01*
X135050000Y-104650000D02*
X135050000Y-59600000D01*
X136550000Y-103850000D02*
X136550000Y-60350000D01*
X183500000Y-60600000D02*
X183500000Y-103150000D01*
X135050000Y-59600000D02*
X136800000Y-57850000D01*
X185000000Y-103850000D02*
X183500000Y-105350000D01*
X136700000Y-106300000D02*
X135050000Y-104650000D01*
X183500000Y-105350000D02*
X137300000Y-105350000D01*
X182550000Y-61100000D02*
X182550000Y-102550000D01*
X173900000Y-106300000D02*
X136700000Y-106300000D01*
X136050000Y-104100000D02*
X136050000Y-60050000D01*
X185000000Y-59850000D02*
X185000000Y-103850000D01*
X136050000Y-60050000D02*
X137250000Y-58850000D01*
X137050000Y-105850000D02*
X135550000Y-104350000D01*
X137250000Y-58850000D02*
X183250000Y-58850000D01*
X183250000Y-58850000D02*
X184500000Y-60100000D01*
X185500000Y-104150000D02*
X183800000Y-105850000D01*
X184500000Y-60100000D02*
X184500000Y-103600000D01*
X137550000Y-59350000D02*
X183000000Y-59350000D01*
X184500000Y-103600000D02*
X183250000Y-104850000D01*
X136550000Y-60350000D02*
X137550000Y-59350000D01*
X186050000Y-104300000D02*
X184050000Y-106300000D01*
X186050000Y-59400000D02*
X186050000Y-104300000D01*
X184000000Y-57350000D02*
X186050000Y-59400000D01*
X136550000Y-57350000D02*
X184000000Y-57350000D01*
X134550000Y-59350000D02*
X136550000Y-57350000D01*
X134550000Y-104800000D02*
X134550000Y-59350000D01*
X136600000Y-106850000D02*
X134550000Y-104800000D01*
X184200000Y-106850000D02*
X136600000Y-106850000D01*
X186500000Y-104550000D02*
X184200000Y-106850000D01*
X186500000Y-59150000D02*
X186500000Y-104550000D01*
X184250000Y-56900000D02*
X186500000Y-59150000D01*
X136250000Y-56900000D02*
X184250000Y-56900000D01*
X134050000Y-59100000D02*
X136250000Y-56900000D01*
X134050000Y-105100000D02*
X134050000Y-59100000D01*
X136300000Y-107350000D02*
X134050000Y-105100000D01*
X184500000Y-107350000D02*
X136300000Y-107350000D01*
X187000000Y-104850000D02*
X184500000Y-107350000D01*
X187000000Y-58800000D02*
X187000000Y-104850000D01*
X184550000Y-56350000D02*
X187000000Y-58800000D01*
X136050000Y-56350000D02*
X184550000Y-56350000D01*
X133550000Y-58850000D02*
X136050000Y-56350000D01*
X133550000Y-105350000D02*
X133550000Y-58850000D01*
X136050000Y-107850000D02*
X133550000Y-105350000D01*
X184750000Y-107850000D02*
X136050000Y-107850000D01*
X187550000Y-105050000D02*
X184750000Y-107850000D01*
X187550000Y-58650000D02*
X187550000Y-105050000D01*
X184750000Y-55850000D02*
X187550000Y-58650000D01*
X185800000Y-53850000D02*
X189500000Y-57550000D01*
X186600000Y-111300000D02*
X134250000Y-111300000D01*
X131000000Y-106550000D02*
X131000000Y-57650000D01*
X190000000Y-106350000D02*
X186000000Y-110350000D01*
X190000000Y-57350000D02*
X190000000Y-106350000D01*
X186000000Y-53350000D02*
X190000000Y-57350000D01*
X134550000Y-53350000D02*
X186000000Y-53350000D01*
X130550000Y-57350000D02*
X134550000Y-53350000D01*
X188000000Y-105400000D02*
X185050000Y-108350000D01*
X130550000Y-106850000D02*
X130550000Y-57350000D01*
X134550000Y-110850000D02*
X130550000Y-106850000D01*
X186300000Y-110850000D02*
X134550000Y-110850000D01*
X188550000Y-105600000D02*
X185350000Y-108800000D01*
X131000000Y-57650000D02*
X134800000Y-53850000D01*
X190550000Y-106600000D02*
X186300000Y-110850000D01*
X176350000Y-52350000D02*
X176500000Y-52350000D01*
X135800000Y-108350000D02*
X133050000Y-105600000D01*
X186000000Y-110350000D02*
X134800000Y-110350000D01*
X190550000Y-57150000D02*
X190550000Y-106600000D01*
X185500000Y-109350000D02*
X135300000Y-109350000D01*
X134800000Y-53850000D02*
X185800000Y-53850000D01*
X191000000Y-56850000D02*
X191000000Y-106900000D01*
X176350000Y-52350000D02*
X186500000Y-52350000D01*
X133050000Y-105600000D02*
X133050000Y-58550000D01*
X134800000Y-110350000D02*
X131000000Y-106550000D01*
X191000000Y-106900000D02*
X186600000Y-111300000D01*
X189500000Y-57550000D02*
X189500000Y-106100000D01*
X184050000Y-106300000D02*
X173900000Y-106300000D01*
X189000000Y-57850000D02*
X189000000Y-105850000D01*
X134250000Y-111300000D02*
X130050000Y-107100000D01*
X189000000Y-105850000D02*
X185500000Y-109350000D01*
X186500000Y-52350000D02*
X191000000Y-56850000D01*
X135500000Y-108800000D02*
X132550000Y-105850000D01*
X130050000Y-107100000D02*
X130050000Y-57100000D01*
X188000000Y-58350000D02*
X188000000Y-105400000D01*
X134300000Y-52850000D02*
X186250000Y-52850000D01*
X130050000Y-57100000D02*
X134300000Y-52850000D01*
X186250000Y-52850000D02*
X190550000Y-57150000D01*
X189500000Y-106100000D02*
X185750000Y-109850000D01*
X185750000Y-109850000D02*
X135000000Y-109850000D01*
X135000000Y-109850000D02*
X131550000Y-106400000D01*
X131550000Y-106400000D02*
X131550000Y-57850000D01*
X131550000Y-57850000D02*
X135050000Y-54350000D01*
X135050000Y-54350000D02*
X185500000Y-54350000D01*
X185500000Y-54350000D02*
X189000000Y-57850000D01*
X135300000Y-109350000D02*
X132050000Y-106100000D01*
X132050000Y-106100000D02*
X132050000Y-58100000D01*
X132050000Y-58100000D02*
X135300000Y-54850000D01*
X135300000Y-54850000D02*
X185250000Y-54850000D01*
X185250000Y-54850000D02*
X188550000Y-58150000D01*
X188550000Y-58150000D02*
X188550000Y-105600000D01*
X185350000Y-108800000D02*
X135500000Y-108800000D01*
X132550000Y-105850000D02*
X132550000Y-58350000D01*
X132550000Y-58350000D02*
X135550000Y-55350000D01*
X135550000Y-55350000D02*
X185000000Y-55350000D01*
X185000000Y-55350000D02*
X188000000Y-58350000D01*
X185050000Y-108350000D02*
X135800000Y-108350000D01*
X133050000Y-58550000D02*
X135750000Y-55850000D01*
X135750000Y-55850000D02*
X184750000Y-55850000D01*
X129550000Y-56850000D02*
X134050000Y-52350000D01*
X134000000Y-111800000D02*
X129550000Y-107350000D01*
X186750000Y-51850000D02*
X191500000Y-56600000D01*
X134050000Y-52350000D02*
X176350000Y-52350000D01*
X133800000Y-51850000D02*
X186750000Y-51850000D01*
X129550000Y-107350000D02*
X129550000Y-56850000D01*
X129050000Y-56600000D02*
X133800000Y-51850000D01*
X186800000Y-111800000D02*
X134000000Y-111800000D01*
X129050000Y-107600000D02*
X129050000Y-56600000D01*
X187300000Y-50900000D02*
X192500000Y-56100000D01*
X192500000Y-56100000D02*
X192500000Y-107650000D01*
X192500000Y-107650000D02*
X187300000Y-112850000D01*
X187300000Y-112850000D02*
X133550000Y-112850000D01*
X133550000Y-112850000D02*
X128550000Y-107850000D01*
X128550000Y-107850000D02*
X128550000Y-56350000D01*
X128550000Y-56350000D02*
X133550000Y-51350000D01*
X192050000Y-56400000D02*
X192050000Y-107250000D01*
X133550000Y-51350000D02*
X187000000Y-51350000D01*
X191500000Y-56600000D02*
X191500000Y-107100000D01*
X192050000Y-107250000D02*
X186950000Y-112350000D01*
X186950000Y-112350000D02*
X133800000Y-112350000D01*
X187000000Y-51350000D02*
X192050000Y-56400000D01*
X191500000Y-107100000D02*
X186800000Y-111800000D01*
X133800000Y-112350000D02*
X129050000Y-107600000D01*
X187300000Y-50900000D02*
X177050000Y-50900000D01*
X177300000Y-50900000D02*
X177050000Y-50900000D01*
X126550000Y-55350000D02*
X126550000Y-79250000D01*
X188000000Y-49350000D02*
X132550000Y-49350000D01*
X194000000Y-108400000D02*
X194000000Y-55350000D01*
X132800000Y-114350000D02*
X188050000Y-114350000D01*
X188050000Y-114350000D02*
X194000000Y-108400000D01*
X127050000Y-108600000D02*
X132800000Y-114350000D01*
X127050000Y-55550000D02*
X127050000Y-108600000D01*
X193550000Y-55600000D02*
X187800000Y-49850000D01*
X132550000Y-49350000D02*
X126550000Y-55350000D01*
X187800000Y-49850000D02*
X132750000Y-49850000D01*
X177050000Y-50900000D02*
X133250000Y-50900000D01*
X132750000Y-49850000D02*
X127050000Y-55550000D01*
X187550000Y-113350000D02*
X193000000Y-107900000D01*
X193000000Y-107900000D02*
X193000000Y-55800000D01*
X133250000Y-50900000D02*
X128050000Y-56100000D01*
X194000000Y-55350000D02*
X188000000Y-49350000D01*
X128050000Y-56100000D02*
X128050000Y-108100000D01*
X128050000Y-108100000D02*
X133300000Y-113350000D01*
X187750000Y-113850000D02*
X193550000Y-108050000D01*
X133300000Y-113350000D02*
X187550000Y-113350000D01*
X133050000Y-50350000D02*
X127550000Y-55850000D01*
X193000000Y-55800000D02*
X187550000Y-50350000D01*
X133050000Y-113850000D02*
X187750000Y-113850000D01*
X187550000Y-50350000D02*
X133050000Y-50350000D01*
X127550000Y-55850000D02*
X127550000Y-108350000D01*
X193550000Y-108050000D02*
X193550000Y-55600000D01*
X127550000Y-108350000D02*
X133050000Y-113850000D01*
X126550000Y-80500000D02*
X125450000Y-81600000D01*
X126550000Y-79250000D02*
X126550000Y-80500000D01*
%TO.N,+MagY*%
X122200000Y-99880000D02*
X125285000Y-102965000D01*
X122200000Y-81800000D02*
X122200000Y-99880000D01*
X122200000Y-81800000D02*
X122200000Y-80150000D01*
X122200000Y-80150000D02*
X123650000Y-78700000D01*
X123650000Y-78700000D02*
X123650000Y-48850000D01*
X123650000Y-48850000D02*
X127025000Y-45475000D01*
X171325000Y-45475000D02*
X176525000Y-45475000D01*
X127025000Y-45475000D02*
X171325000Y-45475000D01*
X176525000Y-45475000D02*
X178750000Y-47700000D01*
%TO.N,+MagX*%
X119700000Y-83000000D02*
X119700000Y-81100000D01*
X117774999Y-79174999D02*
X117774999Y-54088591D01*
X119700000Y-81100000D02*
X117774999Y-79174999D01*
X127506795Y-44356795D02*
X139543205Y-44356795D01*
X117774999Y-54088591D02*
X127506795Y-44356795D01*
X139543205Y-44356795D02*
X139543205Y-44356795D01*
X190500000Y-114000000D02*
X190500000Y-114000000D01*
X190500000Y-115557002D02*
X190500000Y-114000000D01*
X121050000Y-109473002D02*
X130138499Y-118561501D01*
X187495501Y-118561501D02*
X190500000Y-115557002D01*
X121050000Y-86100000D02*
X121050000Y-109473002D01*
X119700000Y-84750000D02*
X121050000Y-86100000D01*
X130138499Y-118561501D02*
X187495501Y-118561501D01*
X119700000Y-83000000D02*
X119700000Y-84750000D01*
%TD*%
M02*
