%TF.GenerationSoftware,KiCad,Pcbnew,(5.1.10)-1*%
%TF.CreationDate,2022-11-13T15:12:26-08:00*%
%TF.ProjectId,-ZFace,2d5a4661-6365-42e6-9b69-6361645f7063,1.0*%
%TF.SameCoordinates,Original*%
%TF.FileFunction,Copper,L4,Bot*%
%TF.FilePolarity,Positive*%
%FSLAX46Y46*%
G04 Gerber Fmt 4.6, Leading zero omitted, Abs format (unit mm)*
G04 Created by KiCad (PCBNEW (5.1.10)-1) date 2022-11-13 15:12:26*
%MOMM*%
%LPD*%
G01*
G04 APERTURE LIST*
%TA.AperFunction,ComponentPad*%
%ADD10C,1.750000*%
%TD*%
%TA.AperFunction,ComponentPad*%
%ADD11C,1.800000*%
%TD*%
%TA.AperFunction,ComponentPad*%
%ADD12C,1.030000*%
%TD*%
%TA.AperFunction,SMDPad,CuDef*%
%ADD13R,2.000000X2.000000*%
%TD*%
%TA.AperFunction,ComponentPad*%
%ADD14C,4.900000*%
%TD*%
%TA.AperFunction,SMDPad,CuDef*%
%ADD15R,0.300000X0.750000*%
%TD*%
%TA.AperFunction,SMDPad,CuDef*%
%ADD16R,1.450000X1.750000*%
%TD*%
%TA.AperFunction,SMDPad,CuDef*%
%ADD17R,0.600000X0.720000*%
%TD*%
%TA.AperFunction,SMDPad,CuDef*%
%ADD18R,3.000000X13.000000*%
%TD*%
%TA.AperFunction,SMDPad,CuDef*%
%ADD19R,2.500000X1.700000*%
%TD*%
%TA.AperFunction,ViaPad*%
%ADD20C,0.800000*%
%TD*%
%TA.AperFunction,Conductor*%
%ADD21C,0.250000*%
%TD*%
%TA.AperFunction,Conductor*%
%ADD22C,0.500000*%
%TD*%
%TA.AperFunction,Conductor*%
%ADD23C,0.254000*%
%TD*%
%TA.AperFunction,Conductor*%
%ADD24C,0.100000*%
%TD*%
G04 APERTURE END LIST*
D10*
%TO.P,J8,1*%
%TO.N,Net-(J8-Pad1)*%
X158200000Y-83750000D03*
%TO.P,J8,2*%
%TO.N,Net-(J8-Pad2)*%
X158200000Y-80250000D03*
%TD*%
D11*
%TO.P,J7,1*%
%TO.N,Net-(J6-Pad2)*%
X163000000Y-83800000D03*
%TO.P,J7,2*%
%TO.N,Net-(J6-Pad1)*%
X163000000Y-80300000D03*
%TD*%
D12*
%TO.P,J6,2*%
%TO.N,Net-(J6-Pad2)*%
X163150000Y-93325000D03*
%TO.P,J6,1*%
%TO.N,Net-(J6-Pad1)*%
X163150000Y-91775000D03*
%TD*%
D13*
%TO.P,J10,1*%
%TO.N,VSOLAR*%
X126700000Y-125600000D03*
%TD*%
%TO.P,J9,1*%
%TO.N,GND*%
X130000000Y-125600000D03*
%TD*%
D14*
%TO.P,J13,1*%
%TO.N,Net-(J13-Pad1)*%
X200450000Y-96250000D03*
%TD*%
%TO.P,J12,1*%
%TO.N,Net-(J12-Pad1)*%
X160500000Y-41550000D03*
%TD*%
%TO.P,J11,1*%
%TO.N,Net-(J11-Pad1)*%
X120550000Y-67750000D03*
%TD*%
%TO.P,J14,1*%
%TO.N,Net-(J14-Pad1)*%
X160500000Y-122450000D03*
%TD*%
%TO.P,R3,2*%
%TO.N,SCL5*%
%TA.AperFunction,SMDPad,CuDef*%
G36*
G01*
X145175000Y-66450000D02*
X144625000Y-66450000D01*
G75*
G02*
X144425000Y-66250000I0J200000D01*
G01*
X144425000Y-65850000D01*
G75*
G02*
X144625000Y-65650000I200000J0D01*
G01*
X145175000Y-65650000D01*
G75*
G02*
X145375000Y-65850000I0J-200000D01*
G01*
X145375000Y-66250000D01*
G75*
G02*
X145175000Y-66450000I-200000J0D01*
G01*
G37*
%TD.AperFunction*%
%TO.P,R3,1*%
%TO.N,3V3*%
%TA.AperFunction,SMDPad,CuDef*%
G36*
G01*
X145175000Y-68100000D02*
X144625000Y-68100000D01*
G75*
G02*
X144425000Y-67900000I0J200000D01*
G01*
X144425000Y-67500000D01*
G75*
G02*
X144625000Y-67300000I200000J0D01*
G01*
X145175000Y-67300000D01*
G75*
G02*
X145375000Y-67500000I0J-200000D01*
G01*
X145375000Y-67900000D01*
G75*
G02*
X145175000Y-68100000I-200000J0D01*
G01*
G37*
%TD.AperFunction*%
%TD*%
D15*
%TO.P,U2,5*%
%TO.N,GND*%
X143700000Y-68850000D03*
%TO.P,U2,6*%
X143200000Y-68850000D03*
%TO.P,U2,8*%
%TO.N,3V3*%
X142200000Y-68850000D03*
%TO.P,U2,7*%
%TO.N,GND*%
X142700000Y-68850000D03*
%TO.P,U2,4*%
X143700000Y-65950000D03*
%TO.P,U2,3*%
%TO.N,Net-(U2-Pad3)*%
X143200000Y-65950000D03*
%TO.P,U2,2*%
%TO.N,SCL5*%
X142700000Y-65950000D03*
%TO.P,U2,1*%
%TO.N,SDA5*%
X142200000Y-65950000D03*
D16*
%TO.P,U2,9*%
%TO.N,GND*%
X142950000Y-67400000D03*
%TD*%
D17*
%TO.P,U1,7*%
%TO.N,SCL5*%
X149450000Y-66770000D03*
%TO.P,U1,2*%
%TO.N,Net-(U1-Pad2)*%
X148050000Y-66770000D03*
%TO.P,U1,6*%
%TO.N,GND*%
X149450000Y-67740000D03*
%TO.P,U1,3*%
%TO.N,Net-(U1-Pad3)*%
X148050000Y-67740000D03*
%TO.P,U1,4*%
X148050000Y-68710000D03*
%TO.P,U1,1*%
%TO.N,SDA5*%
X148050000Y-65800000D03*
%TO.P,U1,5*%
%TO.N,3V3*%
X149450000Y-68710000D03*
%TO.P,U1,8*%
X149450000Y-65800000D03*
%TD*%
D18*
%TO.P,SC6,2*%
%TO.N,GND*%
X205800000Y-110800000D03*
%TO.P,SC6,1*%
%TO.N,Net-(D5-Pad2)*%
X165800000Y-110800000D03*
%TD*%
%TO.P,SC5,2*%
%TO.N,Net-(D5-Pad2)*%
X165800000Y-82000000D03*
%TO.P,SC5,1*%
%TO.N,Net-(D4-Pad2)*%
X205800000Y-82000000D03*
%TD*%
%TO.P,SC4,2*%
%TO.N,Net-(D4-Pad2)*%
X205800000Y-53000000D03*
%TO.P,SC4,1*%
%TO.N,Net-(D1-Pad1)*%
X165800000Y-53000000D03*
%TD*%
%TO.P,SC3,2*%
%TO.N,GND*%
X155200000Y-110800000D03*
%TO.P,SC3,1*%
%TO.N,Net-(D2-Pad2)*%
X115200000Y-110800000D03*
%TD*%
%TO.P,SC2,2*%
%TO.N,Net-(D2-Pad2)*%
X115200000Y-82000000D03*
%TO.P,SC2,1*%
%TO.N,Net-(D1-Pad2)*%
X155200000Y-82000000D03*
%TD*%
%TO.P,SC1,2*%
%TO.N,Net-(D1-Pad2)*%
X155200000Y-53000000D03*
%TO.P,SC1,1*%
%TO.N,Net-(D1-Pad1)*%
X115200000Y-53000000D03*
%TD*%
%TO.P,R4,2*%
%TO.N,SDA5*%
%TA.AperFunction,SMDPad,CuDef*%
G36*
G01*
X146725000Y-66450000D02*
X146175000Y-66450000D01*
G75*
G02*
X145975000Y-66250000I0J200000D01*
G01*
X145975000Y-65850000D01*
G75*
G02*
X146175000Y-65650000I200000J0D01*
G01*
X146725000Y-65650000D01*
G75*
G02*
X146925000Y-65850000I0J-200000D01*
G01*
X146925000Y-66250000D01*
G75*
G02*
X146725000Y-66450000I-200000J0D01*
G01*
G37*
%TD.AperFunction*%
%TO.P,R4,1*%
%TO.N,3V3*%
%TA.AperFunction,SMDPad,CuDef*%
G36*
G01*
X146725000Y-68100000D02*
X146175000Y-68100000D01*
G75*
G02*
X145975000Y-67900000I0J200000D01*
G01*
X145975000Y-67500000D01*
G75*
G02*
X146175000Y-67300000I200000J0D01*
G01*
X146725000Y-67300000D01*
G75*
G02*
X146925000Y-67500000I0J-200000D01*
G01*
X146925000Y-67900000D01*
G75*
G02*
X146725000Y-68100000I-200000J0D01*
G01*
G37*
%TD.AperFunction*%
%TD*%
D19*
%TO.P,D7,2*%
%TO.N,Net-(D1-Pad1)*%
X129250000Y-67000000D03*
%TO.P,D7,1*%
%TO.N,VSOLAR*%
X125250000Y-67000000D03*
%TD*%
%TO.P,D6,2*%
%TO.N,GND*%
X181150000Y-96100000D03*
%TO.P,D6,1*%
%TO.N,Net-(D5-Pad2)*%
X185150000Y-96100000D03*
%TD*%
%TO.P,D5,2*%
%TO.N,Net-(D5-Pad2)*%
X190550000Y-96100000D03*
%TO.P,D5,1*%
%TO.N,Net-(D4-Pad2)*%
X194550000Y-96100000D03*
%TD*%
%TO.P,D4,2*%
%TO.N,Net-(D4-Pad2)*%
X188750000Y-67500000D03*
%TO.P,D4,1*%
%TO.N,Net-(D1-Pad1)*%
X184750000Y-67500000D03*
%TD*%
%TO.P,D3,2*%
%TO.N,GND*%
X130000000Y-96000000D03*
%TO.P,D3,1*%
%TO.N,Net-(D2-Pad2)*%
X134000000Y-96000000D03*
%TD*%
%TO.P,D2,2*%
%TO.N,Net-(D2-Pad2)*%
X139500000Y-96000000D03*
%TO.P,D2,1*%
%TO.N,Net-(D1-Pad2)*%
X143500000Y-96000000D03*
%TD*%
%TO.P,D1,2*%
%TO.N,Net-(D1-Pad2)*%
X136900000Y-67000000D03*
%TO.P,D1,1*%
%TO.N,Net-(D1-Pad1)*%
X132900000Y-67000000D03*
%TD*%
%TO.P,C3,2*%
%TO.N,GND*%
%TA.AperFunction,SMDPad,CuDef*%
G36*
G01*
X141275000Y-67300000D02*
X140325000Y-67300000D01*
G75*
G02*
X140075000Y-67050000I0J250000D01*
G01*
X140075000Y-66550000D01*
G75*
G02*
X140325000Y-66300000I250000J0D01*
G01*
X141275000Y-66300000D01*
G75*
G02*
X141525000Y-66550000I0J-250000D01*
G01*
X141525000Y-67050000D01*
G75*
G02*
X141275000Y-67300000I-250000J0D01*
G01*
G37*
%TD.AperFunction*%
%TO.P,C3,1*%
%TO.N,3V3*%
%TA.AperFunction,SMDPad,CuDef*%
G36*
G01*
X141275000Y-69200000D02*
X140325000Y-69200000D01*
G75*
G02*
X140075000Y-68950000I0J250000D01*
G01*
X140075000Y-68450000D01*
G75*
G02*
X140325000Y-68200000I250000J0D01*
G01*
X141275000Y-68200000D01*
G75*
G02*
X141525000Y-68450000I0J-250000D01*
G01*
X141525000Y-68950000D01*
G75*
G02*
X141275000Y-69200000I-250000J0D01*
G01*
G37*
%TD.AperFunction*%
%TD*%
%TO.P,C2,2*%
%TO.N,3V3*%
%TA.AperFunction,SMDPad,CuDef*%
G36*
G01*
X151550000Y-68775000D02*
X151550000Y-69725000D01*
G75*
G02*
X151300000Y-69975000I-250000J0D01*
G01*
X150800000Y-69975000D01*
G75*
G02*
X150550000Y-69725000I0J250000D01*
G01*
X150550000Y-68775000D01*
G75*
G02*
X150800000Y-68525000I250000J0D01*
G01*
X151300000Y-68525000D01*
G75*
G02*
X151550000Y-68775000I0J-250000D01*
G01*
G37*
%TD.AperFunction*%
%TO.P,C2,1*%
%TO.N,GND*%
%TA.AperFunction,SMDPad,CuDef*%
G36*
G01*
X153450000Y-68775000D02*
X153450000Y-69725000D01*
G75*
G02*
X153200000Y-69975000I-250000J0D01*
G01*
X152700000Y-69975000D01*
G75*
G02*
X152450000Y-69725000I0J250000D01*
G01*
X152450000Y-68775000D01*
G75*
G02*
X152700000Y-68525000I250000J0D01*
G01*
X153200000Y-68525000D01*
G75*
G02*
X153450000Y-68775000I0J-250000D01*
G01*
G37*
%TD.AperFunction*%
%TD*%
%TO.P,C1,2*%
%TO.N,GND*%
%TA.AperFunction,SMDPad,CuDef*%
G36*
G01*
X152450000Y-66475000D02*
X152450000Y-65525000D01*
G75*
G02*
X152700000Y-65275000I250000J0D01*
G01*
X153200000Y-65275000D01*
G75*
G02*
X153450000Y-65525000I0J-250000D01*
G01*
X153450000Y-66475000D01*
G75*
G02*
X153200000Y-66725000I-250000J0D01*
G01*
X152700000Y-66725000D01*
G75*
G02*
X152450000Y-66475000I0J250000D01*
G01*
G37*
%TD.AperFunction*%
%TO.P,C1,1*%
%TO.N,3V3*%
%TA.AperFunction,SMDPad,CuDef*%
G36*
G01*
X150550000Y-66475000D02*
X150550000Y-65525000D01*
G75*
G02*
X150800000Y-65275000I250000J0D01*
G01*
X151300000Y-65275000D01*
G75*
G02*
X151550000Y-65525000I0J-250000D01*
G01*
X151550000Y-66475000D01*
G75*
G02*
X151300000Y-66725000I-250000J0D01*
G01*
X150800000Y-66725000D01*
G75*
G02*
X150550000Y-66475000I0J250000D01*
G01*
G37*
%TD.AperFunction*%
%TD*%
D20*
%TO.N,GND*%
X121000000Y-78300000D03*
X124300000Y-85050000D03*
X121000000Y-74900000D03*
X152950000Y-71250000D03*
X139150000Y-66800000D03*
X125700000Y-95500000D03*
X132950000Y-124600000D03*
X178650000Y-96100000D03*
X150810000Y-67740000D03*
X202400000Y-110600000D03*
X155400000Y-100950000D03*
%TO.N,VSOLAR*%
X119950000Y-87500000D03*
X135725000Y-41875000D03*
X119925000Y-106775000D03*
X116050000Y-72800000D03*
X123000000Y-124750000D03*
%TO.N,3V3*%
X128800000Y-51350000D03*
X189600000Y-114850000D03*
X125575000Y-83875000D03*
X181300000Y-48400000D03*
%TO.N,Net-(D1-Pad1)*%
X151700000Y-62400000D03*
X175000000Y-62400000D03*
%TO.N,+MagZ*%
X175700000Y-102200000D03*
X125450000Y-80350000D03*
X125450000Y-81600000D03*
%TO.N,-MagY*%
X123250000Y-81050000D03*
X126100000Y-85500000D03*
X201150000Y-55000000D03*
%TO.N,+MagY*%
X122200000Y-81800000D03*
X125285000Y-102965000D03*
X178775000Y-47725000D03*
%TO.N,-MagX*%
X121050000Y-82450000D03*
X181465000Y-116135000D03*
X122050000Y-52250000D03*
%TO.N,+MagX*%
X119700000Y-83000000D03*
X139543205Y-44356795D03*
X190500000Y-114000000D03*
%TO.N,SCL4*%
X125750000Y-87100000D03*
X140500000Y-77100000D03*
%TO.N,SDA4*%
X125550000Y-88400000D03*
X138900000Y-77500000D03*
%TO.N,SCL5*%
X143814999Y-64224999D03*
%TO.N,SDA5*%
X146450000Y-64950000D03*
X141300000Y-64950000D03*
%TD*%
D21*
%TO.N,GND*%
X143200000Y-67650000D02*
X142950000Y-67400000D01*
X143200000Y-68850000D02*
X143200000Y-67650000D01*
X142700000Y-67650000D02*
X142950000Y-67400000D01*
X142700000Y-68850000D02*
X142700000Y-67650000D01*
X143700000Y-68150000D02*
X142950000Y-67400000D01*
X143700000Y-68850000D02*
X143700000Y-68150000D01*
X143700000Y-66650000D02*
X142950000Y-67400000D01*
X143700000Y-65950000D02*
X143700000Y-66650000D01*
X141400000Y-67400000D02*
X140800000Y-66800000D01*
X142950000Y-67400000D02*
X141400000Y-67400000D01*
X152950000Y-65550000D02*
X152950000Y-69050000D01*
D22*
X121000000Y-78300000D02*
X122900000Y-78300000D01*
X122900000Y-78300000D02*
X124300000Y-79700000D01*
X124300000Y-79700000D02*
X124300000Y-85050000D01*
X121000000Y-78300000D02*
X121000000Y-74900000D01*
X121000000Y-74900000D02*
X121000000Y-74900000D01*
D21*
X152950000Y-69050000D02*
X152950000Y-71250000D01*
X149450000Y-67740000D02*
X149960000Y-67740000D01*
X152950000Y-71250000D02*
X152950000Y-71250000D01*
X140800000Y-66800000D02*
X139400000Y-66800000D01*
X139400000Y-66800000D02*
X139400000Y-66800000D01*
X139400000Y-66800000D02*
X139150000Y-66800000D01*
X139150000Y-66800000D02*
X139150000Y-66800000D01*
D22*
X130000000Y-96000000D02*
X126200000Y-96000000D01*
X126200000Y-96000000D02*
X125700000Y-95500000D01*
X125700000Y-95500000D02*
X125700000Y-95500000D01*
X130000000Y-125600000D02*
X131950000Y-125600000D01*
X131950000Y-125600000D02*
X132950000Y-124600000D01*
X132950000Y-124600000D02*
X132950000Y-124600000D01*
X181150000Y-96100000D02*
X178650000Y-96100000D01*
X178650000Y-96100000D02*
X178650000Y-96100000D01*
X205600000Y-110600000D02*
X202400000Y-110600000D01*
D21*
X149960000Y-67740000D02*
X150810000Y-67740000D01*
X150810000Y-67740000D02*
X150810000Y-67740000D01*
D22*
X202400000Y-110600000D02*
X202400000Y-110600000D01*
X155400000Y-110350000D02*
X155400000Y-100950000D01*
X155400000Y-100950000D02*
X155400000Y-100950000D01*
%TO.N,VSOLAR*%
X126700000Y-125600000D02*
X123850000Y-125600000D01*
X123850000Y-125600000D02*
X123000000Y-124750000D01*
X123000000Y-124750000D02*
X122950000Y-124700000D01*
X120800000Y-72800000D02*
X116050000Y-72800000D01*
X125250000Y-68350000D02*
X120800000Y-72800000D01*
X125250000Y-67000000D02*
X125250000Y-68350000D01*
%TO.N,Net-(D1-Pad2)*%
X155200000Y-84300000D02*
X143500000Y-96000000D01*
X155200000Y-82000000D02*
X155200000Y-84300000D01*
X155350000Y-53300000D02*
X155350000Y-50050000D01*
X155200000Y-53450000D02*
X155350000Y-53300000D01*
X155200000Y-82000000D02*
X155200000Y-53000000D01*
X151900000Y-82000000D02*
X143250000Y-73350000D01*
X155200000Y-82000000D02*
X151900000Y-82000000D01*
X143250000Y-73350000D02*
X136900000Y-67000000D01*
X143500000Y-73600000D02*
X143250000Y-73350000D01*
%TO.N,Net-(D2-Pad2)*%
X134000000Y-96000000D02*
X139500000Y-96000000D01*
X119650000Y-110350000D02*
X131750000Y-98250000D01*
X115400000Y-110350000D02*
X119650000Y-110350000D01*
X131750000Y-98250000D02*
X134000000Y-96000000D01*
X117200000Y-82000000D02*
X115200000Y-82000000D01*
X128950000Y-90950000D02*
X134000000Y-96000000D01*
X126150000Y-90950000D02*
X128950000Y-90950000D01*
X126150000Y-90950000D02*
X117200000Y-82000000D01*
D21*
%TO.N,3V3*%
X150955000Y-65745000D02*
X151050000Y-65650000D01*
X150705000Y-68655000D02*
X151050000Y-69000000D01*
X150900000Y-65800000D02*
X151050000Y-65650000D01*
X150800000Y-65800000D02*
X151050000Y-65550000D01*
X149450000Y-65800000D02*
X150800000Y-65800000D01*
X150710000Y-68710000D02*
X151050000Y-69050000D01*
X149450000Y-68710000D02*
X150710000Y-68710000D01*
X140950000Y-68850000D02*
X140800000Y-68700000D01*
X142200000Y-68850000D02*
X140950000Y-68850000D01*
X144900000Y-68760002D02*
X144900000Y-67700000D01*
X144110001Y-69550001D02*
X144900000Y-68760002D01*
X141650001Y-69550001D02*
X144110001Y-69550001D01*
X140800000Y-68700000D02*
X141650001Y-69550001D01*
X144900000Y-67700000D02*
X146450000Y-67700000D01*
X150551171Y-69548829D02*
X151050000Y-69050000D01*
X147643827Y-69548829D02*
X150551171Y-69548829D01*
X146450000Y-68355002D02*
X147643827Y-69548829D01*
X146450000Y-67700000D02*
X146450000Y-68355002D01*
X151100000Y-65550000D02*
X151050000Y-65550000D01*
X151548829Y-66498829D02*
X151050000Y-66000000D01*
X151548829Y-68751171D02*
X151548829Y-66498829D01*
X151050000Y-69250000D02*
X151548829Y-68751171D01*
D22*
%TO.N,Net-(D1-Pad1)*%
X179950000Y-67500000D02*
X165750000Y-53300000D01*
X184750000Y-67500000D02*
X179950000Y-67500000D01*
X165750000Y-56650000D02*
X165750000Y-53300000D01*
X115250000Y-53000000D02*
X129250000Y-67000000D01*
X115200000Y-53000000D02*
X115250000Y-53000000D01*
X132900000Y-67000000D02*
X129250000Y-67000000D01*
X132900000Y-67000000D02*
X137500000Y-62400000D01*
X137500000Y-62400000D02*
X151700000Y-62400000D01*
X151700000Y-62400000D02*
X151700000Y-62400000D01*
%TO.N,Net-(D4-Pad2)*%
X205800000Y-82050000D02*
X205800000Y-74312998D01*
X205800000Y-86600000D02*
X205800000Y-82050000D01*
X194550000Y-93250000D02*
X205800000Y-82000000D01*
X194550000Y-96100000D02*
X194550000Y-93250000D01*
X205750000Y-81950000D02*
X205800000Y-82000000D01*
X205750000Y-53300000D02*
X205750000Y-81950000D01*
X191300000Y-67500000D02*
X205800000Y-82000000D01*
X188750000Y-67500000D02*
X191300000Y-67500000D01*
%TO.N,Net-(D5-Pad2)*%
X185150000Y-96100000D02*
X190550000Y-96100000D01*
X171100000Y-82050000D02*
X165800000Y-82050000D01*
X185150000Y-96100000D02*
X171100000Y-82050000D01*
X170750000Y-110500000D02*
X185150000Y-96100000D01*
X165650000Y-110500000D02*
X170750000Y-110500000D01*
D21*
%TO.N,SCL4*%
X125750000Y-87100000D02*
X136350000Y-76500000D01*
X136350000Y-76500000D02*
X139700000Y-76500000D01*
X139700000Y-76500000D02*
X139900000Y-76500000D01*
X139900000Y-76500000D02*
X140500000Y-77100000D01*
X140500000Y-77100000D02*
X140500000Y-77100000D01*
%TO.N,SDA4*%
X125550000Y-88400000D02*
X135200000Y-78750000D01*
X135200000Y-78750000D02*
X136050000Y-77900000D01*
X136050000Y-77900000D02*
X136450000Y-77500000D01*
X136450000Y-77500000D02*
X138900000Y-77500000D01*
%TO.N,SCL5*%
X148900000Y-66770000D02*
X149450000Y-66770000D01*
X148750000Y-66620000D02*
X148900000Y-66770000D01*
X148750000Y-65350000D02*
X148750000Y-66620000D01*
X147624999Y-64224999D02*
X148750000Y-65350000D01*
X146101999Y-64224999D02*
X147624999Y-64224999D01*
X144900000Y-65426998D02*
X146101999Y-64224999D01*
X144900000Y-66050000D02*
X144900000Y-65426998D01*
X142700000Y-65339998D02*
X142700000Y-65950000D01*
X143814999Y-64224999D02*
X143814999Y-64224999D01*
X146101999Y-64224999D02*
X143814999Y-64224999D01*
X143814999Y-64224999D02*
X142700000Y-65339998D01*
%TO.N,SDA5*%
X146700000Y-65800000D02*
X146450000Y-66050000D01*
X148050000Y-65800000D02*
X146700000Y-65800000D01*
X146450000Y-66050000D02*
X146450000Y-64950000D01*
X146450000Y-64950000D02*
X146450000Y-64950000D01*
X142200000Y-65950000D02*
X142200000Y-65900000D01*
X142200000Y-65900000D02*
X141250000Y-64950000D01*
%TO.N,Net-(U1-Pad3)*%
X148050000Y-67740000D02*
X148050000Y-68710000D01*
%TD*%
D23*
%TO.N,3V3*%
X201340001Y-40467571D02*
X201336807Y-40500000D01*
X201349550Y-40629383D01*
X201387290Y-40753793D01*
X201448575Y-40868450D01*
X201531052Y-40968948D01*
X201631550Y-41051425D01*
X201746207Y-41112710D01*
X201870617Y-41150450D01*
X201967581Y-41160000D01*
X202000000Y-41163193D01*
X202032419Y-41160000D01*
X206840000Y-41160000D01*
X206840000Y-45861928D01*
X204300000Y-45861928D01*
X204175518Y-45874188D01*
X204055820Y-45910498D01*
X203945506Y-45969463D01*
X203848815Y-46048815D01*
X203769463Y-46145506D01*
X203710498Y-46255820D01*
X203674188Y-46375518D01*
X203661928Y-46500000D01*
X203661928Y-59500000D01*
X203674188Y-59624482D01*
X203710498Y-59744180D01*
X203769463Y-59854494D01*
X203848815Y-59951185D01*
X203945506Y-60030537D01*
X204055820Y-60089502D01*
X204175518Y-60125812D01*
X204300000Y-60138072D01*
X204865000Y-60138072D01*
X204865001Y-74861928D01*
X204300000Y-74861928D01*
X204175518Y-74874188D01*
X204055820Y-74910498D01*
X203945506Y-74969463D01*
X203848815Y-75048815D01*
X203769463Y-75145506D01*
X203710498Y-75255820D01*
X203674188Y-75375518D01*
X203661928Y-75500000D01*
X203661928Y-78610349D01*
X191956534Y-66904956D01*
X191928817Y-66871183D01*
X191794059Y-66760589D01*
X191640313Y-66678411D01*
X191473490Y-66627805D01*
X191343477Y-66615000D01*
X191343469Y-66615000D01*
X191300000Y-66610719D01*
X191256531Y-66615000D01*
X190634625Y-66615000D01*
X190625812Y-66525518D01*
X190589502Y-66405820D01*
X190530537Y-66295506D01*
X190451185Y-66198815D01*
X190354494Y-66119463D01*
X190244180Y-66060498D01*
X190124482Y-66024188D01*
X190000000Y-66011928D01*
X187500000Y-66011928D01*
X187375518Y-66024188D01*
X187255820Y-66060498D01*
X187145506Y-66119463D01*
X187048815Y-66198815D01*
X186969463Y-66295506D01*
X186910498Y-66405820D01*
X186874188Y-66525518D01*
X186861928Y-66650000D01*
X186861928Y-68350000D01*
X186874188Y-68474482D01*
X186910498Y-68594180D01*
X186969463Y-68704494D01*
X187048815Y-68801185D01*
X187145506Y-68880537D01*
X187255820Y-68939502D01*
X187375518Y-68975812D01*
X187500000Y-68988072D01*
X190000000Y-68988072D01*
X190124482Y-68975812D01*
X190244180Y-68939502D01*
X190354494Y-68880537D01*
X190451185Y-68801185D01*
X190530537Y-68704494D01*
X190589502Y-68594180D01*
X190625812Y-68474482D01*
X190634625Y-68385000D01*
X190933422Y-68385000D01*
X203661928Y-81113507D01*
X203661928Y-82886493D01*
X193954952Y-92593470D01*
X193921184Y-92621183D01*
X193893471Y-92654951D01*
X193893468Y-92654954D01*
X193810590Y-92755941D01*
X193728412Y-92909687D01*
X193677805Y-93076510D01*
X193660719Y-93250000D01*
X193665001Y-93293479D01*
X193665001Y-94611928D01*
X193300000Y-94611928D01*
X193175518Y-94624188D01*
X193055820Y-94660498D01*
X192945506Y-94719463D01*
X192848815Y-94798815D01*
X192769463Y-94895506D01*
X192710498Y-95005820D01*
X192674188Y-95125518D01*
X192661928Y-95250000D01*
X192661928Y-96950000D01*
X192674188Y-97074482D01*
X192710498Y-97194180D01*
X192769463Y-97304494D01*
X192848815Y-97401185D01*
X192945506Y-97480537D01*
X193055820Y-97539502D01*
X193175518Y-97575812D01*
X193300000Y-97588072D01*
X195800000Y-97588072D01*
X195924482Y-97575812D01*
X196044180Y-97539502D01*
X196154494Y-97480537D01*
X196251185Y-97401185D01*
X196330537Y-97304494D01*
X196389502Y-97194180D01*
X196425812Y-97074482D01*
X196438072Y-96950000D01*
X196438072Y-95946154D01*
X197365000Y-95946154D01*
X197365000Y-96553846D01*
X197483555Y-97149861D01*
X197716108Y-97711295D01*
X198053724Y-98216573D01*
X198483427Y-98646276D01*
X198988705Y-98983892D01*
X199550139Y-99216445D01*
X200146154Y-99335000D01*
X200753846Y-99335000D01*
X201349861Y-99216445D01*
X201911295Y-98983892D01*
X202416573Y-98646276D01*
X202846276Y-98216573D01*
X203183892Y-97711295D01*
X203416445Y-97149861D01*
X203535000Y-96553846D01*
X203535000Y-95946154D01*
X203416445Y-95350139D01*
X203183892Y-94788705D01*
X202846276Y-94283427D01*
X202416573Y-93853724D01*
X201911295Y-93516108D01*
X201349861Y-93283555D01*
X200753846Y-93165000D01*
X200146154Y-93165000D01*
X199550139Y-93283555D01*
X198988705Y-93516108D01*
X198483427Y-93853724D01*
X198053724Y-94283427D01*
X197716108Y-94788705D01*
X197483555Y-95350139D01*
X197365000Y-95946154D01*
X196438072Y-95946154D01*
X196438072Y-95250000D01*
X196425812Y-95125518D01*
X196389502Y-95005820D01*
X196330537Y-94895506D01*
X196251185Y-94798815D01*
X196154494Y-94719463D01*
X196044180Y-94660498D01*
X195924482Y-94624188D01*
X195800000Y-94611928D01*
X195435000Y-94611928D01*
X195435000Y-93616578D01*
X203661928Y-85389651D01*
X203661928Y-88500000D01*
X203674188Y-88624482D01*
X203710498Y-88744180D01*
X203769463Y-88854494D01*
X203848815Y-88951185D01*
X203945506Y-89030537D01*
X204055820Y-89089502D01*
X204175518Y-89125812D01*
X204300000Y-89138072D01*
X206840001Y-89138072D01*
X206840001Y-103661928D01*
X204300000Y-103661928D01*
X204175518Y-103674188D01*
X204055820Y-103710498D01*
X203945506Y-103769463D01*
X203848815Y-103848815D01*
X203769463Y-103945506D01*
X203710498Y-104055820D01*
X203674188Y-104175518D01*
X203661928Y-104300000D01*
X203661928Y-109715000D01*
X202938454Y-109715000D01*
X202890256Y-109682795D01*
X202701898Y-109604774D01*
X202501939Y-109565000D01*
X202298061Y-109565000D01*
X202098102Y-109604774D01*
X201909744Y-109682795D01*
X201740226Y-109796063D01*
X201596063Y-109940226D01*
X201482795Y-110109744D01*
X201404774Y-110298102D01*
X201365000Y-110498061D01*
X201365000Y-110701939D01*
X201404774Y-110901898D01*
X201482795Y-111090256D01*
X201596063Y-111259774D01*
X201740226Y-111403937D01*
X201909744Y-111517205D01*
X202098102Y-111595226D01*
X202298061Y-111635000D01*
X202501939Y-111635000D01*
X202701898Y-111595226D01*
X202890256Y-111517205D01*
X202938454Y-111485000D01*
X203661928Y-111485000D01*
X203661928Y-117300000D01*
X203674188Y-117424482D01*
X203710498Y-117544180D01*
X203769463Y-117654494D01*
X203848815Y-117751185D01*
X203945506Y-117830537D01*
X204055820Y-117889502D01*
X204175518Y-117925812D01*
X204300000Y-117938072D01*
X206840001Y-117938072D01*
X206840001Y-122840000D01*
X202032419Y-122840000D01*
X202000000Y-122836807D01*
X201967581Y-122840000D01*
X201870617Y-122849550D01*
X201746207Y-122887290D01*
X201631550Y-122948575D01*
X201531052Y-123031052D01*
X201448575Y-123131550D01*
X201387290Y-123246207D01*
X201349550Y-123370617D01*
X201336807Y-123500000D01*
X201340001Y-123532429D01*
X201340000Y-128340000D01*
X119660000Y-128340000D01*
X119660000Y-124648061D01*
X121965000Y-124648061D01*
X121965000Y-124851939D01*
X122004774Y-125051898D01*
X122082795Y-125240256D01*
X122196063Y-125409774D01*
X122340226Y-125553937D01*
X122509744Y-125667205D01*
X122698102Y-125745226D01*
X122754957Y-125756535D01*
X123193470Y-126195049D01*
X123221183Y-126228817D01*
X123254951Y-126256530D01*
X123254953Y-126256532D01*
X123355941Y-126339411D01*
X123509686Y-126421589D01*
X123676510Y-126472195D01*
X123806523Y-126485000D01*
X123806531Y-126485000D01*
X123850000Y-126489281D01*
X123893469Y-126485000D01*
X125061928Y-126485000D01*
X125061928Y-126600000D01*
X125074188Y-126724482D01*
X125110498Y-126844180D01*
X125169463Y-126954494D01*
X125248815Y-127051185D01*
X125345506Y-127130537D01*
X125455820Y-127189502D01*
X125575518Y-127225812D01*
X125700000Y-127238072D01*
X127700000Y-127238072D01*
X127824482Y-127225812D01*
X127944180Y-127189502D01*
X128054494Y-127130537D01*
X128151185Y-127051185D01*
X128230537Y-126954494D01*
X128289502Y-126844180D01*
X128325812Y-126724482D01*
X128338072Y-126600000D01*
X128338072Y-124600000D01*
X128361928Y-124600000D01*
X128361928Y-126600000D01*
X128374188Y-126724482D01*
X128410498Y-126844180D01*
X128469463Y-126954494D01*
X128548815Y-127051185D01*
X128645506Y-127130537D01*
X128755820Y-127189502D01*
X128875518Y-127225812D01*
X129000000Y-127238072D01*
X131000000Y-127238072D01*
X131124482Y-127225812D01*
X131244180Y-127189502D01*
X131354494Y-127130537D01*
X131451185Y-127051185D01*
X131530537Y-126954494D01*
X131589502Y-126844180D01*
X131625812Y-126724482D01*
X131638072Y-126600000D01*
X131638072Y-126485000D01*
X131906531Y-126485000D01*
X131950000Y-126489281D01*
X131993469Y-126485000D01*
X131993477Y-126485000D01*
X132123490Y-126472195D01*
X132290313Y-126421589D01*
X132444059Y-126339411D01*
X132578817Y-126228817D01*
X132606534Y-126195044D01*
X133195044Y-125606535D01*
X133251898Y-125595226D01*
X133440256Y-125517205D01*
X133609774Y-125403937D01*
X133753937Y-125259774D01*
X133867205Y-125090256D01*
X133945226Y-124901898D01*
X133985000Y-124701939D01*
X133985000Y-124498061D01*
X133945226Y-124298102D01*
X133867205Y-124109744D01*
X133753937Y-123940226D01*
X133609774Y-123796063D01*
X133440256Y-123682795D01*
X133251898Y-123604774D01*
X133051939Y-123565000D01*
X132848061Y-123565000D01*
X132648102Y-123604774D01*
X132459744Y-123682795D01*
X132290226Y-123796063D01*
X132146063Y-123940226D01*
X132032795Y-124109744D01*
X131954774Y-124298102D01*
X131943465Y-124354956D01*
X131638072Y-124660350D01*
X131638072Y-124600000D01*
X131625812Y-124475518D01*
X131589502Y-124355820D01*
X131530537Y-124245506D01*
X131451185Y-124148815D01*
X131354494Y-124069463D01*
X131244180Y-124010498D01*
X131124482Y-123974188D01*
X131000000Y-123961928D01*
X129000000Y-123961928D01*
X128875518Y-123974188D01*
X128755820Y-124010498D01*
X128645506Y-124069463D01*
X128548815Y-124148815D01*
X128469463Y-124245506D01*
X128410498Y-124355820D01*
X128374188Y-124475518D01*
X128361928Y-124600000D01*
X128338072Y-124600000D01*
X128325812Y-124475518D01*
X128289502Y-124355820D01*
X128230537Y-124245506D01*
X128151185Y-124148815D01*
X128054494Y-124069463D01*
X127944180Y-124010498D01*
X127824482Y-123974188D01*
X127700000Y-123961928D01*
X125700000Y-123961928D01*
X125575518Y-123974188D01*
X125455820Y-124010498D01*
X125345506Y-124069463D01*
X125248815Y-124148815D01*
X125169463Y-124245506D01*
X125110498Y-124355820D01*
X125074188Y-124475518D01*
X125061928Y-124600000D01*
X125061928Y-124715000D01*
X124216579Y-124715000D01*
X124006535Y-124504957D01*
X123995226Y-124448102D01*
X123917205Y-124259744D01*
X123803937Y-124090226D01*
X123659774Y-123946063D01*
X123490256Y-123832795D01*
X123301898Y-123754774D01*
X123101939Y-123715000D01*
X122898061Y-123715000D01*
X122698102Y-123754774D01*
X122509744Y-123832795D01*
X122340226Y-123946063D01*
X122196063Y-124090226D01*
X122082795Y-124259744D01*
X122004774Y-124448102D01*
X121965000Y-124648061D01*
X119660000Y-124648061D01*
X119660000Y-123532418D01*
X119663193Y-123500000D01*
X119650450Y-123370617D01*
X119612710Y-123246207D01*
X119551425Y-123131550D01*
X119468948Y-123031052D01*
X119368450Y-122948575D01*
X119253793Y-122887290D01*
X119129383Y-122849550D01*
X119032419Y-122840000D01*
X119000000Y-122836807D01*
X118967581Y-122840000D01*
X114160000Y-122840000D01*
X114160000Y-122146154D01*
X157415000Y-122146154D01*
X157415000Y-122753846D01*
X157533555Y-123349861D01*
X157766108Y-123911295D01*
X158103724Y-124416573D01*
X158533427Y-124846276D01*
X159038705Y-125183892D01*
X159600139Y-125416445D01*
X160196154Y-125535000D01*
X160803846Y-125535000D01*
X161399861Y-125416445D01*
X161961295Y-125183892D01*
X162466573Y-124846276D01*
X162896276Y-124416573D01*
X163233892Y-123911295D01*
X163466445Y-123349861D01*
X163585000Y-122753846D01*
X163585000Y-122146154D01*
X163466445Y-121550139D01*
X163233892Y-120988705D01*
X162896276Y-120483427D01*
X162466573Y-120053724D01*
X161961295Y-119716108D01*
X161399861Y-119483555D01*
X160803846Y-119365000D01*
X160196154Y-119365000D01*
X159600139Y-119483555D01*
X159038705Y-119716108D01*
X158533427Y-120053724D01*
X158103724Y-120483427D01*
X157766108Y-120988705D01*
X157533555Y-121550139D01*
X157415000Y-122146154D01*
X114160000Y-122146154D01*
X114160000Y-117938072D01*
X116700000Y-117938072D01*
X116824482Y-117925812D01*
X116944180Y-117889502D01*
X117054494Y-117830537D01*
X117151185Y-117751185D01*
X117230537Y-117654494D01*
X117289502Y-117544180D01*
X117325812Y-117424482D01*
X117338072Y-117300000D01*
X117338072Y-111235000D01*
X119606531Y-111235000D01*
X119650000Y-111239281D01*
X119693469Y-111235000D01*
X119693477Y-111235000D01*
X119823490Y-111222195D01*
X119990313Y-111171589D01*
X120144059Y-111089411D01*
X120278817Y-110978817D01*
X120306534Y-110945044D01*
X122410375Y-108841203D01*
X124155000Y-108841203D01*
X124155000Y-109128797D01*
X124211107Y-109410866D01*
X124321165Y-109676569D01*
X124480944Y-109915696D01*
X124684304Y-110119056D01*
X124923431Y-110278835D01*
X125189134Y-110388893D01*
X125471203Y-110445000D01*
X125758797Y-110445000D01*
X126040866Y-110388893D01*
X126306569Y-110278835D01*
X126545696Y-110119056D01*
X126749056Y-109915696D01*
X126908835Y-109676569D01*
X127018893Y-109410866D01*
X127075000Y-109128797D01*
X127075000Y-108841203D01*
X127018893Y-108559134D01*
X126908835Y-108293431D01*
X126749056Y-108054304D01*
X126545696Y-107850944D01*
X126306569Y-107691165D01*
X126040866Y-107581107D01*
X125758797Y-107525000D01*
X125471203Y-107525000D01*
X125189134Y-107581107D01*
X124923431Y-107691165D01*
X124684304Y-107850944D01*
X124480944Y-108054304D01*
X124321165Y-108293431D01*
X124211107Y-108559134D01*
X124155000Y-108841203D01*
X122410375Y-108841203D01*
X126951578Y-104300000D01*
X153061928Y-104300000D01*
X153061928Y-117300000D01*
X153074188Y-117424482D01*
X153110498Y-117544180D01*
X153169463Y-117654494D01*
X153248815Y-117751185D01*
X153345506Y-117830537D01*
X153455820Y-117889502D01*
X153575518Y-117925812D01*
X153700000Y-117938072D01*
X156700000Y-117938072D01*
X156824482Y-117925812D01*
X156944180Y-117889502D01*
X157054494Y-117830537D01*
X157151185Y-117751185D01*
X157230537Y-117654494D01*
X157289502Y-117544180D01*
X157325812Y-117424482D01*
X157338072Y-117300000D01*
X157338072Y-104300000D01*
X157325812Y-104175518D01*
X157289502Y-104055820D01*
X157230537Y-103945506D01*
X157151185Y-103848815D01*
X157054494Y-103769463D01*
X156944180Y-103710498D01*
X156824482Y-103674188D01*
X156700000Y-103661928D01*
X156285000Y-103661928D01*
X156285000Y-102098061D01*
X174665000Y-102098061D01*
X174665000Y-102301939D01*
X174704774Y-102501898D01*
X174782795Y-102690256D01*
X174896063Y-102859774D01*
X175040226Y-103003937D01*
X175209744Y-103117205D01*
X175398102Y-103195226D01*
X175598061Y-103235000D01*
X175801939Y-103235000D01*
X176001898Y-103195226D01*
X176190256Y-103117205D01*
X176359774Y-103003937D01*
X176503937Y-102859774D01*
X176617205Y-102690256D01*
X176695226Y-102501898D01*
X176735000Y-102301939D01*
X176735000Y-102098061D01*
X176695226Y-101898102D01*
X176617205Y-101709744D01*
X176503937Y-101540226D01*
X176359774Y-101396063D01*
X176190256Y-101282795D01*
X176001898Y-101204774D01*
X175801939Y-101165000D01*
X175598061Y-101165000D01*
X175398102Y-101204774D01*
X175209744Y-101282795D01*
X175040226Y-101396063D01*
X174896063Y-101540226D01*
X174782795Y-101709744D01*
X174704774Y-101898102D01*
X174665000Y-102098061D01*
X156285000Y-102098061D01*
X156285000Y-101488454D01*
X156317205Y-101440256D01*
X156395226Y-101251898D01*
X156435000Y-101051939D01*
X156435000Y-100848061D01*
X156395226Y-100648102D01*
X156317205Y-100459744D01*
X156203937Y-100290226D01*
X156059774Y-100146063D01*
X155890256Y-100032795D01*
X155701898Y-99954774D01*
X155501939Y-99915000D01*
X155298061Y-99915000D01*
X155098102Y-99954774D01*
X154909744Y-100032795D01*
X154740226Y-100146063D01*
X154596063Y-100290226D01*
X154482795Y-100459744D01*
X154404774Y-100648102D01*
X154365000Y-100848061D01*
X154365000Y-101051939D01*
X154404774Y-101251898D01*
X154482795Y-101440256D01*
X154515001Y-101488456D01*
X154515001Y-103661928D01*
X153700000Y-103661928D01*
X153575518Y-103674188D01*
X153455820Y-103710498D01*
X153345506Y-103769463D01*
X153248815Y-103848815D01*
X153169463Y-103945506D01*
X153110498Y-104055820D01*
X153074188Y-104175518D01*
X153061928Y-104300000D01*
X126951578Y-104300000D01*
X132406532Y-98845047D01*
X132406536Y-98845042D01*
X133763507Y-97488072D01*
X135250000Y-97488072D01*
X135374482Y-97475812D01*
X135494180Y-97439502D01*
X135604494Y-97380537D01*
X135701185Y-97301185D01*
X135780537Y-97204494D01*
X135839502Y-97094180D01*
X135875812Y-96974482D01*
X135884625Y-96885000D01*
X137615375Y-96885000D01*
X137624188Y-96974482D01*
X137660498Y-97094180D01*
X137719463Y-97204494D01*
X137798815Y-97301185D01*
X137895506Y-97380537D01*
X138005820Y-97439502D01*
X138125518Y-97475812D01*
X138250000Y-97488072D01*
X140750000Y-97488072D01*
X140874482Y-97475812D01*
X140994180Y-97439502D01*
X141104494Y-97380537D01*
X141201185Y-97301185D01*
X141280537Y-97204494D01*
X141339502Y-97094180D01*
X141375812Y-96974482D01*
X141388072Y-96850000D01*
X141388072Y-95150000D01*
X141375812Y-95025518D01*
X141339502Y-94905820D01*
X141280537Y-94795506D01*
X141201185Y-94698815D01*
X141104494Y-94619463D01*
X140994180Y-94560498D01*
X140874482Y-94524188D01*
X140750000Y-94511928D01*
X138250000Y-94511928D01*
X138125518Y-94524188D01*
X138005820Y-94560498D01*
X137895506Y-94619463D01*
X137798815Y-94698815D01*
X137719463Y-94795506D01*
X137660498Y-94905820D01*
X137624188Y-95025518D01*
X137615375Y-95115000D01*
X135884625Y-95115000D01*
X135875812Y-95025518D01*
X135839502Y-94905820D01*
X135780537Y-94795506D01*
X135701185Y-94698815D01*
X135604494Y-94619463D01*
X135494180Y-94560498D01*
X135374482Y-94524188D01*
X135250000Y-94511928D01*
X133763507Y-94511928D01*
X129606534Y-90354956D01*
X129578817Y-90321183D01*
X129444059Y-90210589D01*
X129290313Y-90128411D01*
X129123490Y-90077805D01*
X128993477Y-90065000D01*
X128993469Y-90065000D01*
X128950000Y-90060719D01*
X128906531Y-90065000D01*
X126516579Y-90065000D01*
X125847650Y-89396071D01*
X125851898Y-89395226D01*
X126040256Y-89317205D01*
X126209774Y-89203937D01*
X126353937Y-89059774D01*
X126467205Y-88890256D01*
X126545226Y-88701898D01*
X126585000Y-88501939D01*
X126585000Y-88439801D01*
X135763799Y-79261003D01*
X135763803Y-79260998D01*
X136613799Y-78411003D01*
X136613803Y-78410998D01*
X136764801Y-78260000D01*
X138196289Y-78260000D01*
X138240226Y-78303937D01*
X138409744Y-78417205D01*
X138598102Y-78495226D01*
X138798061Y-78535000D01*
X139001939Y-78535000D01*
X139201898Y-78495226D01*
X139390256Y-78417205D01*
X139559774Y-78303937D01*
X139703937Y-78159774D01*
X139817205Y-77990256D01*
X139850199Y-77910601D01*
X140009744Y-78017205D01*
X140198102Y-78095226D01*
X140398061Y-78135000D01*
X140601939Y-78135000D01*
X140801898Y-78095226D01*
X140990256Y-78017205D01*
X141159774Y-77903937D01*
X141303937Y-77759774D01*
X141417205Y-77590256D01*
X141495226Y-77401898D01*
X141535000Y-77201939D01*
X141535000Y-76998061D01*
X141495226Y-76798102D01*
X141417205Y-76609744D01*
X141303937Y-76440226D01*
X141159774Y-76296063D01*
X140990256Y-76182795D01*
X140801898Y-76104774D01*
X140601939Y-76065000D01*
X140539801Y-76065000D01*
X140463803Y-75989002D01*
X140440001Y-75959999D01*
X140324276Y-75865026D01*
X140192247Y-75794454D01*
X140048986Y-75750997D01*
X139937333Y-75740000D01*
X139937322Y-75740000D01*
X139900000Y-75736324D01*
X139862678Y-75740000D01*
X136387325Y-75740000D01*
X136350000Y-75736324D01*
X136312675Y-75740000D01*
X136312667Y-75740000D01*
X136201014Y-75750997D01*
X136057753Y-75794454D01*
X135925724Y-75865026D01*
X135809999Y-75959999D01*
X135786201Y-75988997D01*
X126916368Y-84858831D01*
X126903937Y-84840226D01*
X126759774Y-84696063D01*
X126590256Y-84582795D01*
X126401898Y-84504774D01*
X126201939Y-84465000D01*
X125998061Y-84465000D01*
X125798102Y-84504774D01*
X125609744Y-84582795D01*
X125440226Y-84696063D01*
X125310649Y-84825640D01*
X125295226Y-84748102D01*
X125217205Y-84559744D01*
X125185000Y-84511546D01*
X125185000Y-82602565D01*
X125348061Y-82635000D01*
X125551939Y-82635000D01*
X125751898Y-82595226D01*
X125940256Y-82517205D01*
X126109774Y-82403937D01*
X126253937Y-82259774D01*
X126367205Y-82090256D01*
X126445226Y-81901898D01*
X126485000Y-81701939D01*
X126485000Y-81498061D01*
X126445226Y-81298102D01*
X126367205Y-81109744D01*
X126277172Y-80975000D01*
X126367205Y-80840256D01*
X126445226Y-80651898D01*
X126485000Y-80451939D01*
X126485000Y-80248061D01*
X126445226Y-80048102D01*
X126367205Y-79859744D01*
X126253937Y-79690226D01*
X126109774Y-79546063D01*
X125940256Y-79432795D01*
X125751898Y-79354774D01*
X125551939Y-79315000D01*
X125348061Y-79315000D01*
X125148102Y-79354774D01*
X125123225Y-79365079D01*
X125121589Y-79359687D01*
X125039411Y-79205941D01*
X125011716Y-79172195D01*
X124956532Y-79104953D01*
X124956530Y-79104951D01*
X124928817Y-79071183D01*
X124895050Y-79043471D01*
X123556534Y-77704956D01*
X123528817Y-77671183D01*
X123394059Y-77560589D01*
X123240313Y-77478411D01*
X123073490Y-77427805D01*
X122943477Y-77415000D01*
X122943469Y-77415000D01*
X122900000Y-77410719D01*
X122856531Y-77415000D01*
X121885000Y-77415000D01*
X121885000Y-75438454D01*
X121917205Y-75390256D01*
X121995226Y-75201898D01*
X122035000Y-75001939D01*
X122035000Y-74798061D01*
X121995226Y-74598102D01*
X121917205Y-74409744D01*
X121803937Y-74240226D01*
X121659774Y-74096063D01*
X121490256Y-73982795D01*
X121301898Y-73904774D01*
X121101939Y-73865000D01*
X120898061Y-73865000D01*
X120698102Y-73904774D01*
X120509744Y-73982795D01*
X120340226Y-74096063D01*
X120196063Y-74240226D01*
X120082795Y-74409744D01*
X120004774Y-74598102D01*
X119965000Y-74798061D01*
X119965000Y-75001939D01*
X120004774Y-75201898D01*
X120082795Y-75390256D01*
X120115001Y-75438456D01*
X120115000Y-77761545D01*
X120082795Y-77809744D01*
X120004774Y-77998102D01*
X119965000Y-78198061D01*
X119965000Y-78401939D01*
X120004774Y-78601898D01*
X120082795Y-78790256D01*
X120196063Y-78959774D01*
X120340226Y-79103937D01*
X120509744Y-79217205D01*
X120698102Y-79295226D01*
X120898061Y-79335000D01*
X121101939Y-79335000D01*
X121301898Y-79295226D01*
X121490256Y-79217205D01*
X121538454Y-79185000D01*
X122533422Y-79185000D01*
X123366272Y-80017851D01*
X123351939Y-80015000D01*
X123148061Y-80015000D01*
X122948102Y-80054774D01*
X122759744Y-80132795D01*
X122590226Y-80246063D01*
X122446063Y-80390226D01*
X122332795Y-80559744D01*
X122254774Y-80748102D01*
X122251413Y-80765000D01*
X122098061Y-80765000D01*
X121898102Y-80804774D01*
X121709744Y-80882795D01*
X121540226Y-80996063D01*
X121396063Y-81140226D01*
X121282795Y-81309744D01*
X121232554Y-81431035D01*
X121151939Y-81415000D01*
X120948061Y-81415000D01*
X120748102Y-81454774D01*
X120559744Y-81532795D01*
X120390226Y-81646063D01*
X120246063Y-81790226D01*
X120132795Y-81959744D01*
X120097705Y-82044459D01*
X120001898Y-82004774D01*
X119801939Y-81965000D01*
X119598061Y-81965000D01*
X119398102Y-82004774D01*
X119209744Y-82082795D01*
X119040226Y-82196063D01*
X118896063Y-82340226D01*
X118854303Y-82402725D01*
X117856532Y-81404954D01*
X117828817Y-81371183D01*
X117694059Y-81260589D01*
X117540313Y-81178411D01*
X117373490Y-81127805D01*
X117338072Y-81124317D01*
X117338072Y-75500000D01*
X117325812Y-75375518D01*
X117289502Y-75255820D01*
X117230537Y-75145506D01*
X117151185Y-75048815D01*
X117054494Y-74969463D01*
X116944180Y-74910498D01*
X116824482Y-74874188D01*
X116700000Y-74861928D01*
X114160000Y-74861928D01*
X114160000Y-60138072D01*
X116700000Y-60138072D01*
X116824482Y-60125812D01*
X116944180Y-60089502D01*
X117054494Y-60030537D01*
X117151185Y-59951185D01*
X117230537Y-59854494D01*
X117289502Y-59744180D01*
X117325812Y-59624482D01*
X117338072Y-59500000D01*
X117338072Y-56339650D01*
X126511480Y-65513059D01*
X126500000Y-65511928D01*
X124000000Y-65511928D01*
X123875518Y-65524188D01*
X123755820Y-65560498D01*
X123645506Y-65619463D01*
X123548815Y-65698815D01*
X123469463Y-65795506D01*
X123410498Y-65905820D01*
X123374188Y-66025518D01*
X123361928Y-66150000D01*
X123361928Y-66477101D01*
X123283892Y-66288705D01*
X122946276Y-65783427D01*
X122516573Y-65353724D01*
X122011295Y-65016108D01*
X121449861Y-64783555D01*
X120853846Y-64665000D01*
X120246154Y-64665000D01*
X119650139Y-64783555D01*
X119088705Y-65016108D01*
X118583427Y-65353724D01*
X118153724Y-65783427D01*
X117816108Y-66288705D01*
X117583555Y-66850139D01*
X117465000Y-67446154D01*
X117465000Y-68053846D01*
X117583555Y-68649861D01*
X117816108Y-69211295D01*
X118153724Y-69716573D01*
X118583427Y-70146276D01*
X119088705Y-70483892D01*
X119650139Y-70716445D01*
X120246154Y-70835000D01*
X120853846Y-70835000D01*
X121449861Y-70716445D01*
X121760751Y-70587670D01*
X120433422Y-71915000D01*
X116588454Y-71915000D01*
X116540256Y-71882795D01*
X116351898Y-71804774D01*
X116151939Y-71765000D01*
X115948061Y-71765000D01*
X115748102Y-71804774D01*
X115559744Y-71882795D01*
X115390226Y-71996063D01*
X115246063Y-72140226D01*
X115132795Y-72309744D01*
X115054774Y-72498102D01*
X115015000Y-72698061D01*
X115015000Y-72901939D01*
X115054774Y-73101898D01*
X115132795Y-73290256D01*
X115246063Y-73459774D01*
X115390226Y-73603937D01*
X115559744Y-73717205D01*
X115748102Y-73795226D01*
X115948061Y-73835000D01*
X116151939Y-73835000D01*
X116351898Y-73795226D01*
X116540256Y-73717205D01*
X116588454Y-73685000D01*
X120756531Y-73685000D01*
X120800000Y-73689281D01*
X120843469Y-73685000D01*
X120843477Y-73685000D01*
X120973490Y-73672195D01*
X121140313Y-73621589D01*
X121294059Y-73539411D01*
X121428817Y-73428817D01*
X121456534Y-73395044D01*
X125845049Y-69006530D01*
X125878817Y-68978817D01*
X125911083Y-68939502D01*
X125989410Y-68844060D01*
X126012327Y-68801185D01*
X126071589Y-68690313D01*
X126122195Y-68523490D01*
X126125683Y-68488072D01*
X126500000Y-68488072D01*
X126624482Y-68475812D01*
X126744180Y-68439502D01*
X126854494Y-68380537D01*
X126951185Y-68301185D01*
X127030537Y-68204494D01*
X127089502Y-68094180D01*
X127125812Y-67974482D01*
X127138072Y-67850000D01*
X127138072Y-66150000D01*
X127136941Y-66138520D01*
X127361928Y-66363507D01*
X127361928Y-67850000D01*
X127374188Y-67974482D01*
X127410498Y-68094180D01*
X127469463Y-68204494D01*
X127548815Y-68301185D01*
X127645506Y-68380537D01*
X127755820Y-68439502D01*
X127875518Y-68475812D01*
X128000000Y-68488072D01*
X130500000Y-68488072D01*
X130624482Y-68475812D01*
X130744180Y-68439502D01*
X130854494Y-68380537D01*
X130951185Y-68301185D01*
X131030537Y-68204494D01*
X131075000Y-68121311D01*
X131119463Y-68204494D01*
X131198815Y-68301185D01*
X131295506Y-68380537D01*
X131405820Y-68439502D01*
X131525518Y-68475812D01*
X131650000Y-68488072D01*
X134150000Y-68488072D01*
X134274482Y-68475812D01*
X134394180Y-68439502D01*
X134504494Y-68380537D01*
X134601185Y-68301185D01*
X134680537Y-68204494D01*
X134739502Y-68094180D01*
X134775812Y-67974482D01*
X134788072Y-67850000D01*
X134788072Y-66363506D01*
X135013059Y-66138520D01*
X135011928Y-66150000D01*
X135011928Y-67850000D01*
X135024188Y-67974482D01*
X135060498Y-68094180D01*
X135119463Y-68204494D01*
X135198815Y-68301185D01*
X135295506Y-68380537D01*
X135405820Y-68439502D01*
X135525518Y-68475812D01*
X135650000Y-68488072D01*
X137136494Y-68488072D01*
X142654953Y-74006532D01*
X142654959Y-74006537D01*
X151243468Y-82595047D01*
X151271183Y-82628817D01*
X151304951Y-82656530D01*
X151304953Y-82656532D01*
X151345016Y-82689411D01*
X151405941Y-82739411D01*
X151559687Y-82821589D01*
X151726510Y-82872195D01*
X151856523Y-82885000D01*
X151856533Y-82885000D01*
X151899999Y-82889281D01*
X151943465Y-82885000D01*
X153061928Y-82885000D01*
X153061928Y-85186493D01*
X143736494Y-94511928D01*
X142250000Y-94511928D01*
X142125518Y-94524188D01*
X142005820Y-94560498D01*
X141895506Y-94619463D01*
X141798815Y-94698815D01*
X141719463Y-94795506D01*
X141660498Y-94905820D01*
X141624188Y-95025518D01*
X141611928Y-95150000D01*
X141611928Y-96850000D01*
X141624188Y-96974482D01*
X141660498Y-97094180D01*
X141719463Y-97204494D01*
X141798815Y-97301185D01*
X141895506Y-97380537D01*
X142005820Y-97439502D01*
X142125518Y-97475812D01*
X142250000Y-97488072D01*
X144750000Y-97488072D01*
X144874482Y-97475812D01*
X144994180Y-97439502D01*
X145104494Y-97380537D01*
X145201185Y-97301185D01*
X145280537Y-97204494D01*
X145339502Y-97094180D01*
X145375812Y-96974482D01*
X145388072Y-96850000D01*
X145388072Y-95363506D01*
X149089843Y-91661735D01*
X162000000Y-91661735D01*
X162000000Y-91888265D01*
X162044194Y-92110443D01*
X162130884Y-92319729D01*
X162256737Y-92508082D01*
X162298655Y-92550000D01*
X162256737Y-92591918D01*
X162130884Y-92780271D01*
X162044194Y-92989557D01*
X162000000Y-93211735D01*
X162000000Y-93438265D01*
X162044194Y-93660443D01*
X162130884Y-93869729D01*
X162256737Y-94058082D01*
X162416918Y-94218263D01*
X162605271Y-94344116D01*
X162814557Y-94430806D01*
X163036735Y-94475000D01*
X163263265Y-94475000D01*
X163485443Y-94430806D01*
X163694729Y-94344116D01*
X163883082Y-94218263D01*
X164043263Y-94058082D01*
X164169116Y-93869729D01*
X164255806Y-93660443D01*
X164300000Y-93438265D01*
X164300000Y-93211735D01*
X164255806Y-92989557D01*
X164169116Y-92780271D01*
X164043263Y-92591918D01*
X164001345Y-92550000D01*
X164043263Y-92508082D01*
X164169116Y-92319729D01*
X164255806Y-92110443D01*
X164300000Y-91888265D01*
X164300000Y-91661735D01*
X164255806Y-91439557D01*
X164169116Y-91230271D01*
X164043263Y-91041918D01*
X163883082Y-90881737D01*
X163694729Y-90755884D01*
X163485443Y-90669194D01*
X163263265Y-90625000D01*
X163036735Y-90625000D01*
X162814557Y-90669194D01*
X162605271Y-90755884D01*
X162416918Y-90881737D01*
X162256737Y-91041918D01*
X162130884Y-91230271D01*
X162044194Y-91439557D01*
X162000000Y-91661735D01*
X149089843Y-91661735D01*
X153061928Y-87689651D01*
X153061928Y-88500000D01*
X153074188Y-88624482D01*
X153110498Y-88744180D01*
X153169463Y-88854494D01*
X153248815Y-88951185D01*
X153345506Y-89030537D01*
X153455820Y-89089502D01*
X153575518Y-89125812D01*
X153700000Y-89138072D01*
X156700000Y-89138072D01*
X156824482Y-89125812D01*
X156944180Y-89089502D01*
X157054494Y-89030537D01*
X157151185Y-88951185D01*
X157230537Y-88854494D01*
X157289502Y-88744180D01*
X157325812Y-88624482D01*
X157338072Y-88500000D01*
X157338072Y-84990139D01*
X157484747Y-85088144D01*
X157759549Y-85201971D01*
X158051278Y-85260000D01*
X158348722Y-85260000D01*
X158640451Y-85201971D01*
X158915253Y-85088144D01*
X159162569Y-84922893D01*
X159372893Y-84712569D01*
X159538144Y-84465253D01*
X159651971Y-84190451D01*
X159710000Y-83898722D01*
X159710000Y-83601278D01*
X159651971Y-83309549D01*
X159538144Y-83034747D01*
X159372893Y-82787431D01*
X159162569Y-82577107D01*
X158915253Y-82411856D01*
X158640451Y-82298029D01*
X158348722Y-82240000D01*
X158051278Y-82240000D01*
X157759549Y-82298029D01*
X157484747Y-82411856D01*
X157338072Y-82509861D01*
X157338072Y-81490139D01*
X157484747Y-81588144D01*
X157759549Y-81701971D01*
X158051278Y-81760000D01*
X158348722Y-81760000D01*
X158640451Y-81701971D01*
X158915253Y-81588144D01*
X159162569Y-81422893D01*
X159372893Y-81212569D01*
X159538144Y-80965253D01*
X159651971Y-80690451D01*
X159710000Y-80398722D01*
X159710000Y-80148816D01*
X161465000Y-80148816D01*
X161465000Y-80451184D01*
X161523989Y-80747743D01*
X161639701Y-81027095D01*
X161807688Y-81278505D01*
X162021495Y-81492312D01*
X162272905Y-81660299D01*
X162552257Y-81776011D01*
X162848816Y-81835000D01*
X163151184Y-81835000D01*
X163447743Y-81776011D01*
X163661928Y-81687292D01*
X163661928Y-82412708D01*
X163447743Y-82323989D01*
X163151184Y-82265000D01*
X162848816Y-82265000D01*
X162552257Y-82323989D01*
X162272905Y-82439701D01*
X162021495Y-82607688D01*
X161807688Y-82821495D01*
X161639701Y-83072905D01*
X161523989Y-83352257D01*
X161465000Y-83648816D01*
X161465000Y-83951184D01*
X161523989Y-84247743D01*
X161639701Y-84527095D01*
X161807688Y-84778505D01*
X162021495Y-84992312D01*
X162272905Y-85160299D01*
X162552257Y-85276011D01*
X162848816Y-85335000D01*
X163151184Y-85335000D01*
X163447743Y-85276011D01*
X163661928Y-85187292D01*
X163661928Y-88500000D01*
X163674188Y-88624482D01*
X163710498Y-88744180D01*
X163769463Y-88854494D01*
X163848815Y-88951185D01*
X163945506Y-89030537D01*
X164055820Y-89089502D01*
X164175518Y-89125812D01*
X164300000Y-89138072D01*
X167300000Y-89138072D01*
X167424482Y-89125812D01*
X167544180Y-89089502D01*
X167654494Y-89030537D01*
X167751185Y-88951185D01*
X167830537Y-88854494D01*
X167889502Y-88744180D01*
X167925812Y-88624482D01*
X167938072Y-88500000D01*
X167938072Y-82935000D01*
X170733422Y-82935000D01*
X182411480Y-94613059D01*
X182400000Y-94611928D01*
X179900000Y-94611928D01*
X179775518Y-94624188D01*
X179655820Y-94660498D01*
X179545506Y-94719463D01*
X179448815Y-94798815D01*
X179369463Y-94895506D01*
X179310498Y-95005820D01*
X179274188Y-95125518D01*
X179265375Y-95215000D01*
X179188454Y-95215000D01*
X179140256Y-95182795D01*
X178951898Y-95104774D01*
X178751939Y-95065000D01*
X178548061Y-95065000D01*
X178348102Y-95104774D01*
X178159744Y-95182795D01*
X177990226Y-95296063D01*
X177846063Y-95440226D01*
X177732795Y-95609744D01*
X177654774Y-95798102D01*
X177615000Y-95998061D01*
X177615000Y-96201939D01*
X177654774Y-96401898D01*
X177732795Y-96590256D01*
X177846063Y-96759774D01*
X177990226Y-96903937D01*
X178159744Y-97017205D01*
X178348102Y-97095226D01*
X178548061Y-97135000D01*
X178751939Y-97135000D01*
X178951898Y-97095226D01*
X179140256Y-97017205D01*
X179188454Y-96985000D01*
X179265375Y-96985000D01*
X179274188Y-97074482D01*
X179310498Y-97194180D01*
X179369463Y-97304494D01*
X179448815Y-97401185D01*
X179545506Y-97480537D01*
X179655820Y-97539502D01*
X179775518Y-97575812D01*
X179900000Y-97588072D01*
X182400000Y-97588072D01*
X182411480Y-97586941D01*
X170383422Y-109615000D01*
X167938072Y-109615000D01*
X167938072Y-104300000D01*
X167925812Y-104175518D01*
X167889502Y-104055820D01*
X167830537Y-103945506D01*
X167751185Y-103848815D01*
X167654494Y-103769463D01*
X167544180Y-103710498D01*
X167424482Y-103674188D01*
X167300000Y-103661928D01*
X164300000Y-103661928D01*
X164175518Y-103674188D01*
X164055820Y-103710498D01*
X163945506Y-103769463D01*
X163848815Y-103848815D01*
X163769463Y-103945506D01*
X163710498Y-104055820D01*
X163674188Y-104175518D01*
X163661928Y-104300000D01*
X163661928Y-117300000D01*
X163674188Y-117424482D01*
X163710498Y-117544180D01*
X163769463Y-117654494D01*
X163848815Y-117751185D01*
X163945506Y-117830537D01*
X164055820Y-117889502D01*
X164175518Y-117925812D01*
X164300000Y-117938072D01*
X167300000Y-117938072D01*
X167424482Y-117925812D01*
X167544180Y-117889502D01*
X167654494Y-117830537D01*
X167751185Y-117751185D01*
X167830537Y-117654494D01*
X167889502Y-117544180D01*
X167925812Y-117424482D01*
X167938072Y-117300000D01*
X167938072Y-116726203D01*
X175255000Y-116726203D01*
X175255000Y-117013797D01*
X175311107Y-117295866D01*
X175421165Y-117561569D01*
X175580944Y-117800696D01*
X175784304Y-118004056D01*
X176023431Y-118163835D01*
X176289134Y-118273893D01*
X176571203Y-118330000D01*
X176858797Y-118330000D01*
X177140866Y-118273893D01*
X177406569Y-118163835D01*
X177645696Y-118004056D01*
X177849056Y-117800696D01*
X178008835Y-117561569D01*
X178118893Y-117295866D01*
X178175000Y-117013797D01*
X178175000Y-116726203D01*
X178118893Y-116444134D01*
X178008835Y-116178431D01*
X177911703Y-116033061D01*
X180430000Y-116033061D01*
X180430000Y-116236939D01*
X180469774Y-116436898D01*
X180547795Y-116625256D01*
X180661063Y-116794774D01*
X180805226Y-116938937D01*
X180974744Y-117052205D01*
X181163102Y-117130226D01*
X181363061Y-117170000D01*
X181566939Y-117170000D01*
X181766898Y-117130226D01*
X181955256Y-117052205D01*
X182124774Y-116938937D01*
X182268937Y-116794774D01*
X182314754Y-116726203D01*
X186025000Y-116726203D01*
X186025000Y-117013797D01*
X186081107Y-117295866D01*
X186191165Y-117561569D01*
X186350944Y-117800696D01*
X186554304Y-118004056D01*
X186793431Y-118163835D01*
X187059134Y-118273893D01*
X187341203Y-118330000D01*
X187628797Y-118330000D01*
X187910866Y-118273893D01*
X188176569Y-118163835D01*
X188415696Y-118004056D01*
X188619056Y-117800696D01*
X188778835Y-117561569D01*
X188888893Y-117295866D01*
X188945000Y-117013797D01*
X188945000Y-116726203D01*
X188888893Y-116444134D01*
X188778835Y-116178431D01*
X188619056Y-115939304D01*
X188415696Y-115735944D01*
X188176569Y-115576165D01*
X187910866Y-115466107D01*
X187628797Y-115410000D01*
X187341203Y-115410000D01*
X187059134Y-115466107D01*
X186793431Y-115576165D01*
X186554304Y-115735944D01*
X186350944Y-115939304D01*
X186191165Y-116178431D01*
X186081107Y-116444134D01*
X186025000Y-116726203D01*
X182314754Y-116726203D01*
X182382205Y-116625256D01*
X182460226Y-116436898D01*
X182500000Y-116236939D01*
X182500000Y-116033061D01*
X182460226Y-115833102D01*
X182382205Y-115644744D01*
X182268937Y-115475226D01*
X182124774Y-115331063D01*
X181955256Y-115217795D01*
X181766898Y-115139774D01*
X181566939Y-115100000D01*
X181363061Y-115100000D01*
X181163102Y-115139774D01*
X180974744Y-115217795D01*
X180805226Y-115331063D01*
X180661063Y-115475226D01*
X180547795Y-115644744D01*
X180469774Y-115833102D01*
X180430000Y-116033061D01*
X177911703Y-116033061D01*
X177849056Y-115939304D01*
X177645696Y-115735944D01*
X177406569Y-115576165D01*
X177140866Y-115466107D01*
X176858797Y-115410000D01*
X176571203Y-115410000D01*
X176289134Y-115466107D01*
X176023431Y-115576165D01*
X175784304Y-115735944D01*
X175580944Y-115939304D01*
X175421165Y-116178431D01*
X175311107Y-116444134D01*
X175255000Y-116726203D01*
X167938072Y-116726203D01*
X167938072Y-113898061D01*
X189465000Y-113898061D01*
X189465000Y-114101939D01*
X189504774Y-114301898D01*
X189582795Y-114490256D01*
X189696063Y-114659774D01*
X189840226Y-114803937D01*
X190009744Y-114917205D01*
X190198102Y-114995226D01*
X190398061Y-115035000D01*
X190601939Y-115035000D01*
X190801898Y-114995226D01*
X190990256Y-114917205D01*
X191159774Y-114803937D01*
X191303937Y-114659774D01*
X191417205Y-114490256D01*
X191495226Y-114301898D01*
X191535000Y-114101939D01*
X191535000Y-113898061D01*
X191495226Y-113698102D01*
X191417205Y-113509744D01*
X191303937Y-113340226D01*
X191159774Y-113196063D01*
X190990256Y-113082795D01*
X190801898Y-113004774D01*
X190601939Y-112965000D01*
X190398061Y-112965000D01*
X190198102Y-113004774D01*
X190009744Y-113082795D01*
X189840226Y-113196063D01*
X189696063Y-113340226D01*
X189582795Y-113509744D01*
X189504774Y-113698102D01*
X189465000Y-113898061D01*
X167938072Y-113898061D01*
X167938072Y-111385000D01*
X170706531Y-111385000D01*
X170750000Y-111389281D01*
X170793469Y-111385000D01*
X170793477Y-111385000D01*
X170923490Y-111372195D01*
X171090313Y-111321589D01*
X171244059Y-111239411D01*
X171378817Y-111128817D01*
X171406534Y-111095044D01*
X184913507Y-97588072D01*
X186400000Y-97588072D01*
X186524482Y-97575812D01*
X186644180Y-97539502D01*
X186754494Y-97480537D01*
X186851185Y-97401185D01*
X186930537Y-97304494D01*
X186989502Y-97194180D01*
X187025812Y-97074482D01*
X187034625Y-96985000D01*
X188665375Y-96985000D01*
X188674188Y-97074482D01*
X188710498Y-97194180D01*
X188769463Y-97304494D01*
X188848815Y-97401185D01*
X188945506Y-97480537D01*
X189055820Y-97539502D01*
X189175518Y-97575812D01*
X189300000Y-97588072D01*
X191800000Y-97588072D01*
X191924482Y-97575812D01*
X192044180Y-97539502D01*
X192154494Y-97480537D01*
X192251185Y-97401185D01*
X192330537Y-97304494D01*
X192389502Y-97194180D01*
X192425812Y-97074482D01*
X192438072Y-96950000D01*
X192438072Y-95250000D01*
X192425812Y-95125518D01*
X192389502Y-95005820D01*
X192330537Y-94895506D01*
X192251185Y-94798815D01*
X192154494Y-94719463D01*
X192044180Y-94660498D01*
X191924482Y-94624188D01*
X191800000Y-94611928D01*
X189300000Y-94611928D01*
X189175518Y-94624188D01*
X189055820Y-94660498D01*
X188945506Y-94719463D01*
X188848815Y-94798815D01*
X188769463Y-94895506D01*
X188710498Y-95005820D01*
X188674188Y-95125518D01*
X188665375Y-95215000D01*
X187034625Y-95215000D01*
X187025812Y-95125518D01*
X186989502Y-95005820D01*
X186930537Y-94895506D01*
X186851185Y-94798815D01*
X186754494Y-94719463D01*
X186644180Y-94660498D01*
X186524482Y-94624188D01*
X186400000Y-94611928D01*
X184913507Y-94611928D01*
X171756534Y-81454956D01*
X171728817Y-81421183D01*
X171594059Y-81310589D01*
X171440313Y-81228411D01*
X171273490Y-81177805D01*
X171143477Y-81165000D01*
X171143469Y-81165000D01*
X171100000Y-81160719D01*
X171056531Y-81165000D01*
X167938072Y-81165000D01*
X167938072Y-75500000D01*
X167925812Y-75375518D01*
X167889502Y-75255820D01*
X167830537Y-75145506D01*
X167751185Y-75048815D01*
X167654494Y-74969463D01*
X167544180Y-74910498D01*
X167424482Y-74874188D01*
X167300000Y-74861928D01*
X164300000Y-74861928D01*
X164175518Y-74874188D01*
X164055820Y-74910498D01*
X163945506Y-74969463D01*
X163848815Y-75048815D01*
X163769463Y-75145506D01*
X163710498Y-75255820D01*
X163674188Y-75375518D01*
X163661928Y-75500000D01*
X163661928Y-78912708D01*
X163447743Y-78823989D01*
X163151184Y-78765000D01*
X162848816Y-78765000D01*
X162552257Y-78823989D01*
X162272905Y-78939701D01*
X162021495Y-79107688D01*
X161807688Y-79321495D01*
X161639701Y-79572905D01*
X161523989Y-79852257D01*
X161465000Y-80148816D01*
X159710000Y-80148816D01*
X159710000Y-80101278D01*
X159651971Y-79809549D01*
X159538144Y-79534747D01*
X159372893Y-79287431D01*
X159162569Y-79077107D01*
X158915253Y-78911856D01*
X158640451Y-78798029D01*
X158348722Y-78740000D01*
X158051278Y-78740000D01*
X157759549Y-78798029D01*
X157484747Y-78911856D01*
X157338072Y-79009861D01*
X157338072Y-75500000D01*
X157325812Y-75375518D01*
X157289502Y-75255820D01*
X157230537Y-75145506D01*
X157151185Y-75048815D01*
X157054494Y-74969463D01*
X156944180Y-74910498D01*
X156824482Y-74874188D01*
X156700000Y-74861928D01*
X156085000Y-74861928D01*
X156085000Y-60138072D01*
X156700000Y-60138072D01*
X156824482Y-60125812D01*
X156944180Y-60089502D01*
X157054494Y-60030537D01*
X157151185Y-59951185D01*
X157230537Y-59854494D01*
X157289502Y-59744180D01*
X157325812Y-59624482D01*
X157338072Y-59500000D01*
X157338072Y-46500000D01*
X163661928Y-46500000D01*
X163661928Y-59500000D01*
X163674188Y-59624482D01*
X163710498Y-59744180D01*
X163769463Y-59854494D01*
X163848815Y-59951185D01*
X163945506Y-60030537D01*
X164055820Y-60089502D01*
X164175518Y-60125812D01*
X164300000Y-60138072D01*
X167300000Y-60138072D01*
X167424482Y-60125812D01*
X167544180Y-60089502D01*
X167654494Y-60030537D01*
X167751185Y-59951185D01*
X167830537Y-59854494D01*
X167889502Y-59744180D01*
X167925812Y-59624482D01*
X167938072Y-59500000D01*
X167938072Y-56739650D01*
X174078635Y-62880214D01*
X174082795Y-62890256D01*
X174196063Y-63059774D01*
X174340226Y-63203937D01*
X174509744Y-63317205D01*
X174519786Y-63321364D01*
X179293470Y-68095049D01*
X179321183Y-68128817D01*
X179354951Y-68156530D01*
X179354953Y-68156532D01*
X179455941Y-68239411D01*
X179609686Y-68321589D01*
X179721623Y-68355545D01*
X179776510Y-68372195D01*
X179906523Y-68385000D01*
X179906531Y-68385000D01*
X179950000Y-68389281D01*
X179993469Y-68385000D01*
X182865375Y-68385000D01*
X182874188Y-68474482D01*
X182910498Y-68594180D01*
X182969463Y-68704494D01*
X183048815Y-68801185D01*
X183145506Y-68880537D01*
X183255820Y-68939502D01*
X183375518Y-68975812D01*
X183500000Y-68988072D01*
X186000000Y-68988072D01*
X186124482Y-68975812D01*
X186244180Y-68939502D01*
X186354494Y-68880537D01*
X186451185Y-68801185D01*
X186530537Y-68704494D01*
X186589502Y-68594180D01*
X186625812Y-68474482D01*
X186638072Y-68350000D01*
X186638072Y-66650000D01*
X186625812Y-66525518D01*
X186589502Y-66405820D01*
X186530537Y-66295506D01*
X186451185Y-66198815D01*
X186354494Y-66119463D01*
X186244180Y-66060498D01*
X186124482Y-66024188D01*
X186000000Y-66011928D01*
X183500000Y-66011928D01*
X183375518Y-66024188D01*
X183255820Y-66060498D01*
X183145506Y-66119463D01*
X183048815Y-66198815D01*
X182969463Y-66295506D01*
X182910498Y-66405820D01*
X182874188Y-66525518D01*
X182865375Y-66615000D01*
X180316579Y-66615000D01*
X179342782Y-65641203D01*
X193925000Y-65641203D01*
X193925000Y-65928797D01*
X193981107Y-66210866D01*
X194091165Y-66476569D01*
X194250944Y-66715696D01*
X194454304Y-66919056D01*
X194693431Y-67078835D01*
X194959134Y-67188893D01*
X195241203Y-67245000D01*
X195528797Y-67245000D01*
X195810866Y-67188893D01*
X196076569Y-67078835D01*
X196315696Y-66919056D01*
X196519056Y-66715696D01*
X196678835Y-66476569D01*
X196788893Y-66210866D01*
X196845000Y-65928797D01*
X196845000Y-65641203D01*
X196788893Y-65359134D01*
X196678835Y-65093431D01*
X196519056Y-64854304D01*
X196315696Y-64650944D01*
X196076569Y-64491165D01*
X195810866Y-64381107D01*
X195528797Y-64325000D01*
X195241203Y-64325000D01*
X194959134Y-64381107D01*
X194693431Y-64491165D01*
X194454304Y-64650944D01*
X194250944Y-64854304D01*
X194091165Y-65093431D01*
X193981107Y-65359134D01*
X193925000Y-65641203D01*
X179342782Y-65641203D01*
X176035000Y-62333421D01*
X176035000Y-62298061D01*
X175995226Y-62098102D01*
X175917205Y-61909744D01*
X175803937Y-61740226D01*
X175659774Y-61596063D01*
X175490256Y-61482795D01*
X175301898Y-61404774D01*
X175101939Y-61365000D01*
X175066579Y-61365000D01*
X168572782Y-54871203D01*
X193925000Y-54871203D01*
X193925000Y-55158797D01*
X193981107Y-55440866D01*
X194091165Y-55706569D01*
X194250944Y-55945696D01*
X194454304Y-56149056D01*
X194693431Y-56308835D01*
X194959134Y-56418893D01*
X195241203Y-56475000D01*
X195528797Y-56475000D01*
X195810866Y-56418893D01*
X196076569Y-56308835D01*
X196315696Y-56149056D01*
X196519056Y-55945696D01*
X196678835Y-55706569D01*
X196788893Y-55440866D01*
X196845000Y-55158797D01*
X196845000Y-54898061D01*
X200115000Y-54898061D01*
X200115000Y-55101939D01*
X200154774Y-55301898D01*
X200232795Y-55490256D01*
X200346063Y-55659774D01*
X200490226Y-55803937D01*
X200659744Y-55917205D01*
X200848102Y-55995226D01*
X201048061Y-56035000D01*
X201251939Y-56035000D01*
X201451898Y-55995226D01*
X201640256Y-55917205D01*
X201809774Y-55803937D01*
X201953937Y-55659774D01*
X202067205Y-55490256D01*
X202145226Y-55301898D01*
X202185000Y-55101939D01*
X202185000Y-54898061D01*
X202145226Y-54698102D01*
X202067205Y-54509744D01*
X201953937Y-54340226D01*
X201809774Y-54196063D01*
X201640256Y-54082795D01*
X201451898Y-54004774D01*
X201251939Y-53965000D01*
X201048061Y-53965000D01*
X200848102Y-54004774D01*
X200659744Y-54082795D01*
X200490226Y-54196063D01*
X200346063Y-54340226D01*
X200232795Y-54509744D01*
X200154774Y-54698102D01*
X200115000Y-54898061D01*
X196845000Y-54898061D01*
X196845000Y-54871203D01*
X196788893Y-54589134D01*
X196678835Y-54323431D01*
X196519056Y-54084304D01*
X196315696Y-53880944D01*
X196076569Y-53721165D01*
X195810866Y-53611107D01*
X195528797Y-53555000D01*
X195241203Y-53555000D01*
X194959134Y-53611107D01*
X194693431Y-53721165D01*
X194454304Y-53880944D01*
X194250944Y-54084304D01*
X194091165Y-54323431D01*
X193981107Y-54589134D01*
X193925000Y-54871203D01*
X168572782Y-54871203D01*
X167938072Y-54236494D01*
X167938072Y-47623061D01*
X177740000Y-47623061D01*
X177740000Y-47826939D01*
X177779774Y-48026898D01*
X177857795Y-48215256D01*
X177971063Y-48384774D01*
X178115226Y-48528937D01*
X178284744Y-48642205D01*
X178473102Y-48720226D01*
X178673061Y-48760000D01*
X178876939Y-48760000D01*
X179076898Y-48720226D01*
X179265256Y-48642205D01*
X179434774Y-48528937D01*
X179578937Y-48384774D01*
X179692205Y-48215256D01*
X179770226Y-48026898D01*
X179810000Y-47826939D01*
X179810000Y-47623061D01*
X179770226Y-47423102D01*
X179692205Y-47234744D01*
X179578937Y-47065226D01*
X179434774Y-46921063D01*
X179265256Y-46807795D01*
X179076898Y-46729774D01*
X178876939Y-46690000D01*
X178673061Y-46690000D01*
X178473102Y-46729774D01*
X178284744Y-46807795D01*
X178115226Y-46921063D01*
X177971063Y-47065226D01*
X177857795Y-47234744D01*
X177779774Y-47423102D01*
X177740000Y-47623061D01*
X167938072Y-47623061D01*
X167938072Y-46500000D01*
X167925812Y-46375518D01*
X167889502Y-46255820D01*
X167830537Y-46145506D01*
X167751185Y-46048815D01*
X167654494Y-45969463D01*
X167544180Y-45910498D01*
X167424482Y-45874188D01*
X167300000Y-45861928D01*
X164300000Y-45861928D01*
X164175518Y-45874188D01*
X164055820Y-45910498D01*
X163945506Y-45969463D01*
X163848815Y-46048815D01*
X163769463Y-46145506D01*
X163710498Y-46255820D01*
X163674188Y-46375518D01*
X163661928Y-46500000D01*
X157338072Y-46500000D01*
X157325812Y-46375518D01*
X157289502Y-46255820D01*
X157230537Y-46145506D01*
X157151185Y-46048815D01*
X157054494Y-45969463D01*
X156944180Y-45910498D01*
X156824482Y-45874188D01*
X156700000Y-45861928D01*
X153700000Y-45861928D01*
X153575518Y-45874188D01*
X153455820Y-45910498D01*
X153345506Y-45969463D01*
X153248815Y-46048815D01*
X153169463Y-46145506D01*
X153110498Y-46255820D01*
X153074188Y-46375518D01*
X153061928Y-46500000D01*
X153061928Y-59500000D01*
X153074188Y-59624482D01*
X153110498Y-59744180D01*
X153169463Y-59854494D01*
X153248815Y-59951185D01*
X153345506Y-60030537D01*
X153455820Y-60089502D01*
X153575518Y-60125812D01*
X153700000Y-60138072D01*
X154315001Y-60138072D01*
X154315000Y-74861928D01*
X153700000Y-74861928D01*
X153575518Y-74874188D01*
X153455820Y-74910498D01*
X153345506Y-74969463D01*
X153248815Y-75048815D01*
X153169463Y-75145506D01*
X153110498Y-75255820D01*
X153074188Y-75375518D01*
X153061928Y-75500000D01*
X153061928Y-81115000D01*
X152266579Y-81115000D01*
X143906537Y-72754959D01*
X143906532Y-72754953D01*
X140927002Y-69775424D01*
X140927002Y-69676252D01*
X141085750Y-69835000D01*
X141525000Y-69838072D01*
X141649482Y-69825812D01*
X141762081Y-69791655D01*
X141792374Y-69808751D01*
X141911209Y-69847794D01*
X142018250Y-69860000D01*
X142155525Y-69722725D01*
X142195506Y-69755537D01*
X142305820Y-69814502D01*
X142349503Y-69827753D01*
X142381750Y-69860000D01*
X142445267Y-69852757D01*
X142550000Y-69863072D01*
X142850000Y-69863072D01*
X142950000Y-69853223D01*
X143050000Y-69863072D01*
X143350000Y-69863072D01*
X143450000Y-69853223D01*
X143550000Y-69863072D01*
X143850000Y-69863072D01*
X143974482Y-69850812D01*
X144094180Y-69814502D01*
X144204494Y-69755537D01*
X144301185Y-69676185D01*
X144380537Y-69579494D01*
X144439502Y-69469180D01*
X144475812Y-69349482D01*
X144488072Y-69225000D01*
X144488072Y-68737048D01*
X144614250Y-68735000D01*
X144773000Y-68576250D01*
X144773000Y-67827000D01*
X145027000Y-67827000D01*
X145027000Y-68576250D01*
X145185750Y-68735000D01*
X145375000Y-68738072D01*
X145499482Y-68725812D01*
X145619180Y-68689502D01*
X145675000Y-68659665D01*
X145730820Y-68689502D01*
X145850518Y-68725812D01*
X145975000Y-68738072D01*
X146164250Y-68735000D01*
X146323000Y-68576250D01*
X146323000Y-67827000D01*
X145027000Y-67827000D01*
X144773000Y-67827000D01*
X144753000Y-67827000D01*
X144753000Y-67573000D01*
X144773000Y-67573000D01*
X144773000Y-67553000D01*
X145027000Y-67553000D01*
X145027000Y-67573000D01*
X146323000Y-67573000D01*
X146323000Y-67553000D01*
X146577000Y-67553000D01*
X146577000Y-67573000D01*
X146597000Y-67573000D01*
X146597000Y-67827000D01*
X146577000Y-67827000D01*
X146577000Y-68576250D01*
X146735750Y-68735000D01*
X146925000Y-68738072D01*
X147049482Y-68725812D01*
X147111928Y-68706869D01*
X147111928Y-69070000D01*
X147124188Y-69194482D01*
X147160498Y-69314180D01*
X147219463Y-69424494D01*
X147298815Y-69521185D01*
X147395506Y-69600537D01*
X147505820Y-69659502D01*
X147625518Y-69695812D01*
X147750000Y-69708072D01*
X148350000Y-69708072D01*
X148474482Y-69695812D01*
X148594180Y-69659502D01*
X148704494Y-69600537D01*
X148750000Y-69563191D01*
X148795506Y-69600537D01*
X148905820Y-69659502D01*
X149025518Y-69695812D01*
X149150000Y-69708072D01*
X149164250Y-69705000D01*
X149323000Y-69546250D01*
X149323000Y-68837000D01*
X149303000Y-68837000D01*
X149303000Y-68738072D01*
X149597000Y-68738072D01*
X149597000Y-68837000D01*
X149577000Y-68837000D01*
X149577000Y-69546250D01*
X149735750Y-69705000D01*
X149750000Y-69708072D01*
X149874482Y-69695812D01*
X149913964Y-69683835D01*
X149911928Y-69975000D01*
X149924188Y-70099482D01*
X149960498Y-70219180D01*
X150019463Y-70329494D01*
X150098815Y-70426185D01*
X150195506Y-70505537D01*
X150305820Y-70564502D01*
X150425518Y-70600812D01*
X150550000Y-70613072D01*
X150764250Y-70610000D01*
X150923000Y-70451250D01*
X150923000Y-69377000D01*
X150903000Y-69377000D01*
X150903000Y-69123000D01*
X150923000Y-69123000D01*
X150923000Y-69103000D01*
X151177000Y-69103000D01*
X151177000Y-69123000D01*
X151197000Y-69123000D01*
X151197000Y-69377000D01*
X151177000Y-69377000D01*
X151177000Y-70451250D01*
X151335750Y-70610000D01*
X151550000Y-70613072D01*
X151674482Y-70600812D01*
X151794180Y-70564502D01*
X151904494Y-70505537D01*
X152001185Y-70426185D01*
X152066658Y-70346406D01*
X152072038Y-70352962D01*
X152190001Y-70449771D01*
X152190001Y-70546288D01*
X152146063Y-70590226D01*
X152032795Y-70759744D01*
X151954774Y-70948102D01*
X151915000Y-71148061D01*
X151915000Y-71351939D01*
X151954774Y-71551898D01*
X152032795Y-71740256D01*
X152146063Y-71909774D01*
X152290226Y-72053937D01*
X152459744Y-72167205D01*
X152648102Y-72245226D01*
X152848061Y-72285000D01*
X153051939Y-72285000D01*
X153251898Y-72245226D01*
X153440256Y-72167205D01*
X153609774Y-72053937D01*
X153753937Y-71909774D01*
X153867205Y-71740256D01*
X153945226Y-71551898D01*
X153985000Y-71351939D01*
X153985000Y-71148061D01*
X153945226Y-70948102D01*
X153867205Y-70759744D01*
X153753937Y-70590226D01*
X153710000Y-70546289D01*
X153710000Y-70449770D01*
X153827962Y-70352962D01*
X153938405Y-70218386D01*
X154020472Y-70064850D01*
X154071008Y-69898254D01*
X154088072Y-69725000D01*
X154088072Y-68775000D01*
X154071008Y-68601746D01*
X154020472Y-68435150D01*
X153938405Y-68281614D01*
X153827962Y-68147038D01*
X153710000Y-68050230D01*
X153710000Y-67199770D01*
X153827962Y-67102962D01*
X153938405Y-66968386D01*
X154020472Y-66814850D01*
X154071008Y-66648254D01*
X154088072Y-66475000D01*
X154088072Y-65525000D01*
X154071008Y-65351746D01*
X154020472Y-65185150D01*
X153938405Y-65031614D01*
X153827962Y-64897038D01*
X153693386Y-64786595D01*
X153539850Y-64704528D01*
X153373254Y-64653992D01*
X153200000Y-64636928D01*
X152700000Y-64636928D01*
X152526746Y-64653992D01*
X152360150Y-64704528D01*
X152206614Y-64786595D01*
X152072038Y-64897038D01*
X152066658Y-64903594D01*
X152001185Y-64823815D01*
X151904494Y-64744463D01*
X151794180Y-64685498D01*
X151674482Y-64649188D01*
X151550000Y-64636928D01*
X151335750Y-64640000D01*
X151177000Y-64798750D01*
X151177000Y-65873000D01*
X151197000Y-65873000D01*
X151197000Y-66127000D01*
X151177000Y-66127000D01*
X151177000Y-66147000D01*
X150923000Y-66147000D01*
X150923000Y-66127000D01*
X150903000Y-66127000D01*
X150903000Y-65873000D01*
X150923000Y-65873000D01*
X150923000Y-64798750D01*
X150764250Y-64640000D01*
X150550000Y-64636928D01*
X150425518Y-64649188D01*
X150305820Y-64685498D01*
X150195506Y-64744463D01*
X150098815Y-64823815D01*
X150051689Y-64881238D01*
X149994180Y-64850498D01*
X149874482Y-64814188D01*
X149750000Y-64801928D01*
X149735750Y-64805000D01*
X149577000Y-64963750D01*
X149577000Y-65673000D01*
X149597000Y-65673000D01*
X149597000Y-65771928D01*
X149510000Y-65771928D01*
X149510000Y-65387325D01*
X149513676Y-65350000D01*
X149510000Y-65312675D01*
X149510000Y-65312667D01*
X149499003Y-65201014D01*
X149455546Y-65057753D01*
X149384974Y-64925724D01*
X149290001Y-64809999D01*
X149261004Y-64786202D01*
X148188803Y-63714001D01*
X148165000Y-63684998D01*
X148049275Y-63590025D01*
X147917246Y-63519453D01*
X147773985Y-63475996D01*
X147662332Y-63464999D01*
X147662321Y-63464999D01*
X147624999Y-63461323D01*
X147587677Y-63464999D01*
X146139321Y-63464999D01*
X146101998Y-63461323D01*
X146064675Y-63464999D01*
X144518710Y-63464999D01*
X144474773Y-63421062D01*
X144305255Y-63307794D01*
X144250226Y-63285000D01*
X151161546Y-63285000D01*
X151209744Y-63317205D01*
X151398102Y-63395226D01*
X151598061Y-63435000D01*
X151801939Y-63435000D01*
X152001898Y-63395226D01*
X152190256Y-63317205D01*
X152359774Y-63203937D01*
X152503937Y-63059774D01*
X152617205Y-62890256D01*
X152695226Y-62701898D01*
X152735000Y-62501939D01*
X152735000Y-62298061D01*
X152695226Y-62098102D01*
X152617205Y-61909744D01*
X152503937Y-61740226D01*
X152359774Y-61596063D01*
X152190256Y-61482795D01*
X152001898Y-61404774D01*
X151801939Y-61365000D01*
X151598061Y-61365000D01*
X151398102Y-61404774D01*
X151209744Y-61482795D01*
X151161546Y-61515000D01*
X137543465Y-61515000D01*
X137499999Y-61510719D01*
X137456533Y-61515000D01*
X137456523Y-61515000D01*
X137326510Y-61527805D01*
X137159687Y-61578411D01*
X137005941Y-61660589D01*
X137005939Y-61660590D01*
X137005940Y-61660590D01*
X136904953Y-61743468D01*
X136904951Y-61743470D01*
X136871183Y-61771183D01*
X136843470Y-61804951D01*
X133136494Y-65511928D01*
X131650000Y-65511928D01*
X131525518Y-65524188D01*
X131405820Y-65560498D01*
X131295506Y-65619463D01*
X131198815Y-65698815D01*
X131119463Y-65795506D01*
X131075000Y-65878689D01*
X131030537Y-65795506D01*
X130951185Y-65698815D01*
X130854494Y-65619463D01*
X130744180Y-65560498D01*
X130624482Y-65524188D01*
X130500000Y-65511928D01*
X129013507Y-65511928D01*
X117338072Y-53836494D01*
X117338072Y-52148061D01*
X121015000Y-52148061D01*
X121015000Y-52351939D01*
X121054774Y-52551898D01*
X121132795Y-52740256D01*
X121246063Y-52909774D01*
X121390226Y-53053937D01*
X121559744Y-53167205D01*
X121748102Y-53245226D01*
X121948061Y-53285000D01*
X122151939Y-53285000D01*
X122351898Y-53245226D01*
X122540256Y-53167205D01*
X122709774Y-53053937D01*
X122853937Y-52909774D01*
X122967205Y-52740256D01*
X123045226Y-52551898D01*
X123085000Y-52351939D01*
X123085000Y-52148061D01*
X123045226Y-51948102D01*
X122967205Y-51759744D01*
X122853937Y-51590226D01*
X122709774Y-51446063D01*
X122540256Y-51332795D01*
X122351898Y-51254774D01*
X122151939Y-51215000D01*
X121948061Y-51215000D01*
X121748102Y-51254774D01*
X121559744Y-51332795D01*
X121390226Y-51446063D01*
X121246063Y-51590226D01*
X121132795Y-51759744D01*
X121054774Y-51948102D01*
X121015000Y-52148061D01*
X117338072Y-52148061D01*
X117338072Y-46971203D01*
X132055000Y-46971203D01*
X132055000Y-47258797D01*
X132111107Y-47540866D01*
X132221165Y-47806569D01*
X132380944Y-48045696D01*
X132584304Y-48249056D01*
X132823431Y-48408835D01*
X133089134Y-48518893D01*
X133371203Y-48575000D01*
X133658797Y-48575000D01*
X133940866Y-48518893D01*
X134206569Y-48408835D01*
X134445696Y-48249056D01*
X134649056Y-48045696D01*
X134808835Y-47806569D01*
X134918893Y-47540866D01*
X134975000Y-47258797D01*
X134975000Y-46971203D01*
X142825000Y-46971203D01*
X142825000Y-47258797D01*
X142881107Y-47540866D01*
X142991165Y-47806569D01*
X143150944Y-48045696D01*
X143354304Y-48249056D01*
X143593431Y-48408835D01*
X143859134Y-48518893D01*
X144141203Y-48575000D01*
X144428797Y-48575000D01*
X144710866Y-48518893D01*
X144976569Y-48408835D01*
X145215696Y-48249056D01*
X145419056Y-48045696D01*
X145578835Y-47806569D01*
X145688893Y-47540866D01*
X145745000Y-47258797D01*
X145745000Y-46971203D01*
X145688893Y-46689134D01*
X145578835Y-46423431D01*
X145419056Y-46184304D01*
X145215696Y-45980944D01*
X144976569Y-45821165D01*
X144710866Y-45711107D01*
X144428797Y-45655000D01*
X144141203Y-45655000D01*
X143859134Y-45711107D01*
X143593431Y-45821165D01*
X143354304Y-45980944D01*
X143150944Y-46184304D01*
X142991165Y-46423431D01*
X142881107Y-46689134D01*
X142825000Y-46971203D01*
X134975000Y-46971203D01*
X134918893Y-46689134D01*
X134808835Y-46423431D01*
X134649056Y-46184304D01*
X134445696Y-45980944D01*
X134206569Y-45821165D01*
X133940866Y-45711107D01*
X133658797Y-45655000D01*
X133371203Y-45655000D01*
X133089134Y-45711107D01*
X132823431Y-45821165D01*
X132584304Y-45980944D01*
X132380944Y-46184304D01*
X132221165Y-46423431D01*
X132111107Y-46689134D01*
X132055000Y-46971203D01*
X117338072Y-46971203D01*
X117338072Y-46500000D01*
X117325812Y-46375518D01*
X117289502Y-46255820D01*
X117230537Y-46145506D01*
X117151185Y-46048815D01*
X117054494Y-45969463D01*
X116944180Y-45910498D01*
X116824482Y-45874188D01*
X116700000Y-45861928D01*
X114160000Y-45861928D01*
X114160000Y-44254856D01*
X138508205Y-44254856D01*
X138508205Y-44458734D01*
X138547979Y-44658693D01*
X138626000Y-44847051D01*
X138739268Y-45016569D01*
X138883431Y-45160732D01*
X139052949Y-45274000D01*
X139241307Y-45352021D01*
X139441266Y-45391795D01*
X139645144Y-45391795D01*
X139845103Y-45352021D01*
X140033461Y-45274000D01*
X140202979Y-45160732D01*
X140347142Y-45016569D01*
X140460410Y-44847051D01*
X140538431Y-44658693D01*
X140578205Y-44458734D01*
X140578205Y-44254856D01*
X140538431Y-44054897D01*
X140460410Y-43866539D01*
X140347142Y-43697021D01*
X140202979Y-43552858D01*
X140033461Y-43439590D01*
X139845103Y-43361569D01*
X139645144Y-43321795D01*
X139441266Y-43321795D01*
X139241307Y-43361569D01*
X139052949Y-43439590D01*
X138883431Y-43552858D01*
X138739268Y-43697021D01*
X138626000Y-43866539D01*
X138547979Y-44054897D01*
X138508205Y-44254856D01*
X114160000Y-44254856D01*
X114160000Y-41773061D01*
X134690000Y-41773061D01*
X134690000Y-41976939D01*
X134729774Y-42176898D01*
X134807795Y-42365256D01*
X134921063Y-42534774D01*
X135065226Y-42678937D01*
X135234744Y-42792205D01*
X135423102Y-42870226D01*
X135623061Y-42910000D01*
X135826939Y-42910000D01*
X136026898Y-42870226D01*
X136215256Y-42792205D01*
X136384774Y-42678937D01*
X136528937Y-42534774D01*
X136642205Y-42365256D01*
X136720226Y-42176898D01*
X136760000Y-41976939D01*
X136760000Y-41773061D01*
X136720226Y-41573102D01*
X136642205Y-41384744D01*
X136549603Y-41246154D01*
X157415000Y-41246154D01*
X157415000Y-41853846D01*
X157533555Y-42449861D01*
X157766108Y-43011295D01*
X158103724Y-43516573D01*
X158533427Y-43946276D01*
X159038705Y-44283892D01*
X159600139Y-44516445D01*
X160196154Y-44635000D01*
X160803846Y-44635000D01*
X161399861Y-44516445D01*
X161961295Y-44283892D01*
X162466573Y-43946276D01*
X162896276Y-43516573D01*
X163233892Y-43011295D01*
X163466445Y-42449861D01*
X163585000Y-41853846D01*
X163585000Y-41246154D01*
X163466445Y-40650139D01*
X163233892Y-40088705D01*
X162896276Y-39583427D01*
X162466573Y-39153724D01*
X161961295Y-38816108D01*
X161399861Y-38583555D01*
X160803846Y-38465000D01*
X160196154Y-38465000D01*
X159600139Y-38583555D01*
X159038705Y-38816108D01*
X158533427Y-39153724D01*
X158103724Y-39583427D01*
X157766108Y-40088705D01*
X157533555Y-40650139D01*
X157415000Y-41246154D01*
X136549603Y-41246154D01*
X136528937Y-41215226D01*
X136384774Y-41071063D01*
X136215256Y-40957795D01*
X136026898Y-40879774D01*
X135826939Y-40840000D01*
X135623061Y-40840000D01*
X135423102Y-40879774D01*
X135234744Y-40957795D01*
X135065226Y-41071063D01*
X134921063Y-41215226D01*
X134807795Y-41384744D01*
X134729774Y-41573102D01*
X134690000Y-41773061D01*
X114160000Y-41773061D01*
X114160000Y-41160000D01*
X118967581Y-41160000D01*
X119000000Y-41163193D01*
X119032419Y-41160000D01*
X119129383Y-41150450D01*
X119253793Y-41112710D01*
X119368450Y-41051425D01*
X119468948Y-40968948D01*
X119551425Y-40868450D01*
X119612710Y-40753793D01*
X119650450Y-40629383D01*
X119663193Y-40500000D01*
X119660000Y-40467581D01*
X119660000Y-35660000D01*
X201340000Y-35660000D01*
X201340001Y-40467571D01*
%TA.AperFunction,Conductor*%
D24*
G36*
X201340001Y-40467571D02*
G01*
X201336807Y-40500000D01*
X201349550Y-40629383D01*
X201387290Y-40753793D01*
X201448575Y-40868450D01*
X201531052Y-40968948D01*
X201631550Y-41051425D01*
X201746207Y-41112710D01*
X201870617Y-41150450D01*
X201967581Y-41160000D01*
X202000000Y-41163193D01*
X202032419Y-41160000D01*
X206840000Y-41160000D01*
X206840000Y-45861928D01*
X204300000Y-45861928D01*
X204175518Y-45874188D01*
X204055820Y-45910498D01*
X203945506Y-45969463D01*
X203848815Y-46048815D01*
X203769463Y-46145506D01*
X203710498Y-46255820D01*
X203674188Y-46375518D01*
X203661928Y-46500000D01*
X203661928Y-59500000D01*
X203674188Y-59624482D01*
X203710498Y-59744180D01*
X203769463Y-59854494D01*
X203848815Y-59951185D01*
X203945506Y-60030537D01*
X204055820Y-60089502D01*
X204175518Y-60125812D01*
X204300000Y-60138072D01*
X204865000Y-60138072D01*
X204865001Y-74861928D01*
X204300000Y-74861928D01*
X204175518Y-74874188D01*
X204055820Y-74910498D01*
X203945506Y-74969463D01*
X203848815Y-75048815D01*
X203769463Y-75145506D01*
X203710498Y-75255820D01*
X203674188Y-75375518D01*
X203661928Y-75500000D01*
X203661928Y-78610349D01*
X191956534Y-66904956D01*
X191928817Y-66871183D01*
X191794059Y-66760589D01*
X191640313Y-66678411D01*
X191473490Y-66627805D01*
X191343477Y-66615000D01*
X191343469Y-66615000D01*
X191300000Y-66610719D01*
X191256531Y-66615000D01*
X190634625Y-66615000D01*
X190625812Y-66525518D01*
X190589502Y-66405820D01*
X190530537Y-66295506D01*
X190451185Y-66198815D01*
X190354494Y-66119463D01*
X190244180Y-66060498D01*
X190124482Y-66024188D01*
X190000000Y-66011928D01*
X187500000Y-66011928D01*
X187375518Y-66024188D01*
X187255820Y-66060498D01*
X187145506Y-66119463D01*
X187048815Y-66198815D01*
X186969463Y-66295506D01*
X186910498Y-66405820D01*
X186874188Y-66525518D01*
X186861928Y-66650000D01*
X186861928Y-68350000D01*
X186874188Y-68474482D01*
X186910498Y-68594180D01*
X186969463Y-68704494D01*
X187048815Y-68801185D01*
X187145506Y-68880537D01*
X187255820Y-68939502D01*
X187375518Y-68975812D01*
X187500000Y-68988072D01*
X190000000Y-68988072D01*
X190124482Y-68975812D01*
X190244180Y-68939502D01*
X190354494Y-68880537D01*
X190451185Y-68801185D01*
X190530537Y-68704494D01*
X190589502Y-68594180D01*
X190625812Y-68474482D01*
X190634625Y-68385000D01*
X190933422Y-68385000D01*
X203661928Y-81113507D01*
X203661928Y-82886493D01*
X193954952Y-92593470D01*
X193921184Y-92621183D01*
X193893471Y-92654951D01*
X193893468Y-92654954D01*
X193810590Y-92755941D01*
X193728412Y-92909687D01*
X193677805Y-93076510D01*
X193660719Y-93250000D01*
X193665001Y-93293479D01*
X193665001Y-94611928D01*
X193300000Y-94611928D01*
X193175518Y-94624188D01*
X193055820Y-94660498D01*
X192945506Y-94719463D01*
X192848815Y-94798815D01*
X192769463Y-94895506D01*
X192710498Y-95005820D01*
X192674188Y-95125518D01*
X192661928Y-95250000D01*
X192661928Y-96950000D01*
X192674188Y-97074482D01*
X192710498Y-97194180D01*
X192769463Y-97304494D01*
X192848815Y-97401185D01*
X192945506Y-97480537D01*
X193055820Y-97539502D01*
X193175518Y-97575812D01*
X193300000Y-97588072D01*
X195800000Y-97588072D01*
X195924482Y-97575812D01*
X196044180Y-97539502D01*
X196154494Y-97480537D01*
X196251185Y-97401185D01*
X196330537Y-97304494D01*
X196389502Y-97194180D01*
X196425812Y-97074482D01*
X196438072Y-96950000D01*
X196438072Y-95946154D01*
X197365000Y-95946154D01*
X197365000Y-96553846D01*
X197483555Y-97149861D01*
X197716108Y-97711295D01*
X198053724Y-98216573D01*
X198483427Y-98646276D01*
X198988705Y-98983892D01*
X199550139Y-99216445D01*
X200146154Y-99335000D01*
X200753846Y-99335000D01*
X201349861Y-99216445D01*
X201911295Y-98983892D01*
X202416573Y-98646276D01*
X202846276Y-98216573D01*
X203183892Y-97711295D01*
X203416445Y-97149861D01*
X203535000Y-96553846D01*
X203535000Y-95946154D01*
X203416445Y-95350139D01*
X203183892Y-94788705D01*
X202846276Y-94283427D01*
X202416573Y-93853724D01*
X201911295Y-93516108D01*
X201349861Y-93283555D01*
X200753846Y-93165000D01*
X200146154Y-93165000D01*
X199550139Y-93283555D01*
X198988705Y-93516108D01*
X198483427Y-93853724D01*
X198053724Y-94283427D01*
X197716108Y-94788705D01*
X197483555Y-95350139D01*
X197365000Y-95946154D01*
X196438072Y-95946154D01*
X196438072Y-95250000D01*
X196425812Y-95125518D01*
X196389502Y-95005820D01*
X196330537Y-94895506D01*
X196251185Y-94798815D01*
X196154494Y-94719463D01*
X196044180Y-94660498D01*
X195924482Y-94624188D01*
X195800000Y-94611928D01*
X195435000Y-94611928D01*
X195435000Y-93616578D01*
X203661928Y-85389651D01*
X203661928Y-88500000D01*
X203674188Y-88624482D01*
X203710498Y-88744180D01*
X203769463Y-88854494D01*
X203848815Y-88951185D01*
X203945506Y-89030537D01*
X204055820Y-89089502D01*
X204175518Y-89125812D01*
X204300000Y-89138072D01*
X206840001Y-89138072D01*
X206840001Y-103661928D01*
X204300000Y-103661928D01*
X204175518Y-103674188D01*
X204055820Y-103710498D01*
X203945506Y-103769463D01*
X203848815Y-103848815D01*
X203769463Y-103945506D01*
X203710498Y-104055820D01*
X203674188Y-104175518D01*
X203661928Y-104300000D01*
X203661928Y-109715000D01*
X202938454Y-109715000D01*
X202890256Y-109682795D01*
X202701898Y-109604774D01*
X202501939Y-109565000D01*
X202298061Y-109565000D01*
X202098102Y-109604774D01*
X201909744Y-109682795D01*
X201740226Y-109796063D01*
X201596063Y-109940226D01*
X201482795Y-110109744D01*
X201404774Y-110298102D01*
X201365000Y-110498061D01*
X201365000Y-110701939D01*
X201404774Y-110901898D01*
X201482795Y-111090256D01*
X201596063Y-111259774D01*
X201740226Y-111403937D01*
X201909744Y-111517205D01*
X202098102Y-111595226D01*
X202298061Y-111635000D01*
X202501939Y-111635000D01*
X202701898Y-111595226D01*
X202890256Y-111517205D01*
X202938454Y-111485000D01*
X203661928Y-111485000D01*
X203661928Y-117300000D01*
X203674188Y-117424482D01*
X203710498Y-117544180D01*
X203769463Y-117654494D01*
X203848815Y-117751185D01*
X203945506Y-117830537D01*
X204055820Y-117889502D01*
X204175518Y-117925812D01*
X204300000Y-117938072D01*
X206840001Y-117938072D01*
X206840001Y-122840000D01*
X202032419Y-122840000D01*
X202000000Y-122836807D01*
X201967581Y-122840000D01*
X201870617Y-122849550D01*
X201746207Y-122887290D01*
X201631550Y-122948575D01*
X201531052Y-123031052D01*
X201448575Y-123131550D01*
X201387290Y-123246207D01*
X201349550Y-123370617D01*
X201336807Y-123500000D01*
X201340001Y-123532429D01*
X201340000Y-128340000D01*
X119660000Y-128340000D01*
X119660000Y-124648061D01*
X121965000Y-124648061D01*
X121965000Y-124851939D01*
X122004774Y-125051898D01*
X122082795Y-125240256D01*
X122196063Y-125409774D01*
X122340226Y-125553937D01*
X122509744Y-125667205D01*
X122698102Y-125745226D01*
X122754957Y-125756535D01*
X123193470Y-126195049D01*
X123221183Y-126228817D01*
X123254951Y-126256530D01*
X123254953Y-126256532D01*
X123355941Y-126339411D01*
X123509686Y-126421589D01*
X123676510Y-126472195D01*
X123806523Y-126485000D01*
X123806531Y-126485000D01*
X123850000Y-126489281D01*
X123893469Y-126485000D01*
X125061928Y-126485000D01*
X125061928Y-126600000D01*
X125074188Y-126724482D01*
X125110498Y-126844180D01*
X125169463Y-126954494D01*
X125248815Y-127051185D01*
X125345506Y-127130537D01*
X125455820Y-127189502D01*
X125575518Y-127225812D01*
X125700000Y-127238072D01*
X127700000Y-127238072D01*
X127824482Y-127225812D01*
X127944180Y-127189502D01*
X128054494Y-127130537D01*
X128151185Y-127051185D01*
X128230537Y-126954494D01*
X128289502Y-126844180D01*
X128325812Y-126724482D01*
X128338072Y-126600000D01*
X128338072Y-124600000D01*
X128361928Y-124600000D01*
X128361928Y-126600000D01*
X128374188Y-126724482D01*
X128410498Y-126844180D01*
X128469463Y-126954494D01*
X128548815Y-127051185D01*
X128645506Y-127130537D01*
X128755820Y-127189502D01*
X128875518Y-127225812D01*
X129000000Y-127238072D01*
X131000000Y-127238072D01*
X131124482Y-127225812D01*
X131244180Y-127189502D01*
X131354494Y-127130537D01*
X131451185Y-127051185D01*
X131530537Y-126954494D01*
X131589502Y-126844180D01*
X131625812Y-126724482D01*
X131638072Y-126600000D01*
X131638072Y-126485000D01*
X131906531Y-126485000D01*
X131950000Y-126489281D01*
X131993469Y-126485000D01*
X131993477Y-126485000D01*
X132123490Y-126472195D01*
X132290313Y-126421589D01*
X132444059Y-126339411D01*
X132578817Y-126228817D01*
X132606534Y-126195044D01*
X133195044Y-125606535D01*
X133251898Y-125595226D01*
X133440256Y-125517205D01*
X133609774Y-125403937D01*
X133753937Y-125259774D01*
X133867205Y-125090256D01*
X133945226Y-124901898D01*
X133985000Y-124701939D01*
X133985000Y-124498061D01*
X133945226Y-124298102D01*
X133867205Y-124109744D01*
X133753937Y-123940226D01*
X133609774Y-123796063D01*
X133440256Y-123682795D01*
X133251898Y-123604774D01*
X133051939Y-123565000D01*
X132848061Y-123565000D01*
X132648102Y-123604774D01*
X132459744Y-123682795D01*
X132290226Y-123796063D01*
X132146063Y-123940226D01*
X132032795Y-124109744D01*
X131954774Y-124298102D01*
X131943465Y-124354956D01*
X131638072Y-124660350D01*
X131638072Y-124600000D01*
X131625812Y-124475518D01*
X131589502Y-124355820D01*
X131530537Y-124245506D01*
X131451185Y-124148815D01*
X131354494Y-124069463D01*
X131244180Y-124010498D01*
X131124482Y-123974188D01*
X131000000Y-123961928D01*
X129000000Y-123961928D01*
X128875518Y-123974188D01*
X128755820Y-124010498D01*
X128645506Y-124069463D01*
X128548815Y-124148815D01*
X128469463Y-124245506D01*
X128410498Y-124355820D01*
X128374188Y-124475518D01*
X128361928Y-124600000D01*
X128338072Y-124600000D01*
X128325812Y-124475518D01*
X128289502Y-124355820D01*
X128230537Y-124245506D01*
X128151185Y-124148815D01*
X128054494Y-124069463D01*
X127944180Y-124010498D01*
X127824482Y-123974188D01*
X127700000Y-123961928D01*
X125700000Y-123961928D01*
X125575518Y-123974188D01*
X125455820Y-124010498D01*
X125345506Y-124069463D01*
X125248815Y-124148815D01*
X125169463Y-124245506D01*
X125110498Y-124355820D01*
X125074188Y-124475518D01*
X125061928Y-124600000D01*
X125061928Y-124715000D01*
X124216579Y-124715000D01*
X124006535Y-124504957D01*
X123995226Y-124448102D01*
X123917205Y-124259744D01*
X123803937Y-124090226D01*
X123659774Y-123946063D01*
X123490256Y-123832795D01*
X123301898Y-123754774D01*
X123101939Y-123715000D01*
X122898061Y-123715000D01*
X122698102Y-123754774D01*
X122509744Y-123832795D01*
X122340226Y-123946063D01*
X122196063Y-124090226D01*
X122082795Y-124259744D01*
X122004774Y-124448102D01*
X121965000Y-124648061D01*
X119660000Y-124648061D01*
X119660000Y-123532418D01*
X119663193Y-123500000D01*
X119650450Y-123370617D01*
X119612710Y-123246207D01*
X119551425Y-123131550D01*
X119468948Y-123031052D01*
X119368450Y-122948575D01*
X119253793Y-122887290D01*
X119129383Y-122849550D01*
X119032419Y-122840000D01*
X119000000Y-122836807D01*
X118967581Y-122840000D01*
X114160000Y-122840000D01*
X114160000Y-122146154D01*
X157415000Y-122146154D01*
X157415000Y-122753846D01*
X157533555Y-123349861D01*
X157766108Y-123911295D01*
X158103724Y-124416573D01*
X158533427Y-124846276D01*
X159038705Y-125183892D01*
X159600139Y-125416445D01*
X160196154Y-125535000D01*
X160803846Y-125535000D01*
X161399861Y-125416445D01*
X161961295Y-125183892D01*
X162466573Y-124846276D01*
X162896276Y-124416573D01*
X163233892Y-123911295D01*
X163466445Y-123349861D01*
X163585000Y-122753846D01*
X163585000Y-122146154D01*
X163466445Y-121550139D01*
X163233892Y-120988705D01*
X162896276Y-120483427D01*
X162466573Y-120053724D01*
X161961295Y-119716108D01*
X161399861Y-119483555D01*
X160803846Y-119365000D01*
X160196154Y-119365000D01*
X159600139Y-119483555D01*
X159038705Y-119716108D01*
X158533427Y-120053724D01*
X158103724Y-120483427D01*
X157766108Y-120988705D01*
X157533555Y-121550139D01*
X157415000Y-122146154D01*
X114160000Y-122146154D01*
X114160000Y-117938072D01*
X116700000Y-117938072D01*
X116824482Y-117925812D01*
X116944180Y-117889502D01*
X117054494Y-117830537D01*
X117151185Y-117751185D01*
X117230537Y-117654494D01*
X117289502Y-117544180D01*
X117325812Y-117424482D01*
X117338072Y-117300000D01*
X117338072Y-111235000D01*
X119606531Y-111235000D01*
X119650000Y-111239281D01*
X119693469Y-111235000D01*
X119693477Y-111235000D01*
X119823490Y-111222195D01*
X119990313Y-111171589D01*
X120144059Y-111089411D01*
X120278817Y-110978817D01*
X120306534Y-110945044D01*
X122410375Y-108841203D01*
X124155000Y-108841203D01*
X124155000Y-109128797D01*
X124211107Y-109410866D01*
X124321165Y-109676569D01*
X124480944Y-109915696D01*
X124684304Y-110119056D01*
X124923431Y-110278835D01*
X125189134Y-110388893D01*
X125471203Y-110445000D01*
X125758797Y-110445000D01*
X126040866Y-110388893D01*
X126306569Y-110278835D01*
X126545696Y-110119056D01*
X126749056Y-109915696D01*
X126908835Y-109676569D01*
X127018893Y-109410866D01*
X127075000Y-109128797D01*
X127075000Y-108841203D01*
X127018893Y-108559134D01*
X126908835Y-108293431D01*
X126749056Y-108054304D01*
X126545696Y-107850944D01*
X126306569Y-107691165D01*
X126040866Y-107581107D01*
X125758797Y-107525000D01*
X125471203Y-107525000D01*
X125189134Y-107581107D01*
X124923431Y-107691165D01*
X124684304Y-107850944D01*
X124480944Y-108054304D01*
X124321165Y-108293431D01*
X124211107Y-108559134D01*
X124155000Y-108841203D01*
X122410375Y-108841203D01*
X126951578Y-104300000D01*
X153061928Y-104300000D01*
X153061928Y-117300000D01*
X153074188Y-117424482D01*
X153110498Y-117544180D01*
X153169463Y-117654494D01*
X153248815Y-117751185D01*
X153345506Y-117830537D01*
X153455820Y-117889502D01*
X153575518Y-117925812D01*
X153700000Y-117938072D01*
X156700000Y-117938072D01*
X156824482Y-117925812D01*
X156944180Y-117889502D01*
X157054494Y-117830537D01*
X157151185Y-117751185D01*
X157230537Y-117654494D01*
X157289502Y-117544180D01*
X157325812Y-117424482D01*
X157338072Y-117300000D01*
X157338072Y-104300000D01*
X157325812Y-104175518D01*
X157289502Y-104055820D01*
X157230537Y-103945506D01*
X157151185Y-103848815D01*
X157054494Y-103769463D01*
X156944180Y-103710498D01*
X156824482Y-103674188D01*
X156700000Y-103661928D01*
X156285000Y-103661928D01*
X156285000Y-102098061D01*
X174665000Y-102098061D01*
X174665000Y-102301939D01*
X174704774Y-102501898D01*
X174782795Y-102690256D01*
X174896063Y-102859774D01*
X175040226Y-103003937D01*
X175209744Y-103117205D01*
X175398102Y-103195226D01*
X175598061Y-103235000D01*
X175801939Y-103235000D01*
X176001898Y-103195226D01*
X176190256Y-103117205D01*
X176359774Y-103003937D01*
X176503937Y-102859774D01*
X176617205Y-102690256D01*
X176695226Y-102501898D01*
X176735000Y-102301939D01*
X176735000Y-102098061D01*
X176695226Y-101898102D01*
X176617205Y-101709744D01*
X176503937Y-101540226D01*
X176359774Y-101396063D01*
X176190256Y-101282795D01*
X176001898Y-101204774D01*
X175801939Y-101165000D01*
X175598061Y-101165000D01*
X175398102Y-101204774D01*
X175209744Y-101282795D01*
X175040226Y-101396063D01*
X174896063Y-101540226D01*
X174782795Y-101709744D01*
X174704774Y-101898102D01*
X174665000Y-102098061D01*
X156285000Y-102098061D01*
X156285000Y-101488454D01*
X156317205Y-101440256D01*
X156395226Y-101251898D01*
X156435000Y-101051939D01*
X156435000Y-100848061D01*
X156395226Y-100648102D01*
X156317205Y-100459744D01*
X156203937Y-100290226D01*
X156059774Y-100146063D01*
X155890256Y-100032795D01*
X155701898Y-99954774D01*
X155501939Y-99915000D01*
X155298061Y-99915000D01*
X155098102Y-99954774D01*
X154909744Y-100032795D01*
X154740226Y-100146063D01*
X154596063Y-100290226D01*
X154482795Y-100459744D01*
X154404774Y-100648102D01*
X154365000Y-100848061D01*
X154365000Y-101051939D01*
X154404774Y-101251898D01*
X154482795Y-101440256D01*
X154515001Y-101488456D01*
X154515001Y-103661928D01*
X153700000Y-103661928D01*
X153575518Y-103674188D01*
X153455820Y-103710498D01*
X153345506Y-103769463D01*
X153248815Y-103848815D01*
X153169463Y-103945506D01*
X153110498Y-104055820D01*
X153074188Y-104175518D01*
X153061928Y-104300000D01*
X126951578Y-104300000D01*
X132406532Y-98845047D01*
X132406536Y-98845042D01*
X133763507Y-97488072D01*
X135250000Y-97488072D01*
X135374482Y-97475812D01*
X135494180Y-97439502D01*
X135604494Y-97380537D01*
X135701185Y-97301185D01*
X135780537Y-97204494D01*
X135839502Y-97094180D01*
X135875812Y-96974482D01*
X135884625Y-96885000D01*
X137615375Y-96885000D01*
X137624188Y-96974482D01*
X137660498Y-97094180D01*
X137719463Y-97204494D01*
X137798815Y-97301185D01*
X137895506Y-97380537D01*
X138005820Y-97439502D01*
X138125518Y-97475812D01*
X138250000Y-97488072D01*
X140750000Y-97488072D01*
X140874482Y-97475812D01*
X140994180Y-97439502D01*
X141104494Y-97380537D01*
X141201185Y-97301185D01*
X141280537Y-97204494D01*
X141339502Y-97094180D01*
X141375812Y-96974482D01*
X141388072Y-96850000D01*
X141388072Y-95150000D01*
X141375812Y-95025518D01*
X141339502Y-94905820D01*
X141280537Y-94795506D01*
X141201185Y-94698815D01*
X141104494Y-94619463D01*
X140994180Y-94560498D01*
X140874482Y-94524188D01*
X140750000Y-94511928D01*
X138250000Y-94511928D01*
X138125518Y-94524188D01*
X138005820Y-94560498D01*
X137895506Y-94619463D01*
X137798815Y-94698815D01*
X137719463Y-94795506D01*
X137660498Y-94905820D01*
X137624188Y-95025518D01*
X137615375Y-95115000D01*
X135884625Y-95115000D01*
X135875812Y-95025518D01*
X135839502Y-94905820D01*
X135780537Y-94795506D01*
X135701185Y-94698815D01*
X135604494Y-94619463D01*
X135494180Y-94560498D01*
X135374482Y-94524188D01*
X135250000Y-94511928D01*
X133763507Y-94511928D01*
X129606534Y-90354956D01*
X129578817Y-90321183D01*
X129444059Y-90210589D01*
X129290313Y-90128411D01*
X129123490Y-90077805D01*
X128993477Y-90065000D01*
X128993469Y-90065000D01*
X128950000Y-90060719D01*
X128906531Y-90065000D01*
X126516579Y-90065000D01*
X125847650Y-89396071D01*
X125851898Y-89395226D01*
X126040256Y-89317205D01*
X126209774Y-89203937D01*
X126353937Y-89059774D01*
X126467205Y-88890256D01*
X126545226Y-88701898D01*
X126585000Y-88501939D01*
X126585000Y-88439801D01*
X135763799Y-79261003D01*
X135763803Y-79260998D01*
X136613799Y-78411003D01*
X136613803Y-78410998D01*
X136764801Y-78260000D01*
X138196289Y-78260000D01*
X138240226Y-78303937D01*
X138409744Y-78417205D01*
X138598102Y-78495226D01*
X138798061Y-78535000D01*
X139001939Y-78535000D01*
X139201898Y-78495226D01*
X139390256Y-78417205D01*
X139559774Y-78303937D01*
X139703937Y-78159774D01*
X139817205Y-77990256D01*
X139850199Y-77910601D01*
X140009744Y-78017205D01*
X140198102Y-78095226D01*
X140398061Y-78135000D01*
X140601939Y-78135000D01*
X140801898Y-78095226D01*
X140990256Y-78017205D01*
X141159774Y-77903937D01*
X141303937Y-77759774D01*
X141417205Y-77590256D01*
X141495226Y-77401898D01*
X141535000Y-77201939D01*
X141535000Y-76998061D01*
X141495226Y-76798102D01*
X141417205Y-76609744D01*
X141303937Y-76440226D01*
X141159774Y-76296063D01*
X140990256Y-76182795D01*
X140801898Y-76104774D01*
X140601939Y-76065000D01*
X140539801Y-76065000D01*
X140463803Y-75989002D01*
X140440001Y-75959999D01*
X140324276Y-75865026D01*
X140192247Y-75794454D01*
X140048986Y-75750997D01*
X139937333Y-75740000D01*
X139937322Y-75740000D01*
X139900000Y-75736324D01*
X139862678Y-75740000D01*
X136387325Y-75740000D01*
X136350000Y-75736324D01*
X136312675Y-75740000D01*
X136312667Y-75740000D01*
X136201014Y-75750997D01*
X136057753Y-75794454D01*
X135925724Y-75865026D01*
X135809999Y-75959999D01*
X135786201Y-75988997D01*
X126916368Y-84858831D01*
X126903937Y-84840226D01*
X126759774Y-84696063D01*
X126590256Y-84582795D01*
X126401898Y-84504774D01*
X126201939Y-84465000D01*
X125998061Y-84465000D01*
X125798102Y-84504774D01*
X125609744Y-84582795D01*
X125440226Y-84696063D01*
X125310649Y-84825640D01*
X125295226Y-84748102D01*
X125217205Y-84559744D01*
X125185000Y-84511546D01*
X125185000Y-82602565D01*
X125348061Y-82635000D01*
X125551939Y-82635000D01*
X125751898Y-82595226D01*
X125940256Y-82517205D01*
X126109774Y-82403937D01*
X126253937Y-82259774D01*
X126367205Y-82090256D01*
X126445226Y-81901898D01*
X126485000Y-81701939D01*
X126485000Y-81498061D01*
X126445226Y-81298102D01*
X126367205Y-81109744D01*
X126277172Y-80975000D01*
X126367205Y-80840256D01*
X126445226Y-80651898D01*
X126485000Y-80451939D01*
X126485000Y-80248061D01*
X126445226Y-80048102D01*
X126367205Y-79859744D01*
X126253937Y-79690226D01*
X126109774Y-79546063D01*
X125940256Y-79432795D01*
X125751898Y-79354774D01*
X125551939Y-79315000D01*
X125348061Y-79315000D01*
X125148102Y-79354774D01*
X125123225Y-79365079D01*
X125121589Y-79359687D01*
X125039411Y-79205941D01*
X125011716Y-79172195D01*
X124956532Y-79104953D01*
X124956530Y-79104951D01*
X124928817Y-79071183D01*
X124895050Y-79043471D01*
X123556534Y-77704956D01*
X123528817Y-77671183D01*
X123394059Y-77560589D01*
X123240313Y-77478411D01*
X123073490Y-77427805D01*
X122943477Y-77415000D01*
X122943469Y-77415000D01*
X122900000Y-77410719D01*
X122856531Y-77415000D01*
X121885000Y-77415000D01*
X121885000Y-75438454D01*
X121917205Y-75390256D01*
X121995226Y-75201898D01*
X122035000Y-75001939D01*
X122035000Y-74798061D01*
X121995226Y-74598102D01*
X121917205Y-74409744D01*
X121803937Y-74240226D01*
X121659774Y-74096063D01*
X121490256Y-73982795D01*
X121301898Y-73904774D01*
X121101939Y-73865000D01*
X120898061Y-73865000D01*
X120698102Y-73904774D01*
X120509744Y-73982795D01*
X120340226Y-74096063D01*
X120196063Y-74240226D01*
X120082795Y-74409744D01*
X120004774Y-74598102D01*
X119965000Y-74798061D01*
X119965000Y-75001939D01*
X120004774Y-75201898D01*
X120082795Y-75390256D01*
X120115001Y-75438456D01*
X120115000Y-77761545D01*
X120082795Y-77809744D01*
X120004774Y-77998102D01*
X119965000Y-78198061D01*
X119965000Y-78401939D01*
X120004774Y-78601898D01*
X120082795Y-78790256D01*
X120196063Y-78959774D01*
X120340226Y-79103937D01*
X120509744Y-79217205D01*
X120698102Y-79295226D01*
X120898061Y-79335000D01*
X121101939Y-79335000D01*
X121301898Y-79295226D01*
X121490256Y-79217205D01*
X121538454Y-79185000D01*
X122533422Y-79185000D01*
X123366272Y-80017851D01*
X123351939Y-80015000D01*
X123148061Y-80015000D01*
X122948102Y-80054774D01*
X122759744Y-80132795D01*
X122590226Y-80246063D01*
X122446063Y-80390226D01*
X122332795Y-80559744D01*
X122254774Y-80748102D01*
X122251413Y-80765000D01*
X122098061Y-80765000D01*
X121898102Y-80804774D01*
X121709744Y-80882795D01*
X121540226Y-80996063D01*
X121396063Y-81140226D01*
X121282795Y-81309744D01*
X121232554Y-81431035D01*
X121151939Y-81415000D01*
X120948061Y-81415000D01*
X120748102Y-81454774D01*
X120559744Y-81532795D01*
X120390226Y-81646063D01*
X120246063Y-81790226D01*
X120132795Y-81959744D01*
X120097705Y-82044459D01*
X120001898Y-82004774D01*
X119801939Y-81965000D01*
X119598061Y-81965000D01*
X119398102Y-82004774D01*
X119209744Y-82082795D01*
X119040226Y-82196063D01*
X118896063Y-82340226D01*
X118854303Y-82402725D01*
X117856532Y-81404954D01*
X117828817Y-81371183D01*
X117694059Y-81260589D01*
X117540313Y-81178411D01*
X117373490Y-81127805D01*
X117338072Y-81124317D01*
X117338072Y-75500000D01*
X117325812Y-75375518D01*
X117289502Y-75255820D01*
X117230537Y-75145506D01*
X117151185Y-75048815D01*
X117054494Y-74969463D01*
X116944180Y-74910498D01*
X116824482Y-74874188D01*
X116700000Y-74861928D01*
X114160000Y-74861928D01*
X114160000Y-60138072D01*
X116700000Y-60138072D01*
X116824482Y-60125812D01*
X116944180Y-60089502D01*
X117054494Y-60030537D01*
X117151185Y-59951185D01*
X117230537Y-59854494D01*
X117289502Y-59744180D01*
X117325812Y-59624482D01*
X117338072Y-59500000D01*
X117338072Y-56339650D01*
X126511480Y-65513059D01*
X126500000Y-65511928D01*
X124000000Y-65511928D01*
X123875518Y-65524188D01*
X123755820Y-65560498D01*
X123645506Y-65619463D01*
X123548815Y-65698815D01*
X123469463Y-65795506D01*
X123410498Y-65905820D01*
X123374188Y-66025518D01*
X123361928Y-66150000D01*
X123361928Y-66477101D01*
X123283892Y-66288705D01*
X122946276Y-65783427D01*
X122516573Y-65353724D01*
X122011295Y-65016108D01*
X121449861Y-64783555D01*
X120853846Y-64665000D01*
X120246154Y-64665000D01*
X119650139Y-64783555D01*
X119088705Y-65016108D01*
X118583427Y-65353724D01*
X118153724Y-65783427D01*
X117816108Y-66288705D01*
X117583555Y-66850139D01*
X117465000Y-67446154D01*
X117465000Y-68053846D01*
X117583555Y-68649861D01*
X117816108Y-69211295D01*
X118153724Y-69716573D01*
X118583427Y-70146276D01*
X119088705Y-70483892D01*
X119650139Y-70716445D01*
X120246154Y-70835000D01*
X120853846Y-70835000D01*
X121449861Y-70716445D01*
X121760751Y-70587670D01*
X120433422Y-71915000D01*
X116588454Y-71915000D01*
X116540256Y-71882795D01*
X116351898Y-71804774D01*
X116151939Y-71765000D01*
X115948061Y-71765000D01*
X115748102Y-71804774D01*
X115559744Y-71882795D01*
X115390226Y-71996063D01*
X115246063Y-72140226D01*
X115132795Y-72309744D01*
X115054774Y-72498102D01*
X115015000Y-72698061D01*
X115015000Y-72901939D01*
X115054774Y-73101898D01*
X115132795Y-73290256D01*
X115246063Y-73459774D01*
X115390226Y-73603937D01*
X115559744Y-73717205D01*
X115748102Y-73795226D01*
X115948061Y-73835000D01*
X116151939Y-73835000D01*
X116351898Y-73795226D01*
X116540256Y-73717205D01*
X116588454Y-73685000D01*
X120756531Y-73685000D01*
X120800000Y-73689281D01*
X120843469Y-73685000D01*
X120843477Y-73685000D01*
X120973490Y-73672195D01*
X121140313Y-73621589D01*
X121294059Y-73539411D01*
X121428817Y-73428817D01*
X121456534Y-73395044D01*
X125845049Y-69006530D01*
X125878817Y-68978817D01*
X125911083Y-68939502D01*
X125989410Y-68844060D01*
X126012327Y-68801185D01*
X126071589Y-68690313D01*
X126122195Y-68523490D01*
X126125683Y-68488072D01*
X126500000Y-68488072D01*
X126624482Y-68475812D01*
X126744180Y-68439502D01*
X126854494Y-68380537D01*
X126951185Y-68301185D01*
X127030537Y-68204494D01*
X127089502Y-68094180D01*
X127125812Y-67974482D01*
X127138072Y-67850000D01*
X127138072Y-66150000D01*
X127136941Y-66138520D01*
X127361928Y-66363507D01*
X127361928Y-67850000D01*
X127374188Y-67974482D01*
X127410498Y-68094180D01*
X127469463Y-68204494D01*
X127548815Y-68301185D01*
X127645506Y-68380537D01*
X127755820Y-68439502D01*
X127875518Y-68475812D01*
X128000000Y-68488072D01*
X130500000Y-68488072D01*
X130624482Y-68475812D01*
X130744180Y-68439502D01*
X130854494Y-68380537D01*
X130951185Y-68301185D01*
X131030537Y-68204494D01*
X131075000Y-68121311D01*
X131119463Y-68204494D01*
X131198815Y-68301185D01*
X131295506Y-68380537D01*
X131405820Y-68439502D01*
X131525518Y-68475812D01*
X131650000Y-68488072D01*
X134150000Y-68488072D01*
X134274482Y-68475812D01*
X134394180Y-68439502D01*
X134504494Y-68380537D01*
X134601185Y-68301185D01*
X134680537Y-68204494D01*
X134739502Y-68094180D01*
X134775812Y-67974482D01*
X134788072Y-67850000D01*
X134788072Y-66363506D01*
X135013059Y-66138520D01*
X135011928Y-66150000D01*
X135011928Y-67850000D01*
X135024188Y-67974482D01*
X135060498Y-68094180D01*
X135119463Y-68204494D01*
X135198815Y-68301185D01*
X135295506Y-68380537D01*
X135405820Y-68439502D01*
X135525518Y-68475812D01*
X135650000Y-68488072D01*
X137136494Y-68488072D01*
X142654953Y-74006532D01*
X142654959Y-74006537D01*
X151243468Y-82595047D01*
X151271183Y-82628817D01*
X151304951Y-82656530D01*
X151304953Y-82656532D01*
X151345016Y-82689411D01*
X151405941Y-82739411D01*
X151559687Y-82821589D01*
X151726510Y-82872195D01*
X151856523Y-82885000D01*
X151856533Y-82885000D01*
X151899999Y-82889281D01*
X151943465Y-82885000D01*
X153061928Y-82885000D01*
X153061928Y-85186493D01*
X143736494Y-94511928D01*
X142250000Y-94511928D01*
X142125518Y-94524188D01*
X142005820Y-94560498D01*
X141895506Y-94619463D01*
X141798815Y-94698815D01*
X141719463Y-94795506D01*
X141660498Y-94905820D01*
X141624188Y-95025518D01*
X141611928Y-95150000D01*
X141611928Y-96850000D01*
X141624188Y-96974482D01*
X141660498Y-97094180D01*
X141719463Y-97204494D01*
X141798815Y-97301185D01*
X141895506Y-97380537D01*
X142005820Y-97439502D01*
X142125518Y-97475812D01*
X142250000Y-97488072D01*
X144750000Y-97488072D01*
X144874482Y-97475812D01*
X144994180Y-97439502D01*
X145104494Y-97380537D01*
X145201185Y-97301185D01*
X145280537Y-97204494D01*
X145339502Y-97094180D01*
X145375812Y-96974482D01*
X145388072Y-96850000D01*
X145388072Y-95363506D01*
X149089843Y-91661735D01*
X162000000Y-91661735D01*
X162000000Y-91888265D01*
X162044194Y-92110443D01*
X162130884Y-92319729D01*
X162256737Y-92508082D01*
X162298655Y-92550000D01*
X162256737Y-92591918D01*
X162130884Y-92780271D01*
X162044194Y-92989557D01*
X162000000Y-93211735D01*
X162000000Y-93438265D01*
X162044194Y-93660443D01*
X162130884Y-93869729D01*
X162256737Y-94058082D01*
X162416918Y-94218263D01*
X162605271Y-94344116D01*
X162814557Y-94430806D01*
X163036735Y-94475000D01*
X163263265Y-94475000D01*
X163485443Y-94430806D01*
X163694729Y-94344116D01*
X163883082Y-94218263D01*
X164043263Y-94058082D01*
X164169116Y-93869729D01*
X164255806Y-93660443D01*
X164300000Y-93438265D01*
X164300000Y-93211735D01*
X164255806Y-92989557D01*
X164169116Y-92780271D01*
X164043263Y-92591918D01*
X164001345Y-92550000D01*
X164043263Y-92508082D01*
X164169116Y-92319729D01*
X164255806Y-92110443D01*
X164300000Y-91888265D01*
X164300000Y-91661735D01*
X164255806Y-91439557D01*
X164169116Y-91230271D01*
X164043263Y-91041918D01*
X163883082Y-90881737D01*
X163694729Y-90755884D01*
X163485443Y-90669194D01*
X163263265Y-90625000D01*
X163036735Y-90625000D01*
X162814557Y-90669194D01*
X162605271Y-90755884D01*
X162416918Y-90881737D01*
X162256737Y-91041918D01*
X162130884Y-91230271D01*
X162044194Y-91439557D01*
X162000000Y-91661735D01*
X149089843Y-91661735D01*
X153061928Y-87689651D01*
X153061928Y-88500000D01*
X153074188Y-88624482D01*
X153110498Y-88744180D01*
X153169463Y-88854494D01*
X153248815Y-88951185D01*
X153345506Y-89030537D01*
X153455820Y-89089502D01*
X153575518Y-89125812D01*
X153700000Y-89138072D01*
X156700000Y-89138072D01*
X156824482Y-89125812D01*
X156944180Y-89089502D01*
X157054494Y-89030537D01*
X157151185Y-88951185D01*
X157230537Y-88854494D01*
X157289502Y-88744180D01*
X157325812Y-88624482D01*
X157338072Y-88500000D01*
X157338072Y-84990139D01*
X157484747Y-85088144D01*
X157759549Y-85201971D01*
X158051278Y-85260000D01*
X158348722Y-85260000D01*
X158640451Y-85201971D01*
X158915253Y-85088144D01*
X159162569Y-84922893D01*
X159372893Y-84712569D01*
X159538144Y-84465253D01*
X159651971Y-84190451D01*
X159710000Y-83898722D01*
X159710000Y-83601278D01*
X159651971Y-83309549D01*
X159538144Y-83034747D01*
X159372893Y-82787431D01*
X159162569Y-82577107D01*
X158915253Y-82411856D01*
X158640451Y-82298029D01*
X158348722Y-82240000D01*
X158051278Y-82240000D01*
X157759549Y-82298029D01*
X157484747Y-82411856D01*
X157338072Y-82509861D01*
X157338072Y-81490139D01*
X157484747Y-81588144D01*
X157759549Y-81701971D01*
X158051278Y-81760000D01*
X158348722Y-81760000D01*
X158640451Y-81701971D01*
X158915253Y-81588144D01*
X159162569Y-81422893D01*
X159372893Y-81212569D01*
X159538144Y-80965253D01*
X159651971Y-80690451D01*
X159710000Y-80398722D01*
X159710000Y-80148816D01*
X161465000Y-80148816D01*
X161465000Y-80451184D01*
X161523989Y-80747743D01*
X161639701Y-81027095D01*
X161807688Y-81278505D01*
X162021495Y-81492312D01*
X162272905Y-81660299D01*
X162552257Y-81776011D01*
X162848816Y-81835000D01*
X163151184Y-81835000D01*
X163447743Y-81776011D01*
X163661928Y-81687292D01*
X163661928Y-82412708D01*
X163447743Y-82323989D01*
X163151184Y-82265000D01*
X162848816Y-82265000D01*
X162552257Y-82323989D01*
X162272905Y-82439701D01*
X162021495Y-82607688D01*
X161807688Y-82821495D01*
X161639701Y-83072905D01*
X161523989Y-83352257D01*
X161465000Y-83648816D01*
X161465000Y-83951184D01*
X161523989Y-84247743D01*
X161639701Y-84527095D01*
X161807688Y-84778505D01*
X162021495Y-84992312D01*
X162272905Y-85160299D01*
X162552257Y-85276011D01*
X162848816Y-85335000D01*
X163151184Y-85335000D01*
X163447743Y-85276011D01*
X163661928Y-85187292D01*
X163661928Y-88500000D01*
X163674188Y-88624482D01*
X163710498Y-88744180D01*
X163769463Y-88854494D01*
X163848815Y-88951185D01*
X163945506Y-89030537D01*
X164055820Y-89089502D01*
X164175518Y-89125812D01*
X164300000Y-89138072D01*
X167300000Y-89138072D01*
X167424482Y-89125812D01*
X167544180Y-89089502D01*
X167654494Y-89030537D01*
X167751185Y-88951185D01*
X167830537Y-88854494D01*
X167889502Y-88744180D01*
X167925812Y-88624482D01*
X167938072Y-88500000D01*
X167938072Y-82935000D01*
X170733422Y-82935000D01*
X182411480Y-94613059D01*
X182400000Y-94611928D01*
X179900000Y-94611928D01*
X179775518Y-94624188D01*
X179655820Y-94660498D01*
X179545506Y-94719463D01*
X179448815Y-94798815D01*
X179369463Y-94895506D01*
X179310498Y-95005820D01*
X179274188Y-95125518D01*
X179265375Y-95215000D01*
X179188454Y-95215000D01*
X179140256Y-95182795D01*
X178951898Y-95104774D01*
X178751939Y-95065000D01*
X178548061Y-95065000D01*
X178348102Y-95104774D01*
X178159744Y-95182795D01*
X177990226Y-95296063D01*
X177846063Y-95440226D01*
X177732795Y-95609744D01*
X177654774Y-95798102D01*
X177615000Y-95998061D01*
X177615000Y-96201939D01*
X177654774Y-96401898D01*
X177732795Y-96590256D01*
X177846063Y-96759774D01*
X177990226Y-96903937D01*
X178159744Y-97017205D01*
X178348102Y-97095226D01*
X178548061Y-97135000D01*
X178751939Y-97135000D01*
X178951898Y-97095226D01*
X179140256Y-97017205D01*
X179188454Y-96985000D01*
X179265375Y-96985000D01*
X179274188Y-97074482D01*
X179310498Y-97194180D01*
X179369463Y-97304494D01*
X179448815Y-97401185D01*
X179545506Y-97480537D01*
X179655820Y-97539502D01*
X179775518Y-97575812D01*
X179900000Y-97588072D01*
X182400000Y-97588072D01*
X182411480Y-97586941D01*
X170383422Y-109615000D01*
X167938072Y-109615000D01*
X167938072Y-104300000D01*
X167925812Y-104175518D01*
X167889502Y-104055820D01*
X167830537Y-103945506D01*
X167751185Y-103848815D01*
X167654494Y-103769463D01*
X167544180Y-103710498D01*
X167424482Y-103674188D01*
X167300000Y-103661928D01*
X164300000Y-103661928D01*
X164175518Y-103674188D01*
X164055820Y-103710498D01*
X163945506Y-103769463D01*
X163848815Y-103848815D01*
X163769463Y-103945506D01*
X163710498Y-104055820D01*
X163674188Y-104175518D01*
X163661928Y-104300000D01*
X163661928Y-117300000D01*
X163674188Y-117424482D01*
X163710498Y-117544180D01*
X163769463Y-117654494D01*
X163848815Y-117751185D01*
X163945506Y-117830537D01*
X164055820Y-117889502D01*
X164175518Y-117925812D01*
X164300000Y-117938072D01*
X167300000Y-117938072D01*
X167424482Y-117925812D01*
X167544180Y-117889502D01*
X167654494Y-117830537D01*
X167751185Y-117751185D01*
X167830537Y-117654494D01*
X167889502Y-117544180D01*
X167925812Y-117424482D01*
X167938072Y-117300000D01*
X167938072Y-116726203D01*
X175255000Y-116726203D01*
X175255000Y-117013797D01*
X175311107Y-117295866D01*
X175421165Y-117561569D01*
X175580944Y-117800696D01*
X175784304Y-118004056D01*
X176023431Y-118163835D01*
X176289134Y-118273893D01*
X176571203Y-118330000D01*
X176858797Y-118330000D01*
X177140866Y-118273893D01*
X177406569Y-118163835D01*
X177645696Y-118004056D01*
X177849056Y-117800696D01*
X178008835Y-117561569D01*
X178118893Y-117295866D01*
X178175000Y-117013797D01*
X178175000Y-116726203D01*
X178118893Y-116444134D01*
X178008835Y-116178431D01*
X177911703Y-116033061D01*
X180430000Y-116033061D01*
X180430000Y-116236939D01*
X180469774Y-116436898D01*
X180547795Y-116625256D01*
X180661063Y-116794774D01*
X180805226Y-116938937D01*
X180974744Y-117052205D01*
X181163102Y-117130226D01*
X181363061Y-117170000D01*
X181566939Y-117170000D01*
X181766898Y-117130226D01*
X181955256Y-117052205D01*
X182124774Y-116938937D01*
X182268937Y-116794774D01*
X182314754Y-116726203D01*
X186025000Y-116726203D01*
X186025000Y-117013797D01*
X186081107Y-117295866D01*
X186191165Y-117561569D01*
X186350944Y-117800696D01*
X186554304Y-118004056D01*
X186793431Y-118163835D01*
X187059134Y-118273893D01*
X187341203Y-118330000D01*
X187628797Y-118330000D01*
X187910866Y-118273893D01*
X188176569Y-118163835D01*
X188415696Y-118004056D01*
X188619056Y-117800696D01*
X188778835Y-117561569D01*
X188888893Y-117295866D01*
X188945000Y-117013797D01*
X188945000Y-116726203D01*
X188888893Y-116444134D01*
X188778835Y-116178431D01*
X188619056Y-115939304D01*
X188415696Y-115735944D01*
X188176569Y-115576165D01*
X187910866Y-115466107D01*
X187628797Y-115410000D01*
X187341203Y-115410000D01*
X187059134Y-115466107D01*
X186793431Y-115576165D01*
X186554304Y-115735944D01*
X186350944Y-115939304D01*
X186191165Y-116178431D01*
X186081107Y-116444134D01*
X186025000Y-116726203D01*
X182314754Y-116726203D01*
X182382205Y-116625256D01*
X182460226Y-116436898D01*
X182500000Y-116236939D01*
X182500000Y-116033061D01*
X182460226Y-115833102D01*
X182382205Y-115644744D01*
X182268937Y-115475226D01*
X182124774Y-115331063D01*
X181955256Y-115217795D01*
X181766898Y-115139774D01*
X181566939Y-115100000D01*
X181363061Y-115100000D01*
X181163102Y-115139774D01*
X180974744Y-115217795D01*
X180805226Y-115331063D01*
X180661063Y-115475226D01*
X180547795Y-115644744D01*
X180469774Y-115833102D01*
X180430000Y-116033061D01*
X177911703Y-116033061D01*
X177849056Y-115939304D01*
X177645696Y-115735944D01*
X177406569Y-115576165D01*
X177140866Y-115466107D01*
X176858797Y-115410000D01*
X176571203Y-115410000D01*
X176289134Y-115466107D01*
X176023431Y-115576165D01*
X175784304Y-115735944D01*
X175580944Y-115939304D01*
X175421165Y-116178431D01*
X175311107Y-116444134D01*
X175255000Y-116726203D01*
X167938072Y-116726203D01*
X167938072Y-113898061D01*
X189465000Y-113898061D01*
X189465000Y-114101939D01*
X189504774Y-114301898D01*
X189582795Y-114490256D01*
X189696063Y-114659774D01*
X189840226Y-114803937D01*
X190009744Y-114917205D01*
X190198102Y-114995226D01*
X190398061Y-115035000D01*
X190601939Y-115035000D01*
X190801898Y-114995226D01*
X190990256Y-114917205D01*
X191159774Y-114803937D01*
X191303937Y-114659774D01*
X191417205Y-114490256D01*
X191495226Y-114301898D01*
X191535000Y-114101939D01*
X191535000Y-113898061D01*
X191495226Y-113698102D01*
X191417205Y-113509744D01*
X191303937Y-113340226D01*
X191159774Y-113196063D01*
X190990256Y-113082795D01*
X190801898Y-113004774D01*
X190601939Y-112965000D01*
X190398061Y-112965000D01*
X190198102Y-113004774D01*
X190009744Y-113082795D01*
X189840226Y-113196063D01*
X189696063Y-113340226D01*
X189582795Y-113509744D01*
X189504774Y-113698102D01*
X189465000Y-113898061D01*
X167938072Y-113898061D01*
X167938072Y-111385000D01*
X170706531Y-111385000D01*
X170750000Y-111389281D01*
X170793469Y-111385000D01*
X170793477Y-111385000D01*
X170923490Y-111372195D01*
X171090313Y-111321589D01*
X171244059Y-111239411D01*
X171378817Y-111128817D01*
X171406534Y-111095044D01*
X184913507Y-97588072D01*
X186400000Y-97588072D01*
X186524482Y-97575812D01*
X186644180Y-97539502D01*
X186754494Y-97480537D01*
X186851185Y-97401185D01*
X186930537Y-97304494D01*
X186989502Y-97194180D01*
X187025812Y-97074482D01*
X187034625Y-96985000D01*
X188665375Y-96985000D01*
X188674188Y-97074482D01*
X188710498Y-97194180D01*
X188769463Y-97304494D01*
X188848815Y-97401185D01*
X188945506Y-97480537D01*
X189055820Y-97539502D01*
X189175518Y-97575812D01*
X189300000Y-97588072D01*
X191800000Y-97588072D01*
X191924482Y-97575812D01*
X192044180Y-97539502D01*
X192154494Y-97480537D01*
X192251185Y-97401185D01*
X192330537Y-97304494D01*
X192389502Y-97194180D01*
X192425812Y-97074482D01*
X192438072Y-96950000D01*
X192438072Y-95250000D01*
X192425812Y-95125518D01*
X192389502Y-95005820D01*
X192330537Y-94895506D01*
X192251185Y-94798815D01*
X192154494Y-94719463D01*
X192044180Y-94660498D01*
X191924482Y-94624188D01*
X191800000Y-94611928D01*
X189300000Y-94611928D01*
X189175518Y-94624188D01*
X189055820Y-94660498D01*
X188945506Y-94719463D01*
X188848815Y-94798815D01*
X188769463Y-94895506D01*
X188710498Y-95005820D01*
X188674188Y-95125518D01*
X188665375Y-95215000D01*
X187034625Y-95215000D01*
X187025812Y-95125518D01*
X186989502Y-95005820D01*
X186930537Y-94895506D01*
X186851185Y-94798815D01*
X186754494Y-94719463D01*
X186644180Y-94660498D01*
X186524482Y-94624188D01*
X186400000Y-94611928D01*
X184913507Y-94611928D01*
X171756534Y-81454956D01*
X171728817Y-81421183D01*
X171594059Y-81310589D01*
X171440313Y-81228411D01*
X171273490Y-81177805D01*
X171143477Y-81165000D01*
X171143469Y-81165000D01*
X171100000Y-81160719D01*
X171056531Y-81165000D01*
X167938072Y-81165000D01*
X167938072Y-75500000D01*
X167925812Y-75375518D01*
X167889502Y-75255820D01*
X167830537Y-75145506D01*
X167751185Y-75048815D01*
X167654494Y-74969463D01*
X167544180Y-74910498D01*
X167424482Y-74874188D01*
X167300000Y-74861928D01*
X164300000Y-74861928D01*
X164175518Y-74874188D01*
X164055820Y-74910498D01*
X163945506Y-74969463D01*
X163848815Y-75048815D01*
X163769463Y-75145506D01*
X163710498Y-75255820D01*
X163674188Y-75375518D01*
X163661928Y-75500000D01*
X163661928Y-78912708D01*
X163447743Y-78823989D01*
X163151184Y-78765000D01*
X162848816Y-78765000D01*
X162552257Y-78823989D01*
X162272905Y-78939701D01*
X162021495Y-79107688D01*
X161807688Y-79321495D01*
X161639701Y-79572905D01*
X161523989Y-79852257D01*
X161465000Y-80148816D01*
X159710000Y-80148816D01*
X159710000Y-80101278D01*
X159651971Y-79809549D01*
X159538144Y-79534747D01*
X159372893Y-79287431D01*
X159162569Y-79077107D01*
X158915253Y-78911856D01*
X158640451Y-78798029D01*
X158348722Y-78740000D01*
X158051278Y-78740000D01*
X157759549Y-78798029D01*
X157484747Y-78911856D01*
X157338072Y-79009861D01*
X157338072Y-75500000D01*
X157325812Y-75375518D01*
X157289502Y-75255820D01*
X157230537Y-75145506D01*
X157151185Y-75048815D01*
X157054494Y-74969463D01*
X156944180Y-74910498D01*
X156824482Y-74874188D01*
X156700000Y-74861928D01*
X156085000Y-74861928D01*
X156085000Y-60138072D01*
X156700000Y-60138072D01*
X156824482Y-60125812D01*
X156944180Y-60089502D01*
X157054494Y-60030537D01*
X157151185Y-59951185D01*
X157230537Y-59854494D01*
X157289502Y-59744180D01*
X157325812Y-59624482D01*
X157338072Y-59500000D01*
X157338072Y-46500000D01*
X163661928Y-46500000D01*
X163661928Y-59500000D01*
X163674188Y-59624482D01*
X163710498Y-59744180D01*
X163769463Y-59854494D01*
X163848815Y-59951185D01*
X163945506Y-60030537D01*
X164055820Y-60089502D01*
X164175518Y-60125812D01*
X164300000Y-60138072D01*
X167300000Y-60138072D01*
X167424482Y-60125812D01*
X167544180Y-60089502D01*
X167654494Y-60030537D01*
X167751185Y-59951185D01*
X167830537Y-59854494D01*
X167889502Y-59744180D01*
X167925812Y-59624482D01*
X167938072Y-59500000D01*
X167938072Y-56739650D01*
X174078635Y-62880214D01*
X174082795Y-62890256D01*
X174196063Y-63059774D01*
X174340226Y-63203937D01*
X174509744Y-63317205D01*
X174519786Y-63321364D01*
X179293470Y-68095049D01*
X179321183Y-68128817D01*
X179354951Y-68156530D01*
X179354953Y-68156532D01*
X179455941Y-68239411D01*
X179609686Y-68321589D01*
X179721623Y-68355545D01*
X179776510Y-68372195D01*
X179906523Y-68385000D01*
X179906531Y-68385000D01*
X179950000Y-68389281D01*
X179993469Y-68385000D01*
X182865375Y-68385000D01*
X182874188Y-68474482D01*
X182910498Y-68594180D01*
X182969463Y-68704494D01*
X183048815Y-68801185D01*
X183145506Y-68880537D01*
X183255820Y-68939502D01*
X183375518Y-68975812D01*
X183500000Y-68988072D01*
X186000000Y-68988072D01*
X186124482Y-68975812D01*
X186244180Y-68939502D01*
X186354494Y-68880537D01*
X186451185Y-68801185D01*
X186530537Y-68704494D01*
X186589502Y-68594180D01*
X186625812Y-68474482D01*
X186638072Y-68350000D01*
X186638072Y-66650000D01*
X186625812Y-66525518D01*
X186589502Y-66405820D01*
X186530537Y-66295506D01*
X186451185Y-66198815D01*
X186354494Y-66119463D01*
X186244180Y-66060498D01*
X186124482Y-66024188D01*
X186000000Y-66011928D01*
X183500000Y-66011928D01*
X183375518Y-66024188D01*
X183255820Y-66060498D01*
X183145506Y-66119463D01*
X183048815Y-66198815D01*
X182969463Y-66295506D01*
X182910498Y-66405820D01*
X182874188Y-66525518D01*
X182865375Y-66615000D01*
X180316579Y-66615000D01*
X179342782Y-65641203D01*
X193925000Y-65641203D01*
X193925000Y-65928797D01*
X193981107Y-66210866D01*
X194091165Y-66476569D01*
X194250944Y-66715696D01*
X194454304Y-66919056D01*
X194693431Y-67078835D01*
X194959134Y-67188893D01*
X195241203Y-67245000D01*
X195528797Y-67245000D01*
X195810866Y-67188893D01*
X196076569Y-67078835D01*
X196315696Y-66919056D01*
X196519056Y-66715696D01*
X196678835Y-66476569D01*
X196788893Y-66210866D01*
X196845000Y-65928797D01*
X196845000Y-65641203D01*
X196788893Y-65359134D01*
X196678835Y-65093431D01*
X196519056Y-64854304D01*
X196315696Y-64650944D01*
X196076569Y-64491165D01*
X195810866Y-64381107D01*
X195528797Y-64325000D01*
X195241203Y-64325000D01*
X194959134Y-64381107D01*
X194693431Y-64491165D01*
X194454304Y-64650944D01*
X194250944Y-64854304D01*
X194091165Y-65093431D01*
X193981107Y-65359134D01*
X193925000Y-65641203D01*
X179342782Y-65641203D01*
X176035000Y-62333421D01*
X176035000Y-62298061D01*
X175995226Y-62098102D01*
X175917205Y-61909744D01*
X175803937Y-61740226D01*
X175659774Y-61596063D01*
X175490256Y-61482795D01*
X175301898Y-61404774D01*
X175101939Y-61365000D01*
X175066579Y-61365000D01*
X168572782Y-54871203D01*
X193925000Y-54871203D01*
X193925000Y-55158797D01*
X193981107Y-55440866D01*
X194091165Y-55706569D01*
X194250944Y-55945696D01*
X194454304Y-56149056D01*
X194693431Y-56308835D01*
X194959134Y-56418893D01*
X195241203Y-56475000D01*
X195528797Y-56475000D01*
X195810866Y-56418893D01*
X196076569Y-56308835D01*
X196315696Y-56149056D01*
X196519056Y-55945696D01*
X196678835Y-55706569D01*
X196788893Y-55440866D01*
X196845000Y-55158797D01*
X196845000Y-54898061D01*
X200115000Y-54898061D01*
X200115000Y-55101939D01*
X200154774Y-55301898D01*
X200232795Y-55490256D01*
X200346063Y-55659774D01*
X200490226Y-55803937D01*
X200659744Y-55917205D01*
X200848102Y-55995226D01*
X201048061Y-56035000D01*
X201251939Y-56035000D01*
X201451898Y-55995226D01*
X201640256Y-55917205D01*
X201809774Y-55803937D01*
X201953937Y-55659774D01*
X202067205Y-55490256D01*
X202145226Y-55301898D01*
X202185000Y-55101939D01*
X202185000Y-54898061D01*
X202145226Y-54698102D01*
X202067205Y-54509744D01*
X201953937Y-54340226D01*
X201809774Y-54196063D01*
X201640256Y-54082795D01*
X201451898Y-54004774D01*
X201251939Y-53965000D01*
X201048061Y-53965000D01*
X200848102Y-54004774D01*
X200659744Y-54082795D01*
X200490226Y-54196063D01*
X200346063Y-54340226D01*
X200232795Y-54509744D01*
X200154774Y-54698102D01*
X200115000Y-54898061D01*
X196845000Y-54898061D01*
X196845000Y-54871203D01*
X196788893Y-54589134D01*
X196678835Y-54323431D01*
X196519056Y-54084304D01*
X196315696Y-53880944D01*
X196076569Y-53721165D01*
X195810866Y-53611107D01*
X195528797Y-53555000D01*
X195241203Y-53555000D01*
X194959134Y-53611107D01*
X194693431Y-53721165D01*
X194454304Y-53880944D01*
X194250944Y-54084304D01*
X194091165Y-54323431D01*
X193981107Y-54589134D01*
X193925000Y-54871203D01*
X168572782Y-54871203D01*
X167938072Y-54236494D01*
X167938072Y-47623061D01*
X177740000Y-47623061D01*
X177740000Y-47826939D01*
X177779774Y-48026898D01*
X177857795Y-48215256D01*
X177971063Y-48384774D01*
X178115226Y-48528937D01*
X178284744Y-48642205D01*
X178473102Y-48720226D01*
X178673061Y-48760000D01*
X178876939Y-48760000D01*
X179076898Y-48720226D01*
X179265256Y-48642205D01*
X179434774Y-48528937D01*
X179578937Y-48384774D01*
X179692205Y-48215256D01*
X179770226Y-48026898D01*
X179810000Y-47826939D01*
X179810000Y-47623061D01*
X179770226Y-47423102D01*
X179692205Y-47234744D01*
X179578937Y-47065226D01*
X179434774Y-46921063D01*
X179265256Y-46807795D01*
X179076898Y-46729774D01*
X178876939Y-46690000D01*
X178673061Y-46690000D01*
X178473102Y-46729774D01*
X178284744Y-46807795D01*
X178115226Y-46921063D01*
X177971063Y-47065226D01*
X177857795Y-47234744D01*
X177779774Y-47423102D01*
X177740000Y-47623061D01*
X167938072Y-47623061D01*
X167938072Y-46500000D01*
X167925812Y-46375518D01*
X167889502Y-46255820D01*
X167830537Y-46145506D01*
X167751185Y-46048815D01*
X167654494Y-45969463D01*
X167544180Y-45910498D01*
X167424482Y-45874188D01*
X167300000Y-45861928D01*
X164300000Y-45861928D01*
X164175518Y-45874188D01*
X164055820Y-45910498D01*
X163945506Y-45969463D01*
X163848815Y-46048815D01*
X163769463Y-46145506D01*
X163710498Y-46255820D01*
X163674188Y-46375518D01*
X163661928Y-46500000D01*
X157338072Y-46500000D01*
X157325812Y-46375518D01*
X157289502Y-46255820D01*
X157230537Y-46145506D01*
X157151185Y-46048815D01*
X157054494Y-45969463D01*
X156944180Y-45910498D01*
X156824482Y-45874188D01*
X156700000Y-45861928D01*
X153700000Y-45861928D01*
X153575518Y-45874188D01*
X153455820Y-45910498D01*
X153345506Y-45969463D01*
X153248815Y-46048815D01*
X153169463Y-46145506D01*
X153110498Y-46255820D01*
X153074188Y-46375518D01*
X153061928Y-46500000D01*
X153061928Y-59500000D01*
X153074188Y-59624482D01*
X153110498Y-59744180D01*
X153169463Y-59854494D01*
X153248815Y-59951185D01*
X153345506Y-60030537D01*
X153455820Y-60089502D01*
X153575518Y-60125812D01*
X153700000Y-60138072D01*
X154315001Y-60138072D01*
X154315000Y-74861928D01*
X153700000Y-74861928D01*
X153575518Y-74874188D01*
X153455820Y-74910498D01*
X153345506Y-74969463D01*
X153248815Y-75048815D01*
X153169463Y-75145506D01*
X153110498Y-75255820D01*
X153074188Y-75375518D01*
X153061928Y-75500000D01*
X153061928Y-81115000D01*
X152266579Y-81115000D01*
X143906537Y-72754959D01*
X143906532Y-72754953D01*
X140927002Y-69775424D01*
X140927002Y-69676252D01*
X141085750Y-69835000D01*
X141525000Y-69838072D01*
X141649482Y-69825812D01*
X141762081Y-69791655D01*
X141792374Y-69808751D01*
X141911209Y-69847794D01*
X142018250Y-69860000D01*
X142155525Y-69722725D01*
X142195506Y-69755537D01*
X142305820Y-69814502D01*
X142349503Y-69827753D01*
X142381750Y-69860000D01*
X142445267Y-69852757D01*
X142550000Y-69863072D01*
X142850000Y-69863072D01*
X142950000Y-69853223D01*
X143050000Y-69863072D01*
X143350000Y-69863072D01*
X143450000Y-69853223D01*
X143550000Y-69863072D01*
X143850000Y-69863072D01*
X143974482Y-69850812D01*
X144094180Y-69814502D01*
X144204494Y-69755537D01*
X144301185Y-69676185D01*
X144380537Y-69579494D01*
X144439502Y-69469180D01*
X144475812Y-69349482D01*
X144488072Y-69225000D01*
X144488072Y-68737048D01*
X144614250Y-68735000D01*
X144773000Y-68576250D01*
X144773000Y-67827000D01*
X145027000Y-67827000D01*
X145027000Y-68576250D01*
X145185750Y-68735000D01*
X145375000Y-68738072D01*
X145499482Y-68725812D01*
X145619180Y-68689502D01*
X145675000Y-68659665D01*
X145730820Y-68689502D01*
X145850518Y-68725812D01*
X145975000Y-68738072D01*
X146164250Y-68735000D01*
X146323000Y-68576250D01*
X146323000Y-67827000D01*
X145027000Y-67827000D01*
X144773000Y-67827000D01*
X144753000Y-67827000D01*
X144753000Y-67573000D01*
X144773000Y-67573000D01*
X144773000Y-67553000D01*
X145027000Y-67553000D01*
X145027000Y-67573000D01*
X146323000Y-67573000D01*
X146323000Y-67553000D01*
X146577000Y-67553000D01*
X146577000Y-67573000D01*
X146597000Y-67573000D01*
X146597000Y-67827000D01*
X146577000Y-67827000D01*
X146577000Y-68576250D01*
X146735750Y-68735000D01*
X146925000Y-68738072D01*
X147049482Y-68725812D01*
X147111928Y-68706869D01*
X147111928Y-69070000D01*
X147124188Y-69194482D01*
X147160498Y-69314180D01*
X147219463Y-69424494D01*
X147298815Y-69521185D01*
X147395506Y-69600537D01*
X147505820Y-69659502D01*
X147625518Y-69695812D01*
X147750000Y-69708072D01*
X148350000Y-69708072D01*
X148474482Y-69695812D01*
X148594180Y-69659502D01*
X148704494Y-69600537D01*
X148750000Y-69563191D01*
X148795506Y-69600537D01*
X148905820Y-69659502D01*
X149025518Y-69695812D01*
X149150000Y-69708072D01*
X149164250Y-69705000D01*
X149323000Y-69546250D01*
X149323000Y-68837000D01*
X149303000Y-68837000D01*
X149303000Y-68738072D01*
X149597000Y-68738072D01*
X149597000Y-68837000D01*
X149577000Y-68837000D01*
X149577000Y-69546250D01*
X149735750Y-69705000D01*
X149750000Y-69708072D01*
X149874482Y-69695812D01*
X149913964Y-69683835D01*
X149911928Y-69975000D01*
X149924188Y-70099482D01*
X149960498Y-70219180D01*
X150019463Y-70329494D01*
X150098815Y-70426185D01*
X150195506Y-70505537D01*
X150305820Y-70564502D01*
X150425518Y-70600812D01*
X150550000Y-70613072D01*
X150764250Y-70610000D01*
X150923000Y-70451250D01*
X150923000Y-69377000D01*
X150903000Y-69377000D01*
X150903000Y-69123000D01*
X150923000Y-69123000D01*
X150923000Y-69103000D01*
X151177000Y-69103000D01*
X151177000Y-69123000D01*
X151197000Y-69123000D01*
X151197000Y-69377000D01*
X151177000Y-69377000D01*
X151177000Y-70451250D01*
X151335750Y-70610000D01*
X151550000Y-70613072D01*
X151674482Y-70600812D01*
X151794180Y-70564502D01*
X151904494Y-70505537D01*
X152001185Y-70426185D01*
X152066658Y-70346406D01*
X152072038Y-70352962D01*
X152190001Y-70449771D01*
X152190001Y-70546288D01*
X152146063Y-70590226D01*
X152032795Y-70759744D01*
X151954774Y-70948102D01*
X151915000Y-71148061D01*
X151915000Y-71351939D01*
X151954774Y-71551898D01*
X152032795Y-71740256D01*
X152146063Y-71909774D01*
X152290226Y-72053937D01*
X152459744Y-72167205D01*
X152648102Y-72245226D01*
X152848061Y-72285000D01*
X153051939Y-72285000D01*
X153251898Y-72245226D01*
X153440256Y-72167205D01*
X153609774Y-72053937D01*
X153753937Y-71909774D01*
X153867205Y-71740256D01*
X153945226Y-71551898D01*
X153985000Y-71351939D01*
X153985000Y-71148061D01*
X153945226Y-70948102D01*
X153867205Y-70759744D01*
X153753937Y-70590226D01*
X153710000Y-70546289D01*
X153710000Y-70449770D01*
X153827962Y-70352962D01*
X153938405Y-70218386D01*
X154020472Y-70064850D01*
X154071008Y-69898254D01*
X154088072Y-69725000D01*
X154088072Y-68775000D01*
X154071008Y-68601746D01*
X154020472Y-68435150D01*
X153938405Y-68281614D01*
X153827962Y-68147038D01*
X153710000Y-68050230D01*
X153710000Y-67199770D01*
X153827962Y-67102962D01*
X153938405Y-66968386D01*
X154020472Y-66814850D01*
X154071008Y-66648254D01*
X154088072Y-66475000D01*
X154088072Y-65525000D01*
X154071008Y-65351746D01*
X154020472Y-65185150D01*
X153938405Y-65031614D01*
X153827962Y-64897038D01*
X153693386Y-64786595D01*
X153539850Y-64704528D01*
X153373254Y-64653992D01*
X153200000Y-64636928D01*
X152700000Y-64636928D01*
X152526746Y-64653992D01*
X152360150Y-64704528D01*
X152206614Y-64786595D01*
X152072038Y-64897038D01*
X152066658Y-64903594D01*
X152001185Y-64823815D01*
X151904494Y-64744463D01*
X151794180Y-64685498D01*
X151674482Y-64649188D01*
X151550000Y-64636928D01*
X151335750Y-64640000D01*
X151177000Y-64798750D01*
X151177000Y-65873000D01*
X151197000Y-65873000D01*
X151197000Y-66127000D01*
X151177000Y-66127000D01*
X151177000Y-66147000D01*
X150923000Y-66147000D01*
X150923000Y-66127000D01*
X150903000Y-66127000D01*
X150903000Y-65873000D01*
X150923000Y-65873000D01*
X150923000Y-64798750D01*
X150764250Y-64640000D01*
X150550000Y-64636928D01*
X150425518Y-64649188D01*
X150305820Y-64685498D01*
X150195506Y-64744463D01*
X150098815Y-64823815D01*
X150051689Y-64881238D01*
X149994180Y-64850498D01*
X149874482Y-64814188D01*
X149750000Y-64801928D01*
X149735750Y-64805000D01*
X149577000Y-64963750D01*
X149577000Y-65673000D01*
X149597000Y-65673000D01*
X149597000Y-65771928D01*
X149510000Y-65771928D01*
X149510000Y-65387325D01*
X149513676Y-65350000D01*
X149510000Y-65312675D01*
X149510000Y-65312667D01*
X149499003Y-65201014D01*
X149455546Y-65057753D01*
X149384974Y-64925724D01*
X149290001Y-64809999D01*
X149261004Y-64786202D01*
X148188803Y-63714001D01*
X148165000Y-63684998D01*
X148049275Y-63590025D01*
X147917246Y-63519453D01*
X147773985Y-63475996D01*
X147662332Y-63464999D01*
X147662321Y-63464999D01*
X147624999Y-63461323D01*
X147587677Y-63464999D01*
X146139321Y-63464999D01*
X146101998Y-63461323D01*
X146064675Y-63464999D01*
X144518710Y-63464999D01*
X144474773Y-63421062D01*
X144305255Y-63307794D01*
X144250226Y-63285000D01*
X151161546Y-63285000D01*
X151209744Y-63317205D01*
X151398102Y-63395226D01*
X151598061Y-63435000D01*
X151801939Y-63435000D01*
X152001898Y-63395226D01*
X152190256Y-63317205D01*
X152359774Y-63203937D01*
X152503937Y-63059774D01*
X152617205Y-62890256D01*
X152695226Y-62701898D01*
X152735000Y-62501939D01*
X152735000Y-62298061D01*
X152695226Y-62098102D01*
X152617205Y-61909744D01*
X152503937Y-61740226D01*
X152359774Y-61596063D01*
X152190256Y-61482795D01*
X152001898Y-61404774D01*
X151801939Y-61365000D01*
X151598061Y-61365000D01*
X151398102Y-61404774D01*
X151209744Y-61482795D01*
X151161546Y-61515000D01*
X137543465Y-61515000D01*
X137499999Y-61510719D01*
X137456533Y-61515000D01*
X137456523Y-61515000D01*
X137326510Y-61527805D01*
X137159687Y-61578411D01*
X137005941Y-61660589D01*
X137005939Y-61660590D01*
X137005940Y-61660590D01*
X136904953Y-61743468D01*
X136904951Y-61743470D01*
X136871183Y-61771183D01*
X136843470Y-61804951D01*
X133136494Y-65511928D01*
X131650000Y-65511928D01*
X131525518Y-65524188D01*
X131405820Y-65560498D01*
X131295506Y-65619463D01*
X131198815Y-65698815D01*
X131119463Y-65795506D01*
X131075000Y-65878689D01*
X131030537Y-65795506D01*
X130951185Y-65698815D01*
X130854494Y-65619463D01*
X130744180Y-65560498D01*
X130624482Y-65524188D01*
X130500000Y-65511928D01*
X129013507Y-65511928D01*
X117338072Y-53836494D01*
X117338072Y-52148061D01*
X121015000Y-52148061D01*
X121015000Y-52351939D01*
X121054774Y-52551898D01*
X121132795Y-52740256D01*
X121246063Y-52909774D01*
X121390226Y-53053937D01*
X121559744Y-53167205D01*
X121748102Y-53245226D01*
X121948061Y-53285000D01*
X122151939Y-53285000D01*
X122351898Y-53245226D01*
X122540256Y-53167205D01*
X122709774Y-53053937D01*
X122853937Y-52909774D01*
X122967205Y-52740256D01*
X123045226Y-52551898D01*
X123085000Y-52351939D01*
X123085000Y-52148061D01*
X123045226Y-51948102D01*
X122967205Y-51759744D01*
X122853937Y-51590226D01*
X122709774Y-51446063D01*
X122540256Y-51332795D01*
X122351898Y-51254774D01*
X122151939Y-51215000D01*
X121948061Y-51215000D01*
X121748102Y-51254774D01*
X121559744Y-51332795D01*
X121390226Y-51446063D01*
X121246063Y-51590226D01*
X121132795Y-51759744D01*
X121054774Y-51948102D01*
X121015000Y-52148061D01*
X117338072Y-52148061D01*
X117338072Y-46971203D01*
X132055000Y-46971203D01*
X132055000Y-47258797D01*
X132111107Y-47540866D01*
X132221165Y-47806569D01*
X132380944Y-48045696D01*
X132584304Y-48249056D01*
X132823431Y-48408835D01*
X133089134Y-48518893D01*
X133371203Y-48575000D01*
X133658797Y-48575000D01*
X133940866Y-48518893D01*
X134206569Y-48408835D01*
X134445696Y-48249056D01*
X134649056Y-48045696D01*
X134808835Y-47806569D01*
X134918893Y-47540866D01*
X134975000Y-47258797D01*
X134975000Y-46971203D01*
X142825000Y-46971203D01*
X142825000Y-47258797D01*
X142881107Y-47540866D01*
X142991165Y-47806569D01*
X143150944Y-48045696D01*
X143354304Y-48249056D01*
X143593431Y-48408835D01*
X143859134Y-48518893D01*
X144141203Y-48575000D01*
X144428797Y-48575000D01*
X144710866Y-48518893D01*
X144976569Y-48408835D01*
X145215696Y-48249056D01*
X145419056Y-48045696D01*
X145578835Y-47806569D01*
X145688893Y-47540866D01*
X145745000Y-47258797D01*
X145745000Y-46971203D01*
X145688893Y-46689134D01*
X145578835Y-46423431D01*
X145419056Y-46184304D01*
X145215696Y-45980944D01*
X144976569Y-45821165D01*
X144710866Y-45711107D01*
X144428797Y-45655000D01*
X144141203Y-45655000D01*
X143859134Y-45711107D01*
X143593431Y-45821165D01*
X143354304Y-45980944D01*
X143150944Y-46184304D01*
X142991165Y-46423431D01*
X142881107Y-46689134D01*
X142825000Y-46971203D01*
X134975000Y-46971203D01*
X134918893Y-46689134D01*
X134808835Y-46423431D01*
X134649056Y-46184304D01*
X134445696Y-45980944D01*
X134206569Y-45821165D01*
X133940866Y-45711107D01*
X133658797Y-45655000D01*
X133371203Y-45655000D01*
X133089134Y-45711107D01*
X132823431Y-45821165D01*
X132584304Y-45980944D01*
X132380944Y-46184304D01*
X132221165Y-46423431D01*
X132111107Y-46689134D01*
X132055000Y-46971203D01*
X117338072Y-46971203D01*
X117338072Y-46500000D01*
X117325812Y-46375518D01*
X117289502Y-46255820D01*
X117230537Y-46145506D01*
X117151185Y-46048815D01*
X117054494Y-45969463D01*
X116944180Y-45910498D01*
X116824482Y-45874188D01*
X116700000Y-45861928D01*
X114160000Y-45861928D01*
X114160000Y-44254856D01*
X138508205Y-44254856D01*
X138508205Y-44458734D01*
X138547979Y-44658693D01*
X138626000Y-44847051D01*
X138739268Y-45016569D01*
X138883431Y-45160732D01*
X139052949Y-45274000D01*
X139241307Y-45352021D01*
X139441266Y-45391795D01*
X139645144Y-45391795D01*
X139845103Y-45352021D01*
X140033461Y-45274000D01*
X140202979Y-45160732D01*
X140347142Y-45016569D01*
X140460410Y-44847051D01*
X140538431Y-44658693D01*
X140578205Y-44458734D01*
X140578205Y-44254856D01*
X140538431Y-44054897D01*
X140460410Y-43866539D01*
X140347142Y-43697021D01*
X140202979Y-43552858D01*
X140033461Y-43439590D01*
X139845103Y-43361569D01*
X139645144Y-43321795D01*
X139441266Y-43321795D01*
X139241307Y-43361569D01*
X139052949Y-43439590D01*
X138883431Y-43552858D01*
X138739268Y-43697021D01*
X138626000Y-43866539D01*
X138547979Y-44054897D01*
X138508205Y-44254856D01*
X114160000Y-44254856D01*
X114160000Y-41773061D01*
X134690000Y-41773061D01*
X134690000Y-41976939D01*
X134729774Y-42176898D01*
X134807795Y-42365256D01*
X134921063Y-42534774D01*
X135065226Y-42678937D01*
X135234744Y-42792205D01*
X135423102Y-42870226D01*
X135623061Y-42910000D01*
X135826939Y-42910000D01*
X136026898Y-42870226D01*
X136215256Y-42792205D01*
X136384774Y-42678937D01*
X136528937Y-42534774D01*
X136642205Y-42365256D01*
X136720226Y-42176898D01*
X136760000Y-41976939D01*
X136760000Y-41773061D01*
X136720226Y-41573102D01*
X136642205Y-41384744D01*
X136549603Y-41246154D01*
X157415000Y-41246154D01*
X157415000Y-41853846D01*
X157533555Y-42449861D01*
X157766108Y-43011295D01*
X158103724Y-43516573D01*
X158533427Y-43946276D01*
X159038705Y-44283892D01*
X159600139Y-44516445D01*
X160196154Y-44635000D01*
X160803846Y-44635000D01*
X161399861Y-44516445D01*
X161961295Y-44283892D01*
X162466573Y-43946276D01*
X162896276Y-43516573D01*
X163233892Y-43011295D01*
X163466445Y-42449861D01*
X163585000Y-41853846D01*
X163585000Y-41246154D01*
X163466445Y-40650139D01*
X163233892Y-40088705D01*
X162896276Y-39583427D01*
X162466573Y-39153724D01*
X161961295Y-38816108D01*
X161399861Y-38583555D01*
X160803846Y-38465000D01*
X160196154Y-38465000D01*
X159600139Y-38583555D01*
X159038705Y-38816108D01*
X158533427Y-39153724D01*
X158103724Y-39583427D01*
X157766108Y-40088705D01*
X157533555Y-40650139D01*
X157415000Y-41246154D01*
X136549603Y-41246154D01*
X136528937Y-41215226D01*
X136384774Y-41071063D01*
X136215256Y-40957795D01*
X136026898Y-40879774D01*
X135826939Y-40840000D01*
X135623061Y-40840000D01*
X135423102Y-40879774D01*
X135234744Y-40957795D01*
X135065226Y-41071063D01*
X134921063Y-41215226D01*
X134807795Y-41384744D01*
X134729774Y-41573102D01*
X134690000Y-41773061D01*
X114160000Y-41773061D01*
X114160000Y-41160000D01*
X118967581Y-41160000D01*
X119000000Y-41163193D01*
X119032419Y-41160000D01*
X119129383Y-41150450D01*
X119253793Y-41112710D01*
X119368450Y-41051425D01*
X119468948Y-40968948D01*
X119551425Y-40868450D01*
X119612710Y-40753793D01*
X119650450Y-40629383D01*
X119663193Y-40500000D01*
X119660000Y-40467581D01*
X119660000Y-35660000D01*
X201340000Y-35660000D01*
X201340001Y-40467571D01*
G37*
%TD.AperFunction*%
D23*
X140927000Y-68573000D02*
X140947000Y-68573000D01*
X140947000Y-68827000D01*
X140927000Y-68827000D01*
X140927000Y-68847000D01*
X140673000Y-68847000D01*
X140673000Y-68827000D01*
X140653000Y-68827000D01*
X140653000Y-68573000D01*
X140673000Y-68573000D01*
X140673000Y-68553000D01*
X140927000Y-68553000D01*
X140927000Y-68573000D01*
%TA.AperFunction,Conductor*%
D24*
G36*
X140927000Y-68573000D02*
G01*
X140947000Y-68573000D01*
X140947000Y-68827000D01*
X140927000Y-68827000D01*
X140927000Y-68847000D01*
X140673000Y-68847000D01*
X140673000Y-68827000D01*
X140653000Y-68827000D01*
X140653000Y-68573000D01*
X140673000Y-68573000D01*
X140673000Y-68553000D01*
X140927000Y-68553000D01*
X140927000Y-68573000D01*
G37*
%TD.AperFunction*%
%TD*%
M02*
