%TF.GenerationSoftware,KiCad,Pcbnew,(5.1.10)-1*%
%TF.CreationDate,2022-11-13T15:12:26-08:00*%
%TF.ProjectId,-ZFace,2d5a4661-6365-42e6-9b69-6361645f7063,1.0*%
%TF.SameCoordinates,Original*%
%TF.FileFunction,Copper,L1,Top*%
%TF.FilePolarity,Positive*%
%FSLAX46Y46*%
G04 Gerber Fmt 4.6, Leading zero omitted, Abs format (unit mm)*
G04 Created by KiCad (PCBNEW (5.1.10)-1) date 2022-11-13 15:12:26*
%MOMM*%
%LPD*%
G01*
G04 APERTURE LIST*
%TA.AperFunction,ComponentPad*%
%ADD10C,1.750000*%
%TD*%
%TA.AperFunction,ComponentPad*%
%ADD11C,1.800000*%
%TD*%
%TA.AperFunction,ComponentPad*%
%ADD12C,1.030000*%
%TD*%
%TA.AperFunction,SMDPad,CuDef*%
%ADD13R,1.800000X0.600000*%
%TD*%
%TA.AperFunction,ComponentPad*%
%ADD14C,4.900000*%
%TD*%
%TA.AperFunction,SMDPad,CuDef*%
%ADD15R,2.700000X1.200000*%
%TD*%
%TA.AperFunction,SMDPad,CuDef*%
%ADD16R,0.800000X0.800000*%
%TD*%
%TA.AperFunction,SMDPad,CuDef*%
%ADD17R,1.200000X2.700000*%
%TD*%
%TA.AperFunction,ViaPad*%
%ADD18C,0.800000*%
%TD*%
%TA.AperFunction,Conductor*%
%ADD19C,0.250000*%
%TD*%
%TA.AperFunction,Conductor*%
%ADD20C,0.500000*%
%TD*%
%TA.AperFunction,Conductor*%
%ADD21C,0.254000*%
%TD*%
%TA.AperFunction,Conductor*%
%ADD22C,0.100000*%
%TD*%
G04 APERTURE END LIST*
D10*
%TO.P,J8,1*%
%TO.N,Net-(J8-Pad1)*%
X158200000Y-83750000D03*
%TO.P,J8,2*%
%TO.N,Net-(J8-Pad2)*%
X158200000Y-80250000D03*
%TD*%
D11*
%TO.P,J7,1*%
%TO.N,Net-(J6-Pad2)*%
X163000000Y-83800000D03*
%TO.P,J7,2*%
%TO.N,Net-(J6-Pad1)*%
X163000000Y-80300000D03*
%TD*%
D12*
%TO.P,J6,2*%
%TO.N,Net-(J6-Pad2)*%
X163150000Y-93325000D03*
%TO.P,J6,1*%
%TO.N,Net-(J6-Pad1)*%
X163150000Y-91775000D03*
%TD*%
D13*
%TO.P,J1,1*%
%TO.N,VSOLAR*%
X117450000Y-86445000D03*
%TO.P,J1,2*%
X114150000Y-86445000D03*
%TO.P,J1,3*%
%TO.N,Net-(J1-Pad3)*%
X117450000Y-85175000D03*
%TO.P,J1,4*%
%TO.N,Net-(J1-Pad4)*%
X114150000Y-85175000D03*
%TO.P,J1,5*%
%TO.N,3V3*%
X117450000Y-83905000D03*
%TO.P,J1,6*%
%TO.N,GND*%
X114150000Y-83905000D03*
%TO.P,J1,7*%
%TO.N,+MagX*%
X117450000Y-82635000D03*
%TO.P,J1,8*%
%TO.N,-MagX*%
X114150000Y-82635000D03*
%TO.P,J1,9*%
%TO.N,+MagY*%
X117450000Y-81365000D03*
%TO.P,J1,10*%
%TO.N,-MagY*%
X114150000Y-81365000D03*
%TO.P,J1,11*%
%TO.N,+MagZ*%
X117450000Y-80095000D03*
%TO.P,J1,12*%
X114150000Y-80095000D03*
%TO.P,J1,13*%
%TO.N,GND*%
X117450000Y-78825000D03*
%TO.P,J1,14*%
X114150000Y-78825000D03*
%TO.P,J1,15*%
%TO.N,SCL*%
X117450000Y-77555000D03*
%TO.P,J1,16*%
%TO.N,SDA*%
X114150000Y-77555000D03*
%TD*%
D14*
%TO.P,J13,1*%
%TO.N,Net-(J13-Pad1)*%
X200450000Y-96250000D03*
%TD*%
%TO.P,J12,1*%
%TO.N,Net-(J12-Pad1)*%
X160500000Y-41550000D03*
%TD*%
%TO.P,J11,1*%
%TO.N,Net-(J11-Pad1)*%
X120550000Y-67750000D03*
%TD*%
%TO.P,J14,1*%
%TO.N,Net-(J14-Pad1)*%
X160500000Y-122450000D03*
%TD*%
%TO.P,U3,24*%
%TO.N,3V3*%
%TA.AperFunction,SMDPad,CuDef*%
G36*
G01*
X129975000Y-78975000D02*
X129975000Y-79175000D01*
G75*
G02*
X129875000Y-79275000I-100000J0D01*
G01*
X128600000Y-79275000D01*
G75*
G02*
X128500000Y-79175000I0J100000D01*
G01*
X128500000Y-78975000D01*
G75*
G02*
X128600000Y-78875000I100000J0D01*
G01*
X129875000Y-78875000D01*
G75*
G02*
X129975000Y-78975000I0J-100000D01*
G01*
G37*
%TD.AperFunction*%
%TO.P,U3,23*%
%TO.N,SDA*%
%TA.AperFunction,SMDPad,CuDef*%
G36*
G01*
X129975000Y-78325000D02*
X129975000Y-78525000D01*
G75*
G02*
X129875000Y-78625000I-100000J0D01*
G01*
X128600000Y-78625000D01*
G75*
G02*
X128500000Y-78525000I0J100000D01*
G01*
X128500000Y-78325000D01*
G75*
G02*
X128600000Y-78225000I100000J0D01*
G01*
X129875000Y-78225000D01*
G75*
G02*
X129975000Y-78325000I0J-100000D01*
G01*
G37*
%TD.AperFunction*%
%TO.P,U3,22*%
%TO.N,SCL*%
%TA.AperFunction,SMDPad,CuDef*%
G36*
G01*
X129975000Y-77675000D02*
X129975000Y-77875000D01*
G75*
G02*
X129875000Y-77975000I-100000J0D01*
G01*
X128600000Y-77975000D01*
G75*
G02*
X128500000Y-77875000I0J100000D01*
G01*
X128500000Y-77675000D01*
G75*
G02*
X128600000Y-77575000I100000J0D01*
G01*
X129875000Y-77575000D01*
G75*
G02*
X129975000Y-77675000I0J-100000D01*
G01*
G37*
%TD.AperFunction*%
%TO.P,U3,21*%
%TO.N,GND*%
%TA.AperFunction,SMDPad,CuDef*%
G36*
G01*
X129975000Y-77025000D02*
X129975000Y-77225000D01*
G75*
G02*
X129875000Y-77325000I-100000J0D01*
G01*
X128600000Y-77325000D01*
G75*
G02*
X128500000Y-77225000I0J100000D01*
G01*
X128500000Y-77025000D01*
G75*
G02*
X128600000Y-76925000I100000J0D01*
G01*
X129875000Y-76925000D01*
G75*
G02*
X129975000Y-77025000I0J-100000D01*
G01*
G37*
%TD.AperFunction*%
%TO.P,U3,20*%
%TO.N,Net-(U3-Pad20)*%
%TA.AperFunction,SMDPad,CuDef*%
G36*
G01*
X129975000Y-76375000D02*
X129975000Y-76575000D01*
G75*
G02*
X129875000Y-76675000I-100000J0D01*
G01*
X128600000Y-76675000D01*
G75*
G02*
X128500000Y-76575000I0J100000D01*
G01*
X128500000Y-76375000D01*
G75*
G02*
X128600000Y-76275000I100000J0D01*
G01*
X129875000Y-76275000D01*
G75*
G02*
X129975000Y-76375000I0J-100000D01*
G01*
G37*
%TD.AperFunction*%
%TO.P,U3,19*%
%TO.N,Net-(U3-Pad19)*%
%TA.AperFunction,SMDPad,CuDef*%
G36*
G01*
X129975000Y-75725000D02*
X129975000Y-75925000D01*
G75*
G02*
X129875000Y-76025000I-100000J0D01*
G01*
X128600000Y-76025000D01*
G75*
G02*
X128500000Y-75925000I0J100000D01*
G01*
X128500000Y-75725000D01*
G75*
G02*
X128600000Y-75625000I100000J0D01*
G01*
X129875000Y-75625000D01*
G75*
G02*
X129975000Y-75725000I0J-100000D01*
G01*
G37*
%TD.AperFunction*%
%TO.P,U3,18*%
%TO.N,Net-(U3-Pad18)*%
%TA.AperFunction,SMDPad,CuDef*%
G36*
G01*
X129975000Y-75075000D02*
X129975000Y-75275000D01*
G75*
G02*
X129875000Y-75375000I-100000J0D01*
G01*
X128600000Y-75375000D01*
G75*
G02*
X128500000Y-75275000I0J100000D01*
G01*
X128500000Y-75075000D01*
G75*
G02*
X128600000Y-74975000I100000J0D01*
G01*
X129875000Y-74975000D01*
G75*
G02*
X129975000Y-75075000I0J-100000D01*
G01*
G37*
%TD.AperFunction*%
%TO.P,U3,17*%
%TO.N,Net-(U3-Pad17)*%
%TA.AperFunction,SMDPad,CuDef*%
G36*
G01*
X129975000Y-74425000D02*
X129975000Y-74625000D01*
G75*
G02*
X129875000Y-74725000I-100000J0D01*
G01*
X128600000Y-74725000D01*
G75*
G02*
X128500000Y-74625000I0J100000D01*
G01*
X128500000Y-74425000D01*
G75*
G02*
X128600000Y-74325000I100000J0D01*
G01*
X129875000Y-74325000D01*
G75*
G02*
X129975000Y-74425000I0J-100000D01*
G01*
G37*
%TD.AperFunction*%
%TO.P,U3,16*%
%TO.N,Net-(U3-Pad16)*%
%TA.AperFunction,SMDPad,CuDef*%
G36*
G01*
X129975000Y-73775000D02*
X129975000Y-73975000D01*
G75*
G02*
X129875000Y-74075000I-100000J0D01*
G01*
X128600000Y-74075000D01*
G75*
G02*
X128500000Y-73975000I0J100000D01*
G01*
X128500000Y-73775000D01*
G75*
G02*
X128600000Y-73675000I100000J0D01*
G01*
X129875000Y-73675000D01*
G75*
G02*
X129975000Y-73775000I0J-100000D01*
G01*
G37*
%TD.AperFunction*%
%TO.P,U3,15*%
%TO.N,Net-(U3-Pad15)*%
%TA.AperFunction,SMDPad,CuDef*%
G36*
G01*
X129975000Y-73125000D02*
X129975000Y-73325000D01*
G75*
G02*
X129875000Y-73425000I-100000J0D01*
G01*
X128600000Y-73425000D01*
G75*
G02*
X128500000Y-73325000I0J100000D01*
G01*
X128500000Y-73125000D01*
G75*
G02*
X128600000Y-73025000I100000J0D01*
G01*
X129875000Y-73025000D01*
G75*
G02*
X129975000Y-73125000I0J-100000D01*
G01*
G37*
%TD.AperFunction*%
%TO.P,U3,14*%
%TO.N,SCL5*%
%TA.AperFunction,SMDPad,CuDef*%
G36*
G01*
X129975000Y-72475000D02*
X129975000Y-72675000D01*
G75*
G02*
X129875000Y-72775000I-100000J0D01*
G01*
X128600000Y-72775000D01*
G75*
G02*
X128500000Y-72675000I0J100000D01*
G01*
X128500000Y-72475000D01*
G75*
G02*
X128600000Y-72375000I100000J0D01*
G01*
X129875000Y-72375000D01*
G75*
G02*
X129975000Y-72475000I0J-100000D01*
G01*
G37*
%TD.AperFunction*%
%TO.P,U3,13*%
%TO.N,SDA5*%
%TA.AperFunction,SMDPad,CuDef*%
G36*
G01*
X129975000Y-71825000D02*
X129975000Y-72025000D01*
G75*
G02*
X129875000Y-72125000I-100000J0D01*
G01*
X128600000Y-72125000D01*
G75*
G02*
X128500000Y-72025000I0J100000D01*
G01*
X128500000Y-71825000D01*
G75*
G02*
X128600000Y-71725000I100000J0D01*
G01*
X129875000Y-71725000D01*
G75*
G02*
X129975000Y-71825000I0J-100000D01*
G01*
G37*
%TD.AperFunction*%
%TO.P,U3,12*%
%TO.N,GND*%
%TA.AperFunction,SMDPad,CuDef*%
G36*
G01*
X135700000Y-71825000D02*
X135700000Y-72025000D01*
G75*
G02*
X135600000Y-72125000I-100000J0D01*
G01*
X134325000Y-72125000D01*
G75*
G02*
X134225000Y-72025000I0J100000D01*
G01*
X134225000Y-71825000D01*
G75*
G02*
X134325000Y-71725000I100000J0D01*
G01*
X135600000Y-71725000D01*
G75*
G02*
X135700000Y-71825000I0J-100000D01*
G01*
G37*
%TD.AperFunction*%
%TO.P,U3,11*%
%TO.N,SCL3*%
%TA.AperFunction,SMDPad,CuDef*%
G36*
G01*
X135700000Y-72475000D02*
X135700000Y-72675000D01*
G75*
G02*
X135600000Y-72775000I-100000J0D01*
G01*
X134325000Y-72775000D01*
G75*
G02*
X134225000Y-72675000I0J100000D01*
G01*
X134225000Y-72475000D01*
G75*
G02*
X134325000Y-72375000I100000J0D01*
G01*
X135600000Y-72375000D01*
G75*
G02*
X135700000Y-72475000I0J-100000D01*
G01*
G37*
%TD.AperFunction*%
%TO.P,U3,10*%
%TO.N,SDA3*%
%TA.AperFunction,SMDPad,CuDef*%
G36*
G01*
X135700000Y-73125000D02*
X135700000Y-73325000D01*
G75*
G02*
X135600000Y-73425000I-100000J0D01*
G01*
X134325000Y-73425000D01*
G75*
G02*
X134225000Y-73325000I0J100000D01*
G01*
X134225000Y-73125000D01*
G75*
G02*
X134325000Y-73025000I100000J0D01*
G01*
X135600000Y-73025000D01*
G75*
G02*
X135700000Y-73125000I0J-100000D01*
G01*
G37*
%TD.AperFunction*%
%TO.P,U3,9*%
%TO.N,SCL2*%
%TA.AperFunction,SMDPad,CuDef*%
G36*
G01*
X135700000Y-73775000D02*
X135700000Y-73975000D01*
G75*
G02*
X135600000Y-74075000I-100000J0D01*
G01*
X134325000Y-74075000D01*
G75*
G02*
X134225000Y-73975000I0J100000D01*
G01*
X134225000Y-73775000D01*
G75*
G02*
X134325000Y-73675000I100000J0D01*
G01*
X135600000Y-73675000D01*
G75*
G02*
X135700000Y-73775000I0J-100000D01*
G01*
G37*
%TD.AperFunction*%
%TO.P,U3,8*%
%TO.N,SDA2*%
%TA.AperFunction,SMDPad,CuDef*%
G36*
G01*
X135700000Y-74425000D02*
X135700000Y-74625000D01*
G75*
G02*
X135600000Y-74725000I-100000J0D01*
G01*
X134325000Y-74725000D01*
G75*
G02*
X134225000Y-74625000I0J100000D01*
G01*
X134225000Y-74425000D01*
G75*
G02*
X134325000Y-74325000I100000J0D01*
G01*
X135600000Y-74325000D01*
G75*
G02*
X135700000Y-74425000I0J-100000D01*
G01*
G37*
%TD.AperFunction*%
%TO.P,U3,7*%
%TO.N,SCL1*%
%TA.AperFunction,SMDPad,CuDef*%
G36*
G01*
X135700000Y-75075000D02*
X135700000Y-75275000D01*
G75*
G02*
X135600000Y-75375000I-100000J0D01*
G01*
X134325000Y-75375000D01*
G75*
G02*
X134225000Y-75275000I0J100000D01*
G01*
X134225000Y-75075000D01*
G75*
G02*
X134325000Y-74975000I100000J0D01*
G01*
X135600000Y-74975000D01*
G75*
G02*
X135700000Y-75075000I0J-100000D01*
G01*
G37*
%TD.AperFunction*%
%TO.P,U3,6*%
%TO.N,SDA1*%
%TA.AperFunction,SMDPad,CuDef*%
G36*
G01*
X135700000Y-75725000D02*
X135700000Y-75925000D01*
G75*
G02*
X135600000Y-76025000I-100000J0D01*
G01*
X134325000Y-76025000D01*
G75*
G02*
X134225000Y-75925000I0J100000D01*
G01*
X134225000Y-75725000D01*
G75*
G02*
X134325000Y-75625000I100000J0D01*
G01*
X135600000Y-75625000D01*
G75*
G02*
X135700000Y-75725000I0J-100000D01*
G01*
G37*
%TD.AperFunction*%
%TO.P,U3,5*%
%TO.N,SCL4*%
%TA.AperFunction,SMDPad,CuDef*%
G36*
G01*
X135700000Y-76375000D02*
X135700000Y-76575000D01*
G75*
G02*
X135600000Y-76675000I-100000J0D01*
G01*
X134325000Y-76675000D01*
G75*
G02*
X134225000Y-76575000I0J100000D01*
G01*
X134225000Y-76375000D01*
G75*
G02*
X134325000Y-76275000I100000J0D01*
G01*
X135600000Y-76275000D01*
G75*
G02*
X135700000Y-76375000I0J-100000D01*
G01*
G37*
%TD.AperFunction*%
%TO.P,U3,4*%
%TO.N,SDA4*%
%TA.AperFunction,SMDPad,CuDef*%
G36*
G01*
X135700000Y-77025000D02*
X135700000Y-77225000D01*
G75*
G02*
X135600000Y-77325000I-100000J0D01*
G01*
X134325000Y-77325000D01*
G75*
G02*
X134225000Y-77225000I0J100000D01*
G01*
X134225000Y-77025000D01*
G75*
G02*
X134325000Y-76925000I100000J0D01*
G01*
X135600000Y-76925000D01*
G75*
G02*
X135700000Y-77025000I0J-100000D01*
G01*
G37*
%TD.AperFunction*%
%TO.P,U3,3*%
%TO.N,Net-(U3-Pad3)*%
%TA.AperFunction,SMDPad,CuDef*%
G36*
G01*
X135700000Y-77675000D02*
X135700000Y-77875000D01*
G75*
G02*
X135600000Y-77975000I-100000J0D01*
G01*
X134325000Y-77975000D01*
G75*
G02*
X134225000Y-77875000I0J100000D01*
G01*
X134225000Y-77675000D01*
G75*
G02*
X134325000Y-77575000I100000J0D01*
G01*
X135600000Y-77575000D01*
G75*
G02*
X135700000Y-77675000I0J-100000D01*
G01*
G37*
%TD.AperFunction*%
%TO.P,U3,2*%
%TO.N,GND*%
%TA.AperFunction,SMDPad,CuDef*%
G36*
G01*
X135700000Y-78325000D02*
X135700000Y-78525000D01*
G75*
G02*
X135600000Y-78625000I-100000J0D01*
G01*
X134325000Y-78625000D01*
G75*
G02*
X134225000Y-78525000I0J100000D01*
G01*
X134225000Y-78325000D01*
G75*
G02*
X134325000Y-78225000I100000J0D01*
G01*
X135600000Y-78225000D01*
G75*
G02*
X135700000Y-78325000I0J-100000D01*
G01*
G37*
%TD.AperFunction*%
%TO.P,U3,1*%
%TA.AperFunction,SMDPad,CuDef*%
G36*
G01*
X135700000Y-78975000D02*
X135700000Y-79175000D01*
G75*
G02*
X135600000Y-79275000I-100000J0D01*
G01*
X134325000Y-79275000D01*
G75*
G02*
X134225000Y-79175000I0J100000D01*
G01*
X134225000Y-78975000D01*
G75*
G02*
X134325000Y-78875000I100000J0D01*
G01*
X135600000Y-78875000D01*
G75*
G02*
X135700000Y-78975000I0J-100000D01*
G01*
G37*
%TD.AperFunction*%
%TD*%
%TO.P,R2,2*%
%TO.N,SDA*%
%TA.AperFunction,SMDPad,CuDef*%
G36*
G01*
X127525000Y-78825000D02*
X126975000Y-78825000D01*
G75*
G02*
X126775000Y-78625000I0J200000D01*
G01*
X126775000Y-78225000D01*
G75*
G02*
X126975000Y-78025000I200000J0D01*
G01*
X127525000Y-78025000D01*
G75*
G02*
X127725000Y-78225000I0J-200000D01*
G01*
X127725000Y-78625000D01*
G75*
G02*
X127525000Y-78825000I-200000J0D01*
G01*
G37*
%TD.AperFunction*%
%TO.P,R2,1*%
%TO.N,3V3*%
%TA.AperFunction,SMDPad,CuDef*%
G36*
G01*
X127525000Y-80475000D02*
X126975000Y-80475000D01*
G75*
G02*
X126775000Y-80275000I0J200000D01*
G01*
X126775000Y-79875000D01*
G75*
G02*
X126975000Y-79675000I200000J0D01*
G01*
X127525000Y-79675000D01*
G75*
G02*
X127725000Y-79875000I0J-200000D01*
G01*
X127725000Y-80275000D01*
G75*
G02*
X127525000Y-80475000I-200000J0D01*
G01*
G37*
%TD.AperFunction*%
%TD*%
%TO.P,R1,2*%
%TO.N,SCL*%
%TA.AperFunction,SMDPad,CuDef*%
G36*
G01*
X125925000Y-78000000D02*
X125375000Y-78000000D01*
G75*
G02*
X125175000Y-77800000I0J200000D01*
G01*
X125175000Y-77400000D01*
G75*
G02*
X125375000Y-77200000I200000J0D01*
G01*
X125925000Y-77200000D01*
G75*
G02*
X126125000Y-77400000I0J-200000D01*
G01*
X126125000Y-77800000D01*
G75*
G02*
X125925000Y-78000000I-200000J0D01*
G01*
G37*
%TD.AperFunction*%
%TO.P,R1,1*%
%TO.N,3V3*%
%TA.AperFunction,SMDPad,CuDef*%
G36*
G01*
X125925000Y-79650000D02*
X125375000Y-79650000D01*
G75*
G02*
X125175000Y-79450000I0J200000D01*
G01*
X125175000Y-79050000D01*
G75*
G02*
X125375000Y-78850000I200000J0D01*
G01*
X125925000Y-78850000D01*
G75*
G02*
X126125000Y-79050000I0J-200000D01*
G01*
X126125000Y-79450000D01*
G75*
G02*
X125925000Y-79650000I-200000J0D01*
G01*
G37*
%TD.AperFunction*%
%TD*%
D15*
%TO.P,J5,*%
%TO.N,*%
X128065000Y-97930000D03*
X123165000Y-109270000D03*
X123165000Y-97930000D03*
X128065000Y-109270000D03*
D16*
%TO.P,J5,2*%
%TO.N,3V3*%
X128885000Y-105505000D03*
%TO.P,J5,8*%
%TO.N,GND*%
X127615000Y-105505000D03*
%TO.P,J5,6*%
%TO.N,SCL4*%
X128885000Y-100425000D03*
%TO.P,J5,1*%
%TO.N,VSOLAR*%
X128885000Y-106775000D03*
%TO.P,J5,7*%
X127615000Y-106775000D03*
%TO.P,J5,4*%
%TO.N,-MagY*%
X128885000Y-102965000D03*
%TO.P,J5,3*%
%TO.N,GND*%
X128885000Y-104235000D03*
%TO.P,J5,10*%
%TO.N,+MagY*%
X127615000Y-102965000D03*
%TO.P,J5,9*%
%TO.N,GND*%
X127615000Y-104235000D03*
%TO.P,J5,5*%
X128885000Y-101695000D03*
%TO.P,J5,12*%
%TO.N,SDA4*%
X127615000Y-100425000D03*
%TO.P,J5,11*%
%TO.N,GND*%
X127615000Y-101695000D03*
%TD*%
D17*
%TO.P,J4,*%
%TO.N,*%
X144570000Y-49565000D03*
X133230000Y-44665000D03*
X144570000Y-44665000D03*
X133230000Y-49565000D03*
D16*
%TO.P,J4,2*%
%TO.N,3V3*%
X136995000Y-50385000D03*
%TO.P,J4,8*%
%TO.N,GND*%
X136995000Y-49115000D03*
%TO.P,J4,6*%
%TO.N,SCL3*%
X142075000Y-50385000D03*
%TO.P,J4,1*%
%TO.N,VSOLAR*%
X135725000Y-50385000D03*
%TO.P,J4,7*%
X135725000Y-49115000D03*
%TO.P,J4,4*%
%TO.N,-MagX*%
X139535000Y-50385000D03*
%TO.P,J4,3*%
%TO.N,GND*%
X138265000Y-50385000D03*
%TO.P,J4,10*%
%TO.N,+MagX*%
X139535000Y-49115000D03*
%TO.P,J4,9*%
%TO.N,GND*%
X138265000Y-49115000D03*
%TO.P,J4,5*%
X140805000Y-50385000D03*
%TO.P,J4,12*%
%TO.N,SDA3*%
X142075000Y-49115000D03*
%TO.P,J4,11*%
%TO.N,GND*%
X140805000Y-49115000D03*
%TD*%
D15*
%TO.P,J3,*%
%TO.N,*%
X192935000Y-66070000D03*
X197835000Y-54730000D03*
X197835000Y-66070000D03*
X192935000Y-54730000D03*
D16*
%TO.P,J3,2*%
%TO.N,3V3*%
X192115000Y-58495000D03*
%TO.P,J3,8*%
%TO.N,GND*%
X193385000Y-58495000D03*
%TO.P,J3,6*%
%TO.N,SCL2*%
X192115000Y-63575000D03*
%TO.P,J3,1*%
%TO.N,VSOLAR*%
X192115000Y-57225000D03*
%TO.P,J3,7*%
X193385000Y-57225000D03*
%TO.P,J3,4*%
%TO.N,+MagY*%
X192115000Y-61035000D03*
%TO.P,J3,3*%
%TO.N,GND*%
X192115000Y-59765000D03*
%TO.P,J3,10*%
%TO.N,-MagY*%
X193385000Y-61035000D03*
%TO.P,J3,9*%
%TO.N,GND*%
X193385000Y-59765000D03*
%TO.P,J3,5*%
X192115000Y-62305000D03*
%TO.P,J3,12*%
%TO.N,SDA2*%
X193385000Y-63575000D03*
%TO.P,J3,11*%
%TO.N,GND*%
X193385000Y-62305000D03*
%TD*%
D17*
%TO.P,J2,*%
%TO.N,*%
X176430000Y-114420000D03*
X187770000Y-119320000D03*
X176430000Y-119320000D03*
X187770000Y-114420000D03*
D16*
%TO.P,J2,2*%
%TO.N,3V3*%
X184005000Y-113600000D03*
%TO.P,J2,8*%
%TO.N,GND*%
X184005000Y-114870000D03*
%TO.P,J2,6*%
%TO.N,SCL1*%
X178925000Y-113600000D03*
%TO.P,J2,1*%
%TO.N,VSOLAR*%
X185275000Y-113600000D03*
%TO.P,J2,7*%
X185275000Y-114870000D03*
%TO.P,J2,4*%
%TO.N,+MagX*%
X181465000Y-113600000D03*
%TO.P,J2,3*%
%TO.N,GND*%
X182735000Y-113600000D03*
%TO.P,J2,10*%
%TO.N,-MagX*%
X181465000Y-114870000D03*
%TO.P,J2,9*%
%TO.N,GND*%
X182735000Y-114870000D03*
%TO.P,J2,5*%
X180195000Y-113600000D03*
%TO.P,J2,12*%
%TO.N,SDA1*%
X178925000Y-114870000D03*
%TO.P,J2,11*%
%TO.N,GND*%
X180195000Y-114870000D03*
%TD*%
%TO.P,C4,2*%
%TO.N,GND*%
%TA.AperFunction,SMDPad,CuDef*%
G36*
G01*
X129475000Y-82000000D02*
X130425000Y-82000000D01*
G75*
G02*
X130675000Y-82250000I0J-250000D01*
G01*
X130675000Y-82750000D01*
G75*
G02*
X130425000Y-83000000I-250000J0D01*
G01*
X129475000Y-83000000D01*
G75*
G02*
X129225000Y-82750000I0J250000D01*
G01*
X129225000Y-82250000D01*
G75*
G02*
X129475000Y-82000000I250000J0D01*
G01*
G37*
%TD.AperFunction*%
%TO.P,C4,1*%
%TO.N,3V3*%
%TA.AperFunction,SMDPad,CuDef*%
G36*
G01*
X129475000Y-80100000D02*
X130425000Y-80100000D01*
G75*
G02*
X130675000Y-80350000I0J-250000D01*
G01*
X130675000Y-80850000D01*
G75*
G02*
X130425000Y-81100000I-250000J0D01*
G01*
X129475000Y-81100000D01*
G75*
G02*
X129225000Y-80850000I0J250000D01*
G01*
X129225000Y-80350000D01*
G75*
G02*
X129475000Y-80100000I250000J0D01*
G01*
G37*
%TD.AperFunction*%
%TD*%
D18*
%TO.N,GND*%
X121000000Y-78300000D03*
X124300000Y-85050000D03*
X121000000Y-74900000D03*
X152950000Y-71250000D03*
X139150000Y-66800000D03*
X125700000Y-95500000D03*
X132950000Y-124600000D03*
X178650000Y-96100000D03*
X150810000Y-67740000D03*
X202400000Y-110600000D03*
X155400000Y-100950000D03*
%TO.N,VSOLAR*%
X119950000Y-87500000D03*
X135725000Y-41875000D03*
X119925000Y-106775000D03*
X116050000Y-72800000D03*
X123000000Y-124750000D03*
%TO.N,3V3*%
X128800000Y-51350000D03*
X189600000Y-114850000D03*
X125575000Y-83875000D03*
X181300000Y-48400000D03*
%TO.N,Net-(D1-Pad1)*%
X151700000Y-62400000D03*
X175000000Y-62400000D03*
%TO.N,+MagZ*%
X175700000Y-102200000D03*
X125450000Y-80350000D03*
X125450000Y-81600000D03*
%TO.N,-MagY*%
X123250000Y-81050000D03*
X126100000Y-85500000D03*
X201150000Y-55000000D03*
%TO.N,+MagY*%
X122200000Y-81800000D03*
X125285000Y-102965000D03*
X178775000Y-47725000D03*
%TO.N,-MagX*%
X121050000Y-82450000D03*
X181465000Y-116135000D03*
X122050000Y-52250000D03*
%TO.N,+MagX*%
X119700000Y-83000000D03*
X139543205Y-44356795D03*
X190500000Y-114000000D03*
%TO.N,SCL4*%
X125750000Y-87100000D03*
X140500000Y-77100000D03*
%TO.N,SDA4*%
X125550000Y-88400000D03*
X138900000Y-77500000D03*
%TO.N,SCL5*%
X143814999Y-64224999D03*
%TO.N,SDA5*%
X146450000Y-64950000D03*
X141300000Y-64950000D03*
%TD*%
D19*
%TO.N,GND*%
X134962500Y-79075000D02*
X134962500Y-78425000D01*
X136995000Y-49115000D02*
X138265000Y-49115000D01*
X138265000Y-49115000D02*
X138265000Y-50385000D01*
X140805000Y-49115000D02*
X140805000Y-50385000D01*
X114775001Y-84530001D02*
X120480001Y-84530001D01*
X114150000Y-83905000D02*
X114775001Y-84530001D01*
X121000000Y-78300000D02*
X121000000Y-78300000D01*
D20*
X120475000Y-78825000D02*
X121000000Y-78300000D01*
X114150000Y-78825000D02*
X120475000Y-78825000D01*
D19*
X120480001Y-84530001D02*
X123780001Y-84530001D01*
X123780001Y-84530001D02*
X124300000Y-85050000D01*
X124300000Y-85050000D02*
X124350000Y-85100000D01*
X128885000Y-101695000D02*
X125705000Y-101695000D01*
X128885000Y-104235000D02*
X124635000Y-104235000D01*
X127615000Y-105505000D02*
X127615000Y-104235000D01*
X180195000Y-113600000D02*
X180195000Y-114870000D01*
X182735000Y-113600000D02*
X182735000Y-114870000D01*
X184005000Y-114870000D02*
X182735000Y-114870000D01*
X184005000Y-114870000D02*
X184005000Y-115855000D01*
X180195000Y-114870000D02*
X180195000Y-116095000D01*
X192115000Y-59765000D02*
X193385000Y-59765000D01*
X193385000Y-58495000D02*
X193385000Y-59765000D01*
X192115000Y-62305000D02*
X193385000Y-62305000D01*
X193385000Y-62305000D02*
X195395000Y-62305000D01*
X128548942Y-77125000D02*
X127650000Y-76226058D01*
X129237500Y-77125000D02*
X128548942Y-77125000D01*
X127650000Y-76226058D02*
X126073942Y-76226058D01*
X134962500Y-79075000D02*
X133325000Y-79075000D01*
X131375000Y-77125000D02*
X130375000Y-77125000D01*
X130375000Y-77125000D02*
X130675000Y-77125000D01*
X129237500Y-77125000D02*
X130375000Y-77125000D01*
X134225000Y-71925000D02*
X134962500Y-71925000D01*
X131375000Y-77125000D02*
X131375000Y-74775000D01*
X132675000Y-78425000D02*
X131375000Y-77125000D01*
X134962500Y-78425000D02*
X132675000Y-78425000D01*
X133325000Y-79075000D02*
X132675000Y-78425000D01*
X134962500Y-71925000D02*
X136525000Y-71925000D01*
X134962500Y-71925000D02*
X134962500Y-71162500D01*
X134962500Y-78425000D02*
X136275000Y-78425000D01*
X134962500Y-79075000D02*
X136175000Y-79075000D01*
X134962500Y-71925000D02*
X133425000Y-71925000D01*
X136525000Y-71925000D02*
X139475000Y-71925000D01*
X139475000Y-71925000D02*
X140200000Y-71200000D01*
D20*
%TO.N,VSOLAR*%
X114150000Y-86445000D02*
X118895000Y-86445000D01*
X118895000Y-86445000D02*
X119950000Y-87500000D01*
X119950000Y-87500000D02*
X119950000Y-87500000D01*
X185275000Y-113600000D02*
X185275000Y-119585002D01*
X193385000Y-57225000D02*
X192115000Y-57225000D01*
X190550000Y-55660000D02*
X192115000Y-57225000D01*
X179540000Y-44650000D02*
X190550000Y-55660000D01*
X147315002Y-44650000D02*
X179540000Y-44650000D01*
X144540002Y-41875000D02*
X147315002Y-44650000D01*
X135725000Y-41875000D02*
X135725000Y-41875000D01*
X135725000Y-50385000D02*
X135725000Y-41875000D01*
X135725000Y-41875000D02*
X144540002Y-41875000D01*
X183740001Y-121120001D02*
X185275000Y-119585002D01*
X175469999Y-121120001D02*
X183740001Y-121120001D01*
X173899997Y-119549999D02*
X175469999Y-121120001D01*
X128885000Y-106775000D02*
X119925000Y-106775000D01*
X175469999Y-121120001D02*
X175469999Y-121119999D01*
X161125000Y-106775000D02*
X127615000Y-106775000D01*
X175469999Y-121119999D02*
X161125000Y-106775000D01*
X119925000Y-106775000D02*
X119925000Y-106775000D01*
D19*
%TO.N,SDA*%
X129237500Y-78425000D02*
X127250000Y-78425000D01*
X114150000Y-77555000D02*
X114775001Y-78180001D01*
X118610001Y-78180001D02*
X119489992Y-77300010D01*
X114775001Y-78180001D02*
X118610001Y-78180001D01*
X124132532Y-77300010D02*
X123949990Y-77300010D01*
X125257522Y-78425000D02*
X124132532Y-77300010D01*
X127250000Y-78425000D02*
X125257522Y-78425000D01*
X119489992Y-77300010D02*
X123949990Y-77300010D01*
%TO.N,SCL*%
X128325000Y-77600000D02*
X125650000Y-77600000D01*
X128500000Y-77775000D02*
X128325000Y-77600000D01*
X129237500Y-77775000D02*
X128500000Y-77775000D01*
X118155000Y-76850000D02*
X117450000Y-77555000D01*
X124900000Y-76850000D02*
X118155000Y-76850000D01*
X125650000Y-77600000D02*
X124900000Y-76850000D01*
%TO.N,3V3*%
X129237500Y-79887500D02*
X129950000Y-80600000D01*
X129237500Y-79075000D02*
X129237500Y-79887500D01*
X127775000Y-80600000D02*
X127250000Y-80075000D01*
X129950000Y-80600000D02*
X127775000Y-80600000D01*
X126475000Y-80075000D02*
X125650000Y-79250000D01*
X127250000Y-80075000D02*
X126475000Y-80075000D01*
X117450000Y-83905000D02*
X125545000Y-83905000D01*
X127250000Y-82200000D02*
X127250000Y-80075000D01*
X125545000Y-83905000D02*
X125575000Y-83875000D01*
X131090028Y-89450028D02*
X125545000Y-83905000D01*
X131090028Y-103299972D02*
X131090028Y-89450028D01*
X128885000Y-105505000D02*
X131090028Y-103299972D01*
X188630001Y-112744999D02*
X189600000Y-113714998D01*
X184210001Y-112744999D02*
X188630001Y-112744999D01*
X184005000Y-112950000D02*
X184210001Y-112744999D01*
X184005000Y-113600000D02*
X184005000Y-112950000D01*
X189600000Y-113714998D02*
X189600000Y-114850000D01*
X136995000Y-51035000D02*
X136680000Y-51350000D01*
X136995000Y-50385000D02*
X136995000Y-51035000D01*
X136680000Y-51350000D02*
X128800000Y-51350000D01*
X128800000Y-51350000D02*
X128800000Y-51350000D01*
X189600000Y-114850000D02*
X189600000Y-114850000D01*
X125575000Y-83875000D02*
X127250000Y-82200000D01*
X192115000Y-58495000D02*
X190181410Y-58495000D01*
X190181410Y-58495000D02*
X181300000Y-49613590D01*
X181300000Y-49613590D02*
X181300000Y-48400000D01*
X181300000Y-48400000D02*
X181300000Y-48400000D01*
D20*
%TO.N,Net-(D1-Pad1)*%
X151700000Y-62400000D02*
X175000000Y-62400000D01*
X175000000Y-62400000D02*
X175000000Y-62400000D01*
D19*
%TO.N,+MagZ*%
X114150000Y-80095000D02*
X114955000Y-80095000D01*
X114955000Y-80095000D02*
X115599999Y-79450001D01*
X115599999Y-79450001D02*
X120249999Y-79450001D01*
X117450000Y-80095000D02*
X121645000Y-80095000D01*
X120249999Y-79450001D02*
X124550001Y-79450001D01*
X124550001Y-79450001D02*
X125450000Y-80350000D01*
X121645000Y-80095000D02*
X123945000Y-80095000D01*
X123945000Y-80095000D02*
X125450000Y-81600000D01*
X125450000Y-80350000D02*
X125450000Y-80350000D01*
X125450000Y-81600000D02*
X125450000Y-81600000D01*
%TO.N,-MagY*%
X114775001Y-80739999D02*
X120089999Y-80739999D01*
X114150000Y-81365000D02*
X114775001Y-80739999D01*
X120089999Y-80739999D02*
X122939999Y-80739999D01*
X122939999Y-80739999D02*
X123250000Y-81050000D01*
X123250000Y-81050000D02*
X123250000Y-81050000D01*
X130640019Y-101209981D02*
X130640019Y-90040019D01*
X128885000Y-102965000D02*
X130640019Y-101209981D01*
X130640019Y-90040019D02*
X126100000Y-85500000D01*
X126100000Y-85500000D02*
X126100000Y-85500000D01*
X193385000Y-61035000D02*
X195103188Y-61035000D01*
X201150000Y-55000000D02*
X201150000Y-55000000D01*
X201150000Y-55000000D02*
X201150000Y-56950000D01*
X197065000Y-61035000D02*
X195103188Y-61035000D01*
X201150000Y-56950000D02*
X197065000Y-61035000D01*
%TO.N,+MagY*%
X117450000Y-81365000D02*
X121765000Y-81365000D01*
X121765000Y-81365000D02*
X122200000Y-81800000D01*
X122200000Y-81800000D02*
X122200000Y-81800000D01*
X127615000Y-102965000D02*
X125285000Y-102965000D01*
X125285000Y-102965000D02*
X125265000Y-102965000D01*
X192115000Y-61035000D02*
X192085000Y-61035000D01*
X192085000Y-61035000D02*
X178775000Y-47725000D01*
X178775000Y-47725000D02*
X178700000Y-47650000D01*
%TO.N,-MagX*%
X114150000Y-82635000D02*
X114775001Y-82009999D01*
X114775001Y-82009999D02*
X120609999Y-82009999D01*
X120609999Y-82009999D02*
X121050000Y-82450000D01*
X121050000Y-82450000D02*
X121050000Y-82450000D01*
X181465000Y-114870000D02*
X181465000Y-116135000D01*
X181465000Y-116135000D02*
X181465000Y-116135000D01*
X139535000Y-51035000D02*
X138320000Y-52250000D01*
X139535000Y-50385000D02*
X139535000Y-51035000D01*
X138320000Y-52250000D02*
X127950000Y-52250000D01*
X127950000Y-52250000D02*
X122050000Y-52250000D01*
X122050000Y-52250000D02*
X122050000Y-52250000D01*
%TO.N,+MagX*%
X117450000Y-82635000D02*
X119335000Y-82635000D01*
X119335000Y-82635000D02*
X119700000Y-83000000D01*
X119700000Y-83000000D02*
X119700000Y-83000000D01*
X188816402Y-112294990D02*
X190500000Y-113978588D01*
X182120011Y-112294989D02*
X188816402Y-112294990D01*
X181465000Y-112950000D02*
X182120011Y-112294989D01*
X181465000Y-113600000D02*
X181465000Y-112950000D01*
X139535000Y-44365000D02*
X139543205Y-44356795D01*
X139535000Y-49115000D02*
X139535000Y-44365000D01*
%TO.N,SCL1*%
X178925000Y-113600000D02*
X178781412Y-113600000D01*
X140356412Y-75175000D02*
X134962500Y-75175000D01*
X178781412Y-113600000D02*
X140356412Y-75175000D01*
%TO.N,SDA1*%
X178275000Y-114870000D02*
X177750000Y-114345000D01*
X178925000Y-114870000D02*
X178275000Y-114870000D01*
X140370002Y-75825000D02*
X134962500Y-75825000D01*
X177750000Y-113204998D02*
X140370002Y-75825000D01*
X177750000Y-114345000D02*
X177750000Y-113204998D01*
%TO.N,SCL2*%
X192115000Y-63575000D02*
X183338590Y-63575000D01*
X173038590Y-73875000D02*
X134962500Y-73875000D01*
X183338590Y-63575000D02*
X173038590Y-73875000D01*
%TO.N,SDA2*%
X134962500Y-74525000D02*
X173025000Y-74525000D01*
X192659999Y-64300001D02*
X193385000Y-63575000D01*
X183249999Y-64300001D02*
X192659999Y-64300001D01*
X173025000Y-74525000D02*
X183249999Y-64300001D01*
%TO.N,SCL3*%
X147175001Y-65298001D02*
X139898002Y-72575000D01*
X139898002Y-72575000D02*
X134962500Y-72575000D01*
X147175001Y-55485001D02*
X147175001Y-65298001D01*
X142075000Y-50385000D02*
X147175001Y-55485001D01*
%TO.N,SDA3*%
X139884412Y-73225000D02*
X134962500Y-73225000D01*
X147625010Y-65484402D02*
X139884412Y-73225000D01*
X147625011Y-55298601D02*
X147625010Y-65484402D01*
X143538205Y-51211795D02*
X143538205Y-49788205D01*
X143538205Y-51211795D02*
X147625011Y-55298601D01*
X142865000Y-49115000D02*
X142075000Y-49115000D01*
X143538205Y-49788205D02*
X142865000Y-49115000D01*
%TO.N,SCL4*%
X130190010Y-99119990D02*
X130190010Y-91540010D01*
X128885000Y-100425000D02*
X130190010Y-99119990D01*
X130190010Y-91540010D02*
X125750000Y-87100000D01*
X125750000Y-87100000D02*
X125750000Y-87100000D01*
X139875000Y-76475000D02*
X140500000Y-77100000D01*
X134962500Y-76475000D02*
X139875000Y-76475000D01*
%TO.N,SDA4*%
X127615000Y-100425000D02*
X127615000Y-100135000D01*
X129740001Y-98790001D02*
X129740001Y-91990001D01*
X129675001Y-98855001D02*
X129740001Y-98790001D01*
X128894999Y-98855001D02*
X129675001Y-98855001D01*
X127615000Y-100135000D02*
X128894999Y-98855001D01*
X129740001Y-91990001D02*
X126150000Y-88400000D01*
X126150000Y-88400000D02*
X125550000Y-88400000D01*
X125550000Y-88400000D02*
X125550000Y-88400000D01*
X138525000Y-77125000D02*
X138900000Y-77500000D01*
X134962500Y-77125000D02*
X138525000Y-77125000D01*
%TO.N,SCL5*%
X143814999Y-64224999D02*
X141474999Y-64224999D01*
X135598943Y-64224999D02*
X141474999Y-64224999D01*
X128174990Y-71648952D02*
X135598943Y-64224999D01*
X128174990Y-72249990D02*
X128174990Y-71648952D01*
X128500000Y-72575000D02*
X128174990Y-72249990D01*
X129237500Y-72575000D02*
X128500000Y-72575000D01*
%TO.N,SDA5*%
X146450000Y-64950000D02*
X141300000Y-64950000D01*
X141300000Y-64950000D02*
X141250000Y-64950000D01*
X136212500Y-64950000D02*
X129237500Y-71925000D01*
X141300000Y-64950000D02*
X136212500Y-64950000D01*
D20*
%TO.N,Net-(J6-Pad2)*%
X164115001Y-84915001D02*
X163000000Y-83800000D01*
X164115001Y-92359999D02*
X164115001Y-84915001D01*
X163150000Y-93325000D02*
X164115001Y-92359999D01*
%TO.N,Net-(J6-Pad1)*%
X161649999Y-90274999D02*
X163150000Y-91775000D01*
X161649999Y-81650001D02*
X161649999Y-90274999D01*
X163000000Y-80300000D02*
X161649999Y-81650001D01*
%TD*%
D21*
%TO.N,GND*%
X201340001Y-40467571D02*
X201336807Y-40500000D01*
X201349550Y-40629383D01*
X201387290Y-40753793D01*
X201448575Y-40868450D01*
X201531052Y-40968948D01*
X201631550Y-41051425D01*
X201746207Y-41112710D01*
X201870617Y-41150450D01*
X201967581Y-41160000D01*
X202000000Y-41163193D01*
X202032419Y-41160000D01*
X206840000Y-41160000D01*
X206840001Y-122840000D01*
X202032419Y-122840000D01*
X202000000Y-122836807D01*
X201967581Y-122840000D01*
X201870617Y-122849550D01*
X201746207Y-122887290D01*
X201631550Y-122948575D01*
X201531052Y-123031052D01*
X201448575Y-123131550D01*
X201387290Y-123246207D01*
X201349550Y-123370617D01*
X201336807Y-123500000D01*
X201340001Y-123532429D01*
X201340000Y-128340000D01*
X119660000Y-128340000D01*
X119660000Y-124648061D01*
X121965000Y-124648061D01*
X121965000Y-124851939D01*
X122004774Y-125051898D01*
X122082795Y-125240256D01*
X122196063Y-125409774D01*
X122340226Y-125553937D01*
X122509744Y-125667205D01*
X122698102Y-125745226D01*
X122898061Y-125785000D01*
X123101939Y-125785000D01*
X123301898Y-125745226D01*
X123490256Y-125667205D01*
X123659774Y-125553937D01*
X123803937Y-125409774D01*
X123917205Y-125240256D01*
X123995226Y-125051898D01*
X124035000Y-124851939D01*
X124035000Y-124648061D01*
X123995226Y-124448102D01*
X123917205Y-124259744D01*
X123803937Y-124090226D01*
X123659774Y-123946063D01*
X123490256Y-123832795D01*
X123301898Y-123754774D01*
X123101939Y-123715000D01*
X122898061Y-123715000D01*
X122698102Y-123754774D01*
X122509744Y-123832795D01*
X122340226Y-123946063D01*
X122196063Y-124090226D01*
X122082795Y-124259744D01*
X122004774Y-124448102D01*
X121965000Y-124648061D01*
X119660000Y-124648061D01*
X119660000Y-123532418D01*
X119663193Y-123500000D01*
X119650450Y-123370617D01*
X119612710Y-123246207D01*
X119551425Y-123131550D01*
X119468948Y-123031052D01*
X119368450Y-122948575D01*
X119253793Y-122887290D01*
X119129383Y-122849550D01*
X119032419Y-122840000D01*
X119000000Y-122836807D01*
X118967581Y-122840000D01*
X114160000Y-122840000D01*
X114160000Y-122146154D01*
X157415000Y-122146154D01*
X157415000Y-122753846D01*
X157533555Y-123349861D01*
X157766108Y-123911295D01*
X158103724Y-124416573D01*
X158533427Y-124846276D01*
X159038705Y-125183892D01*
X159600139Y-125416445D01*
X160196154Y-125535000D01*
X160803846Y-125535000D01*
X161399861Y-125416445D01*
X161961295Y-125183892D01*
X162466573Y-124846276D01*
X162896276Y-124416573D01*
X163233892Y-123911295D01*
X163466445Y-123349861D01*
X163585000Y-122753846D01*
X163585000Y-122146154D01*
X163466445Y-121550139D01*
X163233892Y-120988705D01*
X162896276Y-120483427D01*
X162466573Y-120053724D01*
X161961295Y-119716108D01*
X161399861Y-119483555D01*
X160803846Y-119365000D01*
X160196154Y-119365000D01*
X159600139Y-119483555D01*
X159038705Y-119716108D01*
X158533427Y-120053724D01*
X158103724Y-120483427D01*
X157766108Y-120988705D01*
X157533555Y-121550139D01*
X157415000Y-122146154D01*
X114160000Y-122146154D01*
X114160000Y-104635000D01*
X126576928Y-104635000D01*
X126589188Y-104759482D01*
X126622713Y-104870000D01*
X126589188Y-104980518D01*
X126576928Y-105105000D01*
X126580000Y-105219250D01*
X126738750Y-105378000D01*
X127488000Y-105378000D01*
X127488000Y-104362000D01*
X126738750Y-104362000D01*
X126580000Y-104520750D01*
X126576928Y-104635000D01*
X114160000Y-104635000D01*
X114160000Y-87383072D01*
X115050000Y-87383072D01*
X115174482Y-87370812D01*
X115294180Y-87334502D01*
X115302603Y-87330000D01*
X116297397Y-87330000D01*
X116305820Y-87334502D01*
X116425518Y-87370812D01*
X116550000Y-87383072D01*
X118350000Y-87383072D01*
X118474482Y-87370812D01*
X118547181Y-87348759D01*
X118943465Y-87745044D01*
X118954774Y-87801898D01*
X119032795Y-87990256D01*
X119146063Y-88159774D01*
X119290226Y-88303937D01*
X119459744Y-88417205D01*
X119648102Y-88495226D01*
X119848061Y-88535000D01*
X120051939Y-88535000D01*
X120251898Y-88495226D01*
X120440256Y-88417205D01*
X120609774Y-88303937D01*
X120753937Y-88159774D01*
X120867205Y-87990256D01*
X120945226Y-87801898D01*
X120985000Y-87601939D01*
X120985000Y-87398061D01*
X120945226Y-87198102D01*
X120867205Y-87009744D01*
X120753937Y-86840226D01*
X120609774Y-86696063D01*
X120440256Y-86582795D01*
X120251898Y-86504774D01*
X120195044Y-86493465D01*
X119551534Y-85849956D01*
X119523817Y-85816183D01*
X119389059Y-85705589D01*
X119235313Y-85623411D01*
X119068490Y-85572805D01*
X118979304Y-85564021D01*
X118988072Y-85475000D01*
X118988072Y-84875000D01*
X118975812Y-84750518D01*
X118949870Y-84665000D01*
X124901289Y-84665000D01*
X124915226Y-84678937D01*
X125084744Y-84792205D01*
X125273102Y-84870226D01*
X125275676Y-84870738D01*
X125182795Y-85009744D01*
X125104774Y-85198102D01*
X125065000Y-85398061D01*
X125065000Y-85601939D01*
X125104774Y-85801898D01*
X125182795Y-85990256D01*
X125296063Y-86159774D01*
X125301704Y-86165415D01*
X125259744Y-86182795D01*
X125090226Y-86296063D01*
X124946063Y-86440226D01*
X124832795Y-86609744D01*
X124754774Y-86798102D01*
X124715000Y-86998061D01*
X124715000Y-87201939D01*
X124754774Y-87401898D01*
X124832795Y-87590256D01*
X124858125Y-87628164D01*
X124746063Y-87740226D01*
X124632795Y-87909744D01*
X124554774Y-88098102D01*
X124515000Y-88298061D01*
X124515000Y-88501939D01*
X124554774Y-88701898D01*
X124632795Y-88890256D01*
X124746063Y-89059774D01*
X124890226Y-89203937D01*
X125059744Y-89317205D01*
X125248102Y-89395226D01*
X125448061Y-89435000D01*
X125651939Y-89435000D01*
X125851898Y-89395226D01*
X126006420Y-89331221D01*
X128980002Y-92304804D01*
X128980001Y-96691928D01*
X126715000Y-96691928D01*
X126590518Y-96704188D01*
X126470820Y-96740498D01*
X126360506Y-96799463D01*
X126263815Y-96878815D01*
X126248723Y-96897204D01*
X126040866Y-96811107D01*
X125758797Y-96755000D01*
X125471203Y-96755000D01*
X125189134Y-96811107D01*
X124981277Y-96897204D01*
X124966185Y-96878815D01*
X124869494Y-96799463D01*
X124759180Y-96740498D01*
X124639482Y-96704188D01*
X124515000Y-96691928D01*
X121815000Y-96691928D01*
X121690518Y-96704188D01*
X121570820Y-96740498D01*
X121460506Y-96799463D01*
X121363815Y-96878815D01*
X121284463Y-96975506D01*
X121225498Y-97085820D01*
X121189188Y-97205518D01*
X121176928Y-97330000D01*
X121176928Y-98530000D01*
X121189188Y-98654482D01*
X121225498Y-98774180D01*
X121284463Y-98884494D01*
X121363815Y-98981185D01*
X121460506Y-99060537D01*
X121570820Y-99119502D01*
X121690518Y-99155812D01*
X121815000Y-99168072D01*
X124503320Y-99168072D01*
X124684304Y-99349056D01*
X124923431Y-99508835D01*
X125189134Y-99618893D01*
X125471203Y-99675000D01*
X125758797Y-99675000D01*
X126040866Y-99618893D01*
X126306569Y-99508835D01*
X126545696Y-99349056D01*
X126726680Y-99168072D01*
X127507127Y-99168072D01*
X127288271Y-99386928D01*
X127215000Y-99386928D01*
X127090518Y-99399188D01*
X126970820Y-99435498D01*
X126860506Y-99494463D01*
X126763815Y-99573815D01*
X126684463Y-99670506D01*
X126625498Y-99780820D01*
X126589188Y-99900518D01*
X126576928Y-100025000D01*
X126576928Y-100825000D01*
X126589188Y-100949482D01*
X126622713Y-101060000D01*
X126589188Y-101170518D01*
X126576928Y-101295000D01*
X126580000Y-101409250D01*
X126738750Y-101568000D01*
X127488000Y-101568000D01*
X127488000Y-101548000D01*
X127742000Y-101548000D01*
X127742000Y-101568000D01*
X128758000Y-101568000D01*
X128758000Y-101548000D01*
X129012000Y-101548000D01*
X129012000Y-101568000D01*
X129032000Y-101568000D01*
X129032000Y-101743199D01*
X128933199Y-101842000D01*
X128758000Y-101842000D01*
X128758000Y-101822000D01*
X127742000Y-101822000D01*
X127742000Y-101842000D01*
X127488000Y-101842000D01*
X127488000Y-101822000D01*
X126738750Y-101822000D01*
X126580000Y-101980750D01*
X126576928Y-102095000D01*
X126587762Y-102205000D01*
X125988711Y-102205000D01*
X125944774Y-102161063D01*
X125775256Y-102047795D01*
X125586898Y-101969774D01*
X125386939Y-101930000D01*
X125183061Y-101930000D01*
X124983102Y-101969774D01*
X124794744Y-102047795D01*
X124625226Y-102161063D01*
X124481063Y-102305226D01*
X124367795Y-102474744D01*
X124289774Y-102663102D01*
X124250000Y-102863061D01*
X124250000Y-103066939D01*
X124289774Y-103266898D01*
X124367795Y-103455256D01*
X124481063Y-103624774D01*
X124625226Y-103768937D01*
X124794744Y-103882205D01*
X124983102Y-103960226D01*
X125183061Y-104000000D01*
X125386939Y-104000000D01*
X125586898Y-103960226D01*
X125775256Y-103882205D01*
X125944774Y-103768937D01*
X125988711Y-103725000D01*
X126587762Y-103725000D01*
X126576928Y-103835000D01*
X126580000Y-103949250D01*
X126738750Y-104108000D01*
X127488000Y-104108000D01*
X127488000Y-104088000D01*
X127742000Y-104088000D01*
X127742000Y-104108000D01*
X128758000Y-104108000D01*
X128758000Y-104088000D01*
X129012000Y-104088000D01*
X129012000Y-104108000D01*
X129032000Y-104108000D01*
X129032000Y-104283199D01*
X128933199Y-104382000D01*
X128758000Y-104382000D01*
X128758000Y-104362000D01*
X127742000Y-104362000D01*
X127742000Y-105378000D01*
X127762000Y-105378000D01*
X127762000Y-105632000D01*
X127742000Y-105632000D01*
X127742000Y-105652000D01*
X127488000Y-105652000D01*
X127488000Y-105632000D01*
X126738750Y-105632000D01*
X126580000Y-105790750D01*
X126577331Y-105890000D01*
X120463454Y-105890000D01*
X120415256Y-105857795D01*
X120226898Y-105779774D01*
X120026939Y-105740000D01*
X119823061Y-105740000D01*
X119623102Y-105779774D01*
X119434744Y-105857795D01*
X119265226Y-105971063D01*
X119121063Y-106115226D01*
X119007795Y-106284744D01*
X118929774Y-106473102D01*
X118890000Y-106673061D01*
X118890000Y-106876939D01*
X118929774Y-107076898D01*
X119007795Y-107265256D01*
X119121063Y-107434774D01*
X119265226Y-107578937D01*
X119434744Y-107692205D01*
X119623102Y-107770226D01*
X119823061Y-107810000D01*
X120026939Y-107810000D01*
X120226898Y-107770226D01*
X120415256Y-107692205D01*
X120463454Y-107660000D01*
X124998670Y-107660000D01*
X124923431Y-107691165D01*
X124684304Y-107850944D01*
X124503320Y-108031928D01*
X121815000Y-108031928D01*
X121690518Y-108044188D01*
X121570820Y-108080498D01*
X121460506Y-108139463D01*
X121363815Y-108218815D01*
X121284463Y-108315506D01*
X121225498Y-108425820D01*
X121189188Y-108545518D01*
X121176928Y-108670000D01*
X121176928Y-109870000D01*
X121189188Y-109994482D01*
X121225498Y-110114180D01*
X121284463Y-110224494D01*
X121363815Y-110321185D01*
X121460506Y-110400537D01*
X121570820Y-110459502D01*
X121690518Y-110495812D01*
X121815000Y-110508072D01*
X124515000Y-110508072D01*
X124639482Y-110495812D01*
X124759180Y-110459502D01*
X124869494Y-110400537D01*
X124966185Y-110321185D01*
X124981277Y-110302796D01*
X125189134Y-110388893D01*
X125471203Y-110445000D01*
X125758797Y-110445000D01*
X126040866Y-110388893D01*
X126248723Y-110302796D01*
X126263815Y-110321185D01*
X126360506Y-110400537D01*
X126470820Y-110459502D01*
X126590518Y-110495812D01*
X126715000Y-110508072D01*
X129415000Y-110508072D01*
X129539482Y-110495812D01*
X129659180Y-110459502D01*
X129769494Y-110400537D01*
X129866185Y-110321185D01*
X129945537Y-110224494D01*
X130004502Y-110114180D01*
X130040812Y-109994482D01*
X130053072Y-109870000D01*
X130053072Y-108670000D01*
X130040812Y-108545518D01*
X130004502Y-108425820D01*
X129945537Y-108315506D01*
X129866185Y-108218815D01*
X129769494Y-108139463D01*
X129659180Y-108080498D01*
X129539482Y-108044188D01*
X129415000Y-108031928D01*
X126726680Y-108031928D01*
X126545696Y-107850944D01*
X126306569Y-107691165D01*
X126231330Y-107660000D01*
X126805019Y-107660000D01*
X126860506Y-107705537D01*
X126970820Y-107764502D01*
X127090518Y-107800812D01*
X127215000Y-107813072D01*
X128015000Y-107813072D01*
X128139482Y-107800812D01*
X128250000Y-107767287D01*
X128360518Y-107800812D01*
X128485000Y-107813072D01*
X129285000Y-107813072D01*
X129409482Y-107800812D01*
X129529180Y-107764502D01*
X129639494Y-107705537D01*
X129694981Y-107660000D01*
X160758422Y-107660000D01*
X173243460Y-120145039D01*
X173243465Y-120145045D01*
X174813469Y-121715050D01*
X174841180Y-121748816D01*
X174841182Y-121748818D01*
X174874950Y-121776531D01*
X174874952Y-121776533D01*
X174946451Y-121835211D01*
X174975940Y-121859412D01*
X175129686Y-121941590D01*
X175296509Y-121992196D01*
X175469999Y-122009283D01*
X175513475Y-122005001D01*
X183696532Y-122005001D01*
X183740001Y-122009282D01*
X183783470Y-122005001D01*
X183783478Y-122005001D01*
X183913491Y-121992196D01*
X184080314Y-121941590D01*
X184234060Y-121859412D01*
X184368818Y-121748818D01*
X184396535Y-121715045D01*
X185870049Y-120241532D01*
X185903817Y-120213819D01*
X186014411Y-120079061D01*
X186096589Y-119925315D01*
X186147195Y-119758492D01*
X186160000Y-119628479D01*
X186160000Y-119628469D01*
X186164281Y-119585003D01*
X186160000Y-119541537D01*
X186160000Y-117486330D01*
X186191165Y-117561569D01*
X186350944Y-117800696D01*
X186531928Y-117981680D01*
X186531928Y-120670000D01*
X186544188Y-120794482D01*
X186580498Y-120914180D01*
X186639463Y-121024494D01*
X186718815Y-121121185D01*
X186815506Y-121200537D01*
X186925820Y-121259502D01*
X187045518Y-121295812D01*
X187170000Y-121308072D01*
X188370000Y-121308072D01*
X188494482Y-121295812D01*
X188614180Y-121259502D01*
X188724494Y-121200537D01*
X188821185Y-121121185D01*
X188900537Y-121024494D01*
X188959502Y-120914180D01*
X188995812Y-120794482D01*
X189008072Y-120670000D01*
X189008072Y-117970000D01*
X188995812Y-117845518D01*
X188959502Y-117725820D01*
X188900537Y-117615506D01*
X188821185Y-117518815D01*
X188802796Y-117503723D01*
X188888893Y-117295866D01*
X188945000Y-117013797D01*
X188945000Y-116726203D01*
X188888893Y-116444134D01*
X188802796Y-116236277D01*
X188821185Y-116221185D01*
X188900537Y-116124494D01*
X188959502Y-116014180D01*
X188995812Y-115894482D01*
X189008072Y-115770000D01*
X189008072Y-115699270D01*
X189109744Y-115767205D01*
X189298102Y-115845226D01*
X189498061Y-115885000D01*
X189701939Y-115885000D01*
X189901898Y-115845226D01*
X190090256Y-115767205D01*
X190259774Y-115653937D01*
X190403937Y-115509774D01*
X190517205Y-115340256D01*
X190595226Y-115151898D01*
X190619160Y-115031575D01*
X190801898Y-114995226D01*
X190990256Y-114917205D01*
X191159774Y-114803937D01*
X191303937Y-114659774D01*
X191417205Y-114490256D01*
X191495226Y-114301898D01*
X191535000Y-114101939D01*
X191535000Y-113898061D01*
X191495226Y-113698102D01*
X191417205Y-113509744D01*
X191303937Y-113340226D01*
X191159774Y-113196063D01*
X190990256Y-113082795D01*
X190801898Y-113004774D01*
X190601939Y-112965000D01*
X190561214Y-112965000D01*
X189380201Y-111783988D01*
X189356403Y-111754990D01*
X189327403Y-111731190D01*
X189240678Y-111660016D01*
X189108648Y-111589444D01*
X189008844Y-111559170D01*
X188965388Y-111545988D01*
X188853735Y-111534991D01*
X188816402Y-111531314D01*
X188779070Y-111534991D01*
X182157333Y-111534989D01*
X182120010Y-111531313D01*
X182082687Y-111534989D01*
X182082679Y-111534989D01*
X181971026Y-111545986D01*
X181827765Y-111589443D01*
X181712787Y-111650901D01*
X181695734Y-111660016D01*
X181609007Y-111731190D01*
X181608998Y-111731199D01*
X181580011Y-111754988D01*
X181556221Y-111783976D01*
X180953997Y-112386202D01*
X180925000Y-112409999D01*
X180901202Y-112438997D01*
X180901201Y-112438998D01*
X180830026Y-112525724D01*
X180792455Y-112596014D01*
X180792312Y-112596281D01*
X180719482Y-112574188D01*
X180595000Y-112561928D01*
X180480750Y-112565000D01*
X180322000Y-112723750D01*
X180322000Y-113473000D01*
X180342000Y-113473000D01*
X180342000Y-113727000D01*
X180322000Y-113727000D01*
X180322000Y-114743000D01*
X180342000Y-114743000D01*
X180342000Y-114997000D01*
X180322000Y-114997000D01*
X180322000Y-115746250D01*
X180459666Y-115883916D01*
X180430000Y-116033061D01*
X180430000Y-116236939D01*
X180469774Y-116436898D01*
X180547795Y-116625256D01*
X180661063Y-116794774D01*
X180805226Y-116938937D01*
X180974744Y-117052205D01*
X181163102Y-117130226D01*
X181363061Y-117170000D01*
X181566939Y-117170000D01*
X181766898Y-117130226D01*
X181955256Y-117052205D01*
X182124774Y-116938937D01*
X182268937Y-116794774D01*
X182382205Y-116625256D01*
X182460226Y-116436898D01*
X182500000Y-116236939D01*
X182500000Y-116033061D01*
X182470334Y-115883916D01*
X182608000Y-115746250D01*
X182608000Y-114997000D01*
X182862000Y-114997000D01*
X182862000Y-115746250D01*
X183020750Y-115905000D01*
X183135000Y-115908072D01*
X183259482Y-115895812D01*
X183370000Y-115862287D01*
X183480518Y-115895812D01*
X183605000Y-115908072D01*
X183719250Y-115905000D01*
X183878000Y-115746250D01*
X183878000Y-114997000D01*
X182862000Y-114997000D01*
X182608000Y-114997000D01*
X182588000Y-114997000D01*
X182588000Y-114743000D01*
X182608000Y-114743000D01*
X182608000Y-113727000D01*
X182588000Y-113727000D01*
X182588000Y-113473000D01*
X182608000Y-113473000D01*
X182608000Y-113453000D01*
X182862000Y-113453000D01*
X182862000Y-113473000D01*
X182882000Y-113473000D01*
X182882000Y-113727000D01*
X182862000Y-113727000D01*
X182862000Y-114743000D01*
X183878000Y-114743000D01*
X183878000Y-114723000D01*
X184132000Y-114723000D01*
X184132000Y-114743000D01*
X184152000Y-114743000D01*
X184152000Y-114997000D01*
X184132000Y-114997000D01*
X184132000Y-115746250D01*
X184290750Y-115905000D01*
X184390000Y-115907669D01*
X184390001Y-119218422D01*
X183373423Y-120235001D01*
X177668072Y-120235001D01*
X177668072Y-117981680D01*
X177849056Y-117800696D01*
X178008835Y-117561569D01*
X178118893Y-117295866D01*
X178175000Y-117013797D01*
X178175000Y-116726203D01*
X178118893Y-116444134D01*
X178008835Y-116178431D01*
X177849056Y-115939304D01*
X177668072Y-115758320D01*
X177668072Y-115337874D01*
X177711200Y-115381002D01*
X177734999Y-115410001D01*
X177763997Y-115433799D01*
X177850723Y-115504974D01*
X177945336Y-115555546D01*
X177962518Y-115564730D01*
X177994463Y-115624494D01*
X178073815Y-115721185D01*
X178170506Y-115800537D01*
X178280820Y-115859502D01*
X178400518Y-115895812D01*
X178525000Y-115908072D01*
X179325000Y-115908072D01*
X179449482Y-115895812D01*
X179560000Y-115862287D01*
X179670518Y-115895812D01*
X179795000Y-115908072D01*
X179909250Y-115905000D01*
X180068000Y-115746250D01*
X180068000Y-114997000D01*
X180048000Y-114997000D01*
X180048000Y-114743000D01*
X180068000Y-114743000D01*
X180068000Y-113727000D01*
X180048000Y-113727000D01*
X180048000Y-113473000D01*
X180068000Y-113473000D01*
X180068000Y-112723750D01*
X179909250Y-112565000D01*
X179795000Y-112561928D01*
X179670518Y-112574188D01*
X179560000Y-112607713D01*
X179449482Y-112574188D01*
X179325000Y-112561928D01*
X178818142Y-112561928D01*
X168354275Y-102098061D01*
X174665000Y-102098061D01*
X174665000Y-102301939D01*
X174704774Y-102501898D01*
X174782795Y-102690256D01*
X174896063Y-102859774D01*
X175040226Y-103003937D01*
X175209744Y-103117205D01*
X175398102Y-103195226D01*
X175598061Y-103235000D01*
X175801939Y-103235000D01*
X176001898Y-103195226D01*
X176190256Y-103117205D01*
X176359774Y-103003937D01*
X176503937Y-102859774D01*
X176617205Y-102690256D01*
X176695226Y-102501898D01*
X176735000Y-102301939D01*
X176735000Y-102098061D01*
X176695226Y-101898102D01*
X176617205Y-101709744D01*
X176503937Y-101540226D01*
X176359774Y-101396063D01*
X176190256Y-101282795D01*
X176001898Y-101204774D01*
X175801939Y-101165000D01*
X175598061Y-101165000D01*
X175398102Y-101204774D01*
X175209744Y-101282795D01*
X175040226Y-101396063D01*
X174896063Y-101540226D01*
X174782795Y-101709744D01*
X174704774Y-101898102D01*
X174665000Y-102098061D01*
X168354275Y-102098061D01*
X162202368Y-95946154D01*
X197365000Y-95946154D01*
X197365000Y-96553846D01*
X197483555Y-97149861D01*
X197716108Y-97711295D01*
X198053724Y-98216573D01*
X198483427Y-98646276D01*
X198988705Y-98983892D01*
X199550139Y-99216445D01*
X200146154Y-99335000D01*
X200753846Y-99335000D01*
X201349861Y-99216445D01*
X201911295Y-98983892D01*
X202416573Y-98646276D01*
X202846276Y-98216573D01*
X203183892Y-97711295D01*
X203416445Y-97149861D01*
X203535000Y-96553846D01*
X203535000Y-95946154D01*
X203416445Y-95350139D01*
X203183892Y-94788705D01*
X202846276Y-94283427D01*
X202416573Y-93853724D01*
X201911295Y-93516108D01*
X201349861Y-93283555D01*
X200753846Y-93165000D01*
X200146154Y-93165000D01*
X199550139Y-93283555D01*
X198988705Y-93516108D01*
X198483427Y-93853724D01*
X198053724Y-94283427D01*
X197716108Y-94788705D01*
X197483555Y-95350139D01*
X197365000Y-95946154D01*
X162202368Y-95946154D01*
X149857492Y-83601278D01*
X156690000Y-83601278D01*
X156690000Y-83898722D01*
X156748029Y-84190451D01*
X156861856Y-84465253D01*
X157027107Y-84712569D01*
X157237431Y-84922893D01*
X157484747Y-85088144D01*
X157759549Y-85201971D01*
X158051278Y-85260000D01*
X158348722Y-85260000D01*
X158640451Y-85201971D01*
X158915253Y-85088144D01*
X159162569Y-84922893D01*
X159372893Y-84712569D01*
X159538144Y-84465253D01*
X159651971Y-84190451D01*
X159710000Y-83898722D01*
X159710000Y-83601278D01*
X159651971Y-83309549D01*
X159538144Y-83034747D01*
X159372893Y-82787431D01*
X159162569Y-82577107D01*
X158915253Y-82411856D01*
X158640451Y-82298029D01*
X158348722Y-82240000D01*
X158051278Y-82240000D01*
X157759549Y-82298029D01*
X157484747Y-82411856D01*
X157237431Y-82577107D01*
X157027107Y-82787431D01*
X156861856Y-83034747D01*
X156748029Y-83309549D01*
X156690000Y-83601278D01*
X149857492Y-83601278D01*
X146357492Y-80101278D01*
X156690000Y-80101278D01*
X156690000Y-80398722D01*
X156748029Y-80690451D01*
X156861856Y-80965253D01*
X157027107Y-81212569D01*
X157237431Y-81422893D01*
X157484747Y-81588144D01*
X157759549Y-81701971D01*
X158051278Y-81760000D01*
X158348722Y-81760000D01*
X158640451Y-81701971D01*
X158765917Y-81650001D01*
X160760718Y-81650001D01*
X160764999Y-81693470D01*
X160765000Y-90231520D01*
X160760718Y-90274999D01*
X160777804Y-90448489D01*
X160828411Y-90615312D01*
X160910589Y-90769058D01*
X160993467Y-90870045D01*
X160993470Y-90870048D01*
X161021183Y-90903816D01*
X161054950Y-90931528D01*
X162000000Y-91876579D01*
X162000000Y-91888265D01*
X162044194Y-92110443D01*
X162130884Y-92319729D01*
X162256737Y-92508082D01*
X162298655Y-92550000D01*
X162256737Y-92591918D01*
X162130884Y-92780271D01*
X162044194Y-92989557D01*
X162000000Y-93211735D01*
X162000000Y-93438265D01*
X162044194Y-93660443D01*
X162130884Y-93869729D01*
X162256737Y-94058082D01*
X162416918Y-94218263D01*
X162605271Y-94344116D01*
X162814557Y-94430806D01*
X163036735Y-94475000D01*
X163263265Y-94475000D01*
X163485443Y-94430806D01*
X163694729Y-94344116D01*
X163883082Y-94218263D01*
X164043263Y-94058082D01*
X164169116Y-93869729D01*
X164255806Y-93660443D01*
X164300000Y-93438265D01*
X164300000Y-93426579D01*
X164710051Y-93016528D01*
X164743818Y-92988816D01*
X164854412Y-92854058D01*
X164866768Y-92830941D01*
X164936590Y-92700313D01*
X164987196Y-92533489D01*
X164989698Y-92508082D01*
X165000001Y-92403476D01*
X165000001Y-92403468D01*
X165004282Y-92359999D01*
X165000001Y-92316530D01*
X165000001Y-84958470D01*
X165004282Y-84915001D01*
X165000001Y-84871532D01*
X165000001Y-84871524D01*
X164987196Y-84741511D01*
X164968214Y-84678937D01*
X164936590Y-84574687D01*
X164854412Y-84420942D01*
X164771533Y-84319954D01*
X164771531Y-84319952D01*
X164743818Y-84286184D01*
X164710050Y-84258471D01*
X164513061Y-84061482D01*
X164535000Y-83951184D01*
X164535000Y-83648816D01*
X164476011Y-83352257D01*
X164360299Y-83072905D01*
X164192312Y-82821495D01*
X163978505Y-82607688D01*
X163727095Y-82439701D01*
X163447743Y-82323989D01*
X163151184Y-82265000D01*
X162848816Y-82265000D01*
X162552257Y-82323989D01*
X162534999Y-82331138D01*
X162534999Y-82016579D01*
X162738518Y-81813060D01*
X162848816Y-81835000D01*
X163151184Y-81835000D01*
X163447743Y-81776011D01*
X163727095Y-81660299D01*
X163978505Y-81492312D01*
X164192312Y-81278505D01*
X164360299Y-81027095D01*
X164476011Y-80747743D01*
X164535000Y-80451184D01*
X164535000Y-80148816D01*
X164476011Y-79852257D01*
X164360299Y-79572905D01*
X164192312Y-79321495D01*
X163978505Y-79107688D01*
X163727095Y-78939701D01*
X163447743Y-78823989D01*
X163151184Y-78765000D01*
X162848816Y-78765000D01*
X162552257Y-78823989D01*
X162272905Y-78939701D01*
X162021495Y-79107688D01*
X161807688Y-79321495D01*
X161639701Y-79572905D01*
X161523989Y-79852257D01*
X161465000Y-80148816D01*
X161465000Y-80451184D01*
X161486940Y-80561482D01*
X161054955Y-80993467D01*
X161021182Y-81021184D01*
X160910588Y-81155943D01*
X160828410Y-81309689D01*
X160777804Y-81476512D01*
X160764999Y-81606525D01*
X160764999Y-81606532D01*
X160760718Y-81650001D01*
X158765917Y-81650001D01*
X158915253Y-81588144D01*
X159162569Y-81422893D01*
X159372893Y-81212569D01*
X159538144Y-80965253D01*
X159651971Y-80690451D01*
X159710000Y-80398722D01*
X159710000Y-80101278D01*
X159651971Y-79809549D01*
X159538144Y-79534747D01*
X159372893Y-79287431D01*
X159162569Y-79077107D01*
X158915253Y-78911856D01*
X158640451Y-78798029D01*
X158348722Y-78740000D01*
X158051278Y-78740000D01*
X157759549Y-78798029D01*
X157484747Y-78911856D01*
X157237431Y-79077107D01*
X157027107Y-79287431D01*
X156861856Y-79534747D01*
X156748029Y-79809549D01*
X156690000Y-80101278D01*
X146357492Y-80101278D01*
X141541213Y-75285000D01*
X172987678Y-75285000D01*
X173025000Y-75288676D01*
X173062322Y-75285000D01*
X173062333Y-75285000D01*
X173173986Y-75274003D01*
X173317247Y-75230546D01*
X173449276Y-75159974D01*
X173565001Y-75065001D01*
X173588804Y-75035997D01*
X183564801Y-65060001D01*
X191100015Y-65060001D01*
X191054463Y-65115506D01*
X190995498Y-65225820D01*
X190959188Y-65345518D01*
X190946928Y-65470000D01*
X190946928Y-66670000D01*
X190959188Y-66794482D01*
X190995498Y-66914180D01*
X191054463Y-67024494D01*
X191133815Y-67121185D01*
X191230506Y-67200537D01*
X191340820Y-67259502D01*
X191460518Y-67295812D01*
X191585000Y-67308072D01*
X194285000Y-67308072D01*
X194409482Y-67295812D01*
X194529180Y-67259502D01*
X194639494Y-67200537D01*
X194736185Y-67121185D01*
X194751277Y-67102796D01*
X194959134Y-67188893D01*
X195241203Y-67245000D01*
X195528797Y-67245000D01*
X195810866Y-67188893D01*
X196018723Y-67102796D01*
X196033815Y-67121185D01*
X196130506Y-67200537D01*
X196240820Y-67259502D01*
X196360518Y-67295812D01*
X196485000Y-67308072D01*
X199185000Y-67308072D01*
X199309482Y-67295812D01*
X199429180Y-67259502D01*
X199539494Y-67200537D01*
X199636185Y-67121185D01*
X199715537Y-67024494D01*
X199774502Y-66914180D01*
X199810812Y-66794482D01*
X199823072Y-66670000D01*
X199823072Y-65470000D01*
X199810812Y-65345518D01*
X199774502Y-65225820D01*
X199715537Y-65115506D01*
X199636185Y-65018815D01*
X199539494Y-64939463D01*
X199429180Y-64880498D01*
X199309482Y-64844188D01*
X199185000Y-64831928D01*
X196496680Y-64831928D01*
X196315696Y-64650944D01*
X196076569Y-64491165D01*
X195810866Y-64381107D01*
X195528797Y-64325000D01*
X195241203Y-64325000D01*
X194959134Y-64381107D01*
X194693431Y-64491165D01*
X194454304Y-64650944D01*
X194273320Y-64831928D01*
X193206626Y-64831928D01*
X193223802Y-64810999D01*
X193421729Y-64613072D01*
X193785000Y-64613072D01*
X193909482Y-64600812D01*
X194029180Y-64564502D01*
X194139494Y-64505537D01*
X194236185Y-64426185D01*
X194315537Y-64329494D01*
X194374502Y-64219180D01*
X194410812Y-64099482D01*
X194423072Y-63975000D01*
X194423072Y-63175000D01*
X194410812Y-63050518D01*
X194377287Y-62940000D01*
X194410812Y-62829482D01*
X194423072Y-62705000D01*
X194420000Y-62590750D01*
X194261250Y-62432000D01*
X193512000Y-62432000D01*
X193512000Y-62452000D01*
X193258000Y-62452000D01*
X193258000Y-62432000D01*
X192242000Y-62432000D01*
X192242000Y-62452000D01*
X191988000Y-62452000D01*
X191988000Y-62432000D01*
X191238750Y-62432000D01*
X191080000Y-62590750D01*
X191076928Y-62705000D01*
X191087762Y-62815000D01*
X183375915Y-62815000D01*
X183338590Y-62811324D01*
X183301265Y-62815000D01*
X183301257Y-62815000D01*
X183189604Y-62825997D01*
X183046343Y-62869454D01*
X182914314Y-62940026D01*
X182798589Y-63034999D01*
X182774791Y-63063997D01*
X172723789Y-73115000D01*
X141069213Y-73115000D01*
X148136017Y-66048197D01*
X148165010Y-66024403D01*
X148188804Y-65995410D01*
X148188809Y-65995405D01*
X148259984Y-65908678D01*
X148330556Y-65776649D01*
X148374013Y-65633388D01*
X148388686Y-65484402D01*
X148385009Y-65447067D01*
X148385009Y-62298061D01*
X150665000Y-62298061D01*
X150665000Y-62501939D01*
X150704774Y-62701898D01*
X150782795Y-62890256D01*
X150896063Y-63059774D01*
X151040226Y-63203937D01*
X151209744Y-63317205D01*
X151398102Y-63395226D01*
X151598061Y-63435000D01*
X151801939Y-63435000D01*
X152001898Y-63395226D01*
X152190256Y-63317205D01*
X152238454Y-63285000D01*
X174461546Y-63285000D01*
X174509744Y-63317205D01*
X174698102Y-63395226D01*
X174898061Y-63435000D01*
X175101939Y-63435000D01*
X175301898Y-63395226D01*
X175490256Y-63317205D01*
X175659774Y-63203937D01*
X175803937Y-63059774D01*
X175917205Y-62890256D01*
X175995226Y-62701898D01*
X176035000Y-62501939D01*
X176035000Y-62298061D01*
X175995226Y-62098102D01*
X175917205Y-61909744D01*
X175803937Y-61740226D01*
X175659774Y-61596063D01*
X175490256Y-61482795D01*
X175301898Y-61404774D01*
X175101939Y-61365000D01*
X174898061Y-61365000D01*
X174698102Y-61404774D01*
X174509744Y-61482795D01*
X174461546Y-61515000D01*
X152238454Y-61515000D01*
X152190256Y-61482795D01*
X152001898Y-61404774D01*
X151801939Y-61365000D01*
X151598061Y-61365000D01*
X151398102Y-61404774D01*
X151209744Y-61482795D01*
X151040226Y-61596063D01*
X150896063Y-61740226D01*
X150782795Y-61909744D01*
X150704774Y-62098102D01*
X150665000Y-62298061D01*
X148385009Y-62298061D01*
X148385011Y-55335923D01*
X148388687Y-55298600D01*
X148385011Y-55261277D01*
X148385011Y-55261269D01*
X148374014Y-55149616D01*
X148330557Y-55006355D01*
X148259985Y-54874326D01*
X148259984Y-54874324D01*
X148188810Y-54787597D01*
X148188801Y-54787588D01*
X148165012Y-54758601D01*
X148136025Y-54734812D01*
X144954283Y-51553072D01*
X145170000Y-51553072D01*
X145294482Y-51540812D01*
X145414180Y-51504502D01*
X145524494Y-51445537D01*
X145621185Y-51366185D01*
X145700537Y-51269494D01*
X145759502Y-51159180D01*
X145795812Y-51039482D01*
X145808072Y-50915000D01*
X145808072Y-48215000D01*
X145795812Y-48090518D01*
X145759502Y-47970820D01*
X145700537Y-47860506D01*
X145621185Y-47763815D01*
X145602796Y-47748723D01*
X145688893Y-47540866D01*
X145745000Y-47258797D01*
X145745000Y-46971203D01*
X145688893Y-46689134D01*
X145602796Y-46481277D01*
X145621185Y-46466185D01*
X145700537Y-46369494D01*
X145759502Y-46259180D01*
X145795812Y-46139482D01*
X145808072Y-46015000D01*
X145808072Y-44394649D01*
X146658472Y-45245049D01*
X146686185Y-45278817D01*
X146719953Y-45306530D01*
X146719955Y-45306532D01*
X146820943Y-45389411D01*
X146974688Y-45471589D01*
X147141512Y-45522195D01*
X147271525Y-45535000D01*
X147271533Y-45535000D01*
X147315002Y-45539281D01*
X147358471Y-45535000D01*
X179173422Y-45535000D01*
X181035714Y-47397293D01*
X180998102Y-47404774D01*
X180809744Y-47482795D01*
X180640226Y-47596063D01*
X180496063Y-47740226D01*
X180382795Y-47909744D01*
X180304774Y-48098102D01*
X180291191Y-48166390D01*
X179810000Y-47685199D01*
X179810000Y-47623061D01*
X179770226Y-47423102D01*
X179692205Y-47234744D01*
X179578937Y-47065226D01*
X179434774Y-46921063D01*
X179265256Y-46807795D01*
X179076898Y-46729774D01*
X178876939Y-46690000D01*
X178673061Y-46690000D01*
X178473102Y-46729774D01*
X178284744Y-46807795D01*
X178115226Y-46921063D01*
X177971063Y-47065226D01*
X177857795Y-47234744D01*
X177779774Y-47423102D01*
X177740000Y-47623061D01*
X177740000Y-47826939D01*
X177779774Y-48026898D01*
X177857795Y-48215256D01*
X177971063Y-48384774D01*
X178115226Y-48528937D01*
X178284744Y-48642205D01*
X178473102Y-48720226D01*
X178673061Y-48760000D01*
X178735199Y-48760000D01*
X191076928Y-61101730D01*
X191076928Y-61435000D01*
X191089188Y-61559482D01*
X191122713Y-61670000D01*
X191089188Y-61780518D01*
X191076928Y-61905000D01*
X191080000Y-62019250D01*
X191238750Y-62178000D01*
X191988000Y-62178000D01*
X191988000Y-62158000D01*
X192242000Y-62158000D01*
X192242000Y-62178000D01*
X193258000Y-62178000D01*
X193258000Y-62158000D01*
X193512000Y-62158000D01*
X193512000Y-62178000D01*
X194261250Y-62178000D01*
X194420000Y-62019250D01*
X194423072Y-61905000D01*
X194412238Y-61795000D01*
X197027678Y-61795000D01*
X197065000Y-61798676D01*
X197102322Y-61795000D01*
X197102333Y-61795000D01*
X197213986Y-61784003D01*
X197357247Y-61740546D01*
X197489276Y-61669974D01*
X197605001Y-61575001D01*
X197628804Y-61545997D01*
X201661008Y-57513795D01*
X201690001Y-57490001D01*
X201713795Y-57461008D01*
X201713799Y-57461004D01*
X201784973Y-57374277D01*
X201784974Y-57374276D01*
X201855546Y-57242247D01*
X201899003Y-57098986D01*
X201910000Y-56987333D01*
X201910000Y-56987324D01*
X201913676Y-56950001D01*
X201910000Y-56912678D01*
X201910000Y-55703711D01*
X201953937Y-55659774D01*
X202067205Y-55490256D01*
X202145226Y-55301898D01*
X202185000Y-55101939D01*
X202185000Y-54898061D01*
X202145226Y-54698102D01*
X202067205Y-54509744D01*
X201953937Y-54340226D01*
X201809774Y-54196063D01*
X201640256Y-54082795D01*
X201451898Y-54004774D01*
X201251939Y-53965000D01*
X201048061Y-53965000D01*
X200848102Y-54004774D01*
X200659744Y-54082795D01*
X200490226Y-54196063D01*
X200346063Y-54340226D01*
X200232795Y-54509744D01*
X200154774Y-54698102D01*
X200115000Y-54898061D01*
X200115000Y-55101939D01*
X200154774Y-55301898D01*
X200232795Y-55490256D01*
X200346063Y-55659774D01*
X200390000Y-55703711D01*
X200390001Y-56635196D01*
X196750199Y-60275000D01*
X194412238Y-60275000D01*
X194423072Y-60165000D01*
X194420000Y-60050750D01*
X194261250Y-59892000D01*
X193512000Y-59892000D01*
X193512000Y-59912000D01*
X193258000Y-59912000D01*
X193258000Y-59892000D01*
X192242000Y-59892000D01*
X192242000Y-59912000D01*
X192036802Y-59912000D01*
X191968000Y-59843198D01*
X191968000Y-59638000D01*
X191988000Y-59638000D01*
X191988000Y-59618000D01*
X192242000Y-59618000D01*
X192242000Y-59638000D01*
X193258000Y-59638000D01*
X193258000Y-58622000D01*
X193512000Y-58622000D01*
X193512000Y-59638000D01*
X194261250Y-59638000D01*
X194420000Y-59479250D01*
X194423072Y-59365000D01*
X194410812Y-59240518D01*
X194377287Y-59130000D01*
X194410812Y-59019482D01*
X194423072Y-58895000D01*
X194420000Y-58780750D01*
X194261250Y-58622000D01*
X193512000Y-58622000D01*
X193258000Y-58622000D01*
X193238000Y-58622000D01*
X193238000Y-58368000D01*
X193258000Y-58368000D01*
X193258000Y-58348000D01*
X193512000Y-58348000D01*
X193512000Y-58368000D01*
X194261250Y-58368000D01*
X194420000Y-58209250D01*
X194423072Y-58095000D01*
X194410812Y-57970518D01*
X194377287Y-57860000D01*
X194410812Y-57749482D01*
X194423072Y-57625000D01*
X194423072Y-56825000D01*
X194410812Y-56700518D01*
X194374502Y-56580820D01*
X194315537Y-56470506D01*
X194236185Y-56373815D01*
X194139494Y-56294463D01*
X194029180Y-56235498D01*
X193909482Y-56199188D01*
X193785000Y-56186928D01*
X192985000Y-56186928D01*
X192860518Y-56199188D01*
X192750000Y-56232713D01*
X192639482Y-56199188D01*
X192515000Y-56186928D01*
X192328507Y-56186928D01*
X192109651Y-55968072D01*
X194273320Y-55968072D01*
X194454304Y-56149056D01*
X194693431Y-56308835D01*
X194959134Y-56418893D01*
X195241203Y-56475000D01*
X195528797Y-56475000D01*
X195810866Y-56418893D01*
X196076569Y-56308835D01*
X196315696Y-56149056D01*
X196496680Y-55968072D01*
X199185000Y-55968072D01*
X199309482Y-55955812D01*
X199429180Y-55919502D01*
X199539494Y-55860537D01*
X199636185Y-55781185D01*
X199715537Y-55684494D01*
X199774502Y-55574180D01*
X199810812Y-55454482D01*
X199823072Y-55330000D01*
X199823072Y-54130000D01*
X199810812Y-54005518D01*
X199774502Y-53885820D01*
X199715537Y-53775506D01*
X199636185Y-53678815D01*
X199539494Y-53599463D01*
X199429180Y-53540498D01*
X199309482Y-53504188D01*
X199185000Y-53491928D01*
X196485000Y-53491928D01*
X196360518Y-53504188D01*
X196240820Y-53540498D01*
X196130506Y-53599463D01*
X196033815Y-53678815D01*
X196018723Y-53697204D01*
X195810866Y-53611107D01*
X195528797Y-53555000D01*
X195241203Y-53555000D01*
X194959134Y-53611107D01*
X194751277Y-53697204D01*
X194736185Y-53678815D01*
X194639494Y-53599463D01*
X194529180Y-53540498D01*
X194409482Y-53504188D01*
X194285000Y-53491928D01*
X191585000Y-53491928D01*
X191460518Y-53504188D01*
X191340820Y-53540498D01*
X191230506Y-53599463D01*
X191133815Y-53678815D01*
X191054463Y-53775506D01*
X190995498Y-53885820D01*
X190959188Y-54005518D01*
X190946928Y-54130000D01*
X190946928Y-54805349D01*
X180196534Y-44054956D01*
X180168817Y-44021183D01*
X180034059Y-43910589D01*
X179880313Y-43828411D01*
X179713490Y-43777805D01*
X179583477Y-43765000D01*
X179583469Y-43765000D01*
X179540000Y-43760719D01*
X179496531Y-43765000D01*
X162647849Y-43765000D01*
X162896276Y-43516573D01*
X163233892Y-43011295D01*
X163466445Y-42449861D01*
X163585000Y-41853846D01*
X163585000Y-41246154D01*
X163466445Y-40650139D01*
X163233892Y-40088705D01*
X162896276Y-39583427D01*
X162466573Y-39153724D01*
X161961295Y-38816108D01*
X161399861Y-38583555D01*
X160803846Y-38465000D01*
X160196154Y-38465000D01*
X159600139Y-38583555D01*
X159038705Y-38816108D01*
X158533427Y-39153724D01*
X158103724Y-39583427D01*
X157766108Y-40088705D01*
X157533555Y-40650139D01*
X157415000Y-41246154D01*
X157415000Y-41853846D01*
X157533555Y-42449861D01*
X157766108Y-43011295D01*
X158103724Y-43516573D01*
X158352151Y-43765000D01*
X147681581Y-43765000D01*
X145196536Y-41279956D01*
X145168819Y-41246183D01*
X145034061Y-41135589D01*
X144880315Y-41053411D01*
X144713492Y-41002805D01*
X144583479Y-40990000D01*
X144583471Y-40990000D01*
X144540002Y-40985719D01*
X144496533Y-40990000D01*
X136263454Y-40990000D01*
X136215256Y-40957795D01*
X136026898Y-40879774D01*
X135826939Y-40840000D01*
X135623061Y-40840000D01*
X135423102Y-40879774D01*
X135234744Y-40957795D01*
X135065226Y-41071063D01*
X134921063Y-41215226D01*
X134807795Y-41384744D01*
X134729774Y-41573102D01*
X134690000Y-41773061D01*
X134690000Y-41976939D01*
X134729774Y-42176898D01*
X134807795Y-42365256D01*
X134840001Y-42413456D01*
X134840000Y-46498671D01*
X134808835Y-46423431D01*
X134649056Y-46184304D01*
X134468072Y-46003320D01*
X134468072Y-43315000D01*
X134455812Y-43190518D01*
X134419502Y-43070820D01*
X134360537Y-42960506D01*
X134281185Y-42863815D01*
X134184494Y-42784463D01*
X134074180Y-42725498D01*
X133954482Y-42689188D01*
X133830000Y-42676928D01*
X132630000Y-42676928D01*
X132505518Y-42689188D01*
X132385820Y-42725498D01*
X132275506Y-42784463D01*
X132178815Y-42863815D01*
X132099463Y-42960506D01*
X132040498Y-43070820D01*
X132004188Y-43190518D01*
X131991928Y-43315000D01*
X131991928Y-46015000D01*
X132004188Y-46139482D01*
X132040498Y-46259180D01*
X132099463Y-46369494D01*
X132178815Y-46466185D01*
X132197204Y-46481277D01*
X132111107Y-46689134D01*
X132055000Y-46971203D01*
X132055000Y-47258797D01*
X132111107Y-47540866D01*
X132197204Y-47748723D01*
X132178815Y-47763815D01*
X132099463Y-47860506D01*
X132040498Y-47970820D01*
X132004188Y-48090518D01*
X131991928Y-48215000D01*
X131991928Y-50590000D01*
X129503711Y-50590000D01*
X129459774Y-50546063D01*
X129290256Y-50432795D01*
X129101898Y-50354774D01*
X128901939Y-50315000D01*
X128698061Y-50315000D01*
X128498102Y-50354774D01*
X128309744Y-50432795D01*
X128140226Y-50546063D01*
X127996063Y-50690226D01*
X127882795Y-50859744D01*
X127804774Y-51048102D01*
X127765000Y-51248061D01*
X127765000Y-51451939D01*
X127772571Y-51490000D01*
X122753711Y-51490000D01*
X122709774Y-51446063D01*
X122540256Y-51332795D01*
X122351898Y-51254774D01*
X122151939Y-51215000D01*
X121948061Y-51215000D01*
X121748102Y-51254774D01*
X121559744Y-51332795D01*
X121390226Y-51446063D01*
X121246063Y-51590226D01*
X121132795Y-51759744D01*
X121054774Y-51948102D01*
X121015000Y-52148061D01*
X121015000Y-52351939D01*
X121054774Y-52551898D01*
X121132795Y-52740256D01*
X121246063Y-52909774D01*
X121390226Y-53053937D01*
X121559744Y-53167205D01*
X121748102Y-53245226D01*
X121948061Y-53285000D01*
X122151939Y-53285000D01*
X122351898Y-53245226D01*
X122540256Y-53167205D01*
X122709774Y-53053937D01*
X122753711Y-53010000D01*
X138282678Y-53010000D01*
X138320000Y-53013676D01*
X138357322Y-53010000D01*
X138357333Y-53010000D01*
X138468986Y-52999003D01*
X138612247Y-52955546D01*
X138744276Y-52884974D01*
X138860001Y-52790001D01*
X138883803Y-52760998D01*
X140046008Y-51598795D01*
X140075001Y-51575001D01*
X140098795Y-51546008D01*
X140098799Y-51546004D01*
X140169973Y-51459277D01*
X140169974Y-51459276D01*
X140207688Y-51388719D01*
X140280518Y-51410812D01*
X140405000Y-51423072D01*
X140519250Y-51420000D01*
X140678000Y-51261250D01*
X140678000Y-50512000D01*
X140658000Y-50512000D01*
X140658000Y-50258000D01*
X140678000Y-50258000D01*
X140678000Y-49242000D01*
X140658000Y-49242000D01*
X140658000Y-48988000D01*
X140678000Y-48988000D01*
X140678000Y-48238750D01*
X140519250Y-48080000D01*
X140405000Y-48076928D01*
X140295000Y-48087762D01*
X140295000Y-45068711D01*
X140347142Y-45016569D01*
X140460410Y-44847051D01*
X140538431Y-44658693D01*
X140578205Y-44458734D01*
X140578205Y-44254856D01*
X140538431Y-44054897D01*
X140460410Y-43866539D01*
X140347142Y-43697021D01*
X140202979Y-43552858D01*
X140033461Y-43439590D01*
X139845103Y-43361569D01*
X139645144Y-43321795D01*
X139441266Y-43321795D01*
X139241307Y-43361569D01*
X139052949Y-43439590D01*
X138883431Y-43552858D01*
X138739268Y-43697021D01*
X138626000Y-43866539D01*
X138547979Y-44054897D01*
X138508205Y-44254856D01*
X138508205Y-44458734D01*
X138547979Y-44658693D01*
X138626000Y-44847051D01*
X138739268Y-45016569D01*
X138775001Y-45052302D01*
X138775000Y-48087762D01*
X138665000Y-48076928D01*
X138550750Y-48080000D01*
X138392000Y-48238750D01*
X138392000Y-48988000D01*
X138412000Y-48988000D01*
X138412000Y-49242000D01*
X138392000Y-49242000D01*
X138392000Y-50258000D01*
X138412000Y-50258000D01*
X138412000Y-50512000D01*
X138392000Y-50512000D01*
X138392000Y-50532000D01*
X138138000Y-50532000D01*
X138138000Y-50512000D01*
X138118000Y-50512000D01*
X138118000Y-50258000D01*
X138138000Y-50258000D01*
X138138000Y-49242000D01*
X137122000Y-49242000D01*
X137122000Y-49262000D01*
X136868000Y-49262000D01*
X136868000Y-49242000D01*
X136848000Y-49242000D01*
X136848000Y-48988000D01*
X136868000Y-48988000D01*
X136868000Y-48238750D01*
X137122000Y-48238750D01*
X137122000Y-48988000D01*
X138138000Y-48988000D01*
X138138000Y-48238750D01*
X137979250Y-48080000D01*
X137865000Y-48076928D01*
X137740518Y-48089188D01*
X137630000Y-48122713D01*
X137519482Y-48089188D01*
X137395000Y-48076928D01*
X137280750Y-48080000D01*
X137122000Y-48238750D01*
X136868000Y-48238750D01*
X136709250Y-48080000D01*
X136610000Y-48077331D01*
X136610000Y-42760000D01*
X143661272Y-42760000D01*
X143615506Y-42784463D01*
X143518815Y-42863815D01*
X143439463Y-42960506D01*
X143380498Y-43070820D01*
X143344188Y-43190518D01*
X143331928Y-43315000D01*
X143331928Y-46003320D01*
X143150944Y-46184304D01*
X142991165Y-46423431D01*
X142881107Y-46689134D01*
X142825000Y-46971203D01*
X142825000Y-47258797D01*
X142881107Y-47540866D01*
X142991165Y-47806569D01*
X143150944Y-48045696D01*
X143331928Y-48226680D01*
X143331928Y-48515030D01*
X143289276Y-48480026D01*
X143157247Y-48409454D01*
X143013986Y-48365997D01*
X143008166Y-48365424D01*
X143005537Y-48360506D01*
X142926185Y-48263815D01*
X142829494Y-48184463D01*
X142719180Y-48125498D01*
X142599482Y-48089188D01*
X142475000Y-48076928D01*
X141675000Y-48076928D01*
X141550518Y-48089188D01*
X141440000Y-48122713D01*
X141329482Y-48089188D01*
X141205000Y-48076928D01*
X141090750Y-48080000D01*
X140932000Y-48238750D01*
X140932000Y-48988000D01*
X140952000Y-48988000D01*
X140952000Y-49242000D01*
X140932000Y-49242000D01*
X140932000Y-50258000D01*
X140952000Y-50258000D01*
X140952000Y-50512000D01*
X140932000Y-50512000D01*
X140932000Y-51261250D01*
X141090750Y-51420000D01*
X141205000Y-51423072D01*
X141329482Y-51410812D01*
X141440000Y-51377287D01*
X141550518Y-51410812D01*
X141675000Y-51423072D01*
X142038271Y-51423072D01*
X146415001Y-55799803D01*
X146415002Y-63915000D01*
X146348061Y-63915000D01*
X146148102Y-63954774D01*
X145959744Y-64032795D01*
X145790226Y-64146063D01*
X145746289Y-64190000D01*
X144849999Y-64190000D01*
X144849999Y-64123060D01*
X144810225Y-63923101D01*
X144732204Y-63734743D01*
X144618936Y-63565225D01*
X144474773Y-63421062D01*
X144305255Y-63307794D01*
X144116897Y-63229773D01*
X143916938Y-63189999D01*
X143713060Y-63189999D01*
X143513101Y-63229773D01*
X143324743Y-63307794D01*
X143155225Y-63421062D01*
X143111288Y-63464999D01*
X135636265Y-63464999D01*
X135598942Y-63461323D01*
X135561620Y-63464999D01*
X135561610Y-63464999D01*
X135449957Y-63475996D01*
X135306696Y-63519453D01*
X135174666Y-63590025D01*
X135091026Y-63658667D01*
X135058942Y-63684998D01*
X135035144Y-63713996D01*
X127663988Y-71085153D01*
X127634990Y-71108951D01*
X127611192Y-71137949D01*
X127611191Y-71137950D01*
X127540016Y-71224676D01*
X127498095Y-71303104D01*
X127469444Y-71356705D01*
X127425987Y-71499966D01*
X127414990Y-71611619D01*
X127414990Y-71611630D01*
X127411314Y-71648952D01*
X127414990Y-71686274D01*
X127414990Y-72212668D01*
X127411314Y-72249990D01*
X127414990Y-72287312D01*
X127414990Y-72287322D01*
X127425987Y-72398975D01*
X127460065Y-72511316D01*
X127469444Y-72542236D01*
X127540016Y-72674266D01*
X127579861Y-72722816D01*
X127634989Y-72789991D01*
X127663993Y-72813794D01*
X127872084Y-73021885D01*
X127861928Y-73125000D01*
X127861928Y-73325000D01*
X127876110Y-73468991D01*
X127900684Y-73550000D01*
X127876110Y-73631009D01*
X127861928Y-73775000D01*
X127861928Y-73975000D01*
X127876110Y-74118991D01*
X127900684Y-74200000D01*
X127876110Y-74281009D01*
X127861928Y-74425000D01*
X127861928Y-74625000D01*
X127876110Y-74768991D01*
X127900684Y-74850000D01*
X127876110Y-74931009D01*
X127861928Y-75075000D01*
X127861928Y-75275000D01*
X127876110Y-75418991D01*
X127900684Y-75500000D01*
X127876110Y-75581009D01*
X127861928Y-75725000D01*
X127861928Y-75925000D01*
X127876110Y-76068991D01*
X127900684Y-76150000D01*
X127876110Y-76231009D01*
X127861928Y-76375000D01*
X127861928Y-76575000D01*
X127876110Y-76718991D01*
X127887350Y-76756045D01*
X127876132Y-76791117D01*
X127870804Y-76840000D01*
X126544365Y-76840000D01*
X126517606Y-76807394D01*
X126390608Y-76703169D01*
X126245716Y-76625722D01*
X126088500Y-76578031D01*
X125925000Y-76561928D01*
X125686729Y-76561928D01*
X125463803Y-76339002D01*
X125440001Y-76309999D01*
X125324276Y-76215026D01*
X125192247Y-76144454D01*
X125048986Y-76100997D01*
X124937333Y-76090000D01*
X124937322Y-76090000D01*
X124900000Y-76086324D01*
X124862678Y-76090000D01*
X118192333Y-76090000D01*
X118155000Y-76086323D01*
X118117667Y-76090000D01*
X118006014Y-76100997D01*
X117862753Y-76144454D01*
X117730724Y-76215026D01*
X117614999Y-76309999D01*
X117591201Y-76338998D01*
X117313270Y-76616928D01*
X116550000Y-76616928D01*
X116425518Y-76629188D01*
X116305820Y-76665498D01*
X116195506Y-76724463D01*
X116098815Y-76803815D01*
X116019463Y-76900506D01*
X115960498Y-77010820D01*
X115924188Y-77130518D01*
X115911928Y-77255000D01*
X115911928Y-77420001D01*
X115688072Y-77420001D01*
X115688072Y-77255000D01*
X115675812Y-77130518D01*
X115639502Y-77010820D01*
X115580537Y-76900506D01*
X115501185Y-76803815D01*
X115404494Y-76724463D01*
X115294180Y-76665498D01*
X115174482Y-76629188D01*
X115050000Y-76616928D01*
X114160000Y-76616928D01*
X114160000Y-72698061D01*
X115015000Y-72698061D01*
X115015000Y-72901939D01*
X115054774Y-73101898D01*
X115132795Y-73290256D01*
X115246063Y-73459774D01*
X115390226Y-73603937D01*
X115559744Y-73717205D01*
X115748102Y-73795226D01*
X115948061Y-73835000D01*
X116151939Y-73835000D01*
X116351898Y-73795226D01*
X116540256Y-73717205D01*
X116709774Y-73603937D01*
X116853937Y-73459774D01*
X116967205Y-73290256D01*
X117045226Y-73101898D01*
X117085000Y-72901939D01*
X117085000Y-72698061D01*
X117045226Y-72498102D01*
X116967205Y-72309744D01*
X116853937Y-72140226D01*
X116709774Y-71996063D01*
X116540256Y-71882795D01*
X116351898Y-71804774D01*
X116151939Y-71765000D01*
X115948061Y-71765000D01*
X115748102Y-71804774D01*
X115559744Y-71882795D01*
X115390226Y-71996063D01*
X115246063Y-72140226D01*
X115132795Y-72309744D01*
X115054774Y-72498102D01*
X115015000Y-72698061D01*
X114160000Y-72698061D01*
X114160000Y-67446154D01*
X117465000Y-67446154D01*
X117465000Y-68053846D01*
X117583555Y-68649861D01*
X117816108Y-69211295D01*
X118153724Y-69716573D01*
X118583427Y-70146276D01*
X119088705Y-70483892D01*
X119650139Y-70716445D01*
X120246154Y-70835000D01*
X120853846Y-70835000D01*
X121449861Y-70716445D01*
X122011295Y-70483892D01*
X122516573Y-70146276D01*
X122946276Y-69716573D01*
X123283892Y-69211295D01*
X123516445Y-68649861D01*
X123635000Y-68053846D01*
X123635000Y-67446154D01*
X123516445Y-66850139D01*
X123283892Y-66288705D01*
X122946276Y-65783427D01*
X122516573Y-65353724D01*
X122011295Y-65016108D01*
X121449861Y-64783555D01*
X120853846Y-64665000D01*
X120246154Y-64665000D01*
X119650139Y-64783555D01*
X119088705Y-65016108D01*
X118583427Y-65353724D01*
X118153724Y-65783427D01*
X117816108Y-66288705D01*
X117583555Y-66850139D01*
X117465000Y-67446154D01*
X114160000Y-67446154D01*
X114160000Y-41160000D01*
X118967581Y-41160000D01*
X119000000Y-41163193D01*
X119032419Y-41160000D01*
X119129383Y-41150450D01*
X119253793Y-41112710D01*
X119368450Y-41051425D01*
X119468948Y-40968948D01*
X119551425Y-40868450D01*
X119612710Y-40753793D01*
X119650450Y-40629383D01*
X119663193Y-40500000D01*
X119660000Y-40467581D01*
X119660000Y-35660000D01*
X201340000Y-35660000D01*
X201340001Y-40467571D01*
%TA.AperFunction,Conductor*%
D22*
G36*
X201340001Y-40467571D02*
G01*
X201336807Y-40500000D01*
X201349550Y-40629383D01*
X201387290Y-40753793D01*
X201448575Y-40868450D01*
X201531052Y-40968948D01*
X201631550Y-41051425D01*
X201746207Y-41112710D01*
X201870617Y-41150450D01*
X201967581Y-41160000D01*
X202000000Y-41163193D01*
X202032419Y-41160000D01*
X206840000Y-41160000D01*
X206840001Y-122840000D01*
X202032419Y-122840000D01*
X202000000Y-122836807D01*
X201967581Y-122840000D01*
X201870617Y-122849550D01*
X201746207Y-122887290D01*
X201631550Y-122948575D01*
X201531052Y-123031052D01*
X201448575Y-123131550D01*
X201387290Y-123246207D01*
X201349550Y-123370617D01*
X201336807Y-123500000D01*
X201340001Y-123532429D01*
X201340000Y-128340000D01*
X119660000Y-128340000D01*
X119660000Y-124648061D01*
X121965000Y-124648061D01*
X121965000Y-124851939D01*
X122004774Y-125051898D01*
X122082795Y-125240256D01*
X122196063Y-125409774D01*
X122340226Y-125553937D01*
X122509744Y-125667205D01*
X122698102Y-125745226D01*
X122898061Y-125785000D01*
X123101939Y-125785000D01*
X123301898Y-125745226D01*
X123490256Y-125667205D01*
X123659774Y-125553937D01*
X123803937Y-125409774D01*
X123917205Y-125240256D01*
X123995226Y-125051898D01*
X124035000Y-124851939D01*
X124035000Y-124648061D01*
X123995226Y-124448102D01*
X123917205Y-124259744D01*
X123803937Y-124090226D01*
X123659774Y-123946063D01*
X123490256Y-123832795D01*
X123301898Y-123754774D01*
X123101939Y-123715000D01*
X122898061Y-123715000D01*
X122698102Y-123754774D01*
X122509744Y-123832795D01*
X122340226Y-123946063D01*
X122196063Y-124090226D01*
X122082795Y-124259744D01*
X122004774Y-124448102D01*
X121965000Y-124648061D01*
X119660000Y-124648061D01*
X119660000Y-123532418D01*
X119663193Y-123500000D01*
X119650450Y-123370617D01*
X119612710Y-123246207D01*
X119551425Y-123131550D01*
X119468948Y-123031052D01*
X119368450Y-122948575D01*
X119253793Y-122887290D01*
X119129383Y-122849550D01*
X119032419Y-122840000D01*
X119000000Y-122836807D01*
X118967581Y-122840000D01*
X114160000Y-122840000D01*
X114160000Y-122146154D01*
X157415000Y-122146154D01*
X157415000Y-122753846D01*
X157533555Y-123349861D01*
X157766108Y-123911295D01*
X158103724Y-124416573D01*
X158533427Y-124846276D01*
X159038705Y-125183892D01*
X159600139Y-125416445D01*
X160196154Y-125535000D01*
X160803846Y-125535000D01*
X161399861Y-125416445D01*
X161961295Y-125183892D01*
X162466573Y-124846276D01*
X162896276Y-124416573D01*
X163233892Y-123911295D01*
X163466445Y-123349861D01*
X163585000Y-122753846D01*
X163585000Y-122146154D01*
X163466445Y-121550139D01*
X163233892Y-120988705D01*
X162896276Y-120483427D01*
X162466573Y-120053724D01*
X161961295Y-119716108D01*
X161399861Y-119483555D01*
X160803846Y-119365000D01*
X160196154Y-119365000D01*
X159600139Y-119483555D01*
X159038705Y-119716108D01*
X158533427Y-120053724D01*
X158103724Y-120483427D01*
X157766108Y-120988705D01*
X157533555Y-121550139D01*
X157415000Y-122146154D01*
X114160000Y-122146154D01*
X114160000Y-104635000D01*
X126576928Y-104635000D01*
X126589188Y-104759482D01*
X126622713Y-104870000D01*
X126589188Y-104980518D01*
X126576928Y-105105000D01*
X126580000Y-105219250D01*
X126738750Y-105378000D01*
X127488000Y-105378000D01*
X127488000Y-104362000D01*
X126738750Y-104362000D01*
X126580000Y-104520750D01*
X126576928Y-104635000D01*
X114160000Y-104635000D01*
X114160000Y-87383072D01*
X115050000Y-87383072D01*
X115174482Y-87370812D01*
X115294180Y-87334502D01*
X115302603Y-87330000D01*
X116297397Y-87330000D01*
X116305820Y-87334502D01*
X116425518Y-87370812D01*
X116550000Y-87383072D01*
X118350000Y-87383072D01*
X118474482Y-87370812D01*
X118547181Y-87348759D01*
X118943465Y-87745044D01*
X118954774Y-87801898D01*
X119032795Y-87990256D01*
X119146063Y-88159774D01*
X119290226Y-88303937D01*
X119459744Y-88417205D01*
X119648102Y-88495226D01*
X119848061Y-88535000D01*
X120051939Y-88535000D01*
X120251898Y-88495226D01*
X120440256Y-88417205D01*
X120609774Y-88303937D01*
X120753937Y-88159774D01*
X120867205Y-87990256D01*
X120945226Y-87801898D01*
X120985000Y-87601939D01*
X120985000Y-87398061D01*
X120945226Y-87198102D01*
X120867205Y-87009744D01*
X120753937Y-86840226D01*
X120609774Y-86696063D01*
X120440256Y-86582795D01*
X120251898Y-86504774D01*
X120195044Y-86493465D01*
X119551534Y-85849956D01*
X119523817Y-85816183D01*
X119389059Y-85705589D01*
X119235313Y-85623411D01*
X119068490Y-85572805D01*
X118979304Y-85564021D01*
X118988072Y-85475000D01*
X118988072Y-84875000D01*
X118975812Y-84750518D01*
X118949870Y-84665000D01*
X124901289Y-84665000D01*
X124915226Y-84678937D01*
X125084744Y-84792205D01*
X125273102Y-84870226D01*
X125275676Y-84870738D01*
X125182795Y-85009744D01*
X125104774Y-85198102D01*
X125065000Y-85398061D01*
X125065000Y-85601939D01*
X125104774Y-85801898D01*
X125182795Y-85990256D01*
X125296063Y-86159774D01*
X125301704Y-86165415D01*
X125259744Y-86182795D01*
X125090226Y-86296063D01*
X124946063Y-86440226D01*
X124832795Y-86609744D01*
X124754774Y-86798102D01*
X124715000Y-86998061D01*
X124715000Y-87201939D01*
X124754774Y-87401898D01*
X124832795Y-87590256D01*
X124858125Y-87628164D01*
X124746063Y-87740226D01*
X124632795Y-87909744D01*
X124554774Y-88098102D01*
X124515000Y-88298061D01*
X124515000Y-88501939D01*
X124554774Y-88701898D01*
X124632795Y-88890256D01*
X124746063Y-89059774D01*
X124890226Y-89203937D01*
X125059744Y-89317205D01*
X125248102Y-89395226D01*
X125448061Y-89435000D01*
X125651939Y-89435000D01*
X125851898Y-89395226D01*
X126006420Y-89331221D01*
X128980002Y-92304804D01*
X128980001Y-96691928D01*
X126715000Y-96691928D01*
X126590518Y-96704188D01*
X126470820Y-96740498D01*
X126360506Y-96799463D01*
X126263815Y-96878815D01*
X126248723Y-96897204D01*
X126040866Y-96811107D01*
X125758797Y-96755000D01*
X125471203Y-96755000D01*
X125189134Y-96811107D01*
X124981277Y-96897204D01*
X124966185Y-96878815D01*
X124869494Y-96799463D01*
X124759180Y-96740498D01*
X124639482Y-96704188D01*
X124515000Y-96691928D01*
X121815000Y-96691928D01*
X121690518Y-96704188D01*
X121570820Y-96740498D01*
X121460506Y-96799463D01*
X121363815Y-96878815D01*
X121284463Y-96975506D01*
X121225498Y-97085820D01*
X121189188Y-97205518D01*
X121176928Y-97330000D01*
X121176928Y-98530000D01*
X121189188Y-98654482D01*
X121225498Y-98774180D01*
X121284463Y-98884494D01*
X121363815Y-98981185D01*
X121460506Y-99060537D01*
X121570820Y-99119502D01*
X121690518Y-99155812D01*
X121815000Y-99168072D01*
X124503320Y-99168072D01*
X124684304Y-99349056D01*
X124923431Y-99508835D01*
X125189134Y-99618893D01*
X125471203Y-99675000D01*
X125758797Y-99675000D01*
X126040866Y-99618893D01*
X126306569Y-99508835D01*
X126545696Y-99349056D01*
X126726680Y-99168072D01*
X127507127Y-99168072D01*
X127288271Y-99386928D01*
X127215000Y-99386928D01*
X127090518Y-99399188D01*
X126970820Y-99435498D01*
X126860506Y-99494463D01*
X126763815Y-99573815D01*
X126684463Y-99670506D01*
X126625498Y-99780820D01*
X126589188Y-99900518D01*
X126576928Y-100025000D01*
X126576928Y-100825000D01*
X126589188Y-100949482D01*
X126622713Y-101060000D01*
X126589188Y-101170518D01*
X126576928Y-101295000D01*
X126580000Y-101409250D01*
X126738750Y-101568000D01*
X127488000Y-101568000D01*
X127488000Y-101548000D01*
X127742000Y-101548000D01*
X127742000Y-101568000D01*
X128758000Y-101568000D01*
X128758000Y-101548000D01*
X129012000Y-101548000D01*
X129012000Y-101568000D01*
X129032000Y-101568000D01*
X129032000Y-101743199D01*
X128933199Y-101842000D01*
X128758000Y-101842000D01*
X128758000Y-101822000D01*
X127742000Y-101822000D01*
X127742000Y-101842000D01*
X127488000Y-101842000D01*
X127488000Y-101822000D01*
X126738750Y-101822000D01*
X126580000Y-101980750D01*
X126576928Y-102095000D01*
X126587762Y-102205000D01*
X125988711Y-102205000D01*
X125944774Y-102161063D01*
X125775256Y-102047795D01*
X125586898Y-101969774D01*
X125386939Y-101930000D01*
X125183061Y-101930000D01*
X124983102Y-101969774D01*
X124794744Y-102047795D01*
X124625226Y-102161063D01*
X124481063Y-102305226D01*
X124367795Y-102474744D01*
X124289774Y-102663102D01*
X124250000Y-102863061D01*
X124250000Y-103066939D01*
X124289774Y-103266898D01*
X124367795Y-103455256D01*
X124481063Y-103624774D01*
X124625226Y-103768937D01*
X124794744Y-103882205D01*
X124983102Y-103960226D01*
X125183061Y-104000000D01*
X125386939Y-104000000D01*
X125586898Y-103960226D01*
X125775256Y-103882205D01*
X125944774Y-103768937D01*
X125988711Y-103725000D01*
X126587762Y-103725000D01*
X126576928Y-103835000D01*
X126580000Y-103949250D01*
X126738750Y-104108000D01*
X127488000Y-104108000D01*
X127488000Y-104088000D01*
X127742000Y-104088000D01*
X127742000Y-104108000D01*
X128758000Y-104108000D01*
X128758000Y-104088000D01*
X129012000Y-104088000D01*
X129012000Y-104108000D01*
X129032000Y-104108000D01*
X129032000Y-104283199D01*
X128933199Y-104382000D01*
X128758000Y-104382000D01*
X128758000Y-104362000D01*
X127742000Y-104362000D01*
X127742000Y-105378000D01*
X127762000Y-105378000D01*
X127762000Y-105632000D01*
X127742000Y-105632000D01*
X127742000Y-105652000D01*
X127488000Y-105652000D01*
X127488000Y-105632000D01*
X126738750Y-105632000D01*
X126580000Y-105790750D01*
X126577331Y-105890000D01*
X120463454Y-105890000D01*
X120415256Y-105857795D01*
X120226898Y-105779774D01*
X120026939Y-105740000D01*
X119823061Y-105740000D01*
X119623102Y-105779774D01*
X119434744Y-105857795D01*
X119265226Y-105971063D01*
X119121063Y-106115226D01*
X119007795Y-106284744D01*
X118929774Y-106473102D01*
X118890000Y-106673061D01*
X118890000Y-106876939D01*
X118929774Y-107076898D01*
X119007795Y-107265256D01*
X119121063Y-107434774D01*
X119265226Y-107578937D01*
X119434744Y-107692205D01*
X119623102Y-107770226D01*
X119823061Y-107810000D01*
X120026939Y-107810000D01*
X120226898Y-107770226D01*
X120415256Y-107692205D01*
X120463454Y-107660000D01*
X124998670Y-107660000D01*
X124923431Y-107691165D01*
X124684304Y-107850944D01*
X124503320Y-108031928D01*
X121815000Y-108031928D01*
X121690518Y-108044188D01*
X121570820Y-108080498D01*
X121460506Y-108139463D01*
X121363815Y-108218815D01*
X121284463Y-108315506D01*
X121225498Y-108425820D01*
X121189188Y-108545518D01*
X121176928Y-108670000D01*
X121176928Y-109870000D01*
X121189188Y-109994482D01*
X121225498Y-110114180D01*
X121284463Y-110224494D01*
X121363815Y-110321185D01*
X121460506Y-110400537D01*
X121570820Y-110459502D01*
X121690518Y-110495812D01*
X121815000Y-110508072D01*
X124515000Y-110508072D01*
X124639482Y-110495812D01*
X124759180Y-110459502D01*
X124869494Y-110400537D01*
X124966185Y-110321185D01*
X124981277Y-110302796D01*
X125189134Y-110388893D01*
X125471203Y-110445000D01*
X125758797Y-110445000D01*
X126040866Y-110388893D01*
X126248723Y-110302796D01*
X126263815Y-110321185D01*
X126360506Y-110400537D01*
X126470820Y-110459502D01*
X126590518Y-110495812D01*
X126715000Y-110508072D01*
X129415000Y-110508072D01*
X129539482Y-110495812D01*
X129659180Y-110459502D01*
X129769494Y-110400537D01*
X129866185Y-110321185D01*
X129945537Y-110224494D01*
X130004502Y-110114180D01*
X130040812Y-109994482D01*
X130053072Y-109870000D01*
X130053072Y-108670000D01*
X130040812Y-108545518D01*
X130004502Y-108425820D01*
X129945537Y-108315506D01*
X129866185Y-108218815D01*
X129769494Y-108139463D01*
X129659180Y-108080498D01*
X129539482Y-108044188D01*
X129415000Y-108031928D01*
X126726680Y-108031928D01*
X126545696Y-107850944D01*
X126306569Y-107691165D01*
X126231330Y-107660000D01*
X126805019Y-107660000D01*
X126860506Y-107705537D01*
X126970820Y-107764502D01*
X127090518Y-107800812D01*
X127215000Y-107813072D01*
X128015000Y-107813072D01*
X128139482Y-107800812D01*
X128250000Y-107767287D01*
X128360518Y-107800812D01*
X128485000Y-107813072D01*
X129285000Y-107813072D01*
X129409482Y-107800812D01*
X129529180Y-107764502D01*
X129639494Y-107705537D01*
X129694981Y-107660000D01*
X160758422Y-107660000D01*
X173243460Y-120145039D01*
X173243465Y-120145045D01*
X174813469Y-121715050D01*
X174841180Y-121748816D01*
X174841182Y-121748818D01*
X174874950Y-121776531D01*
X174874952Y-121776533D01*
X174946451Y-121835211D01*
X174975940Y-121859412D01*
X175129686Y-121941590D01*
X175296509Y-121992196D01*
X175469999Y-122009283D01*
X175513475Y-122005001D01*
X183696532Y-122005001D01*
X183740001Y-122009282D01*
X183783470Y-122005001D01*
X183783478Y-122005001D01*
X183913491Y-121992196D01*
X184080314Y-121941590D01*
X184234060Y-121859412D01*
X184368818Y-121748818D01*
X184396535Y-121715045D01*
X185870049Y-120241532D01*
X185903817Y-120213819D01*
X186014411Y-120079061D01*
X186096589Y-119925315D01*
X186147195Y-119758492D01*
X186160000Y-119628479D01*
X186160000Y-119628469D01*
X186164281Y-119585003D01*
X186160000Y-119541537D01*
X186160000Y-117486330D01*
X186191165Y-117561569D01*
X186350944Y-117800696D01*
X186531928Y-117981680D01*
X186531928Y-120670000D01*
X186544188Y-120794482D01*
X186580498Y-120914180D01*
X186639463Y-121024494D01*
X186718815Y-121121185D01*
X186815506Y-121200537D01*
X186925820Y-121259502D01*
X187045518Y-121295812D01*
X187170000Y-121308072D01*
X188370000Y-121308072D01*
X188494482Y-121295812D01*
X188614180Y-121259502D01*
X188724494Y-121200537D01*
X188821185Y-121121185D01*
X188900537Y-121024494D01*
X188959502Y-120914180D01*
X188995812Y-120794482D01*
X189008072Y-120670000D01*
X189008072Y-117970000D01*
X188995812Y-117845518D01*
X188959502Y-117725820D01*
X188900537Y-117615506D01*
X188821185Y-117518815D01*
X188802796Y-117503723D01*
X188888893Y-117295866D01*
X188945000Y-117013797D01*
X188945000Y-116726203D01*
X188888893Y-116444134D01*
X188802796Y-116236277D01*
X188821185Y-116221185D01*
X188900537Y-116124494D01*
X188959502Y-116014180D01*
X188995812Y-115894482D01*
X189008072Y-115770000D01*
X189008072Y-115699270D01*
X189109744Y-115767205D01*
X189298102Y-115845226D01*
X189498061Y-115885000D01*
X189701939Y-115885000D01*
X189901898Y-115845226D01*
X190090256Y-115767205D01*
X190259774Y-115653937D01*
X190403937Y-115509774D01*
X190517205Y-115340256D01*
X190595226Y-115151898D01*
X190619160Y-115031575D01*
X190801898Y-114995226D01*
X190990256Y-114917205D01*
X191159774Y-114803937D01*
X191303937Y-114659774D01*
X191417205Y-114490256D01*
X191495226Y-114301898D01*
X191535000Y-114101939D01*
X191535000Y-113898061D01*
X191495226Y-113698102D01*
X191417205Y-113509744D01*
X191303937Y-113340226D01*
X191159774Y-113196063D01*
X190990256Y-113082795D01*
X190801898Y-113004774D01*
X190601939Y-112965000D01*
X190561214Y-112965000D01*
X189380201Y-111783988D01*
X189356403Y-111754990D01*
X189327403Y-111731190D01*
X189240678Y-111660016D01*
X189108648Y-111589444D01*
X189008844Y-111559170D01*
X188965388Y-111545988D01*
X188853735Y-111534991D01*
X188816402Y-111531314D01*
X188779070Y-111534991D01*
X182157333Y-111534989D01*
X182120010Y-111531313D01*
X182082687Y-111534989D01*
X182082679Y-111534989D01*
X181971026Y-111545986D01*
X181827765Y-111589443D01*
X181712787Y-111650901D01*
X181695734Y-111660016D01*
X181609007Y-111731190D01*
X181608998Y-111731199D01*
X181580011Y-111754988D01*
X181556221Y-111783976D01*
X180953997Y-112386202D01*
X180925000Y-112409999D01*
X180901202Y-112438997D01*
X180901201Y-112438998D01*
X180830026Y-112525724D01*
X180792455Y-112596014D01*
X180792312Y-112596281D01*
X180719482Y-112574188D01*
X180595000Y-112561928D01*
X180480750Y-112565000D01*
X180322000Y-112723750D01*
X180322000Y-113473000D01*
X180342000Y-113473000D01*
X180342000Y-113727000D01*
X180322000Y-113727000D01*
X180322000Y-114743000D01*
X180342000Y-114743000D01*
X180342000Y-114997000D01*
X180322000Y-114997000D01*
X180322000Y-115746250D01*
X180459666Y-115883916D01*
X180430000Y-116033061D01*
X180430000Y-116236939D01*
X180469774Y-116436898D01*
X180547795Y-116625256D01*
X180661063Y-116794774D01*
X180805226Y-116938937D01*
X180974744Y-117052205D01*
X181163102Y-117130226D01*
X181363061Y-117170000D01*
X181566939Y-117170000D01*
X181766898Y-117130226D01*
X181955256Y-117052205D01*
X182124774Y-116938937D01*
X182268937Y-116794774D01*
X182382205Y-116625256D01*
X182460226Y-116436898D01*
X182500000Y-116236939D01*
X182500000Y-116033061D01*
X182470334Y-115883916D01*
X182608000Y-115746250D01*
X182608000Y-114997000D01*
X182862000Y-114997000D01*
X182862000Y-115746250D01*
X183020750Y-115905000D01*
X183135000Y-115908072D01*
X183259482Y-115895812D01*
X183370000Y-115862287D01*
X183480518Y-115895812D01*
X183605000Y-115908072D01*
X183719250Y-115905000D01*
X183878000Y-115746250D01*
X183878000Y-114997000D01*
X182862000Y-114997000D01*
X182608000Y-114997000D01*
X182588000Y-114997000D01*
X182588000Y-114743000D01*
X182608000Y-114743000D01*
X182608000Y-113727000D01*
X182588000Y-113727000D01*
X182588000Y-113473000D01*
X182608000Y-113473000D01*
X182608000Y-113453000D01*
X182862000Y-113453000D01*
X182862000Y-113473000D01*
X182882000Y-113473000D01*
X182882000Y-113727000D01*
X182862000Y-113727000D01*
X182862000Y-114743000D01*
X183878000Y-114743000D01*
X183878000Y-114723000D01*
X184132000Y-114723000D01*
X184132000Y-114743000D01*
X184152000Y-114743000D01*
X184152000Y-114997000D01*
X184132000Y-114997000D01*
X184132000Y-115746250D01*
X184290750Y-115905000D01*
X184390000Y-115907669D01*
X184390001Y-119218422D01*
X183373423Y-120235001D01*
X177668072Y-120235001D01*
X177668072Y-117981680D01*
X177849056Y-117800696D01*
X178008835Y-117561569D01*
X178118893Y-117295866D01*
X178175000Y-117013797D01*
X178175000Y-116726203D01*
X178118893Y-116444134D01*
X178008835Y-116178431D01*
X177849056Y-115939304D01*
X177668072Y-115758320D01*
X177668072Y-115337874D01*
X177711200Y-115381002D01*
X177734999Y-115410001D01*
X177763997Y-115433799D01*
X177850723Y-115504974D01*
X177945336Y-115555546D01*
X177962518Y-115564730D01*
X177994463Y-115624494D01*
X178073815Y-115721185D01*
X178170506Y-115800537D01*
X178280820Y-115859502D01*
X178400518Y-115895812D01*
X178525000Y-115908072D01*
X179325000Y-115908072D01*
X179449482Y-115895812D01*
X179560000Y-115862287D01*
X179670518Y-115895812D01*
X179795000Y-115908072D01*
X179909250Y-115905000D01*
X180068000Y-115746250D01*
X180068000Y-114997000D01*
X180048000Y-114997000D01*
X180048000Y-114743000D01*
X180068000Y-114743000D01*
X180068000Y-113727000D01*
X180048000Y-113727000D01*
X180048000Y-113473000D01*
X180068000Y-113473000D01*
X180068000Y-112723750D01*
X179909250Y-112565000D01*
X179795000Y-112561928D01*
X179670518Y-112574188D01*
X179560000Y-112607713D01*
X179449482Y-112574188D01*
X179325000Y-112561928D01*
X178818142Y-112561928D01*
X168354275Y-102098061D01*
X174665000Y-102098061D01*
X174665000Y-102301939D01*
X174704774Y-102501898D01*
X174782795Y-102690256D01*
X174896063Y-102859774D01*
X175040226Y-103003937D01*
X175209744Y-103117205D01*
X175398102Y-103195226D01*
X175598061Y-103235000D01*
X175801939Y-103235000D01*
X176001898Y-103195226D01*
X176190256Y-103117205D01*
X176359774Y-103003937D01*
X176503937Y-102859774D01*
X176617205Y-102690256D01*
X176695226Y-102501898D01*
X176735000Y-102301939D01*
X176735000Y-102098061D01*
X176695226Y-101898102D01*
X176617205Y-101709744D01*
X176503937Y-101540226D01*
X176359774Y-101396063D01*
X176190256Y-101282795D01*
X176001898Y-101204774D01*
X175801939Y-101165000D01*
X175598061Y-101165000D01*
X175398102Y-101204774D01*
X175209744Y-101282795D01*
X175040226Y-101396063D01*
X174896063Y-101540226D01*
X174782795Y-101709744D01*
X174704774Y-101898102D01*
X174665000Y-102098061D01*
X168354275Y-102098061D01*
X162202368Y-95946154D01*
X197365000Y-95946154D01*
X197365000Y-96553846D01*
X197483555Y-97149861D01*
X197716108Y-97711295D01*
X198053724Y-98216573D01*
X198483427Y-98646276D01*
X198988705Y-98983892D01*
X199550139Y-99216445D01*
X200146154Y-99335000D01*
X200753846Y-99335000D01*
X201349861Y-99216445D01*
X201911295Y-98983892D01*
X202416573Y-98646276D01*
X202846276Y-98216573D01*
X203183892Y-97711295D01*
X203416445Y-97149861D01*
X203535000Y-96553846D01*
X203535000Y-95946154D01*
X203416445Y-95350139D01*
X203183892Y-94788705D01*
X202846276Y-94283427D01*
X202416573Y-93853724D01*
X201911295Y-93516108D01*
X201349861Y-93283555D01*
X200753846Y-93165000D01*
X200146154Y-93165000D01*
X199550139Y-93283555D01*
X198988705Y-93516108D01*
X198483427Y-93853724D01*
X198053724Y-94283427D01*
X197716108Y-94788705D01*
X197483555Y-95350139D01*
X197365000Y-95946154D01*
X162202368Y-95946154D01*
X149857492Y-83601278D01*
X156690000Y-83601278D01*
X156690000Y-83898722D01*
X156748029Y-84190451D01*
X156861856Y-84465253D01*
X157027107Y-84712569D01*
X157237431Y-84922893D01*
X157484747Y-85088144D01*
X157759549Y-85201971D01*
X158051278Y-85260000D01*
X158348722Y-85260000D01*
X158640451Y-85201971D01*
X158915253Y-85088144D01*
X159162569Y-84922893D01*
X159372893Y-84712569D01*
X159538144Y-84465253D01*
X159651971Y-84190451D01*
X159710000Y-83898722D01*
X159710000Y-83601278D01*
X159651971Y-83309549D01*
X159538144Y-83034747D01*
X159372893Y-82787431D01*
X159162569Y-82577107D01*
X158915253Y-82411856D01*
X158640451Y-82298029D01*
X158348722Y-82240000D01*
X158051278Y-82240000D01*
X157759549Y-82298029D01*
X157484747Y-82411856D01*
X157237431Y-82577107D01*
X157027107Y-82787431D01*
X156861856Y-83034747D01*
X156748029Y-83309549D01*
X156690000Y-83601278D01*
X149857492Y-83601278D01*
X146357492Y-80101278D01*
X156690000Y-80101278D01*
X156690000Y-80398722D01*
X156748029Y-80690451D01*
X156861856Y-80965253D01*
X157027107Y-81212569D01*
X157237431Y-81422893D01*
X157484747Y-81588144D01*
X157759549Y-81701971D01*
X158051278Y-81760000D01*
X158348722Y-81760000D01*
X158640451Y-81701971D01*
X158765917Y-81650001D01*
X160760718Y-81650001D01*
X160764999Y-81693470D01*
X160765000Y-90231520D01*
X160760718Y-90274999D01*
X160777804Y-90448489D01*
X160828411Y-90615312D01*
X160910589Y-90769058D01*
X160993467Y-90870045D01*
X160993470Y-90870048D01*
X161021183Y-90903816D01*
X161054950Y-90931528D01*
X162000000Y-91876579D01*
X162000000Y-91888265D01*
X162044194Y-92110443D01*
X162130884Y-92319729D01*
X162256737Y-92508082D01*
X162298655Y-92550000D01*
X162256737Y-92591918D01*
X162130884Y-92780271D01*
X162044194Y-92989557D01*
X162000000Y-93211735D01*
X162000000Y-93438265D01*
X162044194Y-93660443D01*
X162130884Y-93869729D01*
X162256737Y-94058082D01*
X162416918Y-94218263D01*
X162605271Y-94344116D01*
X162814557Y-94430806D01*
X163036735Y-94475000D01*
X163263265Y-94475000D01*
X163485443Y-94430806D01*
X163694729Y-94344116D01*
X163883082Y-94218263D01*
X164043263Y-94058082D01*
X164169116Y-93869729D01*
X164255806Y-93660443D01*
X164300000Y-93438265D01*
X164300000Y-93426579D01*
X164710051Y-93016528D01*
X164743818Y-92988816D01*
X164854412Y-92854058D01*
X164866768Y-92830941D01*
X164936590Y-92700313D01*
X164987196Y-92533489D01*
X164989698Y-92508082D01*
X165000001Y-92403476D01*
X165000001Y-92403468D01*
X165004282Y-92359999D01*
X165000001Y-92316530D01*
X165000001Y-84958470D01*
X165004282Y-84915001D01*
X165000001Y-84871532D01*
X165000001Y-84871524D01*
X164987196Y-84741511D01*
X164968214Y-84678937D01*
X164936590Y-84574687D01*
X164854412Y-84420942D01*
X164771533Y-84319954D01*
X164771531Y-84319952D01*
X164743818Y-84286184D01*
X164710050Y-84258471D01*
X164513061Y-84061482D01*
X164535000Y-83951184D01*
X164535000Y-83648816D01*
X164476011Y-83352257D01*
X164360299Y-83072905D01*
X164192312Y-82821495D01*
X163978505Y-82607688D01*
X163727095Y-82439701D01*
X163447743Y-82323989D01*
X163151184Y-82265000D01*
X162848816Y-82265000D01*
X162552257Y-82323989D01*
X162534999Y-82331138D01*
X162534999Y-82016579D01*
X162738518Y-81813060D01*
X162848816Y-81835000D01*
X163151184Y-81835000D01*
X163447743Y-81776011D01*
X163727095Y-81660299D01*
X163978505Y-81492312D01*
X164192312Y-81278505D01*
X164360299Y-81027095D01*
X164476011Y-80747743D01*
X164535000Y-80451184D01*
X164535000Y-80148816D01*
X164476011Y-79852257D01*
X164360299Y-79572905D01*
X164192312Y-79321495D01*
X163978505Y-79107688D01*
X163727095Y-78939701D01*
X163447743Y-78823989D01*
X163151184Y-78765000D01*
X162848816Y-78765000D01*
X162552257Y-78823989D01*
X162272905Y-78939701D01*
X162021495Y-79107688D01*
X161807688Y-79321495D01*
X161639701Y-79572905D01*
X161523989Y-79852257D01*
X161465000Y-80148816D01*
X161465000Y-80451184D01*
X161486940Y-80561482D01*
X161054955Y-80993467D01*
X161021182Y-81021184D01*
X160910588Y-81155943D01*
X160828410Y-81309689D01*
X160777804Y-81476512D01*
X160764999Y-81606525D01*
X160764999Y-81606532D01*
X160760718Y-81650001D01*
X158765917Y-81650001D01*
X158915253Y-81588144D01*
X159162569Y-81422893D01*
X159372893Y-81212569D01*
X159538144Y-80965253D01*
X159651971Y-80690451D01*
X159710000Y-80398722D01*
X159710000Y-80101278D01*
X159651971Y-79809549D01*
X159538144Y-79534747D01*
X159372893Y-79287431D01*
X159162569Y-79077107D01*
X158915253Y-78911856D01*
X158640451Y-78798029D01*
X158348722Y-78740000D01*
X158051278Y-78740000D01*
X157759549Y-78798029D01*
X157484747Y-78911856D01*
X157237431Y-79077107D01*
X157027107Y-79287431D01*
X156861856Y-79534747D01*
X156748029Y-79809549D01*
X156690000Y-80101278D01*
X146357492Y-80101278D01*
X141541213Y-75285000D01*
X172987678Y-75285000D01*
X173025000Y-75288676D01*
X173062322Y-75285000D01*
X173062333Y-75285000D01*
X173173986Y-75274003D01*
X173317247Y-75230546D01*
X173449276Y-75159974D01*
X173565001Y-75065001D01*
X173588804Y-75035997D01*
X183564801Y-65060001D01*
X191100015Y-65060001D01*
X191054463Y-65115506D01*
X190995498Y-65225820D01*
X190959188Y-65345518D01*
X190946928Y-65470000D01*
X190946928Y-66670000D01*
X190959188Y-66794482D01*
X190995498Y-66914180D01*
X191054463Y-67024494D01*
X191133815Y-67121185D01*
X191230506Y-67200537D01*
X191340820Y-67259502D01*
X191460518Y-67295812D01*
X191585000Y-67308072D01*
X194285000Y-67308072D01*
X194409482Y-67295812D01*
X194529180Y-67259502D01*
X194639494Y-67200537D01*
X194736185Y-67121185D01*
X194751277Y-67102796D01*
X194959134Y-67188893D01*
X195241203Y-67245000D01*
X195528797Y-67245000D01*
X195810866Y-67188893D01*
X196018723Y-67102796D01*
X196033815Y-67121185D01*
X196130506Y-67200537D01*
X196240820Y-67259502D01*
X196360518Y-67295812D01*
X196485000Y-67308072D01*
X199185000Y-67308072D01*
X199309482Y-67295812D01*
X199429180Y-67259502D01*
X199539494Y-67200537D01*
X199636185Y-67121185D01*
X199715537Y-67024494D01*
X199774502Y-66914180D01*
X199810812Y-66794482D01*
X199823072Y-66670000D01*
X199823072Y-65470000D01*
X199810812Y-65345518D01*
X199774502Y-65225820D01*
X199715537Y-65115506D01*
X199636185Y-65018815D01*
X199539494Y-64939463D01*
X199429180Y-64880498D01*
X199309482Y-64844188D01*
X199185000Y-64831928D01*
X196496680Y-64831928D01*
X196315696Y-64650944D01*
X196076569Y-64491165D01*
X195810866Y-64381107D01*
X195528797Y-64325000D01*
X195241203Y-64325000D01*
X194959134Y-64381107D01*
X194693431Y-64491165D01*
X194454304Y-64650944D01*
X194273320Y-64831928D01*
X193206626Y-64831928D01*
X193223802Y-64810999D01*
X193421729Y-64613072D01*
X193785000Y-64613072D01*
X193909482Y-64600812D01*
X194029180Y-64564502D01*
X194139494Y-64505537D01*
X194236185Y-64426185D01*
X194315537Y-64329494D01*
X194374502Y-64219180D01*
X194410812Y-64099482D01*
X194423072Y-63975000D01*
X194423072Y-63175000D01*
X194410812Y-63050518D01*
X194377287Y-62940000D01*
X194410812Y-62829482D01*
X194423072Y-62705000D01*
X194420000Y-62590750D01*
X194261250Y-62432000D01*
X193512000Y-62432000D01*
X193512000Y-62452000D01*
X193258000Y-62452000D01*
X193258000Y-62432000D01*
X192242000Y-62432000D01*
X192242000Y-62452000D01*
X191988000Y-62452000D01*
X191988000Y-62432000D01*
X191238750Y-62432000D01*
X191080000Y-62590750D01*
X191076928Y-62705000D01*
X191087762Y-62815000D01*
X183375915Y-62815000D01*
X183338590Y-62811324D01*
X183301265Y-62815000D01*
X183301257Y-62815000D01*
X183189604Y-62825997D01*
X183046343Y-62869454D01*
X182914314Y-62940026D01*
X182798589Y-63034999D01*
X182774791Y-63063997D01*
X172723789Y-73115000D01*
X141069213Y-73115000D01*
X148136017Y-66048197D01*
X148165010Y-66024403D01*
X148188804Y-65995410D01*
X148188809Y-65995405D01*
X148259984Y-65908678D01*
X148330556Y-65776649D01*
X148374013Y-65633388D01*
X148388686Y-65484402D01*
X148385009Y-65447067D01*
X148385009Y-62298061D01*
X150665000Y-62298061D01*
X150665000Y-62501939D01*
X150704774Y-62701898D01*
X150782795Y-62890256D01*
X150896063Y-63059774D01*
X151040226Y-63203937D01*
X151209744Y-63317205D01*
X151398102Y-63395226D01*
X151598061Y-63435000D01*
X151801939Y-63435000D01*
X152001898Y-63395226D01*
X152190256Y-63317205D01*
X152238454Y-63285000D01*
X174461546Y-63285000D01*
X174509744Y-63317205D01*
X174698102Y-63395226D01*
X174898061Y-63435000D01*
X175101939Y-63435000D01*
X175301898Y-63395226D01*
X175490256Y-63317205D01*
X175659774Y-63203937D01*
X175803937Y-63059774D01*
X175917205Y-62890256D01*
X175995226Y-62701898D01*
X176035000Y-62501939D01*
X176035000Y-62298061D01*
X175995226Y-62098102D01*
X175917205Y-61909744D01*
X175803937Y-61740226D01*
X175659774Y-61596063D01*
X175490256Y-61482795D01*
X175301898Y-61404774D01*
X175101939Y-61365000D01*
X174898061Y-61365000D01*
X174698102Y-61404774D01*
X174509744Y-61482795D01*
X174461546Y-61515000D01*
X152238454Y-61515000D01*
X152190256Y-61482795D01*
X152001898Y-61404774D01*
X151801939Y-61365000D01*
X151598061Y-61365000D01*
X151398102Y-61404774D01*
X151209744Y-61482795D01*
X151040226Y-61596063D01*
X150896063Y-61740226D01*
X150782795Y-61909744D01*
X150704774Y-62098102D01*
X150665000Y-62298061D01*
X148385009Y-62298061D01*
X148385011Y-55335923D01*
X148388687Y-55298600D01*
X148385011Y-55261277D01*
X148385011Y-55261269D01*
X148374014Y-55149616D01*
X148330557Y-55006355D01*
X148259985Y-54874326D01*
X148259984Y-54874324D01*
X148188810Y-54787597D01*
X148188801Y-54787588D01*
X148165012Y-54758601D01*
X148136025Y-54734812D01*
X144954283Y-51553072D01*
X145170000Y-51553072D01*
X145294482Y-51540812D01*
X145414180Y-51504502D01*
X145524494Y-51445537D01*
X145621185Y-51366185D01*
X145700537Y-51269494D01*
X145759502Y-51159180D01*
X145795812Y-51039482D01*
X145808072Y-50915000D01*
X145808072Y-48215000D01*
X145795812Y-48090518D01*
X145759502Y-47970820D01*
X145700537Y-47860506D01*
X145621185Y-47763815D01*
X145602796Y-47748723D01*
X145688893Y-47540866D01*
X145745000Y-47258797D01*
X145745000Y-46971203D01*
X145688893Y-46689134D01*
X145602796Y-46481277D01*
X145621185Y-46466185D01*
X145700537Y-46369494D01*
X145759502Y-46259180D01*
X145795812Y-46139482D01*
X145808072Y-46015000D01*
X145808072Y-44394649D01*
X146658472Y-45245049D01*
X146686185Y-45278817D01*
X146719953Y-45306530D01*
X146719955Y-45306532D01*
X146820943Y-45389411D01*
X146974688Y-45471589D01*
X147141512Y-45522195D01*
X147271525Y-45535000D01*
X147271533Y-45535000D01*
X147315002Y-45539281D01*
X147358471Y-45535000D01*
X179173422Y-45535000D01*
X181035714Y-47397293D01*
X180998102Y-47404774D01*
X180809744Y-47482795D01*
X180640226Y-47596063D01*
X180496063Y-47740226D01*
X180382795Y-47909744D01*
X180304774Y-48098102D01*
X180291191Y-48166390D01*
X179810000Y-47685199D01*
X179810000Y-47623061D01*
X179770226Y-47423102D01*
X179692205Y-47234744D01*
X179578937Y-47065226D01*
X179434774Y-46921063D01*
X179265256Y-46807795D01*
X179076898Y-46729774D01*
X178876939Y-46690000D01*
X178673061Y-46690000D01*
X178473102Y-46729774D01*
X178284744Y-46807795D01*
X178115226Y-46921063D01*
X177971063Y-47065226D01*
X177857795Y-47234744D01*
X177779774Y-47423102D01*
X177740000Y-47623061D01*
X177740000Y-47826939D01*
X177779774Y-48026898D01*
X177857795Y-48215256D01*
X177971063Y-48384774D01*
X178115226Y-48528937D01*
X178284744Y-48642205D01*
X178473102Y-48720226D01*
X178673061Y-48760000D01*
X178735199Y-48760000D01*
X191076928Y-61101730D01*
X191076928Y-61435000D01*
X191089188Y-61559482D01*
X191122713Y-61670000D01*
X191089188Y-61780518D01*
X191076928Y-61905000D01*
X191080000Y-62019250D01*
X191238750Y-62178000D01*
X191988000Y-62178000D01*
X191988000Y-62158000D01*
X192242000Y-62158000D01*
X192242000Y-62178000D01*
X193258000Y-62178000D01*
X193258000Y-62158000D01*
X193512000Y-62158000D01*
X193512000Y-62178000D01*
X194261250Y-62178000D01*
X194420000Y-62019250D01*
X194423072Y-61905000D01*
X194412238Y-61795000D01*
X197027678Y-61795000D01*
X197065000Y-61798676D01*
X197102322Y-61795000D01*
X197102333Y-61795000D01*
X197213986Y-61784003D01*
X197357247Y-61740546D01*
X197489276Y-61669974D01*
X197605001Y-61575001D01*
X197628804Y-61545997D01*
X201661008Y-57513795D01*
X201690001Y-57490001D01*
X201713795Y-57461008D01*
X201713799Y-57461004D01*
X201784973Y-57374277D01*
X201784974Y-57374276D01*
X201855546Y-57242247D01*
X201899003Y-57098986D01*
X201910000Y-56987333D01*
X201910000Y-56987324D01*
X201913676Y-56950001D01*
X201910000Y-56912678D01*
X201910000Y-55703711D01*
X201953937Y-55659774D01*
X202067205Y-55490256D01*
X202145226Y-55301898D01*
X202185000Y-55101939D01*
X202185000Y-54898061D01*
X202145226Y-54698102D01*
X202067205Y-54509744D01*
X201953937Y-54340226D01*
X201809774Y-54196063D01*
X201640256Y-54082795D01*
X201451898Y-54004774D01*
X201251939Y-53965000D01*
X201048061Y-53965000D01*
X200848102Y-54004774D01*
X200659744Y-54082795D01*
X200490226Y-54196063D01*
X200346063Y-54340226D01*
X200232795Y-54509744D01*
X200154774Y-54698102D01*
X200115000Y-54898061D01*
X200115000Y-55101939D01*
X200154774Y-55301898D01*
X200232795Y-55490256D01*
X200346063Y-55659774D01*
X200390000Y-55703711D01*
X200390001Y-56635196D01*
X196750199Y-60275000D01*
X194412238Y-60275000D01*
X194423072Y-60165000D01*
X194420000Y-60050750D01*
X194261250Y-59892000D01*
X193512000Y-59892000D01*
X193512000Y-59912000D01*
X193258000Y-59912000D01*
X193258000Y-59892000D01*
X192242000Y-59892000D01*
X192242000Y-59912000D01*
X192036802Y-59912000D01*
X191968000Y-59843198D01*
X191968000Y-59638000D01*
X191988000Y-59638000D01*
X191988000Y-59618000D01*
X192242000Y-59618000D01*
X192242000Y-59638000D01*
X193258000Y-59638000D01*
X193258000Y-58622000D01*
X193512000Y-58622000D01*
X193512000Y-59638000D01*
X194261250Y-59638000D01*
X194420000Y-59479250D01*
X194423072Y-59365000D01*
X194410812Y-59240518D01*
X194377287Y-59130000D01*
X194410812Y-59019482D01*
X194423072Y-58895000D01*
X194420000Y-58780750D01*
X194261250Y-58622000D01*
X193512000Y-58622000D01*
X193258000Y-58622000D01*
X193238000Y-58622000D01*
X193238000Y-58368000D01*
X193258000Y-58368000D01*
X193258000Y-58348000D01*
X193512000Y-58348000D01*
X193512000Y-58368000D01*
X194261250Y-58368000D01*
X194420000Y-58209250D01*
X194423072Y-58095000D01*
X194410812Y-57970518D01*
X194377287Y-57860000D01*
X194410812Y-57749482D01*
X194423072Y-57625000D01*
X194423072Y-56825000D01*
X194410812Y-56700518D01*
X194374502Y-56580820D01*
X194315537Y-56470506D01*
X194236185Y-56373815D01*
X194139494Y-56294463D01*
X194029180Y-56235498D01*
X193909482Y-56199188D01*
X193785000Y-56186928D01*
X192985000Y-56186928D01*
X192860518Y-56199188D01*
X192750000Y-56232713D01*
X192639482Y-56199188D01*
X192515000Y-56186928D01*
X192328507Y-56186928D01*
X192109651Y-55968072D01*
X194273320Y-55968072D01*
X194454304Y-56149056D01*
X194693431Y-56308835D01*
X194959134Y-56418893D01*
X195241203Y-56475000D01*
X195528797Y-56475000D01*
X195810866Y-56418893D01*
X196076569Y-56308835D01*
X196315696Y-56149056D01*
X196496680Y-55968072D01*
X199185000Y-55968072D01*
X199309482Y-55955812D01*
X199429180Y-55919502D01*
X199539494Y-55860537D01*
X199636185Y-55781185D01*
X199715537Y-55684494D01*
X199774502Y-55574180D01*
X199810812Y-55454482D01*
X199823072Y-55330000D01*
X199823072Y-54130000D01*
X199810812Y-54005518D01*
X199774502Y-53885820D01*
X199715537Y-53775506D01*
X199636185Y-53678815D01*
X199539494Y-53599463D01*
X199429180Y-53540498D01*
X199309482Y-53504188D01*
X199185000Y-53491928D01*
X196485000Y-53491928D01*
X196360518Y-53504188D01*
X196240820Y-53540498D01*
X196130506Y-53599463D01*
X196033815Y-53678815D01*
X196018723Y-53697204D01*
X195810866Y-53611107D01*
X195528797Y-53555000D01*
X195241203Y-53555000D01*
X194959134Y-53611107D01*
X194751277Y-53697204D01*
X194736185Y-53678815D01*
X194639494Y-53599463D01*
X194529180Y-53540498D01*
X194409482Y-53504188D01*
X194285000Y-53491928D01*
X191585000Y-53491928D01*
X191460518Y-53504188D01*
X191340820Y-53540498D01*
X191230506Y-53599463D01*
X191133815Y-53678815D01*
X191054463Y-53775506D01*
X190995498Y-53885820D01*
X190959188Y-54005518D01*
X190946928Y-54130000D01*
X190946928Y-54805349D01*
X180196534Y-44054956D01*
X180168817Y-44021183D01*
X180034059Y-43910589D01*
X179880313Y-43828411D01*
X179713490Y-43777805D01*
X179583477Y-43765000D01*
X179583469Y-43765000D01*
X179540000Y-43760719D01*
X179496531Y-43765000D01*
X162647849Y-43765000D01*
X162896276Y-43516573D01*
X163233892Y-43011295D01*
X163466445Y-42449861D01*
X163585000Y-41853846D01*
X163585000Y-41246154D01*
X163466445Y-40650139D01*
X163233892Y-40088705D01*
X162896276Y-39583427D01*
X162466573Y-39153724D01*
X161961295Y-38816108D01*
X161399861Y-38583555D01*
X160803846Y-38465000D01*
X160196154Y-38465000D01*
X159600139Y-38583555D01*
X159038705Y-38816108D01*
X158533427Y-39153724D01*
X158103724Y-39583427D01*
X157766108Y-40088705D01*
X157533555Y-40650139D01*
X157415000Y-41246154D01*
X157415000Y-41853846D01*
X157533555Y-42449861D01*
X157766108Y-43011295D01*
X158103724Y-43516573D01*
X158352151Y-43765000D01*
X147681581Y-43765000D01*
X145196536Y-41279956D01*
X145168819Y-41246183D01*
X145034061Y-41135589D01*
X144880315Y-41053411D01*
X144713492Y-41002805D01*
X144583479Y-40990000D01*
X144583471Y-40990000D01*
X144540002Y-40985719D01*
X144496533Y-40990000D01*
X136263454Y-40990000D01*
X136215256Y-40957795D01*
X136026898Y-40879774D01*
X135826939Y-40840000D01*
X135623061Y-40840000D01*
X135423102Y-40879774D01*
X135234744Y-40957795D01*
X135065226Y-41071063D01*
X134921063Y-41215226D01*
X134807795Y-41384744D01*
X134729774Y-41573102D01*
X134690000Y-41773061D01*
X134690000Y-41976939D01*
X134729774Y-42176898D01*
X134807795Y-42365256D01*
X134840001Y-42413456D01*
X134840000Y-46498671D01*
X134808835Y-46423431D01*
X134649056Y-46184304D01*
X134468072Y-46003320D01*
X134468072Y-43315000D01*
X134455812Y-43190518D01*
X134419502Y-43070820D01*
X134360537Y-42960506D01*
X134281185Y-42863815D01*
X134184494Y-42784463D01*
X134074180Y-42725498D01*
X133954482Y-42689188D01*
X133830000Y-42676928D01*
X132630000Y-42676928D01*
X132505518Y-42689188D01*
X132385820Y-42725498D01*
X132275506Y-42784463D01*
X132178815Y-42863815D01*
X132099463Y-42960506D01*
X132040498Y-43070820D01*
X132004188Y-43190518D01*
X131991928Y-43315000D01*
X131991928Y-46015000D01*
X132004188Y-46139482D01*
X132040498Y-46259180D01*
X132099463Y-46369494D01*
X132178815Y-46466185D01*
X132197204Y-46481277D01*
X132111107Y-46689134D01*
X132055000Y-46971203D01*
X132055000Y-47258797D01*
X132111107Y-47540866D01*
X132197204Y-47748723D01*
X132178815Y-47763815D01*
X132099463Y-47860506D01*
X132040498Y-47970820D01*
X132004188Y-48090518D01*
X131991928Y-48215000D01*
X131991928Y-50590000D01*
X129503711Y-50590000D01*
X129459774Y-50546063D01*
X129290256Y-50432795D01*
X129101898Y-50354774D01*
X128901939Y-50315000D01*
X128698061Y-50315000D01*
X128498102Y-50354774D01*
X128309744Y-50432795D01*
X128140226Y-50546063D01*
X127996063Y-50690226D01*
X127882795Y-50859744D01*
X127804774Y-51048102D01*
X127765000Y-51248061D01*
X127765000Y-51451939D01*
X127772571Y-51490000D01*
X122753711Y-51490000D01*
X122709774Y-51446063D01*
X122540256Y-51332795D01*
X122351898Y-51254774D01*
X122151939Y-51215000D01*
X121948061Y-51215000D01*
X121748102Y-51254774D01*
X121559744Y-51332795D01*
X121390226Y-51446063D01*
X121246063Y-51590226D01*
X121132795Y-51759744D01*
X121054774Y-51948102D01*
X121015000Y-52148061D01*
X121015000Y-52351939D01*
X121054774Y-52551898D01*
X121132795Y-52740256D01*
X121246063Y-52909774D01*
X121390226Y-53053937D01*
X121559744Y-53167205D01*
X121748102Y-53245226D01*
X121948061Y-53285000D01*
X122151939Y-53285000D01*
X122351898Y-53245226D01*
X122540256Y-53167205D01*
X122709774Y-53053937D01*
X122753711Y-53010000D01*
X138282678Y-53010000D01*
X138320000Y-53013676D01*
X138357322Y-53010000D01*
X138357333Y-53010000D01*
X138468986Y-52999003D01*
X138612247Y-52955546D01*
X138744276Y-52884974D01*
X138860001Y-52790001D01*
X138883803Y-52760998D01*
X140046008Y-51598795D01*
X140075001Y-51575001D01*
X140098795Y-51546008D01*
X140098799Y-51546004D01*
X140169973Y-51459277D01*
X140169974Y-51459276D01*
X140207688Y-51388719D01*
X140280518Y-51410812D01*
X140405000Y-51423072D01*
X140519250Y-51420000D01*
X140678000Y-51261250D01*
X140678000Y-50512000D01*
X140658000Y-50512000D01*
X140658000Y-50258000D01*
X140678000Y-50258000D01*
X140678000Y-49242000D01*
X140658000Y-49242000D01*
X140658000Y-48988000D01*
X140678000Y-48988000D01*
X140678000Y-48238750D01*
X140519250Y-48080000D01*
X140405000Y-48076928D01*
X140295000Y-48087762D01*
X140295000Y-45068711D01*
X140347142Y-45016569D01*
X140460410Y-44847051D01*
X140538431Y-44658693D01*
X140578205Y-44458734D01*
X140578205Y-44254856D01*
X140538431Y-44054897D01*
X140460410Y-43866539D01*
X140347142Y-43697021D01*
X140202979Y-43552858D01*
X140033461Y-43439590D01*
X139845103Y-43361569D01*
X139645144Y-43321795D01*
X139441266Y-43321795D01*
X139241307Y-43361569D01*
X139052949Y-43439590D01*
X138883431Y-43552858D01*
X138739268Y-43697021D01*
X138626000Y-43866539D01*
X138547979Y-44054897D01*
X138508205Y-44254856D01*
X138508205Y-44458734D01*
X138547979Y-44658693D01*
X138626000Y-44847051D01*
X138739268Y-45016569D01*
X138775001Y-45052302D01*
X138775000Y-48087762D01*
X138665000Y-48076928D01*
X138550750Y-48080000D01*
X138392000Y-48238750D01*
X138392000Y-48988000D01*
X138412000Y-48988000D01*
X138412000Y-49242000D01*
X138392000Y-49242000D01*
X138392000Y-50258000D01*
X138412000Y-50258000D01*
X138412000Y-50512000D01*
X138392000Y-50512000D01*
X138392000Y-50532000D01*
X138138000Y-50532000D01*
X138138000Y-50512000D01*
X138118000Y-50512000D01*
X138118000Y-50258000D01*
X138138000Y-50258000D01*
X138138000Y-49242000D01*
X137122000Y-49242000D01*
X137122000Y-49262000D01*
X136868000Y-49262000D01*
X136868000Y-49242000D01*
X136848000Y-49242000D01*
X136848000Y-48988000D01*
X136868000Y-48988000D01*
X136868000Y-48238750D01*
X137122000Y-48238750D01*
X137122000Y-48988000D01*
X138138000Y-48988000D01*
X138138000Y-48238750D01*
X137979250Y-48080000D01*
X137865000Y-48076928D01*
X137740518Y-48089188D01*
X137630000Y-48122713D01*
X137519482Y-48089188D01*
X137395000Y-48076928D01*
X137280750Y-48080000D01*
X137122000Y-48238750D01*
X136868000Y-48238750D01*
X136709250Y-48080000D01*
X136610000Y-48077331D01*
X136610000Y-42760000D01*
X143661272Y-42760000D01*
X143615506Y-42784463D01*
X143518815Y-42863815D01*
X143439463Y-42960506D01*
X143380498Y-43070820D01*
X143344188Y-43190518D01*
X143331928Y-43315000D01*
X143331928Y-46003320D01*
X143150944Y-46184304D01*
X142991165Y-46423431D01*
X142881107Y-46689134D01*
X142825000Y-46971203D01*
X142825000Y-47258797D01*
X142881107Y-47540866D01*
X142991165Y-47806569D01*
X143150944Y-48045696D01*
X143331928Y-48226680D01*
X143331928Y-48515030D01*
X143289276Y-48480026D01*
X143157247Y-48409454D01*
X143013986Y-48365997D01*
X143008166Y-48365424D01*
X143005537Y-48360506D01*
X142926185Y-48263815D01*
X142829494Y-48184463D01*
X142719180Y-48125498D01*
X142599482Y-48089188D01*
X142475000Y-48076928D01*
X141675000Y-48076928D01*
X141550518Y-48089188D01*
X141440000Y-48122713D01*
X141329482Y-48089188D01*
X141205000Y-48076928D01*
X141090750Y-48080000D01*
X140932000Y-48238750D01*
X140932000Y-48988000D01*
X140952000Y-48988000D01*
X140952000Y-49242000D01*
X140932000Y-49242000D01*
X140932000Y-50258000D01*
X140952000Y-50258000D01*
X140952000Y-50512000D01*
X140932000Y-50512000D01*
X140932000Y-51261250D01*
X141090750Y-51420000D01*
X141205000Y-51423072D01*
X141329482Y-51410812D01*
X141440000Y-51377287D01*
X141550518Y-51410812D01*
X141675000Y-51423072D01*
X142038271Y-51423072D01*
X146415001Y-55799803D01*
X146415002Y-63915000D01*
X146348061Y-63915000D01*
X146148102Y-63954774D01*
X145959744Y-64032795D01*
X145790226Y-64146063D01*
X145746289Y-64190000D01*
X144849999Y-64190000D01*
X144849999Y-64123060D01*
X144810225Y-63923101D01*
X144732204Y-63734743D01*
X144618936Y-63565225D01*
X144474773Y-63421062D01*
X144305255Y-63307794D01*
X144116897Y-63229773D01*
X143916938Y-63189999D01*
X143713060Y-63189999D01*
X143513101Y-63229773D01*
X143324743Y-63307794D01*
X143155225Y-63421062D01*
X143111288Y-63464999D01*
X135636265Y-63464999D01*
X135598942Y-63461323D01*
X135561620Y-63464999D01*
X135561610Y-63464999D01*
X135449957Y-63475996D01*
X135306696Y-63519453D01*
X135174666Y-63590025D01*
X135091026Y-63658667D01*
X135058942Y-63684998D01*
X135035144Y-63713996D01*
X127663988Y-71085153D01*
X127634990Y-71108951D01*
X127611192Y-71137949D01*
X127611191Y-71137950D01*
X127540016Y-71224676D01*
X127498095Y-71303104D01*
X127469444Y-71356705D01*
X127425987Y-71499966D01*
X127414990Y-71611619D01*
X127414990Y-71611630D01*
X127411314Y-71648952D01*
X127414990Y-71686274D01*
X127414990Y-72212668D01*
X127411314Y-72249990D01*
X127414990Y-72287312D01*
X127414990Y-72287322D01*
X127425987Y-72398975D01*
X127460065Y-72511316D01*
X127469444Y-72542236D01*
X127540016Y-72674266D01*
X127579861Y-72722816D01*
X127634989Y-72789991D01*
X127663993Y-72813794D01*
X127872084Y-73021885D01*
X127861928Y-73125000D01*
X127861928Y-73325000D01*
X127876110Y-73468991D01*
X127900684Y-73550000D01*
X127876110Y-73631009D01*
X127861928Y-73775000D01*
X127861928Y-73975000D01*
X127876110Y-74118991D01*
X127900684Y-74200000D01*
X127876110Y-74281009D01*
X127861928Y-74425000D01*
X127861928Y-74625000D01*
X127876110Y-74768991D01*
X127900684Y-74850000D01*
X127876110Y-74931009D01*
X127861928Y-75075000D01*
X127861928Y-75275000D01*
X127876110Y-75418991D01*
X127900684Y-75500000D01*
X127876110Y-75581009D01*
X127861928Y-75725000D01*
X127861928Y-75925000D01*
X127876110Y-76068991D01*
X127900684Y-76150000D01*
X127876110Y-76231009D01*
X127861928Y-76375000D01*
X127861928Y-76575000D01*
X127876110Y-76718991D01*
X127887350Y-76756045D01*
X127876132Y-76791117D01*
X127870804Y-76840000D01*
X126544365Y-76840000D01*
X126517606Y-76807394D01*
X126390608Y-76703169D01*
X126245716Y-76625722D01*
X126088500Y-76578031D01*
X125925000Y-76561928D01*
X125686729Y-76561928D01*
X125463803Y-76339002D01*
X125440001Y-76309999D01*
X125324276Y-76215026D01*
X125192247Y-76144454D01*
X125048986Y-76100997D01*
X124937333Y-76090000D01*
X124937322Y-76090000D01*
X124900000Y-76086324D01*
X124862678Y-76090000D01*
X118192333Y-76090000D01*
X118155000Y-76086323D01*
X118117667Y-76090000D01*
X118006014Y-76100997D01*
X117862753Y-76144454D01*
X117730724Y-76215026D01*
X117614999Y-76309999D01*
X117591201Y-76338998D01*
X117313270Y-76616928D01*
X116550000Y-76616928D01*
X116425518Y-76629188D01*
X116305820Y-76665498D01*
X116195506Y-76724463D01*
X116098815Y-76803815D01*
X116019463Y-76900506D01*
X115960498Y-77010820D01*
X115924188Y-77130518D01*
X115911928Y-77255000D01*
X115911928Y-77420001D01*
X115688072Y-77420001D01*
X115688072Y-77255000D01*
X115675812Y-77130518D01*
X115639502Y-77010820D01*
X115580537Y-76900506D01*
X115501185Y-76803815D01*
X115404494Y-76724463D01*
X115294180Y-76665498D01*
X115174482Y-76629188D01*
X115050000Y-76616928D01*
X114160000Y-76616928D01*
X114160000Y-72698061D01*
X115015000Y-72698061D01*
X115015000Y-72901939D01*
X115054774Y-73101898D01*
X115132795Y-73290256D01*
X115246063Y-73459774D01*
X115390226Y-73603937D01*
X115559744Y-73717205D01*
X115748102Y-73795226D01*
X115948061Y-73835000D01*
X116151939Y-73835000D01*
X116351898Y-73795226D01*
X116540256Y-73717205D01*
X116709774Y-73603937D01*
X116853937Y-73459774D01*
X116967205Y-73290256D01*
X117045226Y-73101898D01*
X117085000Y-72901939D01*
X117085000Y-72698061D01*
X117045226Y-72498102D01*
X116967205Y-72309744D01*
X116853937Y-72140226D01*
X116709774Y-71996063D01*
X116540256Y-71882795D01*
X116351898Y-71804774D01*
X116151939Y-71765000D01*
X115948061Y-71765000D01*
X115748102Y-71804774D01*
X115559744Y-71882795D01*
X115390226Y-71996063D01*
X115246063Y-72140226D01*
X115132795Y-72309744D01*
X115054774Y-72498102D01*
X115015000Y-72698061D01*
X114160000Y-72698061D01*
X114160000Y-67446154D01*
X117465000Y-67446154D01*
X117465000Y-68053846D01*
X117583555Y-68649861D01*
X117816108Y-69211295D01*
X118153724Y-69716573D01*
X118583427Y-70146276D01*
X119088705Y-70483892D01*
X119650139Y-70716445D01*
X120246154Y-70835000D01*
X120853846Y-70835000D01*
X121449861Y-70716445D01*
X122011295Y-70483892D01*
X122516573Y-70146276D01*
X122946276Y-69716573D01*
X123283892Y-69211295D01*
X123516445Y-68649861D01*
X123635000Y-68053846D01*
X123635000Y-67446154D01*
X123516445Y-66850139D01*
X123283892Y-66288705D01*
X122946276Y-65783427D01*
X122516573Y-65353724D01*
X122011295Y-65016108D01*
X121449861Y-64783555D01*
X120853846Y-64665000D01*
X120246154Y-64665000D01*
X119650139Y-64783555D01*
X119088705Y-65016108D01*
X118583427Y-65353724D01*
X118153724Y-65783427D01*
X117816108Y-66288705D01*
X117583555Y-66850139D01*
X117465000Y-67446154D01*
X114160000Y-67446154D01*
X114160000Y-41160000D01*
X118967581Y-41160000D01*
X119000000Y-41163193D01*
X119032419Y-41160000D01*
X119129383Y-41150450D01*
X119253793Y-41112710D01*
X119368450Y-41051425D01*
X119468948Y-40968948D01*
X119551425Y-40868450D01*
X119612710Y-40753793D01*
X119650450Y-40629383D01*
X119663193Y-40500000D01*
X119660000Y-40467581D01*
X119660000Y-35660000D01*
X201340000Y-35660000D01*
X201340001Y-40467571D01*
G37*
%TD.AperFunction*%
D21*
X140640226Y-65753937D02*
X140809744Y-65867205D01*
X140998102Y-65945226D01*
X141198061Y-65985000D01*
X141401939Y-65985000D01*
X141601898Y-65945226D01*
X141790256Y-65867205D01*
X141959774Y-65753937D01*
X142003711Y-65710000D01*
X145688200Y-65710000D01*
X139583201Y-71815000D01*
X136335000Y-71815000D01*
X136335000Y-71797998D01*
X136230252Y-71797998D01*
X136335000Y-71693250D01*
X136323868Y-71591117D01*
X136285761Y-71471979D01*
X136225144Y-71362564D01*
X136144346Y-71267078D01*
X136046471Y-71189189D01*
X135935282Y-71131891D01*
X135815052Y-71097386D01*
X135690400Y-71087000D01*
X135248250Y-71090000D01*
X135089500Y-71248750D01*
X135089500Y-71736928D01*
X134835500Y-71736928D01*
X134835500Y-71248750D01*
X134676750Y-71090000D01*
X134234600Y-71087000D01*
X134109948Y-71097386D01*
X133989718Y-71131891D01*
X133878529Y-71189189D01*
X133780654Y-71267078D01*
X133699856Y-71362564D01*
X133639239Y-71471979D01*
X133601132Y-71591117D01*
X133590000Y-71693250D01*
X133748750Y-71852000D01*
X133932378Y-71852000D01*
X133914949Y-71861316D01*
X133803104Y-71953104D01*
X133766259Y-71998000D01*
X133748750Y-71998000D01*
X133590000Y-72156750D01*
X133601132Y-72258883D01*
X133612350Y-72293955D01*
X133601110Y-72331009D01*
X133586928Y-72475000D01*
X133586928Y-72675000D01*
X133601110Y-72818991D01*
X133625684Y-72900000D01*
X133601110Y-72981009D01*
X133586928Y-73125000D01*
X133586928Y-73325000D01*
X133601110Y-73468991D01*
X133625684Y-73550000D01*
X133601110Y-73631009D01*
X133586928Y-73775000D01*
X133586928Y-73975000D01*
X133601110Y-74118991D01*
X133625684Y-74200000D01*
X133601110Y-74281009D01*
X133586928Y-74425000D01*
X133586928Y-74625000D01*
X133601110Y-74768991D01*
X133625684Y-74850000D01*
X133601110Y-74931009D01*
X133586928Y-75075000D01*
X133586928Y-75275000D01*
X133601110Y-75418991D01*
X133625684Y-75500000D01*
X133601110Y-75581009D01*
X133586928Y-75725000D01*
X133586928Y-75925000D01*
X133601110Y-76068991D01*
X133625684Y-76150000D01*
X133601110Y-76231009D01*
X133586928Y-76375000D01*
X133586928Y-76575000D01*
X133601110Y-76718991D01*
X133625684Y-76800000D01*
X133601110Y-76881009D01*
X133586928Y-77025000D01*
X133586928Y-77225000D01*
X133601110Y-77368991D01*
X133625684Y-77450000D01*
X133601110Y-77531009D01*
X133586928Y-77675000D01*
X133586928Y-77875000D01*
X133601110Y-78018991D01*
X133612350Y-78056045D01*
X133601132Y-78091117D01*
X133590000Y-78193250D01*
X133748750Y-78352000D01*
X133766259Y-78352000D01*
X133803104Y-78396896D01*
X133804537Y-78398072D01*
X133780654Y-78417078D01*
X133699856Y-78512564D01*
X133657211Y-78589539D01*
X133590000Y-78656750D01*
X133600164Y-78750000D01*
X133590000Y-78843250D01*
X133657211Y-78910461D01*
X133699856Y-78987436D01*
X133780654Y-79082922D01*
X133862431Y-79148000D01*
X133748750Y-79148000D01*
X133590000Y-79306750D01*
X133601132Y-79408883D01*
X133639239Y-79528021D01*
X133699856Y-79637436D01*
X133780654Y-79732922D01*
X133878529Y-79810811D01*
X133989718Y-79868109D01*
X134109948Y-79902614D01*
X134234600Y-79913000D01*
X134676750Y-79910000D01*
X134835500Y-79751250D01*
X134835500Y-79148000D01*
X134788750Y-79148000D01*
X134835500Y-79101250D01*
X134835500Y-78928000D01*
X135089500Y-78928000D01*
X135089500Y-79101250D01*
X135136250Y-79148000D01*
X135089500Y-79148000D01*
X135089500Y-79751250D01*
X135248250Y-79910000D01*
X135690400Y-79913000D01*
X135815052Y-79902614D01*
X135935282Y-79868109D01*
X136046471Y-79810811D01*
X136144346Y-79732922D01*
X136225144Y-79637436D01*
X136285761Y-79528021D01*
X136323868Y-79408883D01*
X136335000Y-79306750D01*
X136176250Y-79148000D01*
X136062569Y-79148000D01*
X136144346Y-79082922D01*
X136225144Y-78987436D01*
X136267789Y-78910461D01*
X136335000Y-78843250D01*
X136324836Y-78750000D01*
X136335000Y-78656750D01*
X136267789Y-78589539D01*
X136225144Y-78512564D01*
X136144346Y-78417078D01*
X136120463Y-78398072D01*
X136121896Y-78396896D01*
X136158741Y-78352000D01*
X136176250Y-78352000D01*
X136335000Y-78193250D01*
X136323868Y-78091117D01*
X136312650Y-78056045D01*
X136323890Y-78018991D01*
X136337087Y-77885000D01*
X137939196Y-77885000D01*
X137982795Y-77990256D01*
X138096063Y-78159774D01*
X138240226Y-78303937D01*
X138409744Y-78417205D01*
X138598102Y-78495226D01*
X138798061Y-78535000D01*
X139001939Y-78535000D01*
X139201898Y-78495226D01*
X139390256Y-78417205D01*
X139559774Y-78303937D01*
X139703937Y-78159774D01*
X139817205Y-77990256D01*
X139850199Y-77910601D01*
X140009744Y-78017205D01*
X140198102Y-78095226D01*
X140398061Y-78135000D01*
X140601939Y-78135000D01*
X140801898Y-78095226D01*
X140990256Y-78017205D01*
X141159774Y-77903937D01*
X141266956Y-77796755D01*
X175902128Y-112431928D01*
X175830000Y-112431928D01*
X175705518Y-112444188D01*
X175585820Y-112480498D01*
X175475506Y-112539463D01*
X175378815Y-112618815D01*
X175299463Y-112715506D01*
X175240498Y-112825820D01*
X175204188Y-112945518D01*
X175191928Y-113070000D01*
X175191928Y-115770000D01*
X175204188Y-115894482D01*
X175240498Y-116014180D01*
X175299463Y-116124494D01*
X175378815Y-116221185D01*
X175397204Y-116236277D01*
X175311107Y-116444134D01*
X175255000Y-116726203D01*
X175255000Y-117013797D01*
X175311107Y-117295866D01*
X175397204Y-117503723D01*
X175378815Y-117518815D01*
X175299463Y-117615506D01*
X175240498Y-117725820D01*
X175204188Y-117845518D01*
X175191928Y-117970000D01*
X175191928Y-119590349D01*
X161781534Y-106179956D01*
X161753817Y-106146183D01*
X161619059Y-106035589D01*
X161465313Y-105953411D01*
X161298490Y-105902805D01*
X161168477Y-105890000D01*
X161168469Y-105890000D01*
X161125000Y-105885719D01*
X161081531Y-105890000D01*
X129923072Y-105890000D01*
X129923072Y-105541729D01*
X131601032Y-103863770D01*
X131630029Y-103839973D01*
X131725002Y-103724248D01*
X131795574Y-103592219D01*
X131839031Y-103448958D01*
X131850028Y-103337305D01*
X131850028Y-103337304D01*
X131853705Y-103299972D01*
X131850028Y-103262639D01*
X131850028Y-89487351D01*
X131853704Y-89450028D01*
X131850028Y-89412705D01*
X131850028Y-89412695D01*
X131839031Y-89301042D01*
X131795574Y-89157781D01*
X131725002Y-89025752D01*
X131630029Y-88910027D01*
X131601031Y-88886229D01*
X126619801Y-83905000D01*
X127524801Y-83000000D01*
X128586928Y-83000000D01*
X128599188Y-83124482D01*
X128635498Y-83244180D01*
X128694463Y-83354494D01*
X128773815Y-83451185D01*
X128870506Y-83530537D01*
X128980820Y-83589502D01*
X129100518Y-83625812D01*
X129225000Y-83638072D01*
X129664250Y-83635000D01*
X129823000Y-83476250D01*
X129823000Y-82627000D01*
X130077000Y-82627000D01*
X130077000Y-83476250D01*
X130235750Y-83635000D01*
X130675000Y-83638072D01*
X130799482Y-83625812D01*
X130919180Y-83589502D01*
X131029494Y-83530537D01*
X131126185Y-83451185D01*
X131205537Y-83354494D01*
X131264502Y-83244180D01*
X131300812Y-83124482D01*
X131313072Y-83000000D01*
X131310000Y-82785750D01*
X131151250Y-82627000D01*
X130077000Y-82627000D01*
X129823000Y-82627000D01*
X128748750Y-82627000D01*
X128590000Y-82785750D01*
X128586928Y-83000000D01*
X127524801Y-83000000D01*
X127761004Y-82763798D01*
X127790001Y-82740001D01*
X127884974Y-82624276D01*
X127955546Y-82492247D01*
X127999003Y-82348986D01*
X128010000Y-82237333D01*
X128010000Y-82237325D01*
X128013676Y-82200000D01*
X128010000Y-82162675D01*
X128010000Y-81360000D01*
X128750230Y-81360000D01*
X128847038Y-81477962D01*
X128853594Y-81483342D01*
X128773815Y-81548815D01*
X128694463Y-81645506D01*
X128635498Y-81755820D01*
X128599188Y-81875518D01*
X128586928Y-82000000D01*
X128590000Y-82214250D01*
X128748750Y-82373000D01*
X129823000Y-82373000D01*
X129823000Y-82353000D01*
X130077000Y-82353000D01*
X130077000Y-82373000D01*
X131151250Y-82373000D01*
X131310000Y-82214250D01*
X131313072Y-82000000D01*
X131300812Y-81875518D01*
X131264502Y-81755820D01*
X131205537Y-81645506D01*
X131126185Y-81548815D01*
X131046406Y-81483342D01*
X131052962Y-81477962D01*
X131163405Y-81343386D01*
X131245472Y-81189850D01*
X131296008Y-81023254D01*
X131313072Y-80850000D01*
X131313072Y-80350000D01*
X131296008Y-80176746D01*
X131245472Y-80010150D01*
X131163405Y-79856614D01*
X131052962Y-79722038D01*
X130918386Y-79611595D01*
X130764850Y-79529528D01*
X130598254Y-79478992D01*
X130548019Y-79474044D01*
X130556890Y-79457448D01*
X130598890Y-79318991D01*
X130613072Y-79175000D01*
X130613072Y-78975000D01*
X130598890Y-78831009D01*
X130574316Y-78750000D01*
X130598890Y-78668991D01*
X130613072Y-78525000D01*
X130613072Y-78325000D01*
X130598890Y-78181009D01*
X130574316Y-78100000D01*
X130598890Y-78018991D01*
X130613072Y-77875000D01*
X130613072Y-77675000D01*
X130598890Y-77531009D01*
X130587650Y-77493955D01*
X130598868Y-77458883D01*
X130610000Y-77356750D01*
X130451250Y-77198000D01*
X130433741Y-77198000D01*
X130396896Y-77153104D01*
X130362651Y-77125000D01*
X130396896Y-77096896D01*
X130433741Y-77052000D01*
X130451250Y-77052000D01*
X130610000Y-76893250D01*
X130598868Y-76791117D01*
X130587650Y-76756045D01*
X130598890Y-76718991D01*
X130613072Y-76575000D01*
X130613072Y-76375000D01*
X130598890Y-76231009D01*
X130574316Y-76150000D01*
X130598890Y-76068991D01*
X130613072Y-75925000D01*
X130613072Y-75725000D01*
X130598890Y-75581009D01*
X130574316Y-75500000D01*
X130598890Y-75418991D01*
X130613072Y-75275000D01*
X130613072Y-75075000D01*
X130598890Y-74931009D01*
X130574316Y-74850000D01*
X130598890Y-74768991D01*
X130613072Y-74625000D01*
X130613072Y-74425000D01*
X130598890Y-74281009D01*
X130574316Y-74200000D01*
X130598890Y-74118991D01*
X130613072Y-73975000D01*
X130613072Y-73775000D01*
X130598890Y-73631009D01*
X130574316Y-73550000D01*
X130598890Y-73468991D01*
X130613072Y-73325000D01*
X130613072Y-73125000D01*
X130598890Y-72981009D01*
X130574316Y-72900000D01*
X130598890Y-72818991D01*
X130613072Y-72675000D01*
X130613072Y-72475000D01*
X130598890Y-72331009D01*
X130574316Y-72250000D01*
X130598890Y-72168991D01*
X130613072Y-72025000D01*
X130613072Y-71825000D01*
X130598890Y-71681009D01*
X130588976Y-71648325D01*
X136527302Y-65710000D01*
X140596289Y-65710000D01*
X140640226Y-65753937D01*
%TA.AperFunction,Conductor*%
D22*
G36*
X140640226Y-65753937D02*
G01*
X140809744Y-65867205D01*
X140998102Y-65945226D01*
X141198061Y-65985000D01*
X141401939Y-65985000D01*
X141601898Y-65945226D01*
X141790256Y-65867205D01*
X141959774Y-65753937D01*
X142003711Y-65710000D01*
X145688200Y-65710000D01*
X139583201Y-71815000D01*
X136335000Y-71815000D01*
X136335000Y-71797998D01*
X136230252Y-71797998D01*
X136335000Y-71693250D01*
X136323868Y-71591117D01*
X136285761Y-71471979D01*
X136225144Y-71362564D01*
X136144346Y-71267078D01*
X136046471Y-71189189D01*
X135935282Y-71131891D01*
X135815052Y-71097386D01*
X135690400Y-71087000D01*
X135248250Y-71090000D01*
X135089500Y-71248750D01*
X135089500Y-71736928D01*
X134835500Y-71736928D01*
X134835500Y-71248750D01*
X134676750Y-71090000D01*
X134234600Y-71087000D01*
X134109948Y-71097386D01*
X133989718Y-71131891D01*
X133878529Y-71189189D01*
X133780654Y-71267078D01*
X133699856Y-71362564D01*
X133639239Y-71471979D01*
X133601132Y-71591117D01*
X133590000Y-71693250D01*
X133748750Y-71852000D01*
X133932378Y-71852000D01*
X133914949Y-71861316D01*
X133803104Y-71953104D01*
X133766259Y-71998000D01*
X133748750Y-71998000D01*
X133590000Y-72156750D01*
X133601132Y-72258883D01*
X133612350Y-72293955D01*
X133601110Y-72331009D01*
X133586928Y-72475000D01*
X133586928Y-72675000D01*
X133601110Y-72818991D01*
X133625684Y-72900000D01*
X133601110Y-72981009D01*
X133586928Y-73125000D01*
X133586928Y-73325000D01*
X133601110Y-73468991D01*
X133625684Y-73550000D01*
X133601110Y-73631009D01*
X133586928Y-73775000D01*
X133586928Y-73975000D01*
X133601110Y-74118991D01*
X133625684Y-74200000D01*
X133601110Y-74281009D01*
X133586928Y-74425000D01*
X133586928Y-74625000D01*
X133601110Y-74768991D01*
X133625684Y-74850000D01*
X133601110Y-74931009D01*
X133586928Y-75075000D01*
X133586928Y-75275000D01*
X133601110Y-75418991D01*
X133625684Y-75500000D01*
X133601110Y-75581009D01*
X133586928Y-75725000D01*
X133586928Y-75925000D01*
X133601110Y-76068991D01*
X133625684Y-76150000D01*
X133601110Y-76231009D01*
X133586928Y-76375000D01*
X133586928Y-76575000D01*
X133601110Y-76718991D01*
X133625684Y-76800000D01*
X133601110Y-76881009D01*
X133586928Y-77025000D01*
X133586928Y-77225000D01*
X133601110Y-77368991D01*
X133625684Y-77450000D01*
X133601110Y-77531009D01*
X133586928Y-77675000D01*
X133586928Y-77875000D01*
X133601110Y-78018991D01*
X133612350Y-78056045D01*
X133601132Y-78091117D01*
X133590000Y-78193250D01*
X133748750Y-78352000D01*
X133766259Y-78352000D01*
X133803104Y-78396896D01*
X133804537Y-78398072D01*
X133780654Y-78417078D01*
X133699856Y-78512564D01*
X133657211Y-78589539D01*
X133590000Y-78656750D01*
X133600164Y-78750000D01*
X133590000Y-78843250D01*
X133657211Y-78910461D01*
X133699856Y-78987436D01*
X133780654Y-79082922D01*
X133862431Y-79148000D01*
X133748750Y-79148000D01*
X133590000Y-79306750D01*
X133601132Y-79408883D01*
X133639239Y-79528021D01*
X133699856Y-79637436D01*
X133780654Y-79732922D01*
X133878529Y-79810811D01*
X133989718Y-79868109D01*
X134109948Y-79902614D01*
X134234600Y-79913000D01*
X134676750Y-79910000D01*
X134835500Y-79751250D01*
X134835500Y-79148000D01*
X134788750Y-79148000D01*
X134835500Y-79101250D01*
X134835500Y-78928000D01*
X135089500Y-78928000D01*
X135089500Y-79101250D01*
X135136250Y-79148000D01*
X135089500Y-79148000D01*
X135089500Y-79751250D01*
X135248250Y-79910000D01*
X135690400Y-79913000D01*
X135815052Y-79902614D01*
X135935282Y-79868109D01*
X136046471Y-79810811D01*
X136144346Y-79732922D01*
X136225144Y-79637436D01*
X136285761Y-79528021D01*
X136323868Y-79408883D01*
X136335000Y-79306750D01*
X136176250Y-79148000D01*
X136062569Y-79148000D01*
X136144346Y-79082922D01*
X136225144Y-78987436D01*
X136267789Y-78910461D01*
X136335000Y-78843250D01*
X136324836Y-78750000D01*
X136335000Y-78656750D01*
X136267789Y-78589539D01*
X136225144Y-78512564D01*
X136144346Y-78417078D01*
X136120463Y-78398072D01*
X136121896Y-78396896D01*
X136158741Y-78352000D01*
X136176250Y-78352000D01*
X136335000Y-78193250D01*
X136323868Y-78091117D01*
X136312650Y-78056045D01*
X136323890Y-78018991D01*
X136337087Y-77885000D01*
X137939196Y-77885000D01*
X137982795Y-77990256D01*
X138096063Y-78159774D01*
X138240226Y-78303937D01*
X138409744Y-78417205D01*
X138598102Y-78495226D01*
X138798061Y-78535000D01*
X139001939Y-78535000D01*
X139201898Y-78495226D01*
X139390256Y-78417205D01*
X139559774Y-78303937D01*
X139703937Y-78159774D01*
X139817205Y-77990256D01*
X139850199Y-77910601D01*
X140009744Y-78017205D01*
X140198102Y-78095226D01*
X140398061Y-78135000D01*
X140601939Y-78135000D01*
X140801898Y-78095226D01*
X140990256Y-78017205D01*
X141159774Y-77903937D01*
X141266956Y-77796755D01*
X175902128Y-112431928D01*
X175830000Y-112431928D01*
X175705518Y-112444188D01*
X175585820Y-112480498D01*
X175475506Y-112539463D01*
X175378815Y-112618815D01*
X175299463Y-112715506D01*
X175240498Y-112825820D01*
X175204188Y-112945518D01*
X175191928Y-113070000D01*
X175191928Y-115770000D01*
X175204188Y-115894482D01*
X175240498Y-116014180D01*
X175299463Y-116124494D01*
X175378815Y-116221185D01*
X175397204Y-116236277D01*
X175311107Y-116444134D01*
X175255000Y-116726203D01*
X175255000Y-117013797D01*
X175311107Y-117295866D01*
X175397204Y-117503723D01*
X175378815Y-117518815D01*
X175299463Y-117615506D01*
X175240498Y-117725820D01*
X175204188Y-117845518D01*
X175191928Y-117970000D01*
X175191928Y-119590349D01*
X161781534Y-106179956D01*
X161753817Y-106146183D01*
X161619059Y-106035589D01*
X161465313Y-105953411D01*
X161298490Y-105902805D01*
X161168477Y-105890000D01*
X161168469Y-105890000D01*
X161125000Y-105885719D01*
X161081531Y-105890000D01*
X129923072Y-105890000D01*
X129923072Y-105541729D01*
X131601032Y-103863770D01*
X131630029Y-103839973D01*
X131725002Y-103724248D01*
X131795574Y-103592219D01*
X131839031Y-103448958D01*
X131850028Y-103337305D01*
X131850028Y-103337304D01*
X131853705Y-103299972D01*
X131850028Y-103262639D01*
X131850028Y-89487351D01*
X131853704Y-89450028D01*
X131850028Y-89412705D01*
X131850028Y-89412695D01*
X131839031Y-89301042D01*
X131795574Y-89157781D01*
X131725002Y-89025752D01*
X131630029Y-88910027D01*
X131601031Y-88886229D01*
X126619801Y-83905000D01*
X127524801Y-83000000D01*
X128586928Y-83000000D01*
X128599188Y-83124482D01*
X128635498Y-83244180D01*
X128694463Y-83354494D01*
X128773815Y-83451185D01*
X128870506Y-83530537D01*
X128980820Y-83589502D01*
X129100518Y-83625812D01*
X129225000Y-83638072D01*
X129664250Y-83635000D01*
X129823000Y-83476250D01*
X129823000Y-82627000D01*
X130077000Y-82627000D01*
X130077000Y-83476250D01*
X130235750Y-83635000D01*
X130675000Y-83638072D01*
X130799482Y-83625812D01*
X130919180Y-83589502D01*
X131029494Y-83530537D01*
X131126185Y-83451185D01*
X131205537Y-83354494D01*
X131264502Y-83244180D01*
X131300812Y-83124482D01*
X131313072Y-83000000D01*
X131310000Y-82785750D01*
X131151250Y-82627000D01*
X130077000Y-82627000D01*
X129823000Y-82627000D01*
X128748750Y-82627000D01*
X128590000Y-82785750D01*
X128586928Y-83000000D01*
X127524801Y-83000000D01*
X127761004Y-82763798D01*
X127790001Y-82740001D01*
X127884974Y-82624276D01*
X127955546Y-82492247D01*
X127999003Y-82348986D01*
X128010000Y-82237333D01*
X128010000Y-82237325D01*
X128013676Y-82200000D01*
X128010000Y-82162675D01*
X128010000Y-81360000D01*
X128750230Y-81360000D01*
X128847038Y-81477962D01*
X128853594Y-81483342D01*
X128773815Y-81548815D01*
X128694463Y-81645506D01*
X128635498Y-81755820D01*
X128599188Y-81875518D01*
X128586928Y-82000000D01*
X128590000Y-82214250D01*
X128748750Y-82373000D01*
X129823000Y-82373000D01*
X129823000Y-82353000D01*
X130077000Y-82353000D01*
X130077000Y-82373000D01*
X131151250Y-82373000D01*
X131310000Y-82214250D01*
X131313072Y-82000000D01*
X131300812Y-81875518D01*
X131264502Y-81755820D01*
X131205537Y-81645506D01*
X131126185Y-81548815D01*
X131046406Y-81483342D01*
X131052962Y-81477962D01*
X131163405Y-81343386D01*
X131245472Y-81189850D01*
X131296008Y-81023254D01*
X131313072Y-80850000D01*
X131313072Y-80350000D01*
X131296008Y-80176746D01*
X131245472Y-80010150D01*
X131163405Y-79856614D01*
X131052962Y-79722038D01*
X130918386Y-79611595D01*
X130764850Y-79529528D01*
X130598254Y-79478992D01*
X130548019Y-79474044D01*
X130556890Y-79457448D01*
X130598890Y-79318991D01*
X130613072Y-79175000D01*
X130613072Y-78975000D01*
X130598890Y-78831009D01*
X130574316Y-78750000D01*
X130598890Y-78668991D01*
X130613072Y-78525000D01*
X130613072Y-78325000D01*
X130598890Y-78181009D01*
X130574316Y-78100000D01*
X130598890Y-78018991D01*
X130613072Y-77875000D01*
X130613072Y-77675000D01*
X130598890Y-77531009D01*
X130587650Y-77493955D01*
X130598868Y-77458883D01*
X130610000Y-77356750D01*
X130451250Y-77198000D01*
X130433741Y-77198000D01*
X130396896Y-77153104D01*
X130362651Y-77125000D01*
X130396896Y-77096896D01*
X130433741Y-77052000D01*
X130451250Y-77052000D01*
X130610000Y-76893250D01*
X130598868Y-76791117D01*
X130587650Y-76756045D01*
X130598890Y-76718991D01*
X130613072Y-76575000D01*
X130613072Y-76375000D01*
X130598890Y-76231009D01*
X130574316Y-76150000D01*
X130598890Y-76068991D01*
X130613072Y-75925000D01*
X130613072Y-75725000D01*
X130598890Y-75581009D01*
X130574316Y-75500000D01*
X130598890Y-75418991D01*
X130613072Y-75275000D01*
X130613072Y-75075000D01*
X130598890Y-74931009D01*
X130574316Y-74850000D01*
X130598890Y-74768991D01*
X130613072Y-74625000D01*
X130613072Y-74425000D01*
X130598890Y-74281009D01*
X130574316Y-74200000D01*
X130598890Y-74118991D01*
X130613072Y-73975000D01*
X130613072Y-73775000D01*
X130598890Y-73631009D01*
X130574316Y-73550000D01*
X130598890Y-73468991D01*
X130613072Y-73325000D01*
X130613072Y-73125000D01*
X130598890Y-72981009D01*
X130574316Y-72900000D01*
X130598890Y-72818991D01*
X130613072Y-72675000D01*
X130613072Y-72475000D01*
X130598890Y-72331009D01*
X130574316Y-72250000D01*
X130598890Y-72168991D01*
X130613072Y-72025000D01*
X130613072Y-71825000D01*
X130598890Y-71681009D01*
X130588976Y-71648325D01*
X136527302Y-65710000D01*
X140596289Y-65710000D01*
X140640226Y-65753937D01*
G37*
%TD.AperFunction*%
D21*
X115911928Y-82935000D02*
X115924188Y-83059482D01*
X115960498Y-83179180D01*
X116009043Y-83270000D01*
X115960498Y-83360820D01*
X115924188Y-83480518D01*
X115911928Y-83605000D01*
X115911928Y-84205000D01*
X115924188Y-84329482D01*
X115960498Y-84449180D01*
X116009043Y-84540000D01*
X115960498Y-84630820D01*
X115924188Y-84750518D01*
X115911928Y-84875000D01*
X115911928Y-85475000D01*
X115920299Y-85560000D01*
X115679701Y-85560000D01*
X115688072Y-85475000D01*
X115688072Y-84875000D01*
X115675812Y-84750518D01*
X115639502Y-84630820D01*
X115590957Y-84540000D01*
X115639502Y-84449180D01*
X115675812Y-84329482D01*
X115688072Y-84205000D01*
X115685000Y-84190750D01*
X115526250Y-84032000D01*
X114277000Y-84032000D01*
X114277000Y-84052000D01*
X114160000Y-84052000D01*
X114160000Y-83758000D01*
X114277000Y-83758000D01*
X114277000Y-83778000D01*
X115526250Y-83778000D01*
X115685000Y-83619250D01*
X115688072Y-83605000D01*
X115675812Y-83480518D01*
X115639502Y-83360820D01*
X115590957Y-83270000D01*
X115639502Y-83179180D01*
X115675812Y-83059482D01*
X115688072Y-82935000D01*
X115688072Y-82769999D01*
X115911928Y-82769999D01*
X115911928Y-82935000D01*
%TA.AperFunction,Conductor*%
D22*
G36*
X115911928Y-82935000D02*
G01*
X115924188Y-83059482D01*
X115960498Y-83179180D01*
X116009043Y-83270000D01*
X115960498Y-83360820D01*
X115924188Y-83480518D01*
X115911928Y-83605000D01*
X115911928Y-84205000D01*
X115924188Y-84329482D01*
X115960498Y-84449180D01*
X116009043Y-84540000D01*
X115960498Y-84630820D01*
X115924188Y-84750518D01*
X115911928Y-84875000D01*
X115911928Y-85475000D01*
X115920299Y-85560000D01*
X115679701Y-85560000D01*
X115688072Y-85475000D01*
X115688072Y-84875000D01*
X115675812Y-84750518D01*
X115639502Y-84630820D01*
X115590957Y-84540000D01*
X115639502Y-84449180D01*
X115675812Y-84329482D01*
X115688072Y-84205000D01*
X115685000Y-84190750D01*
X115526250Y-84032000D01*
X114277000Y-84032000D01*
X114277000Y-84052000D01*
X114160000Y-84052000D01*
X114160000Y-83758000D01*
X114277000Y-83758000D01*
X114277000Y-83778000D01*
X115526250Y-83778000D01*
X115685000Y-83619250D01*
X115688072Y-83605000D01*
X115675812Y-83480518D01*
X115639502Y-83360820D01*
X115590957Y-83270000D01*
X115639502Y-83179180D01*
X115675812Y-83059482D01*
X115688072Y-82935000D01*
X115688072Y-82769999D01*
X115911928Y-82769999D01*
X115911928Y-82935000D01*
G37*
%TD.AperFunction*%
D21*
X114211201Y-78691003D02*
X114235000Y-78720002D01*
X114263998Y-78743800D01*
X114297000Y-78770884D01*
X114297000Y-78952000D01*
X114277000Y-78952000D01*
X114277000Y-78972000D01*
X114160000Y-78972000D01*
X114160000Y-78678000D01*
X114198198Y-78678000D01*
X114211201Y-78691003D01*
%TA.AperFunction,Conductor*%
D22*
G36*
X114211201Y-78691003D02*
G01*
X114235000Y-78720002D01*
X114263998Y-78743800D01*
X114297000Y-78770884D01*
X114297000Y-78952000D01*
X114277000Y-78952000D01*
X114277000Y-78972000D01*
X114160000Y-78972000D01*
X114160000Y-78678000D01*
X114198198Y-78678000D01*
X114211201Y-78691003D01*
G37*
%TD.AperFunction*%
D21*
X124447721Y-78690001D02*
X119174802Y-78690001D01*
X119804794Y-78060010D01*
X123817731Y-78060010D01*
X124447721Y-78690001D01*
%TA.AperFunction,Conductor*%
D22*
G36*
X124447721Y-78690001D02*
G01*
X119174802Y-78690001D01*
X119804794Y-78060010D01*
X123817731Y-78060010D01*
X124447721Y-78690001D01*
G37*
%TD.AperFunction*%
%TD*%
M02*
