%TF.GenerationSoftware,KiCad,Pcbnew,(5.1.10)-1*%
%TF.CreationDate,2022-11-13T15:12:26-08:00*%
%TF.ProjectId,-ZFace,2d5a4661-6365-42e6-9b69-6361645f7063,1.0*%
%TF.SameCoordinates,Original*%
%TF.FileFunction,Copper,L2,Inr*%
%TF.FilePolarity,Positive*%
%FSLAX46Y46*%
G04 Gerber Fmt 4.6, Leading zero omitted, Abs format (unit mm)*
G04 Created by KiCad (PCBNEW (5.1.10)-1) date 2022-11-13 15:12:26*
%MOMM*%
%LPD*%
G01*
G04 APERTURE LIST*
%TA.AperFunction,ComponentPad*%
%ADD10C,1.750000*%
%TD*%
%TA.AperFunction,ComponentPad*%
%ADD11C,1.800000*%
%TD*%
%TA.AperFunction,ComponentPad*%
%ADD12C,1.030000*%
%TD*%
%TA.AperFunction,ComponentPad*%
%ADD13C,4.900000*%
%TD*%
%TA.AperFunction,ViaPad*%
%ADD14C,0.800000*%
%TD*%
%TA.AperFunction,Conductor*%
%ADD15C,0.250000*%
%TD*%
G04 APERTURE END LIST*
D10*
%TO.N,Net-(J8-Pad1)*%
%TO.C,J8*%
X158200000Y-83750000D03*
%TO.N,Net-(J8-Pad2)*%
X158200000Y-80250000D03*
%TD*%
D11*
%TO.N,Net-(J6-Pad2)*%
%TO.C,J7*%
X163000000Y-83800000D03*
%TO.N,Net-(J6-Pad1)*%
X163000000Y-80300000D03*
%TD*%
D12*
%TO.N,Net-(J6-Pad2)*%
%TO.C,J6*%
X163150000Y-93325000D03*
%TO.N,Net-(J6-Pad1)*%
X163150000Y-91775000D03*
%TD*%
D13*
%TO.N,Net-(J13-Pad1)*%
%TO.C,J13*%
X200450000Y-96250000D03*
%TD*%
%TO.N,Net-(J12-Pad1)*%
%TO.C,J12*%
X160500000Y-41550000D03*
%TD*%
%TO.N,Net-(J11-Pad1)*%
%TO.C,J11*%
X120550000Y-67750000D03*
%TD*%
%TO.N,Net-(J14-Pad1)*%
%TO.C,J14*%
X160500000Y-122450000D03*
%TD*%
D14*
%TO.N,GND*%
X121000000Y-78300000D03*
X124300000Y-85050000D03*
X121000000Y-74900000D03*
X152950000Y-71250000D03*
X139150000Y-66800000D03*
X125700000Y-95500000D03*
X132950000Y-124600000D03*
X178650000Y-96100000D03*
X150810000Y-67740000D03*
X202400000Y-110600000D03*
X155400000Y-100950000D03*
%TO.N,VSOLAR*%
X119950000Y-87500000D03*
X135725000Y-41875000D03*
X119925000Y-106775000D03*
X116050000Y-72800000D03*
X123000000Y-124750000D03*
%TO.N,3V3*%
X128800000Y-51350000D03*
X189600000Y-114850000D03*
X125575000Y-83875000D03*
X181300000Y-48400000D03*
%TO.N,Net-(D1-Pad1)*%
X151700000Y-62400000D03*
X175000000Y-62400000D03*
%TO.N,+MagZ*%
X175700000Y-102200000D03*
X125450000Y-80350000D03*
X125450000Y-81600000D03*
%TO.N,-MagY*%
X123250000Y-81050000D03*
X126100000Y-85500000D03*
X201150000Y-55000000D03*
%TO.N,+MagY*%
X122200000Y-81800000D03*
X125285000Y-102965000D03*
X178775000Y-47725000D03*
%TO.N,-MagX*%
X121050000Y-82450000D03*
X181465000Y-116135000D03*
X122050000Y-52250000D03*
%TO.N,+MagX*%
X119700000Y-83000000D03*
X139543205Y-44356795D03*
X190500000Y-114000000D03*
%TO.N,SCL4*%
X125750000Y-87100000D03*
X140500000Y-77100000D03*
%TO.N,SDA4*%
X125550000Y-88400000D03*
X138900000Y-77500000D03*
%TO.N,SCL5*%
X143814999Y-64224999D03*
%TO.N,SDA5*%
X146450000Y-64950000D03*
X141300000Y-64950000D03*
%TD*%
D15*
%TO.N,+MagZ*%
X175700000Y-102200000D02*
X175700000Y-102200000D01*
X138350000Y-102850000D02*
X175050000Y-102850000D01*
X138100000Y-102600000D02*
X138350000Y-102850000D01*
X138100000Y-60550000D02*
X138100000Y-102600000D01*
X138250000Y-60400000D02*
X138100000Y-60550000D01*
X175050000Y-102850000D02*
X175700000Y-102200000D01*
X133100000Y-113350000D02*
X127600000Y-107850000D01*
X187600000Y-113350000D02*
X133100000Y-113350000D01*
X193050000Y-55800000D02*
X193050000Y-107900000D01*
X193050000Y-107900000D02*
X187600000Y-113350000D01*
X133350000Y-50350000D02*
X187600000Y-50350000D01*
X128100000Y-107600000D02*
X128100000Y-55600000D01*
X133300000Y-112800000D02*
X128100000Y-107600000D01*
X192550000Y-107600000D02*
X187350000Y-112800000D01*
X193600000Y-108100000D02*
X187850000Y-113850000D01*
X187600000Y-50350000D02*
X193050000Y-55800000D01*
X192550000Y-56050000D02*
X192550000Y-107600000D01*
X128100000Y-55600000D02*
X133350000Y-50350000D01*
X127600000Y-107850000D02*
X127600000Y-55350000D01*
X187350000Y-112800000D02*
X133300000Y-112800000D01*
X187350000Y-50850000D02*
X192550000Y-56050000D01*
X133100000Y-49850000D02*
X187800000Y-49850000D01*
X187800000Y-49850000D02*
X193600000Y-55650000D01*
X193600000Y-55650000D02*
X193600000Y-108100000D01*
X187850000Y-113850000D02*
X132800000Y-113850000D01*
X132800000Y-113850000D02*
X127100000Y-108150000D01*
X127600000Y-55350000D02*
X133100000Y-49850000D01*
X187350000Y-50850000D02*
X177100000Y-50850000D01*
X177350000Y-50850000D02*
X177100000Y-50850000D01*
X133600000Y-50850000D02*
X177100000Y-50850000D01*
X128600000Y-55850000D02*
X133600000Y-50850000D01*
X128600000Y-107350000D02*
X128600000Y-55850000D01*
X133600000Y-112350000D02*
X128600000Y-107350000D01*
X187050000Y-112350000D02*
X133600000Y-112350000D01*
X190050000Y-57350000D02*
X190050000Y-106350000D01*
X186050000Y-53350000D02*
X190050000Y-57350000D01*
X191050000Y-106850000D02*
X186550000Y-111350000D01*
X131050000Y-57150000D02*
X134850000Y-53350000D01*
X133850000Y-111850000D02*
X129100000Y-107100000D01*
X134850000Y-109850000D02*
X131050000Y-106050000D01*
X185850000Y-109850000D02*
X134850000Y-109850000D01*
X187000000Y-51350000D02*
X192100000Y-56450000D01*
X189550000Y-106150000D02*
X185850000Y-109850000D01*
X135100000Y-109350000D02*
X131600000Y-105850000D01*
X189550000Y-57600000D02*
X189550000Y-106150000D01*
X185800000Y-53850000D02*
X189550000Y-57600000D01*
X134600000Y-110350000D02*
X130600000Y-106350000D01*
X190050000Y-106350000D02*
X186050000Y-110350000D01*
X129100000Y-107100000D02*
X129100000Y-56100000D01*
X135050000Y-53850000D02*
X185800000Y-53850000D01*
X131600000Y-57300000D02*
X135050000Y-53850000D01*
X186850000Y-51900000D02*
X191550000Y-56600000D01*
X131600000Y-105850000D02*
X131600000Y-57300000D01*
X192100000Y-107300000D02*
X187050000Y-112350000D01*
X185400000Y-54900000D02*
X188600000Y-58100000D01*
X131050000Y-106050000D02*
X131050000Y-57150000D01*
X188600000Y-58100000D02*
X188600000Y-105550000D01*
X185550000Y-54350000D02*
X189050000Y-57850000D01*
X134050000Y-51900000D02*
X186850000Y-51900000D01*
X188600000Y-105550000D02*
X185300000Y-108850000D01*
X132100000Y-57600000D02*
X135350000Y-54350000D01*
X185300000Y-108850000D02*
X135350000Y-108850000D01*
X135350000Y-108850000D02*
X132100000Y-105600000D01*
X132100000Y-105600000D02*
X132100000Y-57600000D01*
X186050000Y-110350000D02*
X134600000Y-110350000D01*
X189050000Y-105850000D02*
X185550000Y-109350000D01*
X134350000Y-110850000D02*
X130100000Y-106600000D01*
X135350000Y-54350000D02*
X185550000Y-54350000D01*
X130100000Y-56600000D02*
X134300000Y-52400000D01*
X189050000Y-57850000D02*
X189050000Y-105850000D01*
X134850000Y-53350000D02*
X186050000Y-53350000D01*
X185550000Y-109350000D02*
X135100000Y-109350000D01*
X129600000Y-106850000D02*
X129600000Y-56350000D01*
X130600000Y-106350000D02*
X130600000Y-56850000D01*
X130600000Y-56850000D02*
X134600000Y-52850000D01*
X192100000Y-56450000D02*
X192100000Y-107300000D01*
X134600000Y-52850000D02*
X186350000Y-52850000D01*
X186350000Y-52850000D02*
X190600000Y-57100000D01*
X191550000Y-56600000D02*
X191550000Y-107100000D01*
X190600000Y-57100000D02*
X190600000Y-106550000D01*
X133850000Y-51350000D02*
X187000000Y-51350000D01*
X190600000Y-106550000D02*
X186300000Y-110850000D01*
X186300000Y-110850000D02*
X134350000Y-110850000D01*
X134300000Y-52400000D02*
X186650000Y-52400000D01*
X130100000Y-106600000D02*
X130100000Y-56600000D01*
X186650000Y-52400000D02*
X191050000Y-56800000D01*
X191050000Y-56800000D02*
X191050000Y-106850000D01*
X186550000Y-111350000D02*
X134100000Y-111350000D01*
X134100000Y-111350000D02*
X129600000Y-106850000D01*
X129600000Y-56350000D02*
X134050000Y-51900000D01*
X191550000Y-107100000D02*
X186800000Y-111850000D01*
X186800000Y-111850000D02*
X133850000Y-111850000D01*
X129100000Y-56100000D02*
X133850000Y-51350000D01*
X185400000Y-54900000D02*
X175200000Y-54900000D01*
X175400000Y-54900000D02*
X175200000Y-54900000D01*
X132600000Y-57850000D02*
X135550000Y-54900000D01*
X132600000Y-105350000D02*
X132600000Y-57850000D01*
X187050000Y-58850000D02*
X187050000Y-104900000D01*
X136350000Y-56350000D02*
X184550000Y-56350000D01*
X184600000Y-107350000D02*
X136100000Y-107350000D01*
X135850000Y-55350000D02*
X185100000Y-55350000D01*
X187050000Y-104900000D02*
X184600000Y-107350000D01*
X134100000Y-58600000D02*
X136350000Y-56350000D01*
X135550000Y-54900000D02*
X175200000Y-54900000D01*
X133600000Y-58350000D02*
X136100000Y-55850000D01*
X184800000Y-55850000D02*
X187600000Y-58650000D01*
X136100000Y-107350000D02*
X133600000Y-104850000D01*
X136100000Y-55850000D02*
X184800000Y-55850000D01*
X186550000Y-59150000D02*
X186550000Y-104550000D01*
X186550000Y-104550000D02*
X184300000Y-106800000D01*
X184550000Y-56350000D02*
X187050000Y-58850000D01*
X185100000Y-55350000D02*
X188050000Y-58300000D01*
X184250000Y-56850000D02*
X186550000Y-59150000D01*
X187600000Y-58650000D02*
X187600000Y-105050000D01*
X133100000Y-58100000D02*
X135850000Y-55350000D01*
X134100000Y-104600000D02*
X134100000Y-58600000D01*
X133600000Y-104850000D02*
X133600000Y-58350000D01*
X184300000Y-106800000D02*
X136300000Y-106800000D01*
X188050000Y-58300000D02*
X188050000Y-105350000D01*
X187600000Y-105050000D02*
X184800000Y-107850000D01*
X184800000Y-107850000D02*
X135800000Y-107850000D01*
X136300000Y-106800000D02*
X134100000Y-104600000D01*
X135800000Y-107850000D02*
X133100000Y-105150000D01*
X133100000Y-105150000D02*
X133100000Y-58100000D01*
X188050000Y-105350000D02*
X185050000Y-108350000D01*
X185050000Y-108350000D02*
X135600000Y-108350000D01*
X135600000Y-108350000D02*
X132600000Y-105350000D01*
X184250000Y-56850000D02*
X174100000Y-56850000D01*
X174250000Y-56850000D02*
X174100000Y-56850000D01*
X183100000Y-102800000D02*
X183100000Y-60900000D01*
X182550000Y-103350000D02*
X183100000Y-102800000D01*
X138100000Y-59850000D02*
X137550000Y-60400000D01*
X182850000Y-59850000D02*
X138100000Y-59850000D01*
X183550000Y-60550000D02*
X182850000Y-59850000D01*
X183550000Y-103100000D02*
X183550000Y-60550000D01*
X137850000Y-103850000D02*
X182800000Y-103850000D01*
X137100000Y-103100000D02*
X137850000Y-103850000D01*
X137850000Y-59350000D02*
X137100000Y-60100000D01*
X184050000Y-60300000D02*
X183100000Y-59350000D01*
X184050000Y-103350000D02*
X184050000Y-60300000D01*
X183050000Y-104350000D02*
X184050000Y-103350000D01*
X182800000Y-103850000D02*
X183550000Y-103100000D01*
X137600000Y-104350000D02*
X183050000Y-104350000D01*
X136600000Y-103350000D02*
X137600000Y-104350000D01*
X184550000Y-60100000D02*
X183300000Y-58850000D01*
X184550000Y-103600000D02*
X184550000Y-60100000D01*
X183300000Y-104850000D02*
X184550000Y-103600000D01*
X184100000Y-57400000D02*
X136750000Y-57400000D01*
X183100000Y-59350000D02*
X137850000Y-59350000D01*
X135100000Y-59050000D02*
X135100000Y-104100000D01*
X136850000Y-105850000D02*
X183850000Y-105850000D01*
X135100000Y-104100000D02*
X136850000Y-105850000D01*
X136750000Y-57400000D02*
X135100000Y-59050000D01*
X138100000Y-103350000D02*
X182550000Y-103350000D01*
X186100000Y-59400000D02*
X184100000Y-57400000D01*
X186100000Y-104300000D02*
X186100000Y-59400000D01*
X136600000Y-59850000D02*
X136600000Y-103350000D01*
X184050000Y-106350000D02*
X186100000Y-104300000D01*
X134600000Y-58900000D02*
X134600000Y-104350000D01*
X183550000Y-58350000D02*
X137350000Y-58350000D01*
X137600000Y-58850000D02*
X136600000Y-59850000D01*
X134600000Y-104350000D02*
X136600000Y-106350000D01*
X136650000Y-56850000D02*
X134600000Y-58900000D01*
X137350000Y-58350000D02*
X136100000Y-59600000D01*
X174100000Y-56850000D02*
X136650000Y-56850000D01*
X137550000Y-102800000D02*
X138100000Y-103350000D01*
X185550000Y-104150000D02*
X185550000Y-59550000D01*
X183100000Y-60900000D02*
X182600000Y-60400000D01*
X185550000Y-59550000D02*
X183850000Y-57850000D01*
X183300000Y-58850000D02*
X137600000Y-58850000D01*
X183850000Y-105850000D02*
X185550000Y-104150000D01*
X185050000Y-59850000D02*
X183550000Y-58350000D01*
X136600000Y-106350000D02*
X184050000Y-106350000D01*
X136100000Y-59600000D02*
X136100000Y-103650000D01*
X183850000Y-57850000D02*
X137100000Y-57850000D01*
X183550000Y-105350000D02*
X185050000Y-103850000D01*
X137550000Y-60400000D02*
X137550000Y-102800000D01*
X135600000Y-59350000D02*
X135600000Y-103850000D01*
X137100000Y-60100000D02*
X137100000Y-103100000D01*
X137100000Y-57850000D02*
X135600000Y-59350000D01*
X185050000Y-103850000D02*
X185050000Y-59850000D01*
X136100000Y-103650000D02*
X137300000Y-104850000D01*
X135600000Y-103850000D02*
X137100000Y-105350000D01*
X137100000Y-105350000D02*
X183550000Y-105350000D01*
X137300000Y-104850000D02*
X183300000Y-104850000D01*
X172400000Y-60400000D02*
X182600000Y-60400000D01*
X172600000Y-60400000D02*
X172400000Y-60400000D01*
X172400000Y-60400000D02*
X138250000Y-60400000D01*
X127100000Y-108150000D02*
X127100000Y-83250000D01*
X127100000Y-82000000D02*
X125450000Y-80350000D01*
X127100000Y-83250000D02*
X127100000Y-82000000D01*
%TO.N,-MagY*%
X123250000Y-82650000D02*
X126100000Y-85500000D01*
X123250000Y-81050000D02*
X123250000Y-82650000D01*
X123649999Y-80650001D02*
X123649999Y-48900001D01*
X123250000Y-81050000D02*
X123649999Y-80650001D01*
X191625000Y-45475000D02*
X191775000Y-45625000D01*
X127075000Y-45475000D02*
X191625000Y-45475000D01*
X191775000Y-45625000D02*
X201150000Y-55000000D01*
X123649999Y-48900001D02*
X127075000Y-45475000D01*
%TO.N,-MagX*%
X121050000Y-82450000D02*
X119650000Y-81050000D01*
X119650000Y-81050000D02*
X117774999Y-79174999D01*
X117774999Y-59074999D02*
X117774999Y-56525001D01*
X117774999Y-79174999D02*
X117774999Y-59074999D01*
X117774999Y-56525001D02*
X122050000Y-52250000D01*
X121050000Y-109473002D02*
X130126998Y-118550000D01*
X121050000Y-82450000D02*
X121050000Y-109473002D01*
X179050000Y-118550000D02*
X181465000Y-116135000D01*
X130126998Y-118550000D02*
X179050000Y-118550000D01*
%TD*%
M02*
