%TF.GenerationSoftware,KiCad,Pcbnew,(5.1.10)-1*%
%TF.CreationDate,2022-11-13T15:12:26-08:00*%
%TF.ProjectId,-ZFace,2d5a4661-6365-42e6-9b69-6361645f7063,1.0*%
%TF.SameCoordinates,Original*%
%TF.FileFunction,Paste,Top*%
%TF.FilePolarity,Positive*%
%FSLAX46Y46*%
G04 Gerber Fmt 4.6, Leading zero omitted, Abs format (unit mm)*
G04 Created by KiCad (PCBNEW (5.1.10)-1) date 2022-11-13 15:12:26*
%MOMM*%
%LPD*%
G01*
G04 APERTURE LIST*
%ADD10R,1.800000X0.600000*%
%ADD11R,2.700000X1.200000*%
%ADD12R,0.800000X0.800000*%
%ADD13R,1.200000X2.700000*%
G04 APERTURE END LIST*
D10*
%TO.C,J1*%
X117450000Y-86445000D03*
X114150000Y-86445000D03*
X117450000Y-85175000D03*
X114150000Y-85175000D03*
X117450000Y-83905000D03*
X114150000Y-83905000D03*
X117450000Y-82635000D03*
X114150000Y-82635000D03*
X117450000Y-81365000D03*
X114150000Y-81365000D03*
X117450000Y-80095000D03*
X114150000Y-80095000D03*
X117450000Y-78825000D03*
X114150000Y-78825000D03*
X117450000Y-77555000D03*
X114150000Y-77555000D03*
%TD*%
%TO.C,U3*%
G36*
G01*
X129975000Y-78975000D02*
X129975000Y-79175000D01*
G75*
G02*
X129875000Y-79275000I-100000J0D01*
G01*
X128600000Y-79275000D01*
G75*
G02*
X128500000Y-79175000I0J100000D01*
G01*
X128500000Y-78975000D01*
G75*
G02*
X128600000Y-78875000I100000J0D01*
G01*
X129875000Y-78875000D01*
G75*
G02*
X129975000Y-78975000I0J-100000D01*
G01*
G37*
G36*
G01*
X129975000Y-78325000D02*
X129975000Y-78525000D01*
G75*
G02*
X129875000Y-78625000I-100000J0D01*
G01*
X128600000Y-78625000D01*
G75*
G02*
X128500000Y-78525000I0J100000D01*
G01*
X128500000Y-78325000D01*
G75*
G02*
X128600000Y-78225000I100000J0D01*
G01*
X129875000Y-78225000D01*
G75*
G02*
X129975000Y-78325000I0J-100000D01*
G01*
G37*
G36*
G01*
X129975000Y-77675000D02*
X129975000Y-77875000D01*
G75*
G02*
X129875000Y-77975000I-100000J0D01*
G01*
X128600000Y-77975000D01*
G75*
G02*
X128500000Y-77875000I0J100000D01*
G01*
X128500000Y-77675000D01*
G75*
G02*
X128600000Y-77575000I100000J0D01*
G01*
X129875000Y-77575000D01*
G75*
G02*
X129975000Y-77675000I0J-100000D01*
G01*
G37*
G36*
G01*
X129975000Y-77025000D02*
X129975000Y-77225000D01*
G75*
G02*
X129875000Y-77325000I-100000J0D01*
G01*
X128600000Y-77325000D01*
G75*
G02*
X128500000Y-77225000I0J100000D01*
G01*
X128500000Y-77025000D01*
G75*
G02*
X128600000Y-76925000I100000J0D01*
G01*
X129875000Y-76925000D01*
G75*
G02*
X129975000Y-77025000I0J-100000D01*
G01*
G37*
G36*
G01*
X129975000Y-76375000D02*
X129975000Y-76575000D01*
G75*
G02*
X129875000Y-76675000I-100000J0D01*
G01*
X128600000Y-76675000D01*
G75*
G02*
X128500000Y-76575000I0J100000D01*
G01*
X128500000Y-76375000D01*
G75*
G02*
X128600000Y-76275000I100000J0D01*
G01*
X129875000Y-76275000D01*
G75*
G02*
X129975000Y-76375000I0J-100000D01*
G01*
G37*
G36*
G01*
X129975000Y-75725000D02*
X129975000Y-75925000D01*
G75*
G02*
X129875000Y-76025000I-100000J0D01*
G01*
X128600000Y-76025000D01*
G75*
G02*
X128500000Y-75925000I0J100000D01*
G01*
X128500000Y-75725000D01*
G75*
G02*
X128600000Y-75625000I100000J0D01*
G01*
X129875000Y-75625000D01*
G75*
G02*
X129975000Y-75725000I0J-100000D01*
G01*
G37*
G36*
G01*
X129975000Y-75075000D02*
X129975000Y-75275000D01*
G75*
G02*
X129875000Y-75375000I-100000J0D01*
G01*
X128600000Y-75375000D01*
G75*
G02*
X128500000Y-75275000I0J100000D01*
G01*
X128500000Y-75075000D01*
G75*
G02*
X128600000Y-74975000I100000J0D01*
G01*
X129875000Y-74975000D01*
G75*
G02*
X129975000Y-75075000I0J-100000D01*
G01*
G37*
G36*
G01*
X129975000Y-74425000D02*
X129975000Y-74625000D01*
G75*
G02*
X129875000Y-74725000I-100000J0D01*
G01*
X128600000Y-74725000D01*
G75*
G02*
X128500000Y-74625000I0J100000D01*
G01*
X128500000Y-74425000D01*
G75*
G02*
X128600000Y-74325000I100000J0D01*
G01*
X129875000Y-74325000D01*
G75*
G02*
X129975000Y-74425000I0J-100000D01*
G01*
G37*
G36*
G01*
X129975000Y-73775000D02*
X129975000Y-73975000D01*
G75*
G02*
X129875000Y-74075000I-100000J0D01*
G01*
X128600000Y-74075000D01*
G75*
G02*
X128500000Y-73975000I0J100000D01*
G01*
X128500000Y-73775000D01*
G75*
G02*
X128600000Y-73675000I100000J0D01*
G01*
X129875000Y-73675000D01*
G75*
G02*
X129975000Y-73775000I0J-100000D01*
G01*
G37*
G36*
G01*
X129975000Y-73125000D02*
X129975000Y-73325000D01*
G75*
G02*
X129875000Y-73425000I-100000J0D01*
G01*
X128600000Y-73425000D01*
G75*
G02*
X128500000Y-73325000I0J100000D01*
G01*
X128500000Y-73125000D01*
G75*
G02*
X128600000Y-73025000I100000J0D01*
G01*
X129875000Y-73025000D01*
G75*
G02*
X129975000Y-73125000I0J-100000D01*
G01*
G37*
G36*
G01*
X129975000Y-72475000D02*
X129975000Y-72675000D01*
G75*
G02*
X129875000Y-72775000I-100000J0D01*
G01*
X128600000Y-72775000D01*
G75*
G02*
X128500000Y-72675000I0J100000D01*
G01*
X128500000Y-72475000D01*
G75*
G02*
X128600000Y-72375000I100000J0D01*
G01*
X129875000Y-72375000D01*
G75*
G02*
X129975000Y-72475000I0J-100000D01*
G01*
G37*
G36*
G01*
X129975000Y-71825000D02*
X129975000Y-72025000D01*
G75*
G02*
X129875000Y-72125000I-100000J0D01*
G01*
X128600000Y-72125000D01*
G75*
G02*
X128500000Y-72025000I0J100000D01*
G01*
X128500000Y-71825000D01*
G75*
G02*
X128600000Y-71725000I100000J0D01*
G01*
X129875000Y-71725000D01*
G75*
G02*
X129975000Y-71825000I0J-100000D01*
G01*
G37*
G36*
G01*
X135700000Y-71825000D02*
X135700000Y-72025000D01*
G75*
G02*
X135600000Y-72125000I-100000J0D01*
G01*
X134325000Y-72125000D01*
G75*
G02*
X134225000Y-72025000I0J100000D01*
G01*
X134225000Y-71825000D01*
G75*
G02*
X134325000Y-71725000I100000J0D01*
G01*
X135600000Y-71725000D01*
G75*
G02*
X135700000Y-71825000I0J-100000D01*
G01*
G37*
G36*
G01*
X135700000Y-72475000D02*
X135700000Y-72675000D01*
G75*
G02*
X135600000Y-72775000I-100000J0D01*
G01*
X134325000Y-72775000D01*
G75*
G02*
X134225000Y-72675000I0J100000D01*
G01*
X134225000Y-72475000D01*
G75*
G02*
X134325000Y-72375000I100000J0D01*
G01*
X135600000Y-72375000D01*
G75*
G02*
X135700000Y-72475000I0J-100000D01*
G01*
G37*
G36*
G01*
X135700000Y-73125000D02*
X135700000Y-73325000D01*
G75*
G02*
X135600000Y-73425000I-100000J0D01*
G01*
X134325000Y-73425000D01*
G75*
G02*
X134225000Y-73325000I0J100000D01*
G01*
X134225000Y-73125000D01*
G75*
G02*
X134325000Y-73025000I100000J0D01*
G01*
X135600000Y-73025000D01*
G75*
G02*
X135700000Y-73125000I0J-100000D01*
G01*
G37*
G36*
G01*
X135700000Y-73775000D02*
X135700000Y-73975000D01*
G75*
G02*
X135600000Y-74075000I-100000J0D01*
G01*
X134325000Y-74075000D01*
G75*
G02*
X134225000Y-73975000I0J100000D01*
G01*
X134225000Y-73775000D01*
G75*
G02*
X134325000Y-73675000I100000J0D01*
G01*
X135600000Y-73675000D01*
G75*
G02*
X135700000Y-73775000I0J-100000D01*
G01*
G37*
G36*
G01*
X135700000Y-74425000D02*
X135700000Y-74625000D01*
G75*
G02*
X135600000Y-74725000I-100000J0D01*
G01*
X134325000Y-74725000D01*
G75*
G02*
X134225000Y-74625000I0J100000D01*
G01*
X134225000Y-74425000D01*
G75*
G02*
X134325000Y-74325000I100000J0D01*
G01*
X135600000Y-74325000D01*
G75*
G02*
X135700000Y-74425000I0J-100000D01*
G01*
G37*
G36*
G01*
X135700000Y-75075000D02*
X135700000Y-75275000D01*
G75*
G02*
X135600000Y-75375000I-100000J0D01*
G01*
X134325000Y-75375000D01*
G75*
G02*
X134225000Y-75275000I0J100000D01*
G01*
X134225000Y-75075000D01*
G75*
G02*
X134325000Y-74975000I100000J0D01*
G01*
X135600000Y-74975000D01*
G75*
G02*
X135700000Y-75075000I0J-100000D01*
G01*
G37*
G36*
G01*
X135700000Y-75725000D02*
X135700000Y-75925000D01*
G75*
G02*
X135600000Y-76025000I-100000J0D01*
G01*
X134325000Y-76025000D01*
G75*
G02*
X134225000Y-75925000I0J100000D01*
G01*
X134225000Y-75725000D01*
G75*
G02*
X134325000Y-75625000I100000J0D01*
G01*
X135600000Y-75625000D01*
G75*
G02*
X135700000Y-75725000I0J-100000D01*
G01*
G37*
G36*
G01*
X135700000Y-76375000D02*
X135700000Y-76575000D01*
G75*
G02*
X135600000Y-76675000I-100000J0D01*
G01*
X134325000Y-76675000D01*
G75*
G02*
X134225000Y-76575000I0J100000D01*
G01*
X134225000Y-76375000D01*
G75*
G02*
X134325000Y-76275000I100000J0D01*
G01*
X135600000Y-76275000D01*
G75*
G02*
X135700000Y-76375000I0J-100000D01*
G01*
G37*
G36*
G01*
X135700000Y-77025000D02*
X135700000Y-77225000D01*
G75*
G02*
X135600000Y-77325000I-100000J0D01*
G01*
X134325000Y-77325000D01*
G75*
G02*
X134225000Y-77225000I0J100000D01*
G01*
X134225000Y-77025000D01*
G75*
G02*
X134325000Y-76925000I100000J0D01*
G01*
X135600000Y-76925000D01*
G75*
G02*
X135700000Y-77025000I0J-100000D01*
G01*
G37*
G36*
G01*
X135700000Y-77675000D02*
X135700000Y-77875000D01*
G75*
G02*
X135600000Y-77975000I-100000J0D01*
G01*
X134325000Y-77975000D01*
G75*
G02*
X134225000Y-77875000I0J100000D01*
G01*
X134225000Y-77675000D01*
G75*
G02*
X134325000Y-77575000I100000J0D01*
G01*
X135600000Y-77575000D01*
G75*
G02*
X135700000Y-77675000I0J-100000D01*
G01*
G37*
G36*
G01*
X135700000Y-78325000D02*
X135700000Y-78525000D01*
G75*
G02*
X135600000Y-78625000I-100000J0D01*
G01*
X134325000Y-78625000D01*
G75*
G02*
X134225000Y-78525000I0J100000D01*
G01*
X134225000Y-78325000D01*
G75*
G02*
X134325000Y-78225000I100000J0D01*
G01*
X135600000Y-78225000D01*
G75*
G02*
X135700000Y-78325000I0J-100000D01*
G01*
G37*
G36*
G01*
X135700000Y-78975000D02*
X135700000Y-79175000D01*
G75*
G02*
X135600000Y-79275000I-100000J0D01*
G01*
X134325000Y-79275000D01*
G75*
G02*
X134225000Y-79175000I0J100000D01*
G01*
X134225000Y-78975000D01*
G75*
G02*
X134325000Y-78875000I100000J0D01*
G01*
X135600000Y-78875000D01*
G75*
G02*
X135700000Y-78975000I0J-100000D01*
G01*
G37*
%TD*%
%TO.C,R2*%
G36*
G01*
X127525000Y-78825000D02*
X126975000Y-78825000D01*
G75*
G02*
X126775000Y-78625000I0J200000D01*
G01*
X126775000Y-78225000D01*
G75*
G02*
X126975000Y-78025000I200000J0D01*
G01*
X127525000Y-78025000D01*
G75*
G02*
X127725000Y-78225000I0J-200000D01*
G01*
X127725000Y-78625000D01*
G75*
G02*
X127525000Y-78825000I-200000J0D01*
G01*
G37*
G36*
G01*
X127525000Y-80475000D02*
X126975000Y-80475000D01*
G75*
G02*
X126775000Y-80275000I0J200000D01*
G01*
X126775000Y-79875000D01*
G75*
G02*
X126975000Y-79675000I200000J0D01*
G01*
X127525000Y-79675000D01*
G75*
G02*
X127725000Y-79875000I0J-200000D01*
G01*
X127725000Y-80275000D01*
G75*
G02*
X127525000Y-80475000I-200000J0D01*
G01*
G37*
%TD*%
%TO.C,R1*%
G36*
G01*
X125925000Y-78000000D02*
X125375000Y-78000000D01*
G75*
G02*
X125175000Y-77800000I0J200000D01*
G01*
X125175000Y-77400000D01*
G75*
G02*
X125375000Y-77200000I200000J0D01*
G01*
X125925000Y-77200000D01*
G75*
G02*
X126125000Y-77400000I0J-200000D01*
G01*
X126125000Y-77800000D01*
G75*
G02*
X125925000Y-78000000I-200000J0D01*
G01*
G37*
G36*
G01*
X125925000Y-79650000D02*
X125375000Y-79650000D01*
G75*
G02*
X125175000Y-79450000I0J200000D01*
G01*
X125175000Y-79050000D01*
G75*
G02*
X125375000Y-78850000I200000J0D01*
G01*
X125925000Y-78850000D01*
G75*
G02*
X126125000Y-79050000I0J-200000D01*
G01*
X126125000Y-79450000D01*
G75*
G02*
X125925000Y-79650000I-200000J0D01*
G01*
G37*
%TD*%
D11*
%TO.C,J5*%
X128065000Y-97930000D03*
X123165000Y-109270000D03*
X123165000Y-97930000D03*
X128065000Y-109270000D03*
D12*
X128885000Y-105505000D03*
X127615000Y-105505000D03*
X128885000Y-100425000D03*
X128885000Y-106775000D03*
X127615000Y-106775000D03*
X128885000Y-102965000D03*
X128885000Y-104235000D03*
X127615000Y-102965000D03*
X127615000Y-104235000D03*
X128885000Y-101695000D03*
X127615000Y-100425000D03*
X127615000Y-101695000D03*
%TD*%
D13*
%TO.C,J4*%
X144570000Y-49565000D03*
X133230000Y-44665000D03*
X144570000Y-44665000D03*
X133230000Y-49565000D03*
D12*
X136995000Y-50385000D03*
X136995000Y-49115000D03*
X142075000Y-50385000D03*
X135725000Y-50385000D03*
X135725000Y-49115000D03*
X139535000Y-50385000D03*
X138265000Y-50385000D03*
X139535000Y-49115000D03*
X138265000Y-49115000D03*
X140805000Y-50385000D03*
X142075000Y-49115000D03*
X140805000Y-49115000D03*
%TD*%
D11*
%TO.C,J3*%
X192935000Y-66070000D03*
X197835000Y-54730000D03*
X197835000Y-66070000D03*
X192935000Y-54730000D03*
D12*
X192115000Y-58495000D03*
X193385000Y-58495000D03*
X192115000Y-63575000D03*
X192115000Y-57225000D03*
X193385000Y-57225000D03*
X192115000Y-61035000D03*
X192115000Y-59765000D03*
X193385000Y-61035000D03*
X193385000Y-59765000D03*
X192115000Y-62305000D03*
X193385000Y-63575000D03*
X193385000Y-62305000D03*
%TD*%
D13*
%TO.C,J2*%
X176430000Y-114420000D03*
X187770000Y-119320000D03*
X176430000Y-119320000D03*
X187770000Y-114420000D03*
D12*
X184005000Y-113600000D03*
X184005000Y-114870000D03*
X178925000Y-113600000D03*
X185275000Y-113600000D03*
X185275000Y-114870000D03*
X181465000Y-113600000D03*
X182735000Y-113600000D03*
X181465000Y-114870000D03*
X182735000Y-114870000D03*
X180195000Y-113600000D03*
X178925000Y-114870000D03*
X180195000Y-114870000D03*
%TD*%
%TO.C,C4*%
G36*
G01*
X129475000Y-82000000D02*
X130425000Y-82000000D01*
G75*
G02*
X130675000Y-82250000I0J-250000D01*
G01*
X130675000Y-82750000D01*
G75*
G02*
X130425000Y-83000000I-250000J0D01*
G01*
X129475000Y-83000000D01*
G75*
G02*
X129225000Y-82750000I0J250000D01*
G01*
X129225000Y-82250000D01*
G75*
G02*
X129475000Y-82000000I250000J0D01*
G01*
G37*
G36*
G01*
X129475000Y-80100000D02*
X130425000Y-80100000D01*
G75*
G02*
X130675000Y-80350000I0J-250000D01*
G01*
X130675000Y-80850000D01*
G75*
G02*
X130425000Y-81100000I-250000J0D01*
G01*
X129475000Y-81100000D01*
G75*
G02*
X129225000Y-80850000I0J250000D01*
G01*
X129225000Y-80350000D01*
G75*
G02*
X129475000Y-80100000I250000J0D01*
G01*
G37*
%TD*%
M02*
