M48
; DRILL file {KiCad (5.1.10)-1} date 11/13/22 15:13:14
; FORMAT={-:-/ absolute / metric / decimal}
; #@! TF.CreationDate,2022-11-13T15:13:14-08:00
; #@! TF.GenerationSoftware,Kicad,Pcbnew,(5.1.10)-1
; #@! TF.FileFunction,Plated,1,4,PTH
FMAT,2
METRIC
T1C0.400
T2C0.730
T3C1.100
T4C1.500
T5C3.400
%
G90
G05
T1
X116.05Y-72.8
X119.7Y-83.0
X119.925Y-106.775
X119.95Y-87.5
X121.0Y-74.9
X121.0Y-78.3
X121.05Y-82.45
X122.05Y-52.25
X122.2Y-81.8
X123.0Y-124.75
X123.25Y-81.05
X124.3Y-85.05
X125.285Y-102.965
X125.45Y-80.35
X125.45Y-81.6
X125.55Y-88.4
X125.575Y-83.875
X125.7Y-95.5
X125.75Y-87.1
X126.1Y-85.5
X128.8Y-51.35
X132.95Y-124.6
X135.725Y-41.875
X138.9Y-77.5
X139.15Y-66.8
X139.543Y-44.357
X140.5Y-77.1
X141.3Y-64.95
X143.815Y-64.225
X146.45Y-64.95
X150.81Y-67.74
X151.7Y-62.4
X152.95Y-71.25
X155.4Y-100.95
X175.0Y-62.4
X175.7Y-102.2
X178.65Y-96.1
X178.775Y-47.725
X181.3Y-48.4
X181.465Y-116.135
X189.6Y-114.85
X190.5Y-114.0
X201.15Y-55.0
X202.4Y-110.6
T2
X163.15Y-91.775
X163.15Y-93.325
T3
X163.0Y-80.3
X163.0Y-83.8
T4
X158.2Y-80.25
X158.2Y-83.75
T5
X120.55Y-67.75
X160.5Y-41.55
X160.5Y-122.45
X200.45Y-96.25
T0
M30
