%TF.GenerationSoftware,KiCad,Pcbnew,(5.1.10)-1*%
%TF.CreationDate,2022-11-16T11:33:55-08:00*%
%TF.ProjectId,XYFaces,58594661-6365-4732-9e6b-696361645f70,1.0*%
%TF.SameCoordinates,Original*%
%TF.FileFunction,Copper,L2,Inr*%
%TF.FilePolarity,Positive*%
%FSLAX46Y46*%
G04 Gerber Fmt 4.6, Leading zero omitted, Abs format (unit mm)*
G04 Created by KiCad (PCBNEW (5.1.10)-1) date 2022-11-16 11:33:55*
%MOMM*%
%LPD*%
G01*
G04 APERTURE LIST*
%TA.AperFunction,ComponentPad*%
%ADD10C,4.900000*%
%TD*%
%TA.AperFunction,ViaPad*%
%ADD11C,0.800000*%
%TD*%
%TA.AperFunction,Conductor*%
%ADD12C,0.250000*%
%TD*%
G04 APERTURE END LIST*
D10*
%TO.N,Net-(J5-Pad1)*%
%TO.C,J5*%
X172100000Y-136100000D03*
%TD*%
%TO.N,Net-(J4-Pad1)*%
%TO.C,J4*%
X172100000Y-43500000D03*
%TD*%
%TO.N,Net-(J3-Pad1)*%
%TO.C,J3*%
X96500000Y-136100000D03*
%TD*%
%TO.N,Net-(J2-Pad1)*%
%TO.C,J2*%
X96500000Y-43500000D03*
%TD*%
D11*
%TO.N,GND*%
X131900000Y-139200000D03*
X132400000Y-136400000D03*
X106500000Y-139300000D03*
X172400000Y-86700000D03*
X143900000Y-138000000D03*
%TO.N,VSOLAR*%
X159700000Y-137600000D03*
%TO.N,SDA*%
X135500000Y-140500000D03*
X126375000Y-140525000D03*
X152700000Y-138800000D03*
%TO.N,SCL*%
X139150000Y-140050000D03*
X136300000Y-137500000D03*
X152750000Y-136750000D03*
%TO.N,3V3*%
X135400000Y-138600000D03*
X135400000Y-134800000D03*
X158550000Y-136450000D03*
X112450000Y-135250000D03*
X108550000Y-136300000D03*
%TO.N,Net-(J1-Pad10)*%
X126150000Y-108550000D03*
X155250000Y-136650000D03*
X155285000Y-138965000D03*
%TD*%
D12*
%TO.N,SDA*%
X135899999Y-140899999D02*
X148700001Y-140899999D01*
X135500000Y-140500000D02*
X135899999Y-140899999D01*
X135475000Y-140525000D02*
X135500000Y-140500000D01*
X126375000Y-140525000D02*
X135475000Y-140525000D01*
X148700001Y-140899999D02*
X150036411Y-140899999D01*
X150036411Y-140899999D02*
X152136410Y-138800000D01*
X152136410Y-138800000D02*
X152700000Y-138800000D01*
X152700000Y-138800000D02*
X152700000Y-138800000D01*
%TO.N,SCL*%
X138850000Y-140050000D02*
X139150000Y-140050000D01*
X136300000Y-137500000D02*
X138850000Y-140050000D01*
X148450000Y-140050000D02*
X148050000Y-140050000D01*
X139150000Y-140050000D02*
X148050000Y-140050000D01*
X148450000Y-140050000D02*
X150250000Y-140050000D01*
X150250000Y-140050000D02*
X152750000Y-137550000D01*
X152750000Y-137550000D02*
X152750000Y-136750000D01*
X152750000Y-136750000D02*
X152750000Y-136750000D01*
%TO.N,3V3*%
X135400000Y-135500000D02*
X135400000Y-134800000D01*
X135400000Y-138600000D02*
X135400000Y-135500000D01*
%TO.N,Net-(J1-Pad10)*%
X126150000Y-108550000D02*
X126150000Y-108550000D01*
X126150000Y-108550000D02*
X126150000Y-108550000D01*
X126150000Y-108550000D02*
X126150000Y-108550000D01*
X163400000Y-61050000D02*
X157400000Y-55050000D01*
X157400000Y-120050000D02*
X163400000Y-114050000D01*
X156650000Y-56550000D02*
X112650000Y-56550000D01*
X107900000Y-113550000D02*
X112900000Y-118550000D01*
X107900000Y-62050000D02*
X107900000Y-113550000D01*
X161400000Y-113050000D02*
X161400000Y-62050000D01*
X113150000Y-57550000D02*
X108400000Y-62300000D01*
X156150000Y-57550000D02*
X113150000Y-57550000D01*
X160900000Y-62300000D02*
X156150000Y-57550000D01*
X155900000Y-117050000D02*
X160400000Y-112550000D01*
X113650000Y-117050000D02*
X155900000Y-117050000D01*
X109400000Y-112800000D02*
X113650000Y-117050000D01*
X109400000Y-62800000D02*
X109400000Y-112800000D01*
X113650000Y-58550000D02*
X109400000Y-62800000D01*
X155650000Y-58550000D02*
X113650000Y-58550000D01*
X159900000Y-62800000D02*
X155650000Y-58550000D01*
X159900000Y-112300000D02*
X159900000Y-62800000D01*
X155650000Y-116550000D02*
X159900000Y-112300000D01*
X113900000Y-116550000D02*
X155650000Y-116550000D01*
X160400000Y-112550000D02*
X160400000Y-62550000D01*
X109900000Y-112550000D02*
X113900000Y-116550000D01*
X162400000Y-113550000D02*
X162400000Y-61550000D01*
X116150000Y-112050000D02*
X153400000Y-112050000D01*
X107400000Y-61800000D02*
X107400000Y-113800000D01*
X155400000Y-59050000D02*
X113900000Y-59050000D01*
X157400000Y-55050000D02*
X111900000Y-55050000D01*
X154900000Y-65300000D02*
X153150000Y-63550000D01*
X156400000Y-118050000D02*
X161400000Y-113050000D01*
X156400000Y-64550000D02*
X153900000Y-62050000D01*
X161900000Y-113300000D02*
X161900000Y-61800000D01*
X116400000Y-111550000D02*
X153150000Y-111550000D01*
X162900000Y-61300000D02*
X157150000Y-55550000D01*
X154650000Y-60550000D02*
X114650000Y-60550000D01*
X114900000Y-110050000D02*
X116400000Y-111550000D01*
X114900000Y-65550000D02*
X114900000Y-110050000D01*
X116400000Y-64050000D02*
X114900000Y-65550000D01*
X152900000Y-64050000D02*
X116400000Y-64050000D01*
X154400000Y-65550000D02*
X152900000Y-64050000D01*
X152900000Y-111050000D02*
X154400000Y-109550000D01*
X156900000Y-119050000D02*
X162400000Y-113550000D01*
X153150000Y-63550000D02*
X116150000Y-63550000D01*
X159400000Y-63050000D02*
X155400000Y-59050000D01*
X116650000Y-111050000D02*
X152900000Y-111050000D01*
X107400000Y-113800000D02*
X112650000Y-119050000D01*
X153400000Y-112050000D02*
X155400000Y-110050000D01*
X106400000Y-61300000D02*
X106400000Y-114300000D01*
X158900000Y-111800000D02*
X158900000Y-63300000D01*
X115400000Y-109800000D02*
X116650000Y-111050000D01*
X115400000Y-65800000D02*
X115400000Y-109800000D01*
X116650000Y-64550000D02*
X115400000Y-65800000D01*
X152650000Y-64550000D02*
X116650000Y-64550000D01*
X153900000Y-65800000D02*
X152650000Y-64550000D01*
X152650000Y-110550000D02*
X153900000Y-109300000D01*
X116900000Y-110550000D02*
X152650000Y-110550000D01*
X115900000Y-109550000D02*
X116900000Y-110550000D01*
X154400000Y-109550000D02*
X154400000Y-65550000D01*
X108400000Y-113300000D02*
X113150000Y-118050000D01*
X115900000Y-66050000D02*
X115900000Y-109550000D01*
X161900000Y-61800000D02*
X156650000Y-56550000D01*
X154150000Y-113550000D02*
X156900000Y-110800000D01*
X116900000Y-65050000D02*
X115900000Y-66050000D01*
X163400000Y-114050000D02*
X163400000Y-61050000D01*
X151900000Y-66050000D02*
X117400000Y-66050000D01*
X156900000Y-56050000D02*
X112400000Y-56050000D01*
X153150000Y-111550000D02*
X154900000Y-109800000D01*
X157150000Y-55550000D02*
X112150000Y-55550000D01*
X155150000Y-59550000D02*
X114150000Y-59550000D01*
X152400000Y-66550000D02*
X151900000Y-66050000D01*
X152400000Y-108550000D02*
X152400000Y-66550000D01*
X112150000Y-120050000D02*
X157400000Y-120050000D01*
X155400000Y-110050000D02*
X155400000Y-65050000D01*
X157150000Y-119550000D02*
X162900000Y-113800000D01*
X158400000Y-63550000D02*
X154900000Y-60050000D01*
X153400000Y-66050000D02*
X152400000Y-65050000D01*
X117650000Y-109050000D02*
X151900000Y-109050000D01*
X156650000Y-118550000D02*
X161900000Y-113300000D01*
X114400000Y-110300000D02*
X116150000Y-112050000D01*
X157900000Y-63800000D02*
X154650000Y-60550000D01*
X151900000Y-66800000D02*
X151650000Y-66550000D01*
X116900000Y-66550000D02*
X116900000Y-109050000D01*
X112650000Y-119050000D02*
X156900000Y-119050000D01*
X114400000Y-65300000D02*
X114400000Y-110300000D01*
X111900000Y-55050000D02*
X105900000Y-61050000D01*
X113900000Y-59050000D02*
X109900000Y-63050000D01*
X117650000Y-66550000D02*
X117400000Y-66800000D01*
X106400000Y-114300000D02*
X112150000Y-120050000D01*
X151900000Y-109050000D02*
X152400000Y-108550000D01*
X116400000Y-66300000D02*
X116400000Y-109300000D01*
X151650000Y-66550000D02*
X117650000Y-66550000D01*
X117400000Y-66050000D02*
X116900000Y-66550000D01*
X151650000Y-108550000D02*
X151900000Y-108300000D01*
X117400000Y-108800000D02*
X117650000Y-109050000D01*
X117400000Y-66800000D02*
X117400000Y-108800000D01*
X117400000Y-109550000D02*
X152150000Y-109550000D01*
X126150000Y-108550000D02*
X151650000Y-108550000D01*
X116900000Y-109050000D02*
X117400000Y-109550000D01*
X106900000Y-61550000D02*
X106900000Y-114050000D01*
X152150000Y-109550000D02*
X152900000Y-108800000D01*
X106900000Y-114050000D02*
X112400000Y-119550000D01*
X151900000Y-108300000D02*
X151900000Y-66800000D01*
X117150000Y-65550000D02*
X116400000Y-66300000D01*
X162900000Y-113800000D02*
X162900000Y-61300000D01*
X154900000Y-109800000D02*
X154900000Y-65300000D01*
X153650000Y-112550000D02*
X155900000Y-110300000D01*
X162400000Y-61550000D02*
X156900000Y-56050000D01*
X153900000Y-113050000D02*
X156400000Y-110550000D01*
X152900000Y-108800000D02*
X152900000Y-66300000D01*
X152900000Y-66300000D02*
X152150000Y-65550000D01*
X152150000Y-65550000D02*
X117150000Y-65550000D01*
X153900000Y-109300000D02*
X153900000Y-65800000D01*
X112650000Y-56550000D02*
X107400000Y-61800000D01*
X116400000Y-109300000D02*
X117150000Y-110050000D01*
X161400000Y-62050000D02*
X156400000Y-57050000D01*
X112900000Y-64550000D02*
X112900000Y-111050000D01*
X117150000Y-110050000D02*
X152400000Y-110050000D01*
X152400000Y-110050000D02*
X153400000Y-109050000D01*
X153400000Y-109050000D02*
X153400000Y-66050000D01*
X105900000Y-114550000D02*
X111675000Y-120325000D01*
X116150000Y-63550000D02*
X114400000Y-65300000D01*
X115400000Y-62050000D02*
X112900000Y-64550000D01*
X152400000Y-65050000D02*
X116900000Y-65050000D01*
X105900000Y-61050000D02*
X105900000Y-114550000D01*
X155400000Y-65050000D02*
X153400000Y-63050000D01*
X108400000Y-62300000D02*
X108400000Y-113300000D01*
X158400000Y-111550000D02*
X158400000Y-63550000D01*
X112400000Y-119550000D02*
X157150000Y-119550000D01*
X153400000Y-63050000D02*
X115900000Y-63050000D01*
X112150000Y-55550000D02*
X106400000Y-61300000D01*
X114400000Y-115550000D02*
X155150000Y-115550000D01*
X115900000Y-63050000D02*
X113900000Y-65050000D01*
X112900000Y-57050000D02*
X107900000Y-62050000D01*
X157400000Y-111050000D02*
X157400000Y-64050000D01*
X113900000Y-65050000D02*
X113900000Y-110550000D01*
X156400000Y-57050000D02*
X112900000Y-57050000D01*
X110400000Y-63300000D02*
X110400000Y-112300000D01*
X113150000Y-118050000D02*
X156400000Y-118050000D01*
X113900000Y-110550000D02*
X115900000Y-112550000D01*
X112900000Y-118550000D02*
X156650000Y-118550000D01*
X155400000Y-116050000D02*
X159400000Y-112050000D01*
X115900000Y-112550000D02*
X153650000Y-112550000D01*
X112400000Y-56050000D02*
X106900000Y-61550000D01*
X154400000Y-61050000D02*
X114900000Y-61050000D01*
X155900000Y-110300000D02*
X155900000Y-64800000D01*
X113400000Y-58050000D02*
X108900000Y-62550000D01*
X155900000Y-64800000D02*
X153650000Y-62550000D01*
X113400000Y-117550000D02*
X156150000Y-117550000D01*
X153650000Y-62550000D02*
X115650000Y-62550000D01*
X115650000Y-62550000D02*
X113400000Y-64800000D01*
X113400000Y-64800000D02*
X113400000Y-110800000D01*
X113400000Y-110800000D02*
X115650000Y-113050000D01*
X115650000Y-113050000D02*
X153900000Y-113050000D01*
X156400000Y-110550000D02*
X156400000Y-64550000D01*
X153900000Y-62050000D02*
X115400000Y-62050000D01*
X112900000Y-111050000D02*
X115400000Y-113550000D01*
X115400000Y-113550000D02*
X154150000Y-113550000D01*
X156900000Y-110800000D02*
X156900000Y-64300000D01*
X156900000Y-64300000D02*
X154150000Y-61550000D01*
X154150000Y-61550000D02*
X115150000Y-61550000D01*
X108900000Y-113050000D02*
X113400000Y-117550000D01*
X115150000Y-61550000D02*
X112400000Y-64300000D01*
X112400000Y-64300000D02*
X112400000Y-111300000D01*
X160900000Y-112800000D02*
X160900000Y-62300000D01*
X112400000Y-111300000D02*
X115150000Y-114050000D01*
X115150000Y-114050000D02*
X154400000Y-114050000D01*
X154400000Y-114050000D02*
X157400000Y-111050000D01*
X157400000Y-64050000D02*
X154400000Y-61050000D01*
X114900000Y-61050000D02*
X111900000Y-64050000D01*
X111900000Y-64050000D02*
X111900000Y-111550000D01*
X111900000Y-111550000D02*
X114900000Y-114550000D01*
X114900000Y-114550000D02*
X154650000Y-114550000D01*
X154650000Y-114550000D02*
X157900000Y-111300000D01*
X157900000Y-111300000D02*
X157900000Y-63800000D01*
X114650000Y-60550000D02*
X111400000Y-63800000D01*
X111400000Y-63800000D02*
X111400000Y-111800000D01*
X156150000Y-117550000D02*
X160900000Y-112800000D01*
X111400000Y-111800000D02*
X114650000Y-115050000D01*
X114650000Y-115050000D02*
X154900000Y-115050000D01*
X154900000Y-115050000D02*
X158400000Y-111550000D01*
X154900000Y-60050000D02*
X114400000Y-60050000D01*
X114400000Y-60050000D02*
X110900000Y-63550000D01*
X110900000Y-63550000D02*
X110900000Y-112050000D01*
X110900000Y-112050000D02*
X114400000Y-115550000D01*
X160400000Y-62550000D02*
X155900000Y-58050000D01*
X155150000Y-115550000D02*
X158900000Y-111800000D01*
X158900000Y-63300000D02*
X155150000Y-59550000D01*
X108900000Y-62550000D02*
X108900000Y-113050000D01*
X114150000Y-59550000D02*
X110400000Y-63300000D01*
X110400000Y-112300000D02*
X114150000Y-116050000D01*
X114150000Y-116050000D02*
X155400000Y-116050000D01*
X159400000Y-112050000D02*
X159400000Y-63050000D01*
X155900000Y-58050000D02*
X113400000Y-58050000D01*
X109900000Y-63050000D02*
X109900000Y-112550000D01*
X111675000Y-120325000D02*
X111750000Y-120400000D01*
X111750000Y-120400000D02*
X111850000Y-120500000D01*
X111963590Y-120500000D02*
X111963600Y-120500010D01*
X111850000Y-120500000D02*
X111963590Y-120500000D01*
X111963600Y-120500010D02*
X156200010Y-120500010D01*
X156200010Y-120500010D02*
X157050000Y-121350000D01*
X157050000Y-121350000D02*
X157050000Y-134850000D01*
X157050000Y-134850000D02*
X155250000Y-136650000D01*
X155250000Y-136650000D02*
X155250000Y-136650000D01*
%TD*%
M02*
