%TF.GenerationSoftware,KiCad,Pcbnew,(5.1.10)-1*%
%TF.CreationDate,2022-11-16T11:33:55-08:00*%
%TF.ProjectId,XYFaces,58594661-6365-4732-9e6b-696361645f70,1.0*%
%TF.SameCoordinates,Original*%
%TF.FileFunction,Legend,Top*%
%TF.FilePolarity,Positive*%
%FSLAX46Y46*%
G04 Gerber Fmt 4.6, Leading zero omitted, Abs format (unit mm)*
G04 Created by KiCad (PCBNEW (5.1.10)-1) date 2022-11-16 11:33:55*
%MOMM*%
%LPD*%
G01*
G04 APERTURE LIST*
%ADD10C,0.150000*%
%ADD11C,0.120000*%
%ADD12C,0.100000*%
%ADD13C,0.500000*%
G04 APERTURE END LIST*
D10*
X106038095Y-138300000D02*
X105942857Y-138252380D01*
X105800000Y-138252380D01*
X105657142Y-138300000D01*
X105561904Y-138395238D01*
X105514285Y-138490476D01*
X105466666Y-138680952D01*
X105466666Y-138823809D01*
X105514285Y-139014285D01*
X105561904Y-139109523D01*
X105657142Y-139204761D01*
X105800000Y-139252380D01*
X105895238Y-139252380D01*
X106038095Y-139204761D01*
X106085714Y-139157142D01*
X106085714Y-138823809D01*
X105895238Y-138823809D01*
X106514285Y-139252380D02*
X106514285Y-138252380D01*
X107085714Y-139252380D01*
X107085714Y-138252380D01*
X107561904Y-139252380D02*
X107561904Y-138252380D01*
X107800000Y-138252380D01*
X107942857Y-138300000D01*
X108038095Y-138395238D01*
X108085714Y-138490476D01*
X108133333Y-138680952D01*
X108133333Y-138823809D01*
X108085714Y-139014285D01*
X108038095Y-139109523D01*
X107942857Y-139204761D01*
X107800000Y-139252380D01*
X107561904Y-139252380D01*
X116214285Y-138152380D02*
X116547619Y-139152380D01*
X116880952Y-138152380D01*
X117166666Y-139104761D02*
X117309523Y-139152380D01*
X117547619Y-139152380D01*
X117642857Y-139104761D01*
X117690476Y-139057142D01*
X117738095Y-138961904D01*
X117738095Y-138866666D01*
X117690476Y-138771428D01*
X117642857Y-138723809D01*
X117547619Y-138676190D01*
X117357142Y-138628571D01*
X117261904Y-138580952D01*
X117214285Y-138533333D01*
X117166666Y-138438095D01*
X117166666Y-138342857D01*
X117214285Y-138247619D01*
X117261904Y-138200000D01*
X117357142Y-138152380D01*
X117595238Y-138152380D01*
X117738095Y-138200000D01*
X118309523Y-139152380D02*
X118214285Y-139104761D01*
X118166666Y-139057142D01*
X118119047Y-138961904D01*
X118119047Y-138676190D01*
X118166666Y-138580952D01*
X118214285Y-138533333D01*
X118309523Y-138485714D01*
X118452380Y-138485714D01*
X118547619Y-138533333D01*
X118595238Y-138580952D01*
X118642857Y-138676190D01*
X118642857Y-138961904D01*
X118595238Y-139057142D01*
X118547619Y-139104761D01*
X118452380Y-139152380D01*
X118309523Y-139152380D01*
X119214285Y-139152380D02*
X119119047Y-139104761D01*
X119071428Y-139009523D01*
X119071428Y-138152380D01*
X120023809Y-139152380D02*
X120023809Y-138628571D01*
X119976190Y-138533333D01*
X119880952Y-138485714D01*
X119690476Y-138485714D01*
X119595238Y-138533333D01*
X120023809Y-139104761D02*
X119928571Y-139152380D01*
X119690476Y-139152380D01*
X119595238Y-139104761D01*
X119547619Y-139009523D01*
X119547619Y-138914285D01*
X119595238Y-138819047D01*
X119690476Y-138771428D01*
X119928571Y-138771428D01*
X120023809Y-138723809D01*
X120499999Y-139152380D02*
X120499999Y-138485714D01*
X120499999Y-138676190D02*
X120547619Y-138580952D01*
X120595238Y-138533333D01*
X120690476Y-138485714D01*
X120785714Y-138485714D01*
D11*
%TO.C,U2*%
X138100000Y-139300000D02*
G75*
G03*
X138100000Y-139300000I-50000J0D01*
G01*
X138350000Y-135500000D02*
X138600000Y-135500000D01*
X138350000Y-135500000D02*
X138350000Y-135800000D01*
X138350000Y-135800000D02*
X138350000Y-135900000D01*
X138350000Y-135800000D02*
X138350000Y-135500000D01*
X140450000Y-135550000D02*
X140450000Y-135850000D01*
X140450000Y-135850000D02*
X140450000Y-135950000D01*
X140450000Y-135550000D02*
X140200000Y-135550000D01*
X140450000Y-135850000D02*
X140450000Y-135550000D01*
X140450000Y-139500000D02*
X140450000Y-139200000D01*
X140450000Y-139200000D02*
X140450000Y-139100000D01*
X140450000Y-139500000D02*
X140200000Y-139500000D01*
X140450000Y-139200000D02*
X140450000Y-139500000D01*
X138350000Y-139150000D02*
X138350000Y-139050000D01*
X138350000Y-139450000D02*
X138600000Y-139450000D01*
X138350000Y-139150000D02*
X138350000Y-139450000D01*
X138350000Y-139450000D02*
X138350000Y-139150000D01*
%TO.C,SC1*%
X99400000Y-42500000D02*
X104150000Y-42500000D01*
X104150000Y-42500000D02*
X99400000Y-42500000D01*
X99400000Y-42500000D02*
X99400000Y-47250000D01*
X117650000Y-42500000D02*
X122400000Y-42500000D01*
X122400000Y-42500000D02*
X122400000Y-47250000D01*
X99400000Y-84500000D02*
X99400000Y-79750000D01*
X99400000Y-84500000D02*
X104150000Y-84500000D01*
X117650000Y-84500000D02*
X122400000Y-84500000D01*
X122400000Y-84500000D02*
X122400000Y-79750000D01*
X99400000Y-63500000D02*
X99400000Y-53500000D01*
X99400000Y-53500000D02*
X99400000Y-73500000D01*
X122400000Y-63500000D02*
X122400000Y-53500000D01*
X122400000Y-53500000D02*
X122400000Y-71750000D01*
X122400000Y-71750000D02*
X122400000Y-63500000D01*
X122400000Y-63500000D02*
X122400000Y-73500000D01*
%TO.C,SC4*%
X122200000Y-131100000D02*
X117450000Y-131100000D01*
X117450000Y-131100000D02*
X122200000Y-131100000D01*
X122200000Y-131100000D02*
X122200000Y-126350000D01*
X103950000Y-131100000D02*
X99200000Y-131100000D01*
X99200000Y-131100000D02*
X99200000Y-126350000D01*
X122200000Y-89100000D02*
X122200000Y-93850000D01*
X122200000Y-89100000D02*
X117450000Y-89100000D01*
X103950000Y-89100000D02*
X99200000Y-89100000D01*
X99200000Y-89100000D02*
X99200000Y-93850000D01*
X122200000Y-110100000D02*
X122200000Y-120100000D01*
X122200000Y-120100000D02*
X122200000Y-100100000D01*
X99200000Y-110100000D02*
X99200000Y-120100000D01*
X99200000Y-120100000D02*
X99200000Y-101850000D01*
X99200000Y-101850000D02*
X99200000Y-110100000D01*
X99200000Y-110100000D02*
X99200000Y-100100000D01*
%TO.C,U1*%
X124650000Y-139975000D02*
X124650000Y-139475000D01*
X127375000Y-139975000D02*
X124650000Y-139975000D01*
X127375000Y-139475000D02*
X127375000Y-139975000D01*
X126250000Y-137100000D02*
X125750000Y-137100000D01*
X126000000Y-137100000D02*
X126250000Y-137100000D01*
X124575000Y-135925000D02*
X125175000Y-135925000D01*
X124575000Y-136925000D02*
X124575000Y-135925000D01*
X124750000Y-137100000D02*
X124575000Y-136925000D01*
X124750000Y-137100000D02*
X124575000Y-137275000D01*
X124575000Y-137275000D02*
X124575000Y-138250000D01*
X127375000Y-137275000D02*
X127375000Y-138250000D01*
X127200000Y-137100000D02*
X127375000Y-137275000D01*
X127375000Y-135925000D02*
X126775000Y-135925000D01*
X127375000Y-136925000D02*
X127375000Y-135925000D01*
X127200000Y-137100000D02*
X127375000Y-136925000D01*
%TO.C,D1*%
X94750000Y-79125000D02*
X94750000Y-83875000D01*
X94750000Y-83875000D02*
X97650000Y-83875000D01*
X94750000Y-79125000D02*
X97650000Y-79125000D01*
X97650000Y-79125000D02*
X97650000Y-83875000D01*
D12*
G36*
X95488800Y-82008000D02*
G01*
X96225400Y-81195200D01*
X96835000Y-82008000D01*
X95488800Y-82008000D01*
G37*
X95488800Y-82008000D02*
X96225400Y-81195200D01*
X96835000Y-82008000D01*
X95488800Y-82008000D01*
D11*
X97012800Y-81068200D02*
X95463400Y-81068200D01*
%TO.C,SC6*%
X169000000Y-131100000D02*
X164250000Y-131100000D01*
X164250000Y-131100000D02*
X169000000Y-131100000D01*
X169000000Y-131100000D02*
X169000000Y-126350000D01*
X150750000Y-131100000D02*
X146000000Y-131100000D01*
X146000000Y-131100000D02*
X146000000Y-126350000D01*
X169000000Y-89100000D02*
X169000000Y-93850000D01*
X169000000Y-89100000D02*
X164250000Y-89100000D01*
X150750000Y-89100000D02*
X146000000Y-89100000D01*
X146000000Y-89100000D02*
X146000000Y-93850000D01*
X169000000Y-110100000D02*
X169000000Y-120100000D01*
X169000000Y-120100000D02*
X169000000Y-100100000D01*
X146000000Y-110100000D02*
X146000000Y-120100000D01*
X146000000Y-120100000D02*
X146000000Y-101850000D01*
X146000000Y-101850000D02*
X146000000Y-110100000D01*
X146000000Y-110100000D02*
X146000000Y-100100000D01*
%TO.C,SC5*%
X122600000Y-89100000D02*
X127350000Y-89100000D01*
X127350000Y-89100000D02*
X122600000Y-89100000D01*
X122600000Y-89100000D02*
X122600000Y-93850000D01*
X140850000Y-89100000D02*
X145600000Y-89100000D01*
X145600000Y-89100000D02*
X145600000Y-93850000D01*
X122600000Y-131100000D02*
X122600000Y-126350000D01*
X122600000Y-131100000D02*
X127350000Y-131100000D01*
X140850000Y-131100000D02*
X145600000Y-131100000D01*
X145600000Y-131100000D02*
X145600000Y-126350000D01*
X122600000Y-110100000D02*
X122600000Y-100100000D01*
X122600000Y-100100000D02*
X122600000Y-120100000D01*
X145600000Y-110100000D02*
X145600000Y-100100000D01*
X145600000Y-100100000D02*
X145600000Y-118350000D01*
X145600000Y-118350000D02*
X145600000Y-110100000D01*
X145600000Y-110100000D02*
X145600000Y-120100000D01*
%TO.C,SC3*%
X146200000Y-42500000D02*
X150950000Y-42500000D01*
X150950000Y-42500000D02*
X146200000Y-42500000D01*
X146200000Y-42500000D02*
X146200000Y-47250000D01*
X164450000Y-42500000D02*
X169200000Y-42500000D01*
X169200000Y-42500000D02*
X169200000Y-47250000D01*
X146200000Y-84500000D02*
X146200000Y-79750000D01*
X146200000Y-84500000D02*
X150950000Y-84500000D01*
X164450000Y-84500000D02*
X169200000Y-84500000D01*
X169200000Y-84500000D02*
X169200000Y-79750000D01*
X146200000Y-63500000D02*
X146200000Y-53500000D01*
X146200000Y-53500000D02*
X146200000Y-73500000D01*
X169200000Y-63500000D02*
X169200000Y-53500000D01*
X169200000Y-53500000D02*
X169200000Y-71750000D01*
X169200000Y-71750000D02*
X169200000Y-63500000D01*
X169200000Y-63500000D02*
X169200000Y-73500000D01*
%TO.C,SC2*%
X145800000Y-84500000D02*
X141050000Y-84500000D01*
X141050000Y-84500000D02*
X145800000Y-84500000D01*
X145800000Y-84500000D02*
X145800000Y-79750000D01*
X127550000Y-84500000D02*
X122800000Y-84500000D01*
X122800000Y-84500000D02*
X122800000Y-79750000D01*
X145800000Y-42500000D02*
X145800000Y-47250000D01*
X145800000Y-42500000D02*
X141050000Y-42500000D01*
X127550000Y-42500000D02*
X122800000Y-42500000D01*
X122800000Y-42500000D02*
X122800000Y-47250000D01*
X145800000Y-63500000D02*
X145800000Y-73500000D01*
X145800000Y-73500000D02*
X145800000Y-53500000D01*
X122800000Y-63500000D02*
X122800000Y-73500000D01*
X122800000Y-73500000D02*
X122800000Y-55250000D01*
X122800000Y-55250000D02*
X122800000Y-63500000D01*
X122800000Y-63500000D02*
X122800000Y-53500000D01*
%TO.C,D7*%
X108675000Y-132450000D02*
X103925000Y-132450000D01*
X103925000Y-132450000D02*
X103925000Y-135350000D01*
X108675000Y-132450000D02*
X108675000Y-135350000D01*
X108675000Y-135350000D02*
X103925000Y-135350000D01*
D12*
G36*
X105792000Y-133188800D02*
G01*
X106604800Y-133925400D01*
X105792000Y-134535000D01*
X105792000Y-133188800D01*
G37*
X105792000Y-133188800D02*
X106604800Y-133925400D01*
X105792000Y-134535000D01*
X105792000Y-133188800D01*
D11*
X106731800Y-134712800D02*
X106731800Y-133163400D01*
%TO.C,D6*%
X173850000Y-94475000D02*
X173850000Y-89725000D01*
X173850000Y-89725000D02*
X170950000Y-89725000D01*
X173850000Y-94475000D02*
X170950000Y-94475000D01*
X170950000Y-94475000D02*
X170950000Y-89725000D01*
D12*
G36*
X173111200Y-91592000D02*
G01*
X172374600Y-92404800D01*
X171765000Y-91592000D01*
X173111200Y-91592000D01*
G37*
X173111200Y-91592000D02*
X172374600Y-92404800D01*
X171765000Y-91592000D01*
X173111200Y-91592000D01*
D11*
X171587200Y-92531800D02*
X173136600Y-92531800D01*
%TO.C,D5*%
X144025000Y-88250000D02*
X148775000Y-88250000D01*
X148775000Y-88250000D02*
X148775000Y-85350000D01*
X144025000Y-88250000D02*
X144025000Y-85350000D01*
X144025000Y-85350000D02*
X148775000Y-85350000D01*
D12*
G36*
X146908000Y-87511200D02*
G01*
X146095200Y-86774600D01*
X146908000Y-86165000D01*
X146908000Y-87511200D01*
G37*
X146908000Y-87511200D02*
X146095200Y-86774600D01*
X146908000Y-86165000D01*
X146908000Y-87511200D01*
D11*
X145968200Y-85987200D02*
X145968200Y-87536600D01*
%TO.C,D4*%
X97650000Y-94475000D02*
X97650000Y-89725000D01*
X97650000Y-89725000D02*
X94750000Y-89725000D01*
X97650000Y-94475000D02*
X94750000Y-94475000D01*
X94750000Y-94475000D02*
X94750000Y-89725000D01*
D12*
G36*
X96911200Y-91592000D02*
G01*
X96174600Y-92404800D01*
X95565000Y-91592000D01*
X96911200Y-91592000D01*
G37*
X96911200Y-91592000D02*
X96174600Y-92404800D01*
X95565000Y-91592000D01*
X96911200Y-91592000D01*
D11*
X95387200Y-92531800D02*
X96936600Y-92531800D01*
%TO.C,D3*%
X170950000Y-79125000D02*
X170950000Y-83875000D01*
X170950000Y-83875000D02*
X173850000Y-83875000D01*
X170950000Y-79125000D02*
X173850000Y-79125000D01*
X173850000Y-79125000D02*
X173850000Y-83875000D01*
D12*
G36*
X171688800Y-82008000D02*
G01*
X172425400Y-81195200D01*
X173035000Y-82008000D01*
X171688800Y-82008000D01*
G37*
X171688800Y-82008000D02*
X172425400Y-81195200D01*
X173035000Y-82008000D01*
X171688800Y-82008000D01*
D11*
X173212800Y-81068200D02*
X171663400Y-81068200D01*
%TO.C,D2*%
X119825000Y-88250000D02*
X124575000Y-88250000D01*
X124575000Y-88250000D02*
X124575000Y-85350000D01*
X119825000Y-88250000D02*
X119825000Y-85350000D01*
X119825000Y-85350000D02*
X124575000Y-85350000D01*
D12*
G36*
X122708000Y-87511200D02*
G01*
X121895200Y-86774600D01*
X122708000Y-86165000D01*
X122708000Y-87511200D01*
G37*
X122708000Y-87511200D02*
X121895200Y-86774600D01*
X122708000Y-86165000D01*
X122708000Y-87511200D01*
D11*
X121768200Y-85987200D02*
X121768200Y-87536600D01*
%TO.C,R2*%
X134422500Y-139462742D02*
X134422500Y-139937258D01*
X133377500Y-139462742D02*
X133377500Y-139937258D01*
%TO.C,R1*%
X134422500Y-136437742D02*
X134422500Y-136912258D01*
X133377500Y-136437742D02*
X133377500Y-136912258D01*
%TO.C,C3*%
X142735000Y-136788748D02*
X142735000Y-137311252D01*
X141265000Y-136788748D02*
X141265000Y-137311252D01*
%TO.C,C2*%
X129711252Y-139935000D02*
X129188748Y-139935000D01*
X129711252Y-138465000D02*
X129188748Y-138465000D01*
%TO.C,C1*%
X129188748Y-135265000D02*
X129711252Y-135265000D01*
X129188748Y-136735000D02*
X129711252Y-136735000D01*
%TO.C,J7*%
X115400000Y-138100000D02*
X115400000Y-140500000D01*
X113000000Y-138100000D02*
X115400000Y-138100000D01*
X113000000Y-140500000D02*
X113000000Y-138100000D01*
X115400000Y-140500000D02*
X113000000Y-140500000D01*
%TO.C,J6*%
X111000000Y-138100000D02*
X111000000Y-140500000D01*
X108600000Y-138100000D02*
X111000000Y-138100000D01*
X108600000Y-140500000D02*
X108600000Y-138100000D01*
X111000000Y-140500000D02*
X108600000Y-140500000D01*
%TO.C,U2*%
D10*
X138638095Y-134152380D02*
X138638095Y-134961904D01*
X138685714Y-135057142D01*
X138733333Y-135104761D01*
X138828571Y-135152380D01*
X139019047Y-135152380D01*
X139114285Y-135104761D01*
X139161904Y-135057142D01*
X139209523Y-134961904D01*
X139209523Y-134152380D01*
X139638095Y-134247619D02*
X139685714Y-134200000D01*
X139780952Y-134152380D01*
X140019047Y-134152380D01*
X140114285Y-134200000D01*
X140161904Y-134247619D01*
X140209523Y-134342857D01*
X140209523Y-134438095D01*
X140161904Y-134580952D01*
X139590476Y-135152380D01*
X140209523Y-135152380D01*
%TO.C,SC1*%
X109638095Y-64404761D02*
X109780952Y-64452380D01*
X110019047Y-64452380D01*
X110114285Y-64404761D01*
X110161904Y-64357142D01*
X110209523Y-64261904D01*
X110209523Y-64166666D01*
X110161904Y-64071428D01*
X110114285Y-64023809D01*
X110019047Y-63976190D01*
X109828571Y-63928571D01*
X109733333Y-63880952D01*
X109685714Y-63833333D01*
X109638095Y-63738095D01*
X109638095Y-63642857D01*
X109685714Y-63547619D01*
X109733333Y-63500000D01*
X109828571Y-63452380D01*
X110066666Y-63452380D01*
X110209523Y-63500000D01*
X111209523Y-64357142D02*
X111161904Y-64404761D01*
X111019047Y-64452380D01*
X110923809Y-64452380D01*
X110780952Y-64404761D01*
X110685714Y-64309523D01*
X110638095Y-64214285D01*
X110590476Y-64023809D01*
X110590476Y-63880952D01*
X110638095Y-63690476D01*
X110685714Y-63595238D01*
X110780952Y-63500000D01*
X110923809Y-63452380D01*
X111019047Y-63452380D01*
X111161904Y-63500000D01*
X111209523Y-63547619D01*
X112161904Y-64452380D02*
X111590476Y-64452380D01*
X111876190Y-64452380D02*
X111876190Y-63452380D01*
X111780952Y-63595238D01*
X111685714Y-63690476D01*
X111590476Y-63738095D01*
D13*
X109757142Y-79464285D02*
X112042857Y-79464285D01*
X109757142Y-47714285D02*
X112042857Y-47714285D01*
X110900000Y-48857142D02*
X110900000Y-46571428D01*
%TO.C,SC4*%
D10*
X109438095Y-110004761D02*
X109580952Y-110052380D01*
X109819047Y-110052380D01*
X109914285Y-110004761D01*
X109961904Y-109957142D01*
X110009523Y-109861904D01*
X110009523Y-109766666D01*
X109961904Y-109671428D01*
X109914285Y-109623809D01*
X109819047Y-109576190D01*
X109628571Y-109528571D01*
X109533333Y-109480952D01*
X109485714Y-109433333D01*
X109438095Y-109338095D01*
X109438095Y-109242857D01*
X109485714Y-109147619D01*
X109533333Y-109100000D01*
X109628571Y-109052380D01*
X109866666Y-109052380D01*
X110009523Y-109100000D01*
X111009523Y-109957142D02*
X110961904Y-110004761D01*
X110819047Y-110052380D01*
X110723809Y-110052380D01*
X110580952Y-110004761D01*
X110485714Y-109909523D01*
X110438095Y-109814285D01*
X110390476Y-109623809D01*
X110390476Y-109480952D01*
X110438095Y-109290476D01*
X110485714Y-109195238D01*
X110580952Y-109100000D01*
X110723809Y-109052380D01*
X110819047Y-109052380D01*
X110961904Y-109100000D01*
X111009523Y-109147619D01*
X111866666Y-109385714D02*
X111866666Y-110052380D01*
X111628571Y-109004761D02*
X111390476Y-109719047D01*
X112009523Y-109719047D01*
D13*
X109557142Y-94564285D02*
X111842857Y-94564285D01*
X109557142Y-126314285D02*
X111842857Y-126314285D01*
X110700000Y-127457142D02*
X110700000Y-125171428D01*
%TO.C,U1*%
D10*
X125238095Y-134652380D02*
X125238095Y-135461904D01*
X125285714Y-135557142D01*
X125333333Y-135604761D01*
X125428571Y-135652380D01*
X125619047Y-135652380D01*
X125714285Y-135604761D01*
X125761904Y-135557142D01*
X125809523Y-135461904D01*
X125809523Y-134652380D01*
X126809523Y-135652380D02*
X126238095Y-135652380D01*
X126523809Y-135652380D02*
X126523809Y-134652380D01*
X126428571Y-134795238D01*
X126333333Y-134890476D01*
X126238095Y-134938095D01*
%TO.C,D1*%
X94352380Y-82238095D02*
X93352380Y-82238095D01*
X93352380Y-82000000D01*
X93400000Y-81857142D01*
X93495238Y-81761904D01*
X93590476Y-81714285D01*
X93780952Y-81666666D01*
X93923809Y-81666666D01*
X94114285Y-81714285D01*
X94209523Y-81761904D01*
X94304761Y-81857142D01*
X94352380Y-82000000D01*
X94352380Y-82238095D01*
X94352380Y-80714285D02*
X94352380Y-81285714D01*
X94352380Y-81000000D02*
X93352380Y-81000000D01*
X93495238Y-81095238D01*
X93590476Y-81190476D01*
X93638095Y-81285714D01*
%TO.C,SC6*%
X156238095Y-110004761D02*
X156380952Y-110052380D01*
X156619047Y-110052380D01*
X156714285Y-110004761D01*
X156761904Y-109957142D01*
X156809523Y-109861904D01*
X156809523Y-109766666D01*
X156761904Y-109671428D01*
X156714285Y-109623809D01*
X156619047Y-109576190D01*
X156428571Y-109528571D01*
X156333333Y-109480952D01*
X156285714Y-109433333D01*
X156238095Y-109338095D01*
X156238095Y-109242857D01*
X156285714Y-109147619D01*
X156333333Y-109100000D01*
X156428571Y-109052380D01*
X156666666Y-109052380D01*
X156809523Y-109100000D01*
X157809523Y-109957142D02*
X157761904Y-110004761D01*
X157619047Y-110052380D01*
X157523809Y-110052380D01*
X157380952Y-110004761D01*
X157285714Y-109909523D01*
X157238095Y-109814285D01*
X157190476Y-109623809D01*
X157190476Y-109480952D01*
X157238095Y-109290476D01*
X157285714Y-109195238D01*
X157380952Y-109100000D01*
X157523809Y-109052380D01*
X157619047Y-109052380D01*
X157761904Y-109100000D01*
X157809523Y-109147619D01*
X158666666Y-109052380D02*
X158476190Y-109052380D01*
X158380952Y-109100000D01*
X158333333Y-109147619D01*
X158238095Y-109290476D01*
X158190476Y-109480952D01*
X158190476Y-109861904D01*
X158238095Y-109957142D01*
X158285714Y-110004761D01*
X158380952Y-110052380D01*
X158571428Y-110052380D01*
X158666666Y-110004761D01*
X158714285Y-109957142D01*
X158761904Y-109861904D01*
X158761904Y-109623809D01*
X158714285Y-109528571D01*
X158666666Y-109480952D01*
X158571428Y-109433333D01*
X158380952Y-109433333D01*
X158285714Y-109480952D01*
X158238095Y-109528571D01*
X158190476Y-109623809D01*
D13*
X156357142Y-94564285D02*
X158642857Y-94564285D01*
X156357142Y-126314285D02*
X158642857Y-126314285D01*
X157500000Y-127457142D02*
X157500000Y-125171428D01*
%TO.C,SC5*%
D10*
X132838095Y-111004761D02*
X132980952Y-111052380D01*
X133219047Y-111052380D01*
X133314285Y-111004761D01*
X133361904Y-110957142D01*
X133409523Y-110861904D01*
X133409523Y-110766666D01*
X133361904Y-110671428D01*
X133314285Y-110623809D01*
X133219047Y-110576190D01*
X133028571Y-110528571D01*
X132933333Y-110480952D01*
X132885714Y-110433333D01*
X132838095Y-110338095D01*
X132838095Y-110242857D01*
X132885714Y-110147619D01*
X132933333Y-110100000D01*
X133028571Y-110052380D01*
X133266666Y-110052380D01*
X133409523Y-110100000D01*
X134409523Y-110957142D02*
X134361904Y-111004761D01*
X134219047Y-111052380D01*
X134123809Y-111052380D01*
X133980952Y-111004761D01*
X133885714Y-110909523D01*
X133838095Y-110814285D01*
X133790476Y-110623809D01*
X133790476Y-110480952D01*
X133838095Y-110290476D01*
X133885714Y-110195238D01*
X133980952Y-110100000D01*
X134123809Y-110052380D01*
X134219047Y-110052380D01*
X134361904Y-110100000D01*
X134409523Y-110147619D01*
X135314285Y-110052380D02*
X134838095Y-110052380D01*
X134790476Y-110528571D01*
X134838095Y-110480952D01*
X134933333Y-110433333D01*
X135171428Y-110433333D01*
X135266666Y-110480952D01*
X135314285Y-110528571D01*
X135361904Y-110623809D01*
X135361904Y-110861904D01*
X135314285Y-110957142D01*
X135266666Y-111004761D01*
X135171428Y-111052380D01*
X134933333Y-111052380D01*
X134838095Y-111004761D01*
X134790476Y-110957142D01*
D13*
X132957142Y-126064285D02*
X135242857Y-126064285D01*
X132957142Y-94314285D02*
X135242857Y-94314285D01*
X134100000Y-95457142D02*
X134100000Y-93171428D01*
%TO.C,SC3*%
D10*
X156438095Y-64404761D02*
X156580952Y-64452380D01*
X156819047Y-64452380D01*
X156914285Y-64404761D01*
X156961904Y-64357142D01*
X157009523Y-64261904D01*
X157009523Y-64166666D01*
X156961904Y-64071428D01*
X156914285Y-64023809D01*
X156819047Y-63976190D01*
X156628571Y-63928571D01*
X156533333Y-63880952D01*
X156485714Y-63833333D01*
X156438095Y-63738095D01*
X156438095Y-63642857D01*
X156485714Y-63547619D01*
X156533333Y-63500000D01*
X156628571Y-63452380D01*
X156866666Y-63452380D01*
X157009523Y-63500000D01*
X158009523Y-64357142D02*
X157961904Y-64404761D01*
X157819047Y-64452380D01*
X157723809Y-64452380D01*
X157580952Y-64404761D01*
X157485714Y-64309523D01*
X157438095Y-64214285D01*
X157390476Y-64023809D01*
X157390476Y-63880952D01*
X157438095Y-63690476D01*
X157485714Y-63595238D01*
X157580952Y-63500000D01*
X157723809Y-63452380D01*
X157819047Y-63452380D01*
X157961904Y-63500000D01*
X158009523Y-63547619D01*
X158342857Y-63452380D02*
X158961904Y-63452380D01*
X158628571Y-63833333D01*
X158771428Y-63833333D01*
X158866666Y-63880952D01*
X158914285Y-63928571D01*
X158961904Y-64023809D01*
X158961904Y-64261904D01*
X158914285Y-64357142D01*
X158866666Y-64404761D01*
X158771428Y-64452380D01*
X158485714Y-64452380D01*
X158390476Y-64404761D01*
X158342857Y-64357142D01*
D13*
X156557142Y-79464285D02*
X158842857Y-79464285D01*
X156557142Y-47714285D02*
X158842857Y-47714285D01*
X157700000Y-48857142D02*
X157700000Y-46571428D01*
%TO.C,SC2*%
D10*
X133038095Y-63404761D02*
X133180952Y-63452380D01*
X133419047Y-63452380D01*
X133514285Y-63404761D01*
X133561904Y-63357142D01*
X133609523Y-63261904D01*
X133609523Y-63166666D01*
X133561904Y-63071428D01*
X133514285Y-63023809D01*
X133419047Y-62976190D01*
X133228571Y-62928571D01*
X133133333Y-62880952D01*
X133085714Y-62833333D01*
X133038095Y-62738095D01*
X133038095Y-62642857D01*
X133085714Y-62547619D01*
X133133333Y-62500000D01*
X133228571Y-62452380D01*
X133466666Y-62452380D01*
X133609523Y-62500000D01*
X134609523Y-63357142D02*
X134561904Y-63404761D01*
X134419047Y-63452380D01*
X134323809Y-63452380D01*
X134180952Y-63404761D01*
X134085714Y-63309523D01*
X134038095Y-63214285D01*
X133990476Y-63023809D01*
X133990476Y-62880952D01*
X134038095Y-62690476D01*
X134085714Y-62595238D01*
X134180952Y-62500000D01*
X134323809Y-62452380D01*
X134419047Y-62452380D01*
X134561904Y-62500000D01*
X134609523Y-62547619D01*
X134990476Y-62547619D02*
X135038095Y-62500000D01*
X135133333Y-62452380D01*
X135371428Y-62452380D01*
X135466666Y-62500000D01*
X135514285Y-62547619D01*
X135561904Y-62642857D01*
X135561904Y-62738095D01*
X135514285Y-62880952D01*
X134942857Y-63452380D01*
X135561904Y-63452380D01*
D13*
X133157142Y-47964285D02*
X135442857Y-47964285D01*
X133157142Y-79714285D02*
X135442857Y-79714285D01*
X134300000Y-80857142D02*
X134300000Y-78571428D01*
%TO.C,D7*%
D10*
X105497404Y-136850380D02*
X105497404Y-135850380D01*
X105735500Y-135850380D01*
X105878357Y-135898000D01*
X105973595Y-135993238D01*
X106021214Y-136088476D01*
X106068833Y-136278952D01*
X106068833Y-136421809D01*
X106021214Y-136612285D01*
X105973595Y-136707523D01*
X105878357Y-136802761D01*
X105735500Y-136850380D01*
X105497404Y-136850380D01*
X106402166Y-135850380D02*
X107068833Y-135850380D01*
X106640261Y-136850380D01*
%TO.C,D6*%
X175352380Y-92838095D02*
X174352380Y-92838095D01*
X174352380Y-92600000D01*
X174400000Y-92457142D01*
X174495238Y-92361904D01*
X174590476Y-92314285D01*
X174780952Y-92266666D01*
X174923809Y-92266666D01*
X175114285Y-92314285D01*
X175209523Y-92361904D01*
X175304761Y-92457142D01*
X175352380Y-92600000D01*
X175352380Y-92838095D01*
X174352380Y-91409523D02*
X174352380Y-91600000D01*
X174400000Y-91695238D01*
X174447619Y-91742857D01*
X174590476Y-91838095D01*
X174780952Y-91885714D01*
X175161904Y-91885714D01*
X175257142Y-91838095D01*
X175304761Y-91790476D01*
X175352380Y-91695238D01*
X175352380Y-91504761D01*
X175304761Y-91409523D01*
X175257142Y-91361904D01*
X175161904Y-91314285D01*
X174923809Y-91314285D01*
X174828571Y-91361904D01*
X174780952Y-91409523D01*
X174733333Y-91504761D01*
X174733333Y-91695238D01*
X174780952Y-91790476D01*
X174828571Y-91838095D01*
X174923809Y-91885714D01*
%TO.C,D5*%
X150661904Y-87252380D02*
X150661904Y-86252380D01*
X150900000Y-86252380D01*
X151042857Y-86300000D01*
X151138095Y-86395238D01*
X151185714Y-86490476D01*
X151233333Y-86680952D01*
X151233333Y-86823809D01*
X151185714Y-87014285D01*
X151138095Y-87109523D01*
X151042857Y-87204761D01*
X150900000Y-87252380D01*
X150661904Y-87252380D01*
X152138095Y-86252380D02*
X151661904Y-86252380D01*
X151614285Y-86728571D01*
X151661904Y-86680952D01*
X151757142Y-86633333D01*
X151995238Y-86633333D01*
X152090476Y-86680952D01*
X152138095Y-86728571D01*
X152185714Y-86823809D01*
X152185714Y-87061904D01*
X152138095Y-87157142D01*
X152090476Y-87204761D01*
X151995238Y-87252380D01*
X151757142Y-87252380D01*
X151661904Y-87204761D01*
X151614285Y-87157142D01*
%TO.C,D4*%
X94352380Y-92838095D02*
X93352380Y-92838095D01*
X93352380Y-92600000D01*
X93400000Y-92457142D01*
X93495238Y-92361904D01*
X93590476Y-92314285D01*
X93780952Y-92266666D01*
X93923809Y-92266666D01*
X94114285Y-92314285D01*
X94209523Y-92361904D01*
X94304761Y-92457142D01*
X94352380Y-92600000D01*
X94352380Y-92838095D01*
X93685714Y-91409523D02*
X94352380Y-91409523D01*
X93304761Y-91647619D02*
X94019047Y-91885714D01*
X94019047Y-91266666D01*
%TO.C,D3*%
X175252380Y-82238095D02*
X174252380Y-82238095D01*
X174252380Y-82000000D01*
X174300000Y-81857142D01*
X174395238Y-81761904D01*
X174490476Y-81714285D01*
X174680952Y-81666666D01*
X174823809Y-81666666D01*
X175014285Y-81714285D01*
X175109523Y-81761904D01*
X175204761Y-81857142D01*
X175252380Y-82000000D01*
X175252380Y-82238095D01*
X174252380Y-81333333D02*
X174252380Y-80714285D01*
X174633333Y-81047619D01*
X174633333Y-80904761D01*
X174680952Y-80809523D01*
X174728571Y-80761904D01*
X174823809Y-80714285D01*
X175061904Y-80714285D01*
X175157142Y-80761904D01*
X175204761Y-80809523D01*
X175252380Y-80904761D01*
X175252380Y-81190476D01*
X175204761Y-81285714D01*
X175157142Y-81333333D01*
%TO.C,D2*%
X126161904Y-87352380D02*
X126161904Y-86352380D01*
X126400000Y-86352380D01*
X126542857Y-86400000D01*
X126638095Y-86495238D01*
X126685714Y-86590476D01*
X126733333Y-86780952D01*
X126733333Y-86923809D01*
X126685714Y-87114285D01*
X126638095Y-87209523D01*
X126542857Y-87304761D01*
X126400000Y-87352380D01*
X126161904Y-87352380D01*
X127114285Y-86447619D02*
X127161904Y-86400000D01*
X127257142Y-86352380D01*
X127495238Y-86352380D01*
X127590476Y-86400000D01*
X127638095Y-86447619D01*
X127685714Y-86542857D01*
X127685714Y-86638095D01*
X127638095Y-86780952D01*
X127066666Y-87352380D01*
X127685714Y-87352380D01*
%TO.C,R2*%
X135952380Y-139866666D02*
X135476190Y-140200000D01*
X135952380Y-140438095D02*
X134952380Y-140438095D01*
X134952380Y-140057142D01*
X135000000Y-139961904D01*
X135047619Y-139914285D01*
X135142857Y-139866666D01*
X135285714Y-139866666D01*
X135380952Y-139914285D01*
X135428571Y-139961904D01*
X135476190Y-140057142D01*
X135476190Y-140438095D01*
X135047619Y-139485714D02*
X135000000Y-139438095D01*
X134952380Y-139342857D01*
X134952380Y-139104761D01*
X135000000Y-139009523D01*
X135047619Y-138961904D01*
X135142857Y-138914285D01*
X135238095Y-138914285D01*
X135380952Y-138961904D01*
X135952380Y-139533333D01*
X135952380Y-138914285D01*
%TO.C,R1*%
X135952380Y-136841666D02*
X135476190Y-137175000D01*
X135952380Y-137413095D02*
X134952380Y-137413095D01*
X134952380Y-137032142D01*
X135000000Y-136936904D01*
X135047619Y-136889285D01*
X135142857Y-136841666D01*
X135285714Y-136841666D01*
X135380952Y-136889285D01*
X135428571Y-136936904D01*
X135476190Y-137032142D01*
X135476190Y-137413095D01*
X135952380Y-135889285D02*
X135952380Y-136460714D01*
X135952380Y-136175000D02*
X134952380Y-136175000D01*
X135095238Y-136270238D01*
X135190476Y-136365476D01*
X135238095Y-136460714D01*
%TO.C,C3*%
X144157142Y-137216666D02*
X144204761Y-137264285D01*
X144252380Y-137407142D01*
X144252380Y-137502380D01*
X144204761Y-137645238D01*
X144109523Y-137740476D01*
X144014285Y-137788095D01*
X143823809Y-137835714D01*
X143680952Y-137835714D01*
X143490476Y-137788095D01*
X143395238Y-137740476D01*
X143300000Y-137645238D01*
X143252380Y-137502380D01*
X143252380Y-137407142D01*
X143300000Y-137264285D01*
X143347619Y-137216666D01*
X143252380Y-136883333D02*
X143252380Y-136264285D01*
X143633333Y-136597619D01*
X143633333Y-136454761D01*
X143680952Y-136359523D01*
X143728571Y-136311904D01*
X143823809Y-136264285D01*
X144061904Y-136264285D01*
X144157142Y-136311904D01*
X144204761Y-136359523D01*
X144252380Y-136454761D01*
X144252380Y-136740476D01*
X144204761Y-136835714D01*
X144157142Y-136883333D01*
%TO.C,C2*%
X132033333Y-139557142D02*
X131985714Y-139604761D01*
X131842857Y-139652380D01*
X131747619Y-139652380D01*
X131604761Y-139604761D01*
X131509523Y-139509523D01*
X131461904Y-139414285D01*
X131414285Y-139223809D01*
X131414285Y-139080952D01*
X131461904Y-138890476D01*
X131509523Y-138795238D01*
X131604761Y-138700000D01*
X131747619Y-138652380D01*
X131842857Y-138652380D01*
X131985714Y-138700000D01*
X132033333Y-138747619D01*
X132414285Y-138747619D02*
X132461904Y-138700000D01*
X132557142Y-138652380D01*
X132795238Y-138652380D01*
X132890476Y-138700000D01*
X132938095Y-138747619D01*
X132985714Y-138842857D01*
X132985714Y-138938095D01*
X132938095Y-139080952D01*
X132366666Y-139652380D01*
X132985714Y-139652380D01*
%TO.C,C1*%
X132033333Y-136357142D02*
X131985714Y-136404761D01*
X131842857Y-136452380D01*
X131747619Y-136452380D01*
X131604761Y-136404761D01*
X131509523Y-136309523D01*
X131461904Y-136214285D01*
X131414285Y-136023809D01*
X131414285Y-135880952D01*
X131461904Y-135690476D01*
X131509523Y-135595238D01*
X131604761Y-135500000D01*
X131747619Y-135452380D01*
X131842857Y-135452380D01*
X131985714Y-135500000D01*
X132033333Y-135547619D01*
X132985714Y-136452380D02*
X132414285Y-136452380D01*
X132700000Y-136452380D02*
X132700000Y-135452380D01*
X132604761Y-135595238D01*
X132509523Y-135690476D01*
X132414285Y-135738095D01*
%TO.C,J7*%
X116666666Y-139652380D02*
X116666666Y-140366666D01*
X116619047Y-140509523D01*
X116523809Y-140604761D01*
X116380952Y-140652380D01*
X116285714Y-140652380D01*
X117047619Y-139652380D02*
X117714285Y-139652380D01*
X117285714Y-140652380D01*
%TO.C,J6*%
X106666666Y-139652380D02*
X106666666Y-140366666D01*
X106619047Y-140509523D01*
X106523809Y-140604761D01*
X106380952Y-140652380D01*
X106285714Y-140652380D01*
X107571428Y-139652380D02*
X107380952Y-139652380D01*
X107285714Y-139700000D01*
X107238095Y-139747619D01*
X107142857Y-139890476D01*
X107095238Y-140080952D01*
X107095238Y-140461904D01*
X107142857Y-140557142D01*
X107190476Y-140604761D01*
X107285714Y-140652380D01*
X107476190Y-140652380D01*
X107571428Y-140604761D01*
X107619047Y-140557142D01*
X107666666Y-140461904D01*
X107666666Y-140223809D01*
X107619047Y-140128571D01*
X107571428Y-140080952D01*
X107476190Y-140033333D01*
X107285714Y-140033333D01*
X107190476Y-140080952D01*
X107142857Y-140128571D01*
X107095238Y-140223809D01*
%TD*%
M02*
