M48
; DRILL file {KiCad (5.1.10)-1} date 11/16/22 11:35:02
; FORMAT={-:-/ absolute / inch / decimal}
; #@! TF.CreationDate,2022-11-16T11:35:02-08:00
; #@! TF.GenerationSoftware,Kicad,Pcbnew,(5.1.10)-1
; #@! TF.FileFunction,Plated,1,4,PTH
FMAT,2
INCH
T1C0.0157
T2C0.1339
%
G90
G05
T1
X4.1929Y-5.4843
X4.2736Y-5.3661
X4.4272Y-5.3248
X4.9665Y-4.2736
X4.9754Y-5.5325
X5.1929Y-5.4803
X5.2126Y-5.3701
X5.3307Y-5.3071
X5.3307Y-5.4567
X5.3346Y-5.5315
X5.3661Y-5.4134
X5.4783Y-5.5138
X5.6654Y-5.4331
X6.0118Y-5.4646
X6.0138Y-5.3839
X6.1122Y-5.3799
X6.1136Y-5.4711
X6.2421Y-5.372
X6.2874Y-5.4173
X6.7874Y-3.4134
T2
X3.7992Y-1.7126
X3.7992Y-5.3583
X6.7756Y-1.7126
X6.7756Y-5.3583
T0
M30
