%FSLAX45Y45*%
G04 Gerber Fmt 4.5, Leading zero omitted, Abs format (unit mm)*
G04 Created by KiCad (PCBNEW (5.1.10)-1) date 2022-11-16 11:35:06*
%MOMM*%
%LPD*%
G01*
G04 APERTURE LIST*
%TA.AperFunction,Profile*%
%ADD10C,0.050000*%
%TD*%
%ADD11C,0.200000*%
%ADD12C,0.300000*%
G04 APERTURE END LIST*
D10*
X17580000Y-14140000D02*
X17580000Y-4140000D01*
X9280000Y-3980000D02*
X9280000Y-4140000D01*
X17580000Y-3980000D02*
X17580000Y-4140000D01*
X9280000Y-3980000D02*
X17580000Y-3980000D01*
X9280000Y-14140000D02*
X17580000Y-14140000D01*
X9280000Y-4140000D02*
X9280000Y-14140000D01*
D11*
X10630000Y-13910000D02*
X10670000Y-13950000D01*
X10670000Y-13910000D02*
X10630000Y-13950000D01*
X10835000Y-13610000D02*
X10875000Y-13650000D01*
X10875000Y-13610000D02*
X10835000Y-13650000D01*
X11225000Y-13505000D02*
X11265000Y-13545000D01*
X11265000Y-13505000D02*
X11225000Y-13545000D01*
X12595000Y-10835000D02*
X12635000Y-10875000D01*
X12635000Y-10835000D02*
X12595000Y-10875000D01*
X12617500Y-14032500D02*
X12657500Y-14072500D01*
X12657500Y-14032500D02*
X12617500Y-14072500D01*
X13170000Y-13900000D02*
X13210000Y-13940000D01*
X13210000Y-13900000D02*
X13170000Y-13940000D01*
X13220000Y-13620000D02*
X13260000Y-13660000D01*
X13260000Y-13620000D02*
X13220000Y-13660000D01*
X13520000Y-13460000D02*
X13560000Y-13500000D01*
X13560000Y-13460000D02*
X13520000Y-13500000D01*
X13520000Y-13840000D02*
X13560000Y-13880000D01*
X13560000Y-13840000D02*
X13520000Y-13880000D01*
X13530000Y-14030000D02*
X13570000Y-14070000D01*
X13570000Y-14030000D02*
X13530000Y-14070000D01*
X13610000Y-13730000D02*
X13650000Y-13770000D01*
X13650000Y-13730000D02*
X13610000Y-13770000D01*
X13895000Y-13985000D02*
X13935000Y-14025000D01*
X13935000Y-13985000D02*
X13895000Y-14025000D01*
X14370000Y-13780000D02*
X14410000Y-13820000D01*
X14410000Y-13780000D02*
X14370000Y-13820000D01*
X15250000Y-13860000D02*
X15290000Y-13900000D01*
X15290000Y-13860000D02*
X15250000Y-13900000D01*
X15255000Y-13655000D02*
X15295000Y-13695000D01*
X15295000Y-13655000D02*
X15255000Y-13695000D01*
X15505000Y-13645000D02*
X15545000Y-13685000D01*
X15545000Y-13645000D02*
X15505000Y-13685000D01*
X15508500Y-13876500D02*
X15548500Y-13916500D01*
X15548500Y-13876500D02*
X15508500Y-13916500D01*
X15835000Y-13625000D02*
X15875000Y-13665000D01*
X15875000Y-13625000D02*
X15835000Y-13665000D01*
X15950000Y-13740000D02*
X15990000Y-13780000D01*
X15990000Y-13740000D02*
X15950000Y-13780000D01*
X17220000Y-8650000D02*
X17260000Y-8690000D01*
X17260000Y-8650000D02*
X17220000Y-8690000D01*
X9820000Y-4350000D02*
G75*
G03*
X9820000Y-4350000I-170000J0D01*
G01*
X9820000Y-13610000D02*
G75*
G03*
X9820000Y-13610000I-170000J0D01*
G01*
X17380000Y-4350000D02*
G75*
G03*
X17380000Y-4350000I-170000J0D01*
G01*
X17380000Y-13610000D02*
G75*
G03*
X17380000Y-13610000I-170000J0D01*
G01*
D12*
X9563928Y-14608214D02*
X9563928Y-14308214D01*
X9635357Y-14308214D01*
X9678214Y-14322500D01*
X9706786Y-14351071D01*
X9721071Y-14379643D01*
X9735357Y-14436786D01*
X9735357Y-14479643D01*
X9721071Y-14536786D01*
X9706786Y-14565357D01*
X9678214Y-14593929D01*
X9635357Y-14608214D01*
X9563928Y-14608214D01*
X9863928Y-14608214D02*
X9863928Y-14408214D01*
X9863928Y-14465357D02*
X9878214Y-14436786D01*
X9892500Y-14422500D01*
X9921071Y-14408214D01*
X9949643Y-14408214D01*
X10049643Y-14608214D02*
X10049643Y-14408214D01*
X10049643Y-14308214D02*
X10035357Y-14322500D01*
X10049643Y-14336786D01*
X10063928Y-14322500D01*
X10049643Y-14308214D01*
X10049643Y-14336786D01*
X10235357Y-14608214D02*
X10206786Y-14593929D01*
X10192500Y-14565357D01*
X10192500Y-14308214D01*
X10392500Y-14608214D02*
X10363928Y-14593929D01*
X10349643Y-14565357D01*
X10349643Y-14308214D01*
X10735357Y-14608214D02*
X10735357Y-14308214D01*
X10835357Y-14522500D01*
X10935357Y-14308214D01*
X10935357Y-14608214D01*
X11206786Y-14608214D02*
X11206786Y-14451071D01*
X11192500Y-14422500D01*
X11163928Y-14408214D01*
X11106786Y-14408214D01*
X11078214Y-14422500D01*
X11206786Y-14593929D02*
X11178214Y-14608214D01*
X11106786Y-14608214D01*
X11078214Y-14593929D01*
X11063928Y-14565357D01*
X11063928Y-14536786D01*
X11078214Y-14508214D01*
X11106786Y-14493929D01*
X11178214Y-14493929D01*
X11206786Y-14479643D01*
X11349643Y-14408214D02*
X11349643Y-14708214D01*
X11349643Y-14422500D02*
X11378214Y-14408214D01*
X11435357Y-14408214D01*
X11463928Y-14422500D01*
X11478214Y-14436786D01*
X11492500Y-14465357D01*
X11492500Y-14551071D01*
X11478214Y-14579643D01*
X11463928Y-14593929D01*
X11435357Y-14608214D01*
X11378214Y-14608214D01*
X11349643Y-14593929D01*
X11621071Y-14579643D02*
X11635357Y-14593929D01*
X11621071Y-14608214D01*
X11606786Y-14593929D01*
X11621071Y-14579643D01*
X11621071Y-14608214D01*
X11621071Y-14422500D02*
X11635357Y-14436786D01*
X11621071Y-14451071D01*
X11606786Y-14436786D01*
X11621071Y-14422500D01*
X11621071Y-14451071D01*
X9237500Y-15082500D02*
X9277500Y-15122500D01*
X9277500Y-15082500D02*
X9237500Y-15122500D01*
X9621071Y-14938214D02*
X9649643Y-14938214D01*
X9678214Y-14952500D01*
X9692500Y-14966786D01*
X9706786Y-14995357D01*
X9721071Y-15052500D01*
X9721071Y-15123929D01*
X9706786Y-15181071D01*
X9692500Y-15209643D01*
X9678214Y-15223929D01*
X9649643Y-15238214D01*
X9621071Y-15238214D01*
X9592500Y-15223929D01*
X9578214Y-15209643D01*
X9563928Y-15181071D01*
X9549643Y-15123929D01*
X9549643Y-15052500D01*
X9563928Y-14995357D01*
X9578214Y-14966786D01*
X9592500Y-14952500D01*
X9621071Y-14938214D01*
X9849643Y-15209643D02*
X9863928Y-15223929D01*
X9849643Y-15238214D01*
X9835357Y-15223929D01*
X9849643Y-15209643D01*
X9849643Y-15238214D01*
X10121071Y-15038214D02*
X10121071Y-15238214D01*
X10049643Y-14923929D02*
X9978214Y-15138214D01*
X10163928Y-15138214D01*
X10335357Y-14938214D02*
X10363928Y-14938214D01*
X10392500Y-14952500D01*
X10406786Y-14966786D01*
X10421071Y-14995357D01*
X10435357Y-15052500D01*
X10435357Y-15123929D01*
X10421071Y-15181071D01*
X10406786Y-15209643D01*
X10392500Y-15223929D01*
X10363928Y-15238214D01*
X10335357Y-15238214D01*
X10306786Y-15223929D01*
X10292500Y-15209643D01*
X10278214Y-15181071D01*
X10263928Y-15123929D01*
X10263928Y-15052500D01*
X10278214Y-14995357D01*
X10292500Y-14966786D01*
X10306786Y-14952500D01*
X10335357Y-14938214D01*
X10621071Y-14938214D02*
X10649643Y-14938214D01*
X10678214Y-14952500D01*
X10692500Y-14966786D01*
X10706786Y-14995357D01*
X10721071Y-15052500D01*
X10721071Y-15123929D01*
X10706786Y-15181071D01*
X10692500Y-15209643D01*
X10678214Y-15223929D01*
X10649643Y-15238214D01*
X10621071Y-15238214D01*
X10592500Y-15223929D01*
X10578214Y-15209643D01*
X10563928Y-15181071D01*
X10549643Y-15123929D01*
X10549643Y-15052500D01*
X10563928Y-14995357D01*
X10578214Y-14966786D01*
X10592500Y-14952500D01*
X10621071Y-14938214D01*
X10849643Y-15238214D02*
X10849643Y-15038214D01*
X10849643Y-15066786D02*
X10863928Y-15052500D01*
X10892500Y-15038214D01*
X10935357Y-15038214D01*
X10963928Y-15052500D01*
X10978214Y-15081071D01*
X10978214Y-15238214D01*
X10978214Y-15081071D02*
X10992500Y-15052500D01*
X11021071Y-15038214D01*
X11063928Y-15038214D01*
X11092500Y-15052500D01*
X11106786Y-15081071D01*
X11106786Y-15238214D01*
X11249643Y-15238214D02*
X11249643Y-15038214D01*
X11249643Y-15066786D02*
X11263928Y-15052500D01*
X11292500Y-15038214D01*
X11335357Y-15038214D01*
X11363928Y-15052500D01*
X11378214Y-15081071D01*
X11378214Y-15238214D01*
X11378214Y-15081071D02*
X11392500Y-15052500D01*
X11421071Y-15038214D01*
X11463928Y-15038214D01*
X11492500Y-15052500D01*
X11506786Y-15081071D01*
X11506786Y-15238214D01*
X12092500Y-14923929D02*
X11835357Y-15309643D01*
X12478214Y-14938214D02*
X12506786Y-14938214D01*
X12535357Y-14952500D01*
X12549643Y-14966786D01*
X12563928Y-14995357D01*
X12578214Y-15052500D01*
X12578214Y-15123929D01*
X12563928Y-15181071D01*
X12549643Y-15209643D01*
X12535357Y-15223929D01*
X12506786Y-15238214D01*
X12478214Y-15238214D01*
X12449643Y-15223929D01*
X12435357Y-15209643D01*
X12421071Y-15181071D01*
X12406786Y-15123929D01*
X12406786Y-15052500D01*
X12421071Y-14995357D01*
X12435357Y-14966786D01*
X12449643Y-14952500D01*
X12478214Y-14938214D01*
X12706786Y-15209643D02*
X12721071Y-15223929D01*
X12706786Y-15238214D01*
X12692500Y-15223929D01*
X12706786Y-15209643D01*
X12706786Y-15238214D01*
X12906786Y-14938214D02*
X12935357Y-14938214D01*
X12963928Y-14952500D01*
X12978214Y-14966786D01*
X12992500Y-14995357D01*
X13006786Y-15052500D01*
X13006786Y-15123929D01*
X12992500Y-15181071D01*
X12978214Y-15209643D01*
X12963928Y-15223929D01*
X12935357Y-15238214D01*
X12906786Y-15238214D01*
X12878214Y-15223929D01*
X12863928Y-15209643D01*
X12849643Y-15181071D01*
X12835357Y-15123929D01*
X12835357Y-15052500D01*
X12849643Y-14995357D01*
X12863928Y-14966786D01*
X12878214Y-14952500D01*
X12906786Y-14938214D01*
X13292500Y-15238214D02*
X13121071Y-15238214D01*
X13206786Y-15238214D02*
X13206786Y-14938214D01*
X13178214Y-14981071D01*
X13149643Y-15009643D01*
X13121071Y-15023929D01*
X13563928Y-14938214D02*
X13421071Y-14938214D01*
X13406786Y-15081071D01*
X13421071Y-15066786D01*
X13449643Y-15052500D01*
X13521071Y-15052500D01*
X13549643Y-15066786D01*
X13563928Y-15081071D01*
X13578214Y-15109643D01*
X13578214Y-15181071D01*
X13563928Y-15209643D01*
X13549643Y-15223929D01*
X13521071Y-15238214D01*
X13449643Y-15238214D01*
X13421071Y-15223929D01*
X13406786Y-15209643D01*
X13678214Y-14938214D02*
X13878214Y-14938214D01*
X13749643Y-15238214D01*
X13978214Y-14938214D02*
X13978214Y-14995357D01*
X14092500Y-14938214D02*
X14092500Y-14995357D01*
X14535357Y-15352500D02*
X14521071Y-15338214D01*
X14492500Y-15295357D01*
X14478214Y-15266786D01*
X14463928Y-15223929D01*
X14449643Y-15152500D01*
X14449643Y-15095357D01*
X14463928Y-15023929D01*
X14478214Y-14981071D01*
X14492500Y-14952500D01*
X14521071Y-14909643D01*
X14535357Y-14895357D01*
X14635357Y-14966786D02*
X14649643Y-14952500D01*
X14678214Y-14938214D01*
X14749643Y-14938214D01*
X14778214Y-14952500D01*
X14792500Y-14966786D01*
X14806786Y-14995357D01*
X14806786Y-15023929D01*
X14792500Y-15066786D01*
X14621071Y-15238214D01*
X14806786Y-15238214D01*
X14992500Y-14938214D02*
X15021071Y-14938214D01*
X15049643Y-14952500D01*
X15063928Y-14966786D01*
X15078214Y-14995357D01*
X15092500Y-15052500D01*
X15092500Y-15123929D01*
X15078214Y-15181071D01*
X15063928Y-15209643D01*
X15049643Y-15223929D01*
X15021071Y-15238214D01*
X14992500Y-15238214D01*
X14963928Y-15223929D01*
X14949643Y-15209643D01*
X14935357Y-15181071D01*
X14921071Y-15123929D01*
X14921071Y-15052500D01*
X14935357Y-14995357D01*
X14949643Y-14966786D01*
X14963928Y-14952500D01*
X14992500Y-14938214D01*
X15449643Y-15238214D02*
X15449643Y-14938214D01*
X15578214Y-15238214D02*
X15578214Y-15081071D01*
X15563928Y-15052500D01*
X15535357Y-15038214D01*
X15492500Y-15038214D01*
X15463928Y-15052500D01*
X15449643Y-15066786D01*
X15763928Y-15238214D02*
X15735357Y-15223929D01*
X15721071Y-15209643D01*
X15706786Y-15181071D01*
X15706786Y-15095357D01*
X15721071Y-15066786D01*
X15735357Y-15052500D01*
X15763928Y-15038214D01*
X15806786Y-15038214D01*
X15835357Y-15052500D01*
X15849643Y-15066786D01*
X15863928Y-15095357D01*
X15863928Y-15181071D01*
X15849643Y-15209643D01*
X15835357Y-15223929D01*
X15806786Y-15238214D01*
X15763928Y-15238214D01*
X16035357Y-15238214D02*
X16006786Y-15223929D01*
X15992500Y-15195357D01*
X15992500Y-14938214D01*
X16263928Y-15223929D02*
X16235357Y-15238214D01*
X16178214Y-15238214D01*
X16149643Y-15223929D01*
X16135357Y-15195357D01*
X16135357Y-15081071D01*
X16149643Y-15052500D01*
X16178214Y-15038214D01*
X16235357Y-15038214D01*
X16263928Y-15052500D01*
X16278214Y-15081071D01*
X16278214Y-15109643D01*
X16135357Y-15138214D01*
X16392500Y-15223929D02*
X16421071Y-15238214D01*
X16478214Y-15238214D01*
X16506786Y-15223929D01*
X16521071Y-15195357D01*
X16521071Y-15181071D01*
X16506786Y-15152500D01*
X16478214Y-15138214D01*
X16435357Y-15138214D01*
X16406786Y-15123929D01*
X16392500Y-15095357D01*
X16392500Y-15081071D01*
X16406786Y-15052500D01*
X16435357Y-15038214D01*
X16478214Y-15038214D01*
X16506786Y-15052500D01*
X16621071Y-15352500D02*
X16635357Y-15338214D01*
X16663928Y-15295357D01*
X16678214Y-15266786D01*
X16692500Y-15223929D01*
X16706786Y-15152500D01*
X16706786Y-15095357D01*
X16692500Y-15023929D01*
X16678214Y-14981071D01*
X16663928Y-14952500D01*
X16635357Y-14909643D01*
X16621071Y-14895357D01*
X9277500Y-15498500D02*
G75*
G03*
X9277500Y-15498500I-170000J0D01*
G01*
X9535357Y-15334214D02*
X9721071Y-15334214D01*
X9621071Y-15448500D01*
X9663928Y-15448500D01*
X9692500Y-15462786D01*
X9706786Y-15477071D01*
X9721071Y-15505643D01*
X9721071Y-15577071D01*
X9706786Y-15605643D01*
X9692500Y-15619929D01*
X9663928Y-15634214D01*
X9578214Y-15634214D01*
X9549643Y-15619929D01*
X9535357Y-15605643D01*
X9849643Y-15605643D02*
X9863928Y-15619929D01*
X9849643Y-15634214D01*
X9835357Y-15619929D01*
X9849643Y-15605643D01*
X9849643Y-15634214D01*
X10121071Y-15434214D02*
X10121071Y-15634214D01*
X10049643Y-15319929D02*
X9978214Y-15534214D01*
X10163928Y-15534214D01*
X10335357Y-15334214D02*
X10363928Y-15334214D01*
X10392500Y-15348500D01*
X10406786Y-15362786D01*
X10421071Y-15391357D01*
X10435357Y-15448500D01*
X10435357Y-15519929D01*
X10421071Y-15577071D01*
X10406786Y-15605643D01*
X10392500Y-15619929D01*
X10363928Y-15634214D01*
X10335357Y-15634214D01*
X10306786Y-15619929D01*
X10292500Y-15605643D01*
X10278214Y-15577071D01*
X10263928Y-15519929D01*
X10263928Y-15448500D01*
X10278214Y-15391357D01*
X10292500Y-15362786D01*
X10306786Y-15348500D01*
X10335357Y-15334214D01*
X10621071Y-15334214D02*
X10649643Y-15334214D01*
X10678214Y-15348500D01*
X10692500Y-15362786D01*
X10706786Y-15391357D01*
X10721071Y-15448500D01*
X10721071Y-15519929D01*
X10706786Y-15577071D01*
X10692500Y-15605643D01*
X10678214Y-15619929D01*
X10649643Y-15634214D01*
X10621071Y-15634214D01*
X10592500Y-15619929D01*
X10578214Y-15605643D01*
X10563928Y-15577071D01*
X10549643Y-15519929D01*
X10549643Y-15448500D01*
X10563928Y-15391357D01*
X10578214Y-15362786D01*
X10592500Y-15348500D01*
X10621071Y-15334214D01*
X10849643Y-15634214D02*
X10849643Y-15434214D01*
X10849643Y-15462786D02*
X10863928Y-15448500D01*
X10892500Y-15434214D01*
X10935357Y-15434214D01*
X10963928Y-15448500D01*
X10978214Y-15477071D01*
X10978214Y-15634214D01*
X10978214Y-15477071D02*
X10992500Y-15448500D01*
X11021071Y-15434214D01*
X11063928Y-15434214D01*
X11092500Y-15448500D01*
X11106786Y-15477071D01*
X11106786Y-15634214D01*
X11249643Y-15634214D02*
X11249643Y-15434214D01*
X11249643Y-15462786D02*
X11263928Y-15448500D01*
X11292500Y-15434214D01*
X11335357Y-15434214D01*
X11363928Y-15448500D01*
X11378214Y-15477071D01*
X11378214Y-15634214D01*
X11378214Y-15477071D02*
X11392500Y-15448500D01*
X11421071Y-15434214D01*
X11463928Y-15434214D01*
X11492500Y-15448500D01*
X11506786Y-15477071D01*
X11506786Y-15634214D01*
X12092500Y-15319929D02*
X11835357Y-15705643D01*
X12478214Y-15334214D02*
X12506786Y-15334214D01*
X12535357Y-15348500D01*
X12549643Y-15362786D01*
X12563928Y-15391357D01*
X12578214Y-15448500D01*
X12578214Y-15519929D01*
X12563928Y-15577071D01*
X12549643Y-15605643D01*
X12535357Y-15619929D01*
X12506786Y-15634214D01*
X12478214Y-15634214D01*
X12449643Y-15619929D01*
X12435357Y-15605643D01*
X12421071Y-15577071D01*
X12406786Y-15519929D01*
X12406786Y-15448500D01*
X12421071Y-15391357D01*
X12435357Y-15362786D01*
X12449643Y-15348500D01*
X12478214Y-15334214D01*
X12706786Y-15605643D02*
X12721071Y-15619929D01*
X12706786Y-15634214D01*
X12692500Y-15619929D01*
X12706786Y-15605643D01*
X12706786Y-15634214D01*
X13006786Y-15634214D02*
X12835357Y-15634214D01*
X12921071Y-15634214D02*
X12921071Y-15334214D01*
X12892500Y-15377071D01*
X12863928Y-15405643D01*
X12835357Y-15419929D01*
X13106786Y-15334214D02*
X13292500Y-15334214D01*
X13192500Y-15448500D01*
X13235357Y-15448500D01*
X13263928Y-15462786D01*
X13278214Y-15477071D01*
X13292500Y-15505643D01*
X13292500Y-15577071D01*
X13278214Y-15605643D01*
X13263928Y-15619929D01*
X13235357Y-15634214D01*
X13149643Y-15634214D01*
X13121071Y-15619929D01*
X13106786Y-15605643D01*
X13392500Y-15334214D02*
X13578214Y-15334214D01*
X13478214Y-15448500D01*
X13521071Y-15448500D01*
X13549643Y-15462786D01*
X13563928Y-15477071D01*
X13578214Y-15505643D01*
X13578214Y-15577071D01*
X13563928Y-15605643D01*
X13549643Y-15619929D01*
X13521071Y-15634214D01*
X13435357Y-15634214D01*
X13406786Y-15619929D01*
X13392500Y-15605643D01*
X13721071Y-15634214D02*
X13778214Y-15634214D01*
X13806786Y-15619929D01*
X13821071Y-15605643D01*
X13849643Y-15562786D01*
X13863928Y-15505643D01*
X13863928Y-15391357D01*
X13849643Y-15362786D01*
X13835357Y-15348500D01*
X13806786Y-15334214D01*
X13749643Y-15334214D01*
X13721071Y-15348500D01*
X13706786Y-15362786D01*
X13692500Y-15391357D01*
X13692500Y-15462786D01*
X13706786Y-15491357D01*
X13721071Y-15505643D01*
X13749643Y-15519929D01*
X13806786Y-15519929D01*
X13835357Y-15505643D01*
X13849643Y-15491357D01*
X13863928Y-15462786D01*
X13978214Y-15334214D02*
X13978214Y-15391357D01*
X14092500Y-15334214D02*
X14092500Y-15391357D01*
X14535357Y-15748500D02*
X14521071Y-15734214D01*
X14492500Y-15691357D01*
X14478214Y-15662786D01*
X14463928Y-15619929D01*
X14449643Y-15548500D01*
X14449643Y-15491357D01*
X14463928Y-15419929D01*
X14478214Y-15377071D01*
X14492500Y-15348500D01*
X14521071Y-15305643D01*
X14535357Y-15291357D01*
X14778214Y-15434214D02*
X14778214Y-15634214D01*
X14706786Y-15319929D02*
X14635357Y-15534214D01*
X14821071Y-15534214D01*
X15163928Y-15634214D02*
X15163928Y-15334214D01*
X15292500Y-15634214D02*
X15292500Y-15477071D01*
X15278214Y-15448500D01*
X15249643Y-15434214D01*
X15206786Y-15434214D01*
X15178214Y-15448500D01*
X15163928Y-15462786D01*
X15478214Y-15634214D02*
X15449643Y-15619929D01*
X15435357Y-15605643D01*
X15421071Y-15577071D01*
X15421071Y-15491357D01*
X15435357Y-15462786D01*
X15449643Y-15448500D01*
X15478214Y-15434214D01*
X15521071Y-15434214D01*
X15549643Y-15448500D01*
X15563928Y-15462786D01*
X15578214Y-15491357D01*
X15578214Y-15577071D01*
X15563928Y-15605643D01*
X15549643Y-15619929D01*
X15521071Y-15634214D01*
X15478214Y-15634214D01*
X15749643Y-15634214D02*
X15721071Y-15619929D01*
X15706786Y-15591357D01*
X15706786Y-15334214D01*
X15978214Y-15619929D02*
X15949643Y-15634214D01*
X15892500Y-15634214D01*
X15863928Y-15619929D01*
X15849643Y-15591357D01*
X15849643Y-15477071D01*
X15863928Y-15448500D01*
X15892500Y-15434214D01*
X15949643Y-15434214D01*
X15978214Y-15448500D01*
X15992500Y-15477071D01*
X15992500Y-15505643D01*
X15849643Y-15534214D01*
X16106786Y-15619929D02*
X16135357Y-15634214D01*
X16192500Y-15634214D01*
X16221071Y-15619929D01*
X16235357Y-15591357D01*
X16235357Y-15577071D01*
X16221071Y-15548500D01*
X16192500Y-15534214D01*
X16149643Y-15534214D01*
X16121071Y-15519929D01*
X16106786Y-15491357D01*
X16106786Y-15477071D01*
X16121071Y-15448500D01*
X16149643Y-15434214D01*
X16192500Y-15434214D01*
X16221071Y-15448500D01*
X16335357Y-15748500D02*
X16349643Y-15734214D01*
X16378214Y-15691357D01*
X16392500Y-15662786D01*
X16406786Y-15619929D01*
X16421071Y-15548500D01*
X16421071Y-15491357D01*
X16406786Y-15419929D01*
X16392500Y-15377071D01*
X16378214Y-15348500D01*
X16349643Y-15305643D01*
X16335357Y-15291357D01*
M02*
