%TF.GenerationSoftware,KiCad,Pcbnew,(5.1.10)-1*%
%TF.CreationDate,2022-11-16T11:33:55-08:00*%
%TF.ProjectId,XYFaces,58594661-6365-4732-9e6b-696361645f70,1.0*%
%TF.SameCoordinates,Original*%
%TF.FileFunction,Copper,L4,Bot*%
%TF.FilePolarity,Positive*%
%FSLAX46Y46*%
G04 Gerber Fmt 4.6, Leading zero omitted, Abs format (unit mm)*
G04 Created by KiCad (PCBNEW (5.1.10)-1) date 2022-11-16 11:33:55*
%MOMM*%
%LPD*%
G01*
G04 APERTURE LIST*
%TA.AperFunction,SMDPad,CuDef*%
%ADD10R,0.800000X1.100000*%
%TD*%
%TA.AperFunction,SMDPad,CuDef*%
%ADD11R,1.200000X2.700000*%
%TD*%
%TA.AperFunction,ComponentPad*%
%ADD12C,4.900000*%
%TD*%
%TA.AperFunction,ViaPad*%
%ADD13C,0.800000*%
%TD*%
%TA.AperFunction,Conductor*%
%ADD14C,0.250000*%
%TD*%
%TA.AperFunction,Conductor*%
%ADD15C,0.500000*%
%TD*%
%TA.AperFunction,Conductor*%
%ADD16C,0.254000*%
%TD*%
%TA.AperFunction,Conductor*%
%ADD17C,0.100000*%
%TD*%
G04 APERTURE END LIST*
D10*
%TO.P,J1,2*%
%TO.N,3V3*%
X157825000Y-134950000D03*
%TO.P,J1,4*%
%TO.N,Net-(J1-Pad10)*%
X155285000Y-134950000D03*
%TO.P,J1,3*%
%TO.N,GND*%
X156555000Y-134950000D03*
%TO.P,J1,6*%
%TO.N,SCL*%
X152745000Y-134950000D03*
%TO.P,J1,1*%
%TO.N,VSOLAR*%
X159095000Y-134950000D03*
%TO.P,J1,5*%
%TO.N,GND*%
X154015000Y-134950000D03*
D11*
%TO.P,J1,*%
%TO.N,*%
X150250000Y-135250000D03*
X161590000Y-140150000D03*
X150250000Y-140150000D03*
X161590000Y-135250000D03*
D10*
%TO.P,J1,7*%
%TO.N,VSOLAR*%
X159095000Y-140450000D03*
%TO.P,J1,12*%
%TO.N,SDA*%
X152745000Y-140450000D03*
%TO.P,J1,9*%
%TO.N,GND*%
X156555000Y-140450000D03*
%TO.P,J1,10*%
%TO.N,Net-(J1-Pad10)*%
X155285000Y-140450000D03*
%TO.P,J1,11*%
%TO.N,GND*%
X154015000Y-140450000D03*
%TO.P,J1,8*%
X157825000Y-140450000D03*
%TD*%
D12*
%TO.P,J5,1*%
%TO.N,Net-(J5-Pad1)*%
X172100000Y-136100000D03*
%TD*%
%TO.P,J4,1*%
%TO.N,Net-(J4-Pad1)*%
X172100000Y-43500000D03*
%TD*%
%TO.P,J3,1*%
%TO.N,Net-(J3-Pad1)*%
X96500000Y-136100000D03*
%TD*%
%TO.P,J2,1*%
%TO.N,Net-(J2-Pad1)*%
X96500000Y-43500000D03*
%TD*%
D13*
%TO.N,GND*%
X131900000Y-139200000D03*
X132400000Y-136400000D03*
X106500000Y-139300000D03*
X172400000Y-86700000D03*
X143900000Y-138000000D03*
%TO.N,VSOLAR*%
X159700000Y-137600000D03*
%TO.N,SDA*%
X135500000Y-140500000D03*
X126375000Y-140525000D03*
X152700000Y-138800000D03*
%TO.N,SCL*%
X139150000Y-140050000D03*
X136300000Y-137500000D03*
X152750000Y-136750000D03*
%TO.N,3V3*%
X135400000Y-138600000D03*
X135400000Y-134800000D03*
X158550000Y-136450000D03*
X112450000Y-135250000D03*
X108550000Y-136300000D03*
%TO.N,Net-(J1-Pad10)*%
X126150000Y-108550000D03*
X155250000Y-136650000D03*
X155285000Y-138965000D03*
%TD*%
D14*
%TO.N,GND*%
X131900000Y-139200000D02*
X131900000Y-139200000D01*
X132400000Y-136400000D02*
X132400000Y-136400000D01*
D15*
X106500000Y-139300000D02*
X106500000Y-139300000D01*
D14*
X156555000Y-134950000D02*
X156555000Y-140450000D01*
X156555000Y-140450000D02*
X157825000Y-140450000D01*
X154015000Y-134950000D02*
X154015000Y-140450000D01*
D15*
%TO.N,VSOLAR*%
X159700000Y-139845000D02*
X159095000Y-140450000D01*
X159700000Y-137600000D02*
X159700000Y-139845000D01*
X159700000Y-135555000D02*
X159095000Y-134950000D01*
X159700000Y-137600000D02*
X159700000Y-135555000D01*
D14*
%TO.N,SDA*%
X152745000Y-138845000D02*
X152700000Y-138800000D01*
X152745000Y-140450000D02*
X152745000Y-138845000D01*
%TO.N,SCL*%
X152745000Y-136745000D02*
X152750000Y-136750000D01*
X152745000Y-134950000D02*
X152745000Y-136745000D01*
%TO.N,3V3*%
X135400000Y-138600000D02*
X135400000Y-138600000D01*
X135400000Y-135000000D02*
X135200000Y-134800000D01*
X157825000Y-135725000D02*
X158550000Y-136450000D01*
X157825000Y-134950000D02*
X157825000Y-135725000D01*
X112450000Y-135250000D02*
X109600000Y-135250000D01*
X109600000Y-135250000D02*
X108550000Y-136300000D01*
X108550000Y-136300000D02*
X108550000Y-136300000D01*
%TO.N,Net-(J1-Pad10)*%
X155285000Y-136615000D02*
X155250000Y-136650000D01*
X155285000Y-134950000D02*
X155285000Y-136615000D01*
X155285000Y-140450000D02*
X155285000Y-138965000D01*
X155285000Y-138965000D02*
X155285000Y-138915000D01*
%TD*%
D16*
%TO.N,GND*%
X171200139Y-40533555D02*
X170638705Y-40766108D01*
X170133427Y-41103724D01*
X169703724Y-41533427D01*
X169366108Y-42038705D01*
X169133555Y-42600139D01*
X169015000Y-43196154D01*
X169015000Y-43803846D01*
X169133555Y-44399861D01*
X169366108Y-44961295D01*
X169703724Y-45466573D01*
X170133427Y-45896276D01*
X170638705Y-46233892D01*
X171200139Y-46466445D01*
X171796154Y-46585000D01*
X172403846Y-46585000D01*
X172999861Y-46466445D01*
X173561295Y-46233892D01*
X174066573Y-45896276D01*
X174496276Y-45466573D01*
X174833892Y-44961295D01*
X175066445Y-44399861D01*
X175140001Y-44030071D01*
X175140000Y-135569924D01*
X175066445Y-135200139D01*
X174833892Y-134638705D01*
X174496276Y-134133427D01*
X174066573Y-133703724D01*
X173561295Y-133366108D01*
X172999861Y-133133555D01*
X172403846Y-133015000D01*
X171796154Y-133015000D01*
X171200139Y-133133555D01*
X170638705Y-133366108D01*
X170133427Y-133703724D01*
X169703724Y-134133427D01*
X169366108Y-134638705D01*
X169133555Y-135200139D01*
X169015000Y-135796154D01*
X169015000Y-136403846D01*
X169133555Y-136999861D01*
X169366108Y-137561295D01*
X169703724Y-138066573D01*
X170133427Y-138496276D01*
X170638705Y-138833892D01*
X171200139Y-139066445D01*
X171796154Y-139185000D01*
X172403846Y-139185000D01*
X172999861Y-139066445D01*
X173561295Y-138833892D01*
X174066573Y-138496276D01*
X174496276Y-138066573D01*
X174833892Y-137561295D01*
X175066445Y-136999861D01*
X175140000Y-136630076D01*
X175140000Y-140740000D01*
X162828072Y-140740000D01*
X162828072Y-138800000D01*
X162815812Y-138675518D01*
X162779502Y-138555820D01*
X162720537Y-138445506D01*
X162641185Y-138348815D01*
X162544494Y-138269463D01*
X162434180Y-138210498D01*
X162405000Y-138201646D01*
X162405000Y-137198354D01*
X162434180Y-137189502D01*
X162544494Y-137130537D01*
X162641185Y-137051185D01*
X162720537Y-136954494D01*
X162779502Y-136844180D01*
X162815812Y-136724482D01*
X162828072Y-136600000D01*
X162828072Y-133900000D01*
X162815812Y-133775518D01*
X162779502Y-133655820D01*
X162720537Y-133545506D01*
X162641185Y-133448815D01*
X162544494Y-133369463D01*
X162434180Y-133310498D01*
X162314482Y-133274188D01*
X162190000Y-133261928D01*
X160990000Y-133261928D01*
X160865518Y-133274188D01*
X160745820Y-133310498D01*
X160635506Y-133369463D01*
X160538815Y-133448815D01*
X160459463Y-133545506D01*
X160400498Y-133655820D01*
X160364188Y-133775518D01*
X160351928Y-133900000D01*
X160351928Y-134954344D01*
X160328817Y-134926183D01*
X160295049Y-134898470D01*
X160133072Y-134736493D01*
X160133072Y-134400000D01*
X160120812Y-134275518D01*
X160084502Y-134155820D01*
X160025537Y-134045506D01*
X159946185Y-133948815D01*
X159849494Y-133869463D01*
X159739180Y-133810498D01*
X159619482Y-133774188D01*
X159495000Y-133761928D01*
X158695000Y-133761928D01*
X158570518Y-133774188D01*
X158460000Y-133807713D01*
X158349482Y-133774188D01*
X158225000Y-133761928D01*
X157425000Y-133761928D01*
X157300518Y-133774188D01*
X157190000Y-133807713D01*
X157079482Y-133774188D01*
X156955000Y-133761928D01*
X156840750Y-133765000D01*
X156682000Y-133923750D01*
X156682000Y-134823000D01*
X156702000Y-134823000D01*
X156702000Y-135077000D01*
X156682000Y-135077000D01*
X156682000Y-135976250D01*
X156840750Y-136135000D01*
X156955000Y-136138072D01*
X157079482Y-136125812D01*
X157163811Y-136100231D01*
X157190026Y-136149276D01*
X157241119Y-136211532D01*
X157285000Y-136265001D01*
X157313998Y-136288799D01*
X157515000Y-136489801D01*
X157515000Y-136551939D01*
X157554774Y-136751898D01*
X157632795Y-136940256D01*
X157746063Y-137109774D01*
X157890226Y-137253937D01*
X158059744Y-137367205D01*
X158248102Y-137445226D01*
X158448061Y-137485000D01*
X158651939Y-137485000D01*
X158668243Y-137481757D01*
X158665000Y-137498061D01*
X158665000Y-137701939D01*
X158704774Y-137901898D01*
X158782795Y-138090256D01*
X158815000Y-138138455D01*
X158815001Y-139261928D01*
X158695000Y-139261928D01*
X158570518Y-139274188D01*
X158460000Y-139307713D01*
X158349482Y-139274188D01*
X158225000Y-139261928D01*
X158110750Y-139265000D01*
X157952000Y-139423750D01*
X157952000Y-140323000D01*
X157972000Y-140323000D01*
X157972000Y-140577000D01*
X157952000Y-140577000D01*
X157952000Y-140597000D01*
X157698000Y-140597000D01*
X157698000Y-140577000D01*
X156682000Y-140577000D01*
X156682000Y-140597000D01*
X156428000Y-140597000D01*
X156428000Y-140577000D01*
X156408000Y-140577000D01*
X156408000Y-140323000D01*
X156428000Y-140323000D01*
X156428000Y-139423750D01*
X156682000Y-139423750D01*
X156682000Y-140323000D01*
X157698000Y-140323000D01*
X157698000Y-139423750D01*
X157539250Y-139265000D01*
X157425000Y-139261928D01*
X157300518Y-139274188D01*
X157190000Y-139307713D01*
X157079482Y-139274188D01*
X156955000Y-139261928D01*
X156840750Y-139265000D01*
X156682000Y-139423750D01*
X156428000Y-139423750D01*
X156277567Y-139273317D01*
X156280226Y-139266898D01*
X156320000Y-139066939D01*
X156320000Y-138863061D01*
X156280226Y-138663102D01*
X156202205Y-138474744D01*
X156088937Y-138305226D01*
X155944774Y-138161063D01*
X155775256Y-138047795D01*
X155586898Y-137969774D01*
X155386939Y-137930000D01*
X155183061Y-137930000D01*
X154983102Y-137969774D01*
X154794744Y-138047795D01*
X154625226Y-138161063D01*
X154481063Y-138305226D01*
X154367795Y-138474744D01*
X154289774Y-138663102D01*
X154250000Y-138863061D01*
X154250000Y-139066939D01*
X154289774Y-139266898D01*
X154292433Y-139273317D01*
X154142000Y-139423750D01*
X154142000Y-140323000D01*
X154162000Y-140323000D01*
X154162000Y-140577000D01*
X154142000Y-140577000D01*
X154142000Y-140597000D01*
X153888000Y-140597000D01*
X153888000Y-140577000D01*
X153868000Y-140577000D01*
X153868000Y-140323000D01*
X153888000Y-140323000D01*
X153888000Y-139423750D01*
X153729250Y-139265000D01*
X153628785Y-139262299D01*
X153695226Y-139101898D01*
X153735000Y-138901939D01*
X153735000Y-138698061D01*
X153695226Y-138498102D01*
X153617205Y-138309744D01*
X153503937Y-138140226D01*
X153359774Y-137996063D01*
X153190256Y-137882795D01*
X153001898Y-137804774D01*
X152877213Y-137779973D01*
X153051898Y-137745226D01*
X153240256Y-137667205D01*
X153409774Y-137553937D01*
X153553937Y-137409774D01*
X153667205Y-137240256D01*
X153745226Y-137051898D01*
X153785000Y-136851939D01*
X153785000Y-136648061D01*
X153745226Y-136448102D01*
X153667205Y-136259744D01*
X153583857Y-136135005D01*
X153615000Y-136138072D01*
X153729250Y-136135000D01*
X153888000Y-135976250D01*
X153888000Y-135077000D01*
X153868000Y-135077000D01*
X153868000Y-134823000D01*
X153888000Y-134823000D01*
X153888000Y-133923750D01*
X154142000Y-133923750D01*
X154142000Y-134823000D01*
X154162000Y-134823000D01*
X154162000Y-135077000D01*
X154142000Y-135077000D01*
X154142000Y-135976250D01*
X154300750Y-136135000D01*
X154348471Y-136136283D01*
X154332795Y-136159744D01*
X154254774Y-136348102D01*
X154215000Y-136548061D01*
X154215000Y-136751939D01*
X154254774Y-136951898D01*
X154332795Y-137140256D01*
X154446063Y-137309774D01*
X154590226Y-137453937D01*
X154759744Y-137567205D01*
X154948102Y-137645226D01*
X155148061Y-137685000D01*
X155351939Y-137685000D01*
X155551898Y-137645226D01*
X155740256Y-137567205D01*
X155909774Y-137453937D01*
X156053937Y-137309774D01*
X156167205Y-137140256D01*
X156245226Y-136951898D01*
X156285000Y-136751939D01*
X156285000Y-136548061D01*
X156245226Y-136348102D01*
X156167205Y-136159744D01*
X156152564Y-136137832D01*
X156155000Y-136138072D01*
X156269250Y-136135000D01*
X156428000Y-135976250D01*
X156428000Y-135077000D01*
X156408000Y-135077000D01*
X156408000Y-134823000D01*
X156428000Y-134823000D01*
X156428000Y-133923750D01*
X156269250Y-133765000D01*
X156155000Y-133761928D01*
X156030518Y-133774188D01*
X155920000Y-133807713D01*
X155809482Y-133774188D01*
X155685000Y-133761928D01*
X154885000Y-133761928D01*
X154760518Y-133774188D01*
X154650000Y-133807713D01*
X154539482Y-133774188D01*
X154415000Y-133761928D01*
X154300750Y-133765000D01*
X154142000Y-133923750D01*
X153888000Y-133923750D01*
X153729250Y-133765000D01*
X153615000Y-133761928D01*
X153490518Y-133774188D01*
X153380000Y-133807713D01*
X153269482Y-133774188D01*
X153145000Y-133761928D01*
X152345000Y-133761928D01*
X152220518Y-133774188D01*
X152100820Y-133810498D01*
X151990506Y-133869463D01*
X151893815Y-133948815D01*
X151814463Y-134045506D01*
X151755498Y-134155820D01*
X151719188Y-134275518D01*
X151706928Y-134400000D01*
X151706928Y-135500000D01*
X151719188Y-135624482D01*
X151755498Y-135744180D01*
X151814463Y-135854494D01*
X151893815Y-135951185D01*
X151985001Y-136026019D01*
X151985001Y-136051288D01*
X151946063Y-136090226D01*
X151832795Y-136259744D01*
X151754774Y-136448102D01*
X151715000Y-136648061D01*
X151715000Y-136648373D01*
X151510057Y-136480181D01*
X151488072Y-136468430D01*
X151488072Y-133900000D01*
X151475812Y-133775518D01*
X151439502Y-133655820D01*
X151380537Y-133545506D01*
X151301185Y-133448815D01*
X151204494Y-133369463D01*
X151094180Y-133310498D01*
X150974482Y-133274188D01*
X150850000Y-133261928D01*
X149650000Y-133261928D01*
X149525518Y-133274188D01*
X149405820Y-133310498D01*
X149295506Y-133369463D01*
X149198815Y-133448815D01*
X149119463Y-133545506D01*
X149060498Y-133655820D01*
X149024188Y-133775518D01*
X149011928Y-133900000D01*
X149011928Y-136600000D01*
X149024188Y-136724482D01*
X149060498Y-136844180D01*
X149119463Y-136954494D01*
X149160971Y-137005072D01*
X149089610Y-137138579D01*
X149006125Y-137413790D01*
X148977936Y-137700000D01*
X149006125Y-137986210D01*
X149089610Y-138261421D01*
X149160971Y-138394928D01*
X149119463Y-138445506D01*
X149060498Y-138555820D01*
X149024188Y-138675518D01*
X149011928Y-138800000D01*
X149011928Y-140740000D01*
X139923711Y-140740000D01*
X139953937Y-140709774D01*
X140067205Y-140540256D01*
X140145226Y-140351898D01*
X140185000Y-140151939D01*
X140185000Y-139948061D01*
X140145226Y-139748102D01*
X140067205Y-139559744D01*
X139953937Y-139390226D01*
X139809774Y-139246063D01*
X139640256Y-139132795D01*
X139451898Y-139054774D01*
X139251939Y-139015000D01*
X139048061Y-139015000D01*
X138848102Y-139054774D01*
X138659744Y-139132795D01*
X138490226Y-139246063D01*
X138346063Y-139390226D01*
X138232795Y-139559744D01*
X138154774Y-139748102D01*
X138115000Y-139948061D01*
X138115000Y-140151939D01*
X138154774Y-140351898D01*
X138232795Y-140540256D01*
X138346063Y-140709774D01*
X138376289Y-140740000D01*
X136507538Y-140740000D01*
X136535000Y-140601939D01*
X136535000Y-140398061D01*
X136495226Y-140198102D01*
X136417205Y-140009744D01*
X136303937Y-139840226D01*
X136159774Y-139696063D01*
X135990256Y-139582795D01*
X135861082Y-139529289D01*
X135890256Y-139517205D01*
X136059774Y-139403937D01*
X136203937Y-139259774D01*
X136317205Y-139090256D01*
X136395226Y-138901898D01*
X136435000Y-138701939D01*
X136435000Y-138528424D01*
X136601898Y-138495226D01*
X136790256Y-138417205D01*
X136959774Y-138303937D01*
X137103937Y-138159774D01*
X137217205Y-137990256D01*
X137295226Y-137801898D01*
X137335000Y-137601939D01*
X137335000Y-137398061D01*
X137295226Y-137198102D01*
X137217205Y-137009744D01*
X137103937Y-136840226D01*
X136959774Y-136696063D01*
X136790256Y-136582795D01*
X136601898Y-136504774D01*
X136401939Y-136465000D01*
X136198061Y-136465000D01*
X135998102Y-136504774D01*
X135809744Y-136582795D01*
X135640226Y-136696063D01*
X135496063Y-136840226D01*
X135382795Y-137009744D01*
X135304774Y-137198102D01*
X135265000Y-137398061D01*
X135265000Y-137571576D01*
X135098102Y-137604774D01*
X134909744Y-137682795D01*
X134740226Y-137796063D01*
X134596063Y-137940226D01*
X134482795Y-138109744D01*
X134404774Y-138298102D01*
X134365000Y-138498061D01*
X134365000Y-138701939D01*
X134404774Y-138901898D01*
X134482795Y-139090256D01*
X134596063Y-139259774D01*
X134740226Y-139403937D01*
X134909744Y-139517205D01*
X135038918Y-139570711D01*
X135009744Y-139582795D01*
X134840226Y-139696063D01*
X134696063Y-139840226D01*
X134582795Y-140009744D01*
X134504774Y-140198102D01*
X134465000Y-140398061D01*
X134465000Y-140601939D01*
X134492462Y-140740000D01*
X127387511Y-140740000D01*
X127410000Y-140626939D01*
X127410000Y-140423061D01*
X127370226Y-140223102D01*
X127292205Y-140034744D01*
X127178937Y-139865226D01*
X127034774Y-139721063D01*
X126865256Y-139607795D01*
X126676898Y-139529774D01*
X126476939Y-139490000D01*
X126273061Y-139490000D01*
X126073102Y-139529774D01*
X125884744Y-139607795D01*
X125715226Y-139721063D01*
X125571063Y-139865226D01*
X125457795Y-140034744D01*
X125379774Y-140223102D01*
X125340000Y-140423061D01*
X125340000Y-140626939D01*
X125362489Y-140740000D01*
X93460000Y-140740000D01*
X93460000Y-136630076D01*
X93533555Y-136999861D01*
X93766108Y-137561295D01*
X94103724Y-138066573D01*
X94533427Y-138496276D01*
X95038705Y-138833892D01*
X95600139Y-139066445D01*
X96196154Y-139185000D01*
X96803846Y-139185000D01*
X97399861Y-139066445D01*
X97961295Y-138833892D01*
X98466573Y-138496276D01*
X98896276Y-138066573D01*
X99233892Y-137561295D01*
X99466445Y-136999861D01*
X99585000Y-136403846D01*
X99585000Y-136198061D01*
X107515000Y-136198061D01*
X107515000Y-136401939D01*
X107554774Y-136601898D01*
X107632795Y-136790256D01*
X107746063Y-136959774D01*
X107890226Y-137103937D01*
X108059744Y-137217205D01*
X108248102Y-137295226D01*
X108448061Y-137335000D01*
X108651939Y-137335000D01*
X108851898Y-137295226D01*
X109040256Y-137217205D01*
X109209774Y-137103937D01*
X109353937Y-136959774D01*
X109467205Y-136790256D01*
X109545226Y-136601898D01*
X109585000Y-136401939D01*
X109585000Y-136339801D01*
X109914802Y-136010000D01*
X111746289Y-136010000D01*
X111790226Y-136053937D01*
X111959744Y-136167205D01*
X112148102Y-136245226D01*
X112348061Y-136285000D01*
X112551939Y-136285000D01*
X112751898Y-136245226D01*
X112940256Y-136167205D01*
X113109774Y-136053937D01*
X113253937Y-135909774D01*
X113367205Y-135740256D01*
X113445226Y-135551898D01*
X113485000Y-135351939D01*
X113485000Y-135148061D01*
X113445226Y-134948102D01*
X113367205Y-134759744D01*
X113325990Y-134698061D01*
X134365000Y-134698061D01*
X134365000Y-134901939D01*
X134404774Y-135101898D01*
X134482795Y-135290256D01*
X134596063Y-135459774D01*
X134740226Y-135603937D01*
X134909744Y-135717205D01*
X135098102Y-135795226D01*
X135298061Y-135835000D01*
X135501939Y-135835000D01*
X135701898Y-135795226D01*
X135890256Y-135717205D01*
X136059774Y-135603937D01*
X136203937Y-135459774D01*
X136317205Y-135290256D01*
X136395226Y-135101898D01*
X136435000Y-134901939D01*
X136435000Y-134698061D01*
X136395226Y-134498102D01*
X136317205Y-134309744D01*
X136203937Y-134140226D01*
X136059774Y-133996063D01*
X135890256Y-133882795D01*
X135701898Y-133804774D01*
X135501939Y-133765000D01*
X135298061Y-133765000D01*
X135098102Y-133804774D01*
X134909744Y-133882795D01*
X134740226Y-133996063D01*
X134596063Y-134140226D01*
X134482795Y-134309744D01*
X134404774Y-134498102D01*
X134365000Y-134698061D01*
X113325990Y-134698061D01*
X113253937Y-134590226D01*
X113109774Y-134446063D01*
X112940256Y-134332795D01*
X112751898Y-134254774D01*
X112551939Y-134215000D01*
X112348061Y-134215000D01*
X112148102Y-134254774D01*
X111959744Y-134332795D01*
X111790226Y-134446063D01*
X111746289Y-134490000D01*
X109637322Y-134490000D01*
X109599999Y-134486324D01*
X109562676Y-134490000D01*
X109562667Y-134490000D01*
X109451014Y-134500997D01*
X109307753Y-134544454D01*
X109175724Y-134615026D01*
X109059999Y-134709999D01*
X109036201Y-134738997D01*
X108510199Y-135265000D01*
X108448061Y-135265000D01*
X108248102Y-135304774D01*
X108059744Y-135382795D01*
X107890226Y-135496063D01*
X107746063Y-135640226D01*
X107632795Y-135809744D01*
X107554774Y-135998102D01*
X107515000Y-136198061D01*
X99585000Y-136198061D01*
X99585000Y-135796154D01*
X99466445Y-135200139D01*
X99233892Y-134638705D01*
X98896276Y-134133427D01*
X98466573Y-133703724D01*
X97961295Y-133366108D01*
X97399861Y-133133555D01*
X96803846Y-133015000D01*
X96196154Y-133015000D01*
X95600139Y-133133555D01*
X95038705Y-133366108D01*
X94533427Y-133703724D01*
X94103724Y-134133427D01*
X93766108Y-134638705D01*
X93533555Y-135200139D01*
X93460000Y-135569924D01*
X93460000Y-108448061D01*
X125115000Y-108448061D01*
X125115000Y-108651939D01*
X125154774Y-108851898D01*
X125232795Y-109040256D01*
X125346063Y-109209774D01*
X125490226Y-109353937D01*
X125659744Y-109467205D01*
X125848102Y-109545226D01*
X126048061Y-109585000D01*
X126251939Y-109585000D01*
X126451898Y-109545226D01*
X126640256Y-109467205D01*
X126809774Y-109353937D01*
X126953937Y-109209774D01*
X127067205Y-109040256D01*
X127145226Y-108851898D01*
X127185000Y-108651939D01*
X127185000Y-108448061D01*
X127145226Y-108248102D01*
X127067205Y-108059744D01*
X126953937Y-107890226D01*
X126809774Y-107746063D01*
X126640256Y-107632795D01*
X126451898Y-107554774D01*
X126251939Y-107515000D01*
X126048061Y-107515000D01*
X125848102Y-107554774D01*
X125659744Y-107632795D01*
X125490226Y-107746063D01*
X125346063Y-107890226D01*
X125232795Y-108059744D01*
X125154774Y-108248102D01*
X125115000Y-108448061D01*
X93460000Y-108448061D01*
X93460000Y-44030076D01*
X93533555Y-44399861D01*
X93766108Y-44961295D01*
X94103724Y-45466573D01*
X94533427Y-45896276D01*
X95038705Y-46233892D01*
X95600139Y-46466445D01*
X96196154Y-46585000D01*
X96803846Y-46585000D01*
X97399861Y-46466445D01*
X97961295Y-46233892D01*
X98466573Y-45896276D01*
X98896276Y-45466573D01*
X99233892Y-44961295D01*
X99466445Y-44399861D01*
X99585000Y-43803846D01*
X99585000Y-43196154D01*
X99466445Y-42600139D01*
X99233892Y-42038705D01*
X98896276Y-41533427D01*
X98466573Y-41103724D01*
X97961295Y-40766108D01*
X97399861Y-40533555D01*
X97030076Y-40460000D01*
X171569924Y-40460000D01*
X171200139Y-40533555D01*
%TA.AperFunction,Conductor*%
D17*
G36*
X171200139Y-40533555D02*
G01*
X170638705Y-40766108D01*
X170133427Y-41103724D01*
X169703724Y-41533427D01*
X169366108Y-42038705D01*
X169133555Y-42600139D01*
X169015000Y-43196154D01*
X169015000Y-43803846D01*
X169133555Y-44399861D01*
X169366108Y-44961295D01*
X169703724Y-45466573D01*
X170133427Y-45896276D01*
X170638705Y-46233892D01*
X171200139Y-46466445D01*
X171796154Y-46585000D01*
X172403846Y-46585000D01*
X172999861Y-46466445D01*
X173561295Y-46233892D01*
X174066573Y-45896276D01*
X174496276Y-45466573D01*
X174833892Y-44961295D01*
X175066445Y-44399861D01*
X175140001Y-44030071D01*
X175140000Y-135569924D01*
X175066445Y-135200139D01*
X174833892Y-134638705D01*
X174496276Y-134133427D01*
X174066573Y-133703724D01*
X173561295Y-133366108D01*
X172999861Y-133133555D01*
X172403846Y-133015000D01*
X171796154Y-133015000D01*
X171200139Y-133133555D01*
X170638705Y-133366108D01*
X170133427Y-133703724D01*
X169703724Y-134133427D01*
X169366108Y-134638705D01*
X169133555Y-135200139D01*
X169015000Y-135796154D01*
X169015000Y-136403846D01*
X169133555Y-136999861D01*
X169366108Y-137561295D01*
X169703724Y-138066573D01*
X170133427Y-138496276D01*
X170638705Y-138833892D01*
X171200139Y-139066445D01*
X171796154Y-139185000D01*
X172403846Y-139185000D01*
X172999861Y-139066445D01*
X173561295Y-138833892D01*
X174066573Y-138496276D01*
X174496276Y-138066573D01*
X174833892Y-137561295D01*
X175066445Y-136999861D01*
X175140000Y-136630076D01*
X175140000Y-140740000D01*
X162828072Y-140740000D01*
X162828072Y-138800000D01*
X162815812Y-138675518D01*
X162779502Y-138555820D01*
X162720537Y-138445506D01*
X162641185Y-138348815D01*
X162544494Y-138269463D01*
X162434180Y-138210498D01*
X162405000Y-138201646D01*
X162405000Y-137198354D01*
X162434180Y-137189502D01*
X162544494Y-137130537D01*
X162641185Y-137051185D01*
X162720537Y-136954494D01*
X162779502Y-136844180D01*
X162815812Y-136724482D01*
X162828072Y-136600000D01*
X162828072Y-133900000D01*
X162815812Y-133775518D01*
X162779502Y-133655820D01*
X162720537Y-133545506D01*
X162641185Y-133448815D01*
X162544494Y-133369463D01*
X162434180Y-133310498D01*
X162314482Y-133274188D01*
X162190000Y-133261928D01*
X160990000Y-133261928D01*
X160865518Y-133274188D01*
X160745820Y-133310498D01*
X160635506Y-133369463D01*
X160538815Y-133448815D01*
X160459463Y-133545506D01*
X160400498Y-133655820D01*
X160364188Y-133775518D01*
X160351928Y-133900000D01*
X160351928Y-134954344D01*
X160328817Y-134926183D01*
X160295049Y-134898470D01*
X160133072Y-134736493D01*
X160133072Y-134400000D01*
X160120812Y-134275518D01*
X160084502Y-134155820D01*
X160025537Y-134045506D01*
X159946185Y-133948815D01*
X159849494Y-133869463D01*
X159739180Y-133810498D01*
X159619482Y-133774188D01*
X159495000Y-133761928D01*
X158695000Y-133761928D01*
X158570518Y-133774188D01*
X158460000Y-133807713D01*
X158349482Y-133774188D01*
X158225000Y-133761928D01*
X157425000Y-133761928D01*
X157300518Y-133774188D01*
X157190000Y-133807713D01*
X157079482Y-133774188D01*
X156955000Y-133761928D01*
X156840750Y-133765000D01*
X156682000Y-133923750D01*
X156682000Y-134823000D01*
X156702000Y-134823000D01*
X156702000Y-135077000D01*
X156682000Y-135077000D01*
X156682000Y-135976250D01*
X156840750Y-136135000D01*
X156955000Y-136138072D01*
X157079482Y-136125812D01*
X157163811Y-136100231D01*
X157190026Y-136149276D01*
X157241119Y-136211532D01*
X157285000Y-136265001D01*
X157313998Y-136288799D01*
X157515000Y-136489801D01*
X157515000Y-136551939D01*
X157554774Y-136751898D01*
X157632795Y-136940256D01*
X157746063Y-137109774D01*
X157890226Y-137253937D01*
X158059744Y-137367205D01*
X158248102Y-137445226D01*
X158448061Y-137485000D01*
X158651939Y-137485000D01*
X158668243Y-137481757D01*
X158665000Y-137498061D01*
X158665000Y-137701939D01*
X158704774Y-137901898D01*
X158782795Y-138090256D01*
X158815000Y-138138455D01*
X158815001Y-139261928D01*
X158695000Y-139261928D01*
X158570518Y-139274188D01*
X158460000Y-139307713D01*
X158349482Y-139274188D01*
X158225000Y-139261928D01*
X158110750Y-139265000D01*
X157952000Y-139423750D01*
X157952000Y-140323000D01*
X157972000Y-140323000D01*
X157972000Y-140577000D01*
X157952000Y-140577000D01*
X157952000Y-140597000D01*
X157698000Y-140597000D01*
X157698000Y-140577000D01*
X156682000Y-140577000D01*
X156682000Y-140597000D01*
X156428000Y-140597000D01*
X156428000Y-140577000D01*
X156408000Y-140577000D01*
X156408000Y-140323000D01*
X156428000Y-140323000D01*
X156428000Y-139423750D01*
X156682000Y-139423750D01*
X156682000Y-140323000D01*
X157698000Y-140323000D01*
X157698000Y-139423750D01*
X157539250Y-139265000D01*
X157425000Y-139261928D01*
X157300518Y-139274188D01*
X157190000Y-139307713D01*
X157079482Y-139274188D01*
X156955000Y-139261928D01*
X156840750Y-139265000D01*
X156682000Y-139423750D01*
X156428000Y-139423750D01*
X156277567Y-139273317D01*
X156280226Y-139266898D01*
X156320000Y-139066939D01*
X156320000Y-138863061D01*
X156280226Y-138663102D01*
X156202205Y-138474744D01*
X156088937Y-138305226D01*
X155944774Y-138161063D01*
X155775256Y-138047795D01*
X155586898Y-137969774D01*
X155386939Y-137930000D01*
X155183061Y-137930000D01*
X154983102Y-137969774D01*
X154794744Y-138047795D01*
X154625226Y-138161063D01*
X154481063Y-138305226D01*
X154367795Y-138474744D01*
X154289774Y-138663102D01*
X154250000Y-138863061D01*
X154250000Y-139066939D01*
X154289774Y-139266898D01*
X154292433Y-139273317D01*
X154142000Y-139423750D01*
X154142000Y-140323000D01*
X154162000Y-140323000D01*
X154162000Y-140577000D01*
X154142000Y-140577000D01*
X154142000Y-140597000D01*
X153888000Y-140597000D01*
X153888000Y-140577000D01*
X153868000Y-140577000D01*
X153868000Y-140323000D01*
X153888000Y-140323000D01*
X153888000Y-139423750D01*
X153729250Y-139265000D01*
X153628785Y-139262299D01*
X153695226Y-139101898D01*
X153735000Y-138901939D01*
X153735000Y-138698061D01*
X153695226Y-138498102D01*
X153617205Y-138309744D01*
X153503937Y-138140226D01*
X153359774Y-137996063D01*
X153190256Y-137882795D01*
X153001898Y-137804774D01*
X152877213Y-137779973D01*
X153051898Y-137745226D01*
X153240256Y-137667205D01*
X153409774Y-137553937D01*
X153553937Y-137409774D01*
X153667205Y-137240256D01*
X153745226Y-137051898D01*
X153785000Y-136851939D01*
X153785000Y-136648061D01*
X153745226Y-136448102D01*
X153667205Y-136259744D01*
X153583857Y-136135005D01*
X153615000Y-136138072D01*
X153729250Y-136135000D01*
X153888000Y-135976250D01*
X153888000Y-135077000D01*
X153868000Y-135077000D01*
X153868000Y-134823000D01*
X153888000Y-134823000D01*
X153888000Y-133923750D01*
X154142000Y-133923750D01*
X154142000Y-134823000D01*
X154162000Y-134823000D01*
X154162000Y-135077000D01*
X154142000Y-135077000D01*
X154142000Y-135976250D01*
X154300750Y-136135000D01*
X154348471Y-136136283D01*
X154332795Y-136159744D01*
X154254774Y-136348102D01*
X154215000Y-136548061D01*
X154215000Y-136751939D01*
X154254774Y-136951898D01*
X154332795Y-137140256D01*
X154446063Y-137309774D01*
X154590226Y-137453937D01*
X154759744Y-137567205D01*
X154948102Y-137645226D01*
X155148061Y-137685000D01*
X155351939Y-137685000D01*
X155551898Y-137645226D01*
X155740256Y-137567205D01*
X155909774Y-137453937D01*
X156053937Y-137309774D01*
X156167205Y-137140256D01*
X156245226Y-136951898D01*
X156285000Y-136751939D01*
X156285000Y-136548061D01*
X156245226Y-136348102D01*
X156167205Y-136159744D01*
X156152564Y-136137832D01*
X156155000Y-136138072D01*
X156269250Y-136135000D01*
X156428000Y-135976250D01*
X156428000Y-135077000D01*
X156408000Y-135077000D01*
X156408000Y-134823000D01*
X156428000Y-134823000D01*
X156428000Y-133923750D01*
X156269250Y-133765000D01*
X156155000Y-133761928D01*
X156030518Y-133774188D01*
X155920000Y-133807713D01*
X155809482Y-133774188D01*
X155685000Y-133761928D01*
X154885000Y-133761928D01*
X154760518Y-133774188D01*
X154650000Y-133807713D01*
X154539482Y-133774188D01*
X154415000Y-133761928D01*
X154300750Y-133765000D01*
X154142000Y-133923750D01*
X153888000Y-133923750D01*
X153729250Y-133765000D01*
X153615000Y-133761928D01*
X153490518Y-133774188D01*
X153380000Y-133807713D01*
X153269482Y-133774188D01*
X153145000Y-133761928D01*
X152345000Y-133761928D01*
X152220518Y-133774188D01*
X152100820Y-133810498D01*
X151990506Y-133869463D01*
X151893815Y-133948815D01*
X151814463Y-134045506D01*
X151755498Y-134155820D01*
X151719188Y-134275518D01*
X151706928Y-134400000D01*
X151706928Y-135500000D01*
X151719188Y-135624482D01*
X151755498Y-135744180D01*
X151814463Y-135854494D01*
X151893815Y-135951185D01*
X151985001Y-136026019D01*
X151985001Y-136051288D01*
X151946063Y-136090226D01*
X151832795Y-136259744D01*
X151754774Y-136448102D01*
X151715000Y-136648061D01*
X151715000Y-136648373D01*
X151510057Y-136480181D01*
X151488072Y-136468430D01*
X151488072Y-133900000D01*
X151475812Y-133775518D01*
X151439502Y-133655820D01*
X151380537Y-133545506D01*
X151301185Y-133448815D01*
X151204494Y-133369463D01*
X151094180Y-133310498D01*
X150974482Y-133274188D01*
X150850000Y-133261928D01*
X149650000Y-133261928D01*
X149525518Y-133274188D01*
X149405820Y-133310498D01*
X149295506Y-133369463D01*
X149198815Y-133448815D01*
X149119463Y-133545506D01*
X149060498Y-133655820D01*
X149024188Y-133775518D01*
X149011928Y-133900000D01*
X149011928Y-136600000D01*
X149024188Y-136724482D01*
X149060498Y-136844180D01*
X149119463Y-136954494D01*
X149160971Y-137005072D01*
X149089610Y-137138579D01*
X149006125Y-137413790D01*
X148977936Y-137700000D01*
X149006125Y-137986210D01*
X149089610Y-138261421D01*
X149160971Y-138394928D01*
X149119463Y-138445506D01*
X149060498Y-138555820D01*
X149024188Y-138675518D01*
X149011928Y-138800000D01*
X149011928Y-140740000D01*
X139923711Y-140740000D01*
X139953937Y-140709774D01*
X140067205Y-140540256D01*
X140145226Y-140351898D01*
X140185000Y-140151939D01*
X140185000Y-139948061D01*
X140145226Y-139748102D01*
X140067205Y-139559744D01*
X139953937Y-139390226D01*
X139809774Y-139246063D01*
X139640256Y-139132795D01*
X139451898Y-139054774D01*
X139251939Y-139015000D01*
X139048061Y-139015000D01*
X138848102Y-139054774D01*
X138659744Y-139132795D01*
X138490226Y-139246063D01*
X138346063Y-139390226D01*
X138232795Y-139559744D01*
X138154774Y-139748102D01*
X138115000Y-139948061D01*
X138115000Y-140151939D01*
X138154774Y-140351898D01*
X138232795Y-140540256D01*
X138346063Y-140709774D01*
X138376289Y-140740000D01*
X136507538Y-140740000D01*
X136535000Y-140601939D01*
X136535000Y-140398061D01*
X136495226Y-140198102D01*
X136417205Y-140009744D01*
X136303937Y-139840226D01*
X136159774Y-139696063D01*
X135990256Y-139582795D01*
X135861082Y-139529289D01*
X135890256Y-139517205D01*
X136059774Y-139403937D01*
X136203937Y-139259774D01*
X136317205Y-139090256D01*
X136395226Y-138901898D01*
X136435000Y-138701939D01*
X136435000Y-138528424D01*
X136601898Y-138495226D01*
X136790256Y-138417205D01*
X136959774Y-138303937D01*
X137103937Y-138159774D01*
X137217205Y-137990256D01*
X137295226Y-137801898D01*
X137335000Y-137601939D01*
X137335000Y-137398061D01*
X137295226Y-137198102D01*
X137217205Y-137009744D01*
X137103937Y-136840226D01*
X136959774Y-136696063D01*
X136790256Y-136582795D01*
X136601898Y-136504774D01*
X136401939Y-136465000D01*
X136198061Y-136465000D01*
X135998102Y-136504774D01*
X135809744Y-136582795D01*
X135640226Y-136696063D01*
X135496063Y-136840226D01*
X135382795Y-137009744D01*
X135304774Y-137198102D01*
X135265000Y-137398061D01*
X135265000Y-137571576D01*
X135098102Y-137604774D01*
X134909744Y-137682795D01*
X134740226Y-137796063D01*
X134596063Y-137940226D01*
X134482795Y-138109744D01*
X134404774Y-138298102D01*
X134365000Y-138498061D01*
X134365000Y-138701939D01*
X134404774Y-138901898D01*
X134482795Y-139090256D01*
X134596063Y-139259774D01*
X134740226Y-139403937D01*
X134909744Y-139517205D01*
X135038918Y-139570711D01*
X135009744Y-139582795D01*
X134840226Y-139696063D01*
X134696063Y-139840226D01*
X134582795Y-140009744D01*
X134504774Y-140198102D01*
X134465000Y-140398061D01*
X134465000Y-140601939D01*
X134492462Y-140740000D01*
X127387511Y-140740000D01*
X127410000Y-140626939D01*
X127410000Y-140423061D01*
X127370226Y-140223102D01*
X127292205Y-140034744D01*
X127178937Y-139865226D01*
X127034774Y-139721063D01*
X126865256Y-139607795D01*
X126676898Y-139529774D01*
X126476939Y-139490000D01*
X126273061Y-139490000D01*
X126073102Y-139529774D01*
X125884744Y-139607795D01*
X125715226Y-139721063D01*
X125571063Y-139865226D01*
X125457795Y-140034744D01*
X125379774Y-140223102D01*
X125340000Y-140423061D01*
X125340000Y-140626939D01*
X125362489Y-140740000D01*
X93460000Y-140740000D01*
X93460000Y-136630076D01*
X93533555Y-136999861D01*
X93766108Y-137561295D01*
X94103724Y-138066573D01*
X94533427Y-138496276D01*
X95038705Y-138833892D01*
X95600139Y-139066445D01*
X96196154Y-139185000D01*
X96803846Y-139185000D01*
X97399861Y-139066445D01*
X97961295Y-138833892D01*
X98466573Y-138496276D01*
X98896276Y-138066573D01*
X99233892Y-137561295D01*
X99466445Y-136999861D01*
X99585000Y-136403846D01*
X99585000Y-136198061D01*
X107515000Y-136198061D01*
X107515000Y-136401939D01*
X107554774Y-136601898D01*
X107632795Y-136790256D01*
X107746063Y-136959774D01*
X107890226Y-137103937D01*
X108059744Y-137217205D01*
X108248102Y-137295226D01*
X108448061Y-137335000D01*
X108651939Y-137335000D01*
X108851898Y-137295226D01*
X109040256Y-137217205D01*
X109209774Y-137103937D01*
X109353937Y-136959774D01*
X109467205Y-136790256D01*
X109545226Y-136601898D01*
X109585000Y-136401939D01*
X109585000Y-136339801D01*
X109914802Y-136010000D01*
X111746289Y-136010000D01*
X111790226Y-136053937D01*
X111959744Y-136167205D01*
X112148102Y-136245226D01*
X112348061Y-136285000D01*
X112551939Y-136285000D01*
X112751898Y-136245226D01*
X112940256Y-136167205D01*
X113109774Y-136053937D01*
X113253937Y-135909774D01*
X113367205Y-135740256D01*
X113445226Y-135551898D01*
X113485000Y-135351939D01*
X113485000Y-135148061D01*
X113445226Y-134948102D01*
X113367205Y-134759744D01*
X113325990Y-134698061D01*
X134365000Y-134698061D01*
X134365000Y-134901939D01*
X134404774Y-135101898D01*
X134482795Y-135290256D01*
X134596063Y-135459774D01*
X134740226Y-135603937D01*
X134909744Y-135717205D01*
X135098102Y-135795226D01*
X135298061Y-135835000D01*
X135501939Y-135835000D01*
X135701898Y-135795226D01*
X135890256Y-135717205D01*
X136059774Y-135603937D01*
X136203937Y-135459774D01*
X136317205Y-135290256D01*
X136395226Y-135101898D01*
X136435000Y-134901939D01*
X136435000Y-134698061D01*
X136395226Y-134498102D01*
X136317205Y-134309744D01*
X136203937Y-134140226D01*
X136059774Y-133996063D01*
X135890256Y-133882795D01*
X135701898Y-133804774D01*
X135501939Y-133765000D01*
X135298061Y-133765000D01*
X135098102Y-133804774D01*
X134909744Y-133882795D01*
X134740226Y-133996063D01*
X134596063Y-134140226D01*
X134482795Y-134309744D01*
X134404774Y-134498102D01*
X134365000Y-134698061D01*
X113325990Y-134698061D01*
X113253937Y-134590226D01*
X113109774Y-134446063D01*
X112940256Y-134332795D01*
X112751898Y-134254774D01*
X112551939Y-134215000D01*
X112348061Y-134215000D01*
X112148102Y-134254774D01*
X111959744Y-134332795D01*
X111790226Y-134446063D01*
X111746289Y-134490000D01*
X109637322Y-134490000D01*
X109599999Y-134486324D01*
X109562676Y-134490000D01*
X109562667Y-134490000D01*
X109451014Y-134500997D01*
X109307753Y-134544454D01*
X109175724Y-134615026D01*
X109059999Y-134709999D01*
X109036201Y-134738997D01*
X108510199Y-135265000D01*
X108448061Y-135265000D01*
X108248102Y-135304774D01*
X108059744Y-135382795D01*
X107890226Y-135496063D01*
X107746063Y-135640226D01*
X107632795Y-135809744D01*
X107554774Y-135998102D01*
X107515000Y-136198061D01*
X99585000Y-136198061D01*
X99585000Y-135796154D01*
X99466445Y-135200139D01*
X99233892Y-134638705D01*
X98896276Y-134133427D01*
X98466573Y-133703724D01*
X97961295Y-133366108D01*
X97399861Y-133133555D01*
X96803846Y-133015000D01*
X96196154Y-133015000D01*
X95600139Y-133133555D01*
X95038705Y-133366108D01*
X94533427Y-133703724D01*
X94103724Y-134133427D01*
X93766108Y-134638705D01*
X93533555Y-135200139D01*
X93460000Y-135569924D01*
X93460000Y-108448061D01*
X125115000Y-108448061D01*
X125115000Y-108651939D01*
X125154774Y-108851898D01*
X125232795Y-109040256D01*
X125346063Y-109209774D01*
X125490226Y-109353937D01*
X125659744Y-109467205D01*
X125848102Y-109545226D01*
X126048061Y-109585000D01*
X126251939Y-109585000D01*
X126451898Y-109545226D01*
X126640256Y-109467205D01*
X126809774Y-109353937D01*
X126953937Y-109209774D01*
X127067205Y-109040256D01*
X127145226Y-108851898D01*
X127185000Y-108651939D01*
X127185000Y-108448061D01*
X127145226Y-108248102D01*
X127067205Y-108059744D01*
X126953937Y-107890226D01*
X126809774Y-107746063D01*
X126640256Y-107632795D01*
X126451898Y-107554774D01*
X126251939Y-107515000D01*
X126048061Y-107515000D01*
X125848102Y-107554774D01*
X125659744Y-107632795D01*
X125490226Y-107746063D01*
X125346063Y-107890226D01*
X125232795Y-108059744D01*
X125154774Y-108248102D01*
X125115000Y-108448061D01*
X93460000Y-108448061D01*
X93460000Y-44030076D01*
X93533555Y-44399861D01*
X93766108Y-44961295D01*
X94103724Y-45466573D01*
X94533427Y-45896276D01*
X95038705Y-46233892D01*
X95600139Y-46466445D01*
X96196154Y-46585000D01*
X96803846Y-46585000D01*
X97399861Y-46466445D01*
X97961295Y-46233892D01*
X98466573Y-45896276D01*
X98896276Y-45466573D01*
X99233892Y-44961295D01*
X99466445Y-44399861D01*
X99585000Y-43803846D01*
X99585000Y-43196154D01*
X99466445Y-42600139D01*
X99233892Y-42038705D01*
X98896276Y-41533427D01*
X98466573Y-41103724D01*
X97961295Y-40766108D01*
X97399861Y-40533555D01*
X97030076Y-40460000D01*
X171569924Y-40460000D01*
X171200139Y-40533555D01*
G37*
%TD.AperFunction*%
%TD*%
M02*
