%TF.GenerationSoftware,KiCad,Pcbnew,(5.1.10)-1*%
%TF.CreationDate,2022-11-16T11:33:56-08:00*%
%TF.ProjectId,XYFaces,58594661-6365-4732-9e6b-696361645f70,1.0*%
%TF.SameCoordinates,Original*%
%TF.FileFunction,Soldermask,Top*%
%TF.FilePolarity,Negative*%
%FSLAX46Y46*%
G04 Gerber Fmt 4.6, Leading zero omitted, Abs format (unit mm)*
G04 Created by KiCad (PCBNEW (5.1.10)-1) date 2022-11-16 11:33:56*
%MOMM*%
%LPD*%
G01*
G04 APERTURE LIST*
%ADD10R,0.300000X0.750000*%
%ADD11R,1.450000X1.750000*%
%ADD12R,13.000000X3.000000*%
%ADD13R,0.600000X0.720000*%
%ADD14R,1.700000X2.500000*%
%ADD15O,1.000000X1.950000*%
%ADD16O,1.900000X1.650000*%
%ADD17R,2.500000X1.700000*%
%ADD18C,4.900000*%
%ADD19R,2.000000X2.000000*%
G04 APERTURE END LIST*
D10*
%TO.C,U2*%
X140150000Y-136050000D03*
X139650000Y-136050000D03*
X138650000Y-136050000D03*
X139150000Y-136050000D03*
X140150000Y-138950000D03*
X139650000Y-138950000D03*
X139150000Y-138950000D03*
X138650000Y-138950000D03*
D11*
X139400000Y-137500000D03*
%TD*%
D12*
%TO.C,SC1*%
X110900000Y-83500000D03*
X110900000Y-43500000D03*
%TD*%
%TO.C,SC4*%
X110700000Y-90100000D03*
X110700000Y-130100000D03*
%TD*%
D13*
%TO.C,U1*%
X126700000Y-139455000D03*
X126700000Y-136545000D03*
X125300000Y-139455000D03*
X125300000Y-136545000D03*
X125300000Y-137515000D03*
X126700000Y-137515000D03*
X125300000Y-138485000D03*
X126700000Y-138485000D03*
%TD*%
D14*
%TO.C,D1*%
X96200000Y-83500000D03*
X96200000Y-79500000D03*
%TD*%
D12*
%TO.C,SC6*%
X157500000Y-90100000D03*
X157500000Y-130100000D03*
%TD*%
%TO.C,SC5*%
X134100000Y-130100000D03*
X134100000Y-90100000D03*
%TD*%
%TO.C,SC3*%
X157700000Y-83500000D03*
X157700000Y-43500000D03*
%TD*%
%TO.C,SC2*%
X134300000Y-43500000D03*
X134300000Y-83500000D03*
%TD*%
D15*
%TO.C,J1*%
X161270000Y-137700000D03*
D16*
X150570000Y-137700000D03*
%TD*%
D17*
%TO.C,D7*%
X104300000Y-133900000D03*
X108300000Y-133900000D03*
%TD*%
D14*
%TO.C,D6*%
X172400000Y-90100000D03*
X172400000Y-94100000D03*
%TD*%
D17*
%TO.C,D5*%
X148400000Y-86800000D03*
X144400000Y-86800000D03*
%TD*%
D14*
%TO.C,D4*%
X96200000Y-90100000D03*
X96200000Y-94100000D03*
%TD*%
%TO.C,D3*%
X172400000Y-83500000D03*
X172400000Y-79500000D03*
%TD*%
D17*
%TO.C,D2*%
X124200000Y-86800000D03*
X120200000Y-86800000D03*
%TD*%
%TO.C,R2*%
G36*
G01*
X133625000Y-140125000D02*
X134175000Y-140125000D01*
G75*
G02*
X134375000Y-140325000I0J-200000D01*
G01*
X134375000Y-140725000D01*
G75*
G02*
X134175000Y-140925000I-200000J0D01*
G01*
X133625000Y-140925000D01*
G75*
G02*
X133425000Y-140725000I0J200000D01*
G01*
X133425000Y-140325000D01*
G75*
G02*
X133625000Y-140125000I200000J0D01*
G01*
G37*
G36*
G01*
X133625000Y-138475000D02*
X134175000Y-138475000D01*
G75*
G02*
X134375000Y-138675000I0J-200000D01*
G01*
X134375000Y-139075000D01*
G75*
G02*
X134175000Y-139275000I-200000J0D01*
G01*
X133625000Y-139275000D01*
G75*
G02*
X133425000Y-139075000I0J200000D01*
G01*
X133425000Y-138675000D01*
G75*
G02*
X133625000Y-138475000I200000J0D01*
G01*
G37*
%TD*%
%TO.C,R1*%
G36*
G01*
X133625000Y-137100000D02*
X134175000Y-137100000D01*
G75*
G02*
X134375000Y-137300000I0J-200000D01*
G01*
X134375000Y-137700000D01*
G75*
G02*
X134175000Y-137900000I-200000J0D01*
G01*
X133625000Y-137900000D01*
G75*
G02*
X133425000Y-137700000I0J200000D01*
G01*
X133425000Y-137300000D01*
G75*
G02*
X133625000Y-137100000I200000J0D01*
G01*
G37*
G36*
G01*
X133625000Y-135450000D02*
X134175000Y-135450000D01*
G75*
G02*
X134375000Y-135650000I0J-200000D01*
G01*
X134375000Y-136050000D01*
G75*
G02*
X134175000Y-136250000I-200000J0D01*
G01*
X133625000Y-136250000D01*
G75*
G02*
X133425000Y-136050000I0J200000D01*
G01*
X133425000Y-135650000D01*
G75*
G02*
X133625000Y-135450000I200000J0D01*
G01*
G37*
%TD*%
%TO.C,C3*%
G36*
G01*
X141525000Y-137500000D02*
X142475000Y-137500000D01*
G75*
G02*
X142725000Y-137750000I0J-250000D01*
G01*
X142725000Y-138250000D01*
G75*
G02*
X142475000Y-138500000I-250000J0D01*
G01*
X141525000Y-138500000D01*
G75*
G02*
X141275000Y-138250000I0J250000D01*
G01*
X141275000Y-137750000D01*
G75*
G02*
X141525000Y-137500000I250000J0D01*
G01*
G37*
G36*
G01*
X141525000Y-135600000D02*
X142475000Y-135600000D01*
G75*
G02*
X142725000Y-135850000I0J-250000D01*
G01*
X142725000Y-136350000D01*
G75*
G02*
X142475000Y-136600000I-250000J0D01*
G01*
X141525000Y-136600000D01*
G75*
G02*
X141275000Y-136350000I0J250000D01*
G01*
X141275000Y-135850000D01*
G75*
G02*
X141525000Y-135600000I250000J0D01*
G01*
G37*
%TD*%
%TO.C,C2*%
G36*
G01*
X129000000Y-138725000D02*
X129000000Y-139675000D01*
G75*
G02*
X128750000Y-139925000I-250000J0D01*
G01*
X128250000Y-139925000D01*
G75*
G02*
X128000000Y-139675000I0J250000D01*
G01*
X128000000Y-138725000D01*
G75*
G02*
X128250000Y-138475000I250000J0D01*
G01*
X128750000Y-138475000D01*
G75*
G02*
X129000000Y-138725000I0J-250000D01*
G01*
G37*
G36*
G01*
X130900000Y-138725000D02*
X130900000Y-139675000D01*
G75*
G02*
X130650000Y-139925000I-250000J0D01*
G01*
X130150000Y-139925000D01*
G75*
G02*
X129900000Y-139675000I0J250000D01*
G01*
X129900000Y-138725000D01*
G75*
G02*
X130150000Y-138475000I250000J0D01*
G01*
X130650000Y-138475000D01*
G75*
G02*
X130900000Y-138725000I0J-250000D01*
G01*
G37*
%TD*%
%TO.C,C1*%
G36*
G01*
X129900000Y-136475000D02*
X129900000Y-135525000D01*
G75*
G02*
X130150000Y-135275000I250000J0D01*
G01*
X130650000Y-135275000D01*
G75*
G02*
X130900000Y-135525000I0J-250000D01*
G01*
X130900000Y-136475000D01*
G75*
G02*
X130650000Y-136725000I-250000J0D01*
G01*
X130150000Y-136725000D01*
G75*
G02*
X129900000Y-136475000I0J250000D01*
G01*
G37*
G36*
G01*
X128000000Y-136475000D02*
X128000000Y-135525000D01*
G75*
G02*
X128250000Y-135275000I250000J0D01*
G01*
X128750000Y-135275000D01*
G75*
G02*
X129000000Y-135525000I0J-250000D01*
G01*
X129000000Y-136475000D01*
G75*
G02*
X128750000Y-136725000I-250000J0D01*
G01*
X128250000Y-136725000D01*
G75*
G02*
X128000000Y-136475000I0J250000D01*
G01*
G37*
%TD*%
D18*
%TO.C,J5*%
X172100000Y-136100000D03*
%TD*%
%TO.C,J4*%
X172100000Y-43500000D03*
%TD*%
%TO.C,J3*%
X96500000Y-136100000D03*
%TD*%
%TO.C,J2*%
X96500000Y-43500000D03*
%TD*%
D19*
%TO.C,J7*%
X114200000Y-139300000D03*
%TD*%
%TO.C,J6*%
X109800000Y-139300000D03*
%TD*%
M02*
